<svg width="43" height="9" viewBox="0 0 43 9" fill="none" xmlns="http://www.w3.org/2000/svg">
  <path d="M0.600098 7.0081C0.600098 6.9361 0.624098 6.8761 0.672098 6.8281L5.4001 2.1001V1.8001H0.600098V0.600098H6.6001V2.5921C6.6001 2.6641 6.5761 2.7241 6.5281 2.7721L1.8001 7.5001V7.8001H6.6001V9.0001H0.600098V7.0081Z" fill="white"/>
  <path d="M7.79541 9.0001V0.600098H8.99541V4.2001H10.4954V3.4801L12.5954 1.3801V0.600098H13.7954V1.7881C13.7954 1.8601 13.7714 1.9201 13.7234 1.9681L11.6954 3.9961V5.5921L13.7234 7.6201C13.7714 7.6681 13.7954 7.7281 13.7954 7.8001V9.0001H12.5954V8.2201L10.4954 6.1201V5.4001H8.99541V9.0001H7.79541Z" fill="white"/>
  <path d="M14.9907 9.0001V0.600098H19.5627C19.6227 0.600098 19.6947 0.624098 19.7427 0.672098L20.9187 1.8481C20.9667 1.8961 20.9907 1.9681 20.9907 2.0281V4.3321C20.9907 4.3921 20.9667 4.4641 20.9187 4.5121L19.7427 5.6881C19.6947 5.7361 19.6227 5.7601 19.5627 5.7601H16.1907V9.0001H14.9907ZM16.1907 4.5601H19.0707L19.7907 3.8401V2.5201L19.0707 1.8001H16.1907V4.5601Z" fill="white"/>
  <path d="M22.186 3.7081C22.186 3.6481 22.21 3.5761 22.258 3.5281L24.586 1.2001V0.600098H25.786V1.2001L28.114 3.5281C28.162 3.5761 28.186 3.6481 28.186 3.7081V9.0001H26.986V6.6001H23.386V9.0001H22.186V3.7081ZM23.386 5.4001H26.986V4.2001L25.186 2.4001L23.386 4.2001V5.4001Z" fill="white"/>
  <path d="M30.8093 9.0001C30.7493 9.0001 30.6773 8.9761 30.6293 8.9281L29.4533 7.7521C29.4053 7.7041 29.3813 7.6321 29.3813 7.5721V6.0001H30.5813V7.0801L31.3013 7.8001H33.4613L34.1813 7.0801V6.1201L33.4613 5.4001H30.8093C30.7493 5.4001 30.6773 5.3761 30.6293 5.3281L29.4533 4.1521C29.4053 4.1041 29.3813 4.0321 29.3813 3.9721V2.0281C29.3813 1.9681 29.4053 1.8961 29.4533 1.8481L30.6293 0.672098C30.6773 0.624098 30.7493 0.600098 30.8093 0.600098H33.9533C34.0133 0.600098 34.0853 0.624098 34.1333 0.672098L35.3093 1.8481C35.3573 1.8961 35.3813 1.9681 35.3813 2.0281V3.6001H34.1813V2.5201L33.4613 1.8001H31.3013L30.5813 2.5201V3.4801L31.3013 4.2001H33.9533C34.0133 4.2001 34.0853 4.2241 34.1333 4.2721L35.3093 5.4481C35.3573 5.4961 35.3813 5.5681 35.3813 5.6281V7.5721C35.3813 7.6321 35.3573 7.7041 35.3093 7.7521L34.1333 8.9281C34.0853 8.9761 34.0133 9.0001 33.9533 9.0001H30.8093Z" fill="white"/>
  <path d="M38.0047 9.0001C37.9447 9.0001 37.8727 8.9761 37.8247 8.9281L36.6487 7.7521C36.6007 7.7041 36.5767 7.6321 36.5767 7.5721V6.0001H37.7767V7.0801L38.4967 7.8001H40.6567L41.3767 7.0801V6.1201L40.6567 5.4001H38.0047C37.9447 5.4001 37.8727 5.3761 37.8247 5.3281L36.6487 4.1521C36.6007 4.1041 36.5767 4.0321 36.5767 3.9721V2.0281C36.5767 1.9681 36.6007 1.8961 36.6487 1.8481L37.8247 0.672098C37.8727 0.624098 37.9447 0.600098 38.0047 0.600098H41.1487C41.2087 0.600098 41.2807 0.624098 41.3287 0.672098L42.5047 1.8481C42.5527 1.8961 42.5767 1.9681 42.5767 2.0281V3.6001H41.3767V2.5201L40.6567 1.8001H38.4967L37.7767 2.5201V3.4801L38.4967 4.2001H41.1487C41.2087 4.2001 41.2807 4.2241 41.3287 4.2721L42.5047 5.4481C42.5527 5.4961 42.5767 5.5681 42.5767 5.6281V7.5721C42.5767 7.6321 42.5527 7.7041 42.5047 7.7521L41.3287 8.9281C41.2807 8.9761 41.2087 9.0001 41.1487 9.0001H38.0047Z" fill="white"/>
</svg>