<svg width="252" height="168" viewBox="0 0 252 168" fill="none" xmlns="http://www.w3.org/2000/svg">
<rect x="44" y="41" width="12" height="87" fill="white"/>
<path fill-rule="evenodd" clip-rule="evenodd" d="M59 41H212V128H197V113H157V128H152V113H112V128H107V113H67V128H59V41ZM82 53C82 57.4183 78.4183 61 74 61C69.5817 61 66 57.4183 66 53C66 48.5817 69.5817 45 74 45C78.4183 45 82 48.5817 82 53ZM107 69H67V87H107V69ZM67 91H107V109H67V91ZM112 91H152V109H112V91ZM152 69H112V87H152V69ZM157 91H197V109H157V91ZM157 69H197V87H157V69Z" fill="white"/>
</svg>
