<svg width="181" height="51" viewBox="0 0 181 51" fill="none" xmlns="http://www.w3.org/2000/svg">
<g clip-path="url(#clip0_5602_18156)">
<path d="M23.3236 2.83291C23.7112 3.15119 24.0393 3.51495 24.3761 3.88546C24.5226 4.02718 24.6698 4.16826 24.8178 4.30837C25.128 4.63729 25.128 4.63729 25.128 4.93802C25.2272 4.93802 25.3265 4.93802 25.4287 4.93802C25.4287 5.03726 25.4287 5.1365 25.4287 5.23875C25.5248 5.27907 25.621 5.31938 25.72 5.36092C26.0302 5.53948 26.0302 5.53948 26.1805 5.99058C26.3015 6.03399 26.4224 6.07741 26.547 6.12215C26.9324 6.29131 26.9324 6.29131 27.0921 6.66722C27.1386 6.79127 27.1852 6.91532 27.2331 7.04313C27.4322 7.14611 27.6329 7.24593 27.8345 7.34386C28.0227 7.56578 28.2105 7.78817 28.3902 8.01698C28.6058 8.28321 28.6058 8.28321 29.0093 8.58438C29.1178 8.67121 29.2264 8.75805 29.3382 8.84752C29.3382 8.94676 29.3382 9.046 29.3382 9.14825C29.4283 9.18759 29.5185 9.22694 29.6113 9.26748C29.9593 9.45983 30.1346 9.63881 30.3814 9.94706C30.8609 10.5278 31.3498 11.0672 31.9508 11.5259C32.2781 11.7986 32.5233 12.05 32.7966 12.3717C33.5242 13.2243 34.329 14.0005 35.1255 14.7877C36.52 16.1667 36.52 16.1667 36.6215 16.7323C36.4948 17.4744 35.9556 17.875 35.4074 18.3423C34.7404 18.9221 34.1203 19.5414 33.5014 20.1719C33.2925 20.3847 33.0832 20.5971 32.8735 20.8092C32.7828 20.9017 32.692 20.9942 32.5985 21.0895C32.3455 21.3278 32.3455 21.3278 31.8944 21.6286C31.4582 21.5958 31.2143 21.5351 30.87 21.262C30.6915 21.0271 30.6915 21.0271 30.6915 20.7264C30.5922 20.7264 30.493 20.7264 30.3908 20.7264C30.3535 20.6085 30.3163 20.4907 30.278 20.3693C30.1346 19.9624 30.1346 19.9624 29.8269 19.8465C29.3674 19.612 29.062 19.287 28.6991 18.922C28.4979 18.722 28.4979 18.722 28.2927 18.5179C27.9849 18.1702 27.9849 18.1702 27.9849 17.8694C27.8857 17.8694 27.7864 17.8694 27.6842 17.8694C27.6842 17.7702 27.6842 17.6709 27.6842 17.5687C27.5849 17.5687 27.4857 17.5687 27.3834 17.5687C26.9887 17.2116 26.9887 17.2116 26.6316 16.8169C26.6316 16.7176 26.6316 16.6184 26.6316 16.5161C26.543 16.4785 26.4545 16.4409 26.3632 16.4022C25.9861 16.1907 25.7859 15.9665 25.5133 15.6327C25.1179 15.1624 24.7091 14.7918 24.2258 14.411C24.2258 14.3118 24.2258 14.2125 24.2258 14.1103C24.1265 14.1103 24.0273 14.1103 23.925 14.1103C23.6673 13.8157 23.4162 13.515 23.1732 13.2081C22.5637 13.4795 22.1408 13.8784 21.6549 14.327C21.3688 14.5614 21.3688 14.5614 20.9177 14.7118C20.8141 14.9105 20.7144 15.1113 20.617 15.3132C20.4261 15.5282 20.2268 15.7358 20.022 15.9376C19.9043 16.0544 19.7865 16.1712 19.6652 16.2915C19.4804 16.4725 19.4804 16.4725 19.2919 16.6571C19.1705 16.7772 19.049 16.8973 18.9239 17.021C18.5083 17.4319 18.0917 17.8418 17.6746 18.2513C17.311 18.6109 16.9708 18.9817 16.6417 19.3731C16.197 19.8874 15.7341 20.3022 15.2039 20.7264C15.0504 20.9031 15.0504 20.9031 14.8937 21.0835C14.6024 21.3278 14.6024 21.3278 14.2359 21.3466C13.7005 21.1116 13.4591 20.728 13.0988 20.2753C12.9548 20.2043 12.9548 20.2043 12.808 20.132C12.4345 19.9427 12.2398 19.7207 11.971 19.4013C11.8793 19.2935 11.7876 19.1857 11.6932 19.0747C11.5083 18.8492 11.3293 18.6189 11.1534 18.3863C10.777 17.9414 10.3549 17.5775 9.91171 17.2004C9.35961 16.726 9.35961 16.726 9.21862 16.3065C9.18925 15.9147 9.18925 15.9147 9.35724 15.631C9.44446 15.5416 9.53169 15.4523 9.62155 15.3602C9.71905 15.2575 9.81655 15.1547 9.917 15.0489C10.0242 14.9376 10.1314 14.8264 10.2418 14.7118C10.4646 14.4584 10.687 14.2046 10.9091 13.9505C11.4152 13.3875 11.9442 12.8899 12.5225 12.4028C12.876 12.0856 13.1649 11.7317 13.4659 11.3655C13.7228 11.0777 13.9979 10.8353 14.2923 10.5861C14.7106 10.2313 15.0752 9.86772 15.4294 9.44898C15.87 8.92808 16.3482 8.49585 16.869 8.05692C17.2472 7.7148 17.5615 7.33579 17.8764 6.93565C17.9372 6.87188 17.9981 6.80811 18.0608 6.7424C18.16 6.7424 18.2593 6.7424 18.3615 6.7424C18.3615 6.64316 18.3615 6.54392 18.3615 6.44167C18.6102 6.2388 18.861 6.03849 19.1134 5.84021C19.2622 5.61692 19.2622 5.61692 19.4141 5.38912C19.5133 5.38912 19.6126 5.38912 19.7148 5.38912C19.7553 5.2998 19.7959 5.21048 19.8376 5.11845C20.015 4.78863 20.1936 4.57078 20.4567 4.3066C20.5418 4.22103 20.627 4.13545 20.7148 4.04728C20.8035 3.95977 20.8922 3.87225 20.9835 3.78209C21.0716 3.69283 21.1597 3.60357 21.2505 3.51161C21.3359 3.42661 21.4212 3.34162 21.5092 3.25405C21.5868 3.17677 21.6645 3.09949 21.7444 3.01987C22.2631 2.59054 22.7143 2.64544 23.3236 2.83291Z" fill="#C5FF4A"/>
<path d="M14.3018 29.4195C14.5573 29.5713 14.8063 29.734 15.0536 29.8988C15.0536 29.9981 15.0536 30.0973 15.0536 30.1996C15.1528 30.1996 15.2521 30.1996 15.3543 30.1996C15.5388 30.4257 15.5388 30.4257 15.749 30.7352C16.1667 31.3143 16.6285 31.7472 17.1734 32.2042C17.5755 32.5568 17.8921 32.9283 18.2113 33.3572C18.2113 33.4565 18.2113 33.5557 18.2113 33.658C18.3105 33.658 18.4097 33.658 18.512 33.658C18.512 33.7572 18.512 33.8564 18.512 33.9587C18.6081 33.999 18.7043 34.0393 18.8033 34.0809C19.1135 34.2594 19.1135 34.2594 19.2638 34.7105C19.3507 34.7539 19.4375 34.7974 19.527 34.8421C19.9844 35.0708 20.277 35.3852 20.6171 35.7631C20.6171 35.8623 20.6171 35.9616 20.6171 36.0638C20.7163 36.0638 20.8156 36.0638 20.9178 36.0638C21.1616 36.3111 21.1616 36.3111 21.4347 36.6371C21.6124 36.8477 21.7909 37.0576 21.9704 37.2667C22.0404 37.3572 22.1103 37.4478 22.1824 37.541C22.4209 37.7561 22.4209 37.7561 22.7862 37.7026C23.2206 37.551 23.465 37.3698 23.803 37.06C23.9043 36.9689 24.0057 36.8778 24.1102 36.7839C24.4048 36.5031 24.4048 36.5031 24.677 36.0638C24.7762 36.0638 24.8754 36.0638 24.9777 36.0638C24.9777 35.9646 24.9777 35.8653 24.9777 35.7631C25.0769 35.7631 25.1762 35.7631 25.2784 35.7631C25.2784 35.6638 25.2784 35.5646 25.2784 35.4623C25.5363 35.2133 25.5363 35.2133 25.8705 34.9361C26.319 34.5768 26.319 34.5768 26.6317 34.1091C26.731 34.1091 26.8302 34.1091 26.9324 34.1091C27.0069 33.8858 27.0069 33.8858 27.0828 33.658C27.1821 33.658 27.2813 33.658 27.3835 33.658C27.3835 33.5587 27.3835 33.4595 27.3835 33.3572C27.4828 33.3572 27.582 33.3572 27.6843 33.3572C27.6843 33.258 27.6843 33.1588 27.6843 33.0565C27.8944 32.8822 28.1051 32.7086 28.3186 32.5384C28.7163 32.1914 29.0455 31.7927 29.3882 31.3925C30.2459 30.3983 30.2459 30.3983 30.8419 30.1996C30.8419 30.1003 30.8419 30.0011 30.8419 29.8988C31.1945 29.6344 31.4452 29.4477 31.8945 29.4477C32.3306 29.6658 32.6073 30.0018 32.9471 30.3499C33.8923 31.3252 33.8923 31.3252 34.9112 32.2201C35.5928 32.8147 36.2336 33.4855 36.7062 34.2594C36.7244 34.8149 36.5684 34.9965 36.2058 35.4201C36.0608 35.561 35.9143 35.7004 35.7664 35.8383C35.6945 35.9075 35.6226 35.9767 35.5485 36.0479C35.3337 36.2546 35.1178 36.4599 34.9018 36.6653C34.6507 36.9154 34.4002 37.1661 34.15 37.4171C33.9553 37.6118 33.7606 37.8065 33.5658 38.0012C33.4569 38.1101 33.348 38.219 33.2358 38.3312C29.1706 42.3965 29.1706 42.3965 28.863 42.7041C28.6934 42.8736 28.5239 43.0432 28.3545 43.2128C28.0551 43.5124 27.755 43.811 27.4534 44.1083C27.328 44.2324 27.2026 44.3565 27.0734 44.4843C26.9476 44.6083 26.8218 44.7324 26.6922 44.8602C26.3224 45.2318 26.3224 45.2318 26.0026 45.659C25.8675 45.8218 25.8675 45.8218 25.7295 45.9879C25.6303 45.9879 25.531 45.9879 25.4288 45.9879C25.4288 46.0872 25.4288 46.1864 25.4288 46.2886C25.3296 46.2886 25.2303 46.2886 25.1281 46.2886C25.1281 46.3879 25.1281 46.4871 25.1281 46.5894C25.0288 46.5894 24.9296 46.5894 24.8273 46.5894C24.7529 46.8127 24.7529 46.8127 24.677 47.0405C24.5777 47.0405 24.4785 47.0405 24.3762 47.0405C24.3762 47.1397 24.3762 47.239 24.3762 47.3412C24.277 47.3412 24.1778 47.3412 24.0755 47.3412C24.0755 47.4404 24.0755 47.5397 24.0755 47.6419C23.72 47.9873 23.4643 48.2179 22.9701 48.3074C22.3953 48.215 22.1826 47.9224 21.7918 47.501C21.331 46.9772 21.331 46.9772 20.7675 46.5894C20.7675 46.4901 20.7675 46.3909 20.7675 46.2886C20.6682 46.2886 20.569 46.2886 20.4667 46.2886C20.4295 46.1708 20.3923 46.0529 20.354 45.9315C20.1291 45.4594 20.0156 45.4603 19.5646 45.2361C19.3409 45.0399 19.1245 44.8353 18.9138 44.6252C18.7936 44.5054 18.6734 44.3857 18.5496 44.2622C18.4255 44.137 18.3015 44.0118 18.1737 43.8828C17.9841 43.695 17.9841 43.695 17.7907 43.5034C17.6713 43.3836 17.5519 43.2638 17.4289 43.1404C17.3193 43.0305 17.2098 42.9206 17.0969 42.8073C16.858 42.5295 16.858 42.5295 16.858 42.2288C16.7587 42.2288 16.6595 42.2288 16.5572 42.2288C16.5572 42.1295 16.5572 42.0303 16.5572 41.9281C16.473 41.8928 16.3888 41.8576 16.302 41.8214C15.8701 41.5793 15.5754 41.2807 15.2275 40.9284C15.0896 40.7896 14.9518 40.6508 14.8098 40.5078C14.6655 40.361 14.5212 40.2141 14.377 40.0673C14.2327 39.9215 14.0884 39.7759 13.9441 39.6303C13.6779 39.3615 13.4121 39.0925 13.1467 38.823C12.9189 38.5921 12.6873 38.3647 12.4519 38.1415C12.1967 37.8682 12.1967 37.8682 12.1967 37.5675C11.9734 37.493 11.9734 37.493 11.7456 37.4171C11.5716 37.2534 11.399 37.0881 11.234 36.9155C10.8121 36.4761 10.3734 36.0531 9.93941 35.6256C9.51757 35.1831 9.34638 34.9542 9.30212 34.3346C9.33972 33.8083 9.33972 33.8083 9.64045 33.3572C9.73969 33.3572 9.83893 33.3572 9.94118 33.3572C9.97529 33.2673 10.0094 33.1774 10.0446 33.0847C10.2419 32.7558 10.2419 32.7558 10.6084 32.5396C11.0541 32.2678 11.1913 31.9995 11.4448 31.5529C11.5441 31.5529 11.6433 31.5529 11.7456 31.5529C11.7456 31.4536 11.7456 31.3544 11.7456 31.2521C11.8448 31.2521 11.944 31.2521 12.0463 31.2521C12.0804 31.1653 12.1145 31.0784 12.1497 30.989C12.3974 30.5643 12.7131 30.3503 13.0988 30.0492C13.1795 29.9407 13.2601 29.8321 13.3432 29.7203C13.6294 29.3429 13.8533 29.2374 14.3018 29.4195Z" fill="#C5FF4A"/>
<path d="M57.8248 6.99732C57.9967 6.99492 58.1686 6.99252 58.3456 6.99004C58.6266 6.98883 58.6266 6.98883 58.9132 6.9876C59.1066 6.98624 59.3 6.98488 59.4993 6.98348C59.9109 6.981 60.3224 6.97984 60.734 6.97941C61.1511 6.97877 61.5681 6.97568 61.9851 6.97016C68.0331 6.89137 68.0331 6.89137 69.7113 8.44367C70.8828 9.70296 71.1853 10.6321 71.1621 12.3455C71.0876 13.7199 70.4773 14.702 69.6361 15.7646C69.7991 16.2208 69.9336 16.3639 70.3504 16.6292C71.3584 17.3271 71.9618 18.3225 72.1923 19.5237C72.3298 21.0511 72.0558 22.3476 71.2056 23.64C71.1342 23.7206 71.0629 23.8012 70.9894 23.8843C70.8902 23.8843 70.7909 23.8843 70.6887 23.8843C70.6887 23.9835 70.6887 24.0828 70.6887 24.185C70.4089 24.3547 70.1264 24.5197 69.8429 24.6831C69.6859 24.7756 69.5289 24.868 69.3671 24.9633C67.8344 25.7102 66.0759 25.7577 64.4051 25.7539C64.2005 25.7546 63.9959 25.7554 63.7914 25.7563C63.3676 25.7576 62.9438 25.7573 62.52 25.7558C61.9776 25.754 61.4354 25.7571 60.8931 25.7615C60.4728 25.7642 60.0526 25.7642 59.6323 25.7633C59.3354 25.7633 59.0386 25.7658 58.7417 25.7684C58.5619 25.767 58.3821 25.7656 58.1968 25.7641C58.0389 25.7641 57.881 25.7641 57.7183 25.764C57.3062 25.6887 57.3062 25.6887 56.9544 25.489C56.5454 24.8307 56.6238 24.154 56.6317 23.395C56.6311 23.2223 56.6305 23.0496 56.6299 22.8717C56.6288 22.3004 56.632 21.7291 56.6354 21.1578C56.6358 20.7615 56.6359 20.3653 56.6358 19.9691C56.6361 19.1386 56.6387 18.3082 56.6428 17.4777C56.6476 16.517 56.6491 15.5563 56.6489 14.5955C56.6487 13.6716 56.6503 12.7477 56.6528 11.8237C56.6537 11.4303 56.6543 11.0369 56.6545 10.6435C56.6552 10.0948 56.6578 9.54616 56.661 8.99748C56.6609 8.8336 56.6608 8.66971 56.6606 8.50086C56.6619 8.35202 56.6632 8.20319 56.6645 8.04984C56.665 7.92005 56.6655 7.79027 56.666 7.65655C56.7535 6.94984 57.2305 7.0036 57.8248 6.99732ZM60.915 11.2536C60.8363 11.5699 60.8363 11.5699 60.8327 11.9356C60.8267 12.0696 60.8207 12.2036 60.8145 12.3417C60.8104 12.482 60.8064 12.6222 60.8022 12.7667C60.7958 12.9075 60.7894 13.0483 60.7828 13.1934C60.7603 13.7271 60.7603 13.7271 60.7646 14.2609C61.1542 14.6506 62.1954 14.4525 62.7233 14.4557C63.0246 14.4582 63.3259 14.4648 63.6271 14.4715C64.742 14.4788 65.5508 14.4582 66.4785 13.8098C66.8208 13.2496 66.8481 12.8101 66.7792 12.1558C66.4511 11.5783 66.0788 11.2957 65.4668 11.0447C64.7305 10.8468 63.9647 10.895 63.208 10.9059C62.9519 10.9052 62.9519 10.9052 62.6906 10.9044C61.7485 10.879 61.7485 10.879 60.915 11.2536ZM60.915 18.4712C60.9001 18.7042 60.8953 18.9378 60.895 19.1713C60.8948 19.3126 60.8946 19.4539 60.8944 19.5995C60.895 19.7481 60.8956 19.8968 60.8962 20.05C60.8956 20.1987 60.895 20.3473 60.8944 20.5005C60.8946 20.6418 60.8948 20.7831 60.895 20.9287C60.8951 21.0592 60.8953 21.1898 60.8955 21.3243C60.8812 21.6282 60.8812 21.6282 61.0653 21.7792C61.4952 21.8154 61.9221 21.843 62.3528 21.8638C62.4712 21.8703 62.5895 21.8768 62.7114 21.8834C64.3247 21.9728 64.3247 21.9728 65.9146 21.7228C66.0642 21.6844 66.2139 21.646 66.368 21.6065C66.9632 21.4212 67.29 21.3016 67.6626 20.7924C67.8858 20.1103 67.8005 19.5834 67.531 18.9222C67.2326 18.558 67.0888 18.4741 66.6288 18.3208C66.2089 18.3062 65.7929 18.2997 65.373 18.3008C65.2506 18.3007 65.1281 18.3005 65.0019 18.3004C64.7433 18.3003 64.4847 18.3006 64.2261 18.3012C63.8288 18.302 63.4315 18.3012 63.0342 18.3002C62.7832 18.3003 62.5322 18.3005 62.2812 18.3008C62.1617 18.3005 62.0422 18.3002 61.919 18.2999C61.372 18.2505 61.372 18.2505 60.915 18.4712Z" fill="#C5FF4A"/>
<path d="M87.4921 6.98749C87.6429 6.98187 87.7937 6.97625 87.9491 6.97045C89.0687 6.95709 89.0687 6.95709 89.6577 7.40158C89.906 7.7538 90.0388 7.97328 90.0859 8.39716C90.1851 8.39716 90.2844 8.39716 90.3866 8.39716C90.6562 8.70798 90.9082 9.0197 91.1573 9.34634C91.2307 9.4415 91.3042 9.53666 91.3798 9.6347C91.6014 9.92294 91.8213 10.2124 92.0407 10.5023C92.1348 10.626 92.1348 10.626 92.2309 10.7522C93.2565 12.1048 93.2565 12.1048 93.5443 12.9081C93.6435 12.9081 93.7428 12.9081 93.845 12.9081C94.0676 13.1608 94.0676 13.1608 94.3243 13.5119C94.4633 13.7012 94.4633 13.7012 94.6051 13.8943C94.7016 14.0279 94.7981 14.1614 94.8976 14.299C94.9941 14.4302 95.0906 14.5614 95.1901 14.6966C95.9708 15.7665 95.9708 15.7665 96.2509 16.3665C96.3501 16.3665 96.4494 16.3665 96.5516 16.3665C96.755 16.6653 96.9554 16.9661 97.1531 17.2687C97.2523 17.3183 97.3516 17.368 97.4538 17.4191C97.4521 17.2957 97.4505 17.1724 97.4487 17.0454C97.4337 15.8838 97.4222 14.7223 97.4148 13.5606C97.4109 12.9634 97.4056 12.3662 97.3971 11.769C97.3889 11.1928 97.3844 10.6167 97.3825 10.0405C97.3811 9.82048 97.3784 9.60051 97.3743 9.38057C97.3689 9.07268 97.3681 8.76511 97.3685 8.45718C97.3668 8.28188 97.3651 8.10659 97.3634 7.92597C97.4538 7.49497 97.4538 7.49497 97.8138 7.21308C98.4297 6.94711 98.9908 6.97257 99.6529 6.97809C99.782 6.97509 99.9111 6.97208 100.044 6.96899C100.168 6.96908 100.292 6.96918 100.42 6.96928C100.533 6.969 100.645 6.96872 100.761 6.96844C101.189 7.07563 101.285 7.2745 101.514 7.64534C101.57 7.99049 101.57 7.99049 101.571 8.37681C101.572 8.52375 101.573 8.67068 101.575 8.82207C101.574 8.9823 101.573 9.14253 101.572 9.30761C101.573 9.4771 101.574 9.64659 101.574 9.82122C101.576 10.3821 101.575 10.9429 101.574 11.5037C101.574 11.8929 101.574 12.282 101.575 12.6711C101.576 13.4868 101.575 14.3024 101.572 15.1181C101.57 16.0613 101.571 17.0044 101.573 17.9475C101.576 18.8549 101.575 19.7623 101.574 20.6697C101.574 21.0558 101.574 21.442 101.575 21.8281C101.576 22.3671 101.575 22.9059 101.572 23.4449C101.573 23.6054 101.574 23.7659 101.575 23.9313C101.574 24.0779 101.572 24.2244 101.571 24.3753C101.571 24.5028 101.571 24.6302 101.57 24.7615C101.501 25.1611 101.38 25.294 101.063 25.5388C100.625 25.6319 100.183 25.6085 99.7375 25.6046C99.618 25.6076 99.4985 25.6106 99.3754 25.6137C98.5626 25.613 98.0903 25.4844 97.4538 24.9373C97.1355 24.5602 97.1355 24.5602 96.8711 24.1667C96.7816 24.0361 96.692 23.9054 96.5998 23.7708C96.4012 23.4337 96.4012 23.4337 96.4012 23.133C96.302 23.133 96.2028 23.133 96.1005 23.133C95.9024 22.8903 95.7165 22.6376 95.5366 22.3811C95.0876 21.7461 94.6294 21.1231 94.1505 20.5104C93.9954 20.276 93.9954 20.276 93.9954 19.9753C93.8962 19.9753 93.7969 19.9753 93.6947 19.9753C93.5008 19.7556 93.5008 19.7556 93.3 19.4678C93.2329 19.3736 93.1658 19.2794 93.0967 19.1823C92.9428 18.9227 92.9428 18.9227 92.9428 18.622C92.8436 18.622 92.7444 18.622 92.6421 18.622C92.5429 18.3739 92.4436 18.1258 92.3414 17.8702C92.2421 17.8702 92.1429 17.8702 92.0407 17.8702C91.5896 17.2109 91.5896 17.2109 91.5896 16.8176C91.4903 16.8176 91.3911 16.8176 91.2888 16.8176C91.079 16.5522 90.8801 16.2781 90.6874 16C90.3176 15.4151 90.3176 15.4151 89.7852 15.0132C89.7862 15.1366 89.7872 15.2599 89.7882 15.387C89.7972 16.5485 89.8041 17.7101 89.8085 18.8717C89.8109 19.4689 89.8141 20.0661 89.8192 20.6633C89.8241 21.2395 89.8268 21.8156 89.828 22.3919C89.8288 22.6118 89.8304 22.8318 89.8329 23.0517C89.8361 23.3596 89.8366 23.6673 89.8364 23.9751C89.8374 24.1504 89.8384 24.3257 89.8394 24.5063C89.7852 24.9373 89.7852 24.9373 89.5816 25.2167C88.9174 25.6776 87.9795 25.5663 87.2008 25.567C87.0939 25.5688 86.987 25.5707 86.8768 25.5726C86.3097 25.5742 86.0586 25.5605 85.575 25.2381C85.3523 24.4302 85.4024 23.573 85.4027 22.7409C85.4022 22.5821 85.4017 22.4233 85.4012 22.2597C85.3998 21.7361 85.3995 21.2125 85.3993 20.6889C85.3988 20.3246 85.3983 19.9602 85.3978 19.5958C85.3969 18.8328 85.3966 18.0697 85.3967 17.3066C85.3967 16.3284 85.3947 15.3502 85.3921 14.372C85.3904 13.6198 85.3901 12.8676 85.3902 12.1155C85.39 11.7548 85.3894 11.394 85.3882 11.0333C85.3867 10.5294 85.3872 10.0255 85.3881 9.52163C85.3872 9.3725 85.3864 9.22336 85.3855 9.06971C85.3939 7.23979 85.7466 7.01179 87.4921 6.98749Z" fill="#C5FF4A"/>
<path d="M128.382 6.9491C128.604 6.93602 128.604 6.93602 128.829 6.92267C129.902 6.90397 129.902 6.90397 130.399 7.28548C130.671 7.59277 130.905 7.90744 131.136 8.246C131.259 8.39971 131.382 8.55342 131.509 8.71178C131.678 8.93246 131.678 8.93246 131.85 9.15759C131.912 9.23914 131.975 9.3207 132.039 9.40472C132.605 10.1482 133.156 10.9024 133.707 11.6573C134.154 12.2697 134.612 12.8721 135.08 13.4688C135.419 13.9029 135.755 14.3392 136.088 14.7775C136.205 14.9293 136.321 15.081 136.44 15.2374C136.699 15.6139 136.699 15.6139 136.699 15.9146C136.799 15.9146 136.898 15.9146 137 15.9146C137.205 16.2123 137.405 16.5134 137.601 16.8168C137.846 17.0866 137.846 17.0866 138.053 17.2679C138.236 16.255 138.231 15.2479 138.24 14.2207C138.245 13.8287 138.25 13.4367 138.255 13.0448C138.262 12.4287 138.269 11.8126 138.275 11.1965C138.28 10.6006 138.288 10.0048 138.296 9.40898C138.298 9.22385 138.299 9.03871 138.3 8.84797C138.303 8.67679 138.305 8.50562 138.308 8.32926C138.309 8.1785 138.311 8.02775 138.312 7.87243C138.353 7.49417 138.353 7.49417 138.654 7.04308C139.001 6.98471 139.001 6.98471 139.429 6.98317C139.66 6.9823 139.66 6.9823 139.895 6.98141C140.056 6.98315 140.217 6.98489 140.383 6.98669C140.625 6.98408 140.625 6.98408 140.871 6.98141C141.025 6.98199 141.179 6.98257 141.337 6.98317C141.478 6.98368 141.62 6.98419 141.766 6.98471C141.88 7.00397 141.994 7.02323 142.112 7.04308C142.439 7.53259 142.456 7.69281 142.474 8.26215C142.48 8.42357 142.486 8.58499 142.492 8.7513C142.496 8.93034 142.501 9.10939 142.505 9.29386C142.511 9.48419 142.517 9.67453 142.522 9.87063C142.593 12.4259 142.592 14.9828 142.591 17.5388C142.591 18.2623 142.593 18.9857 142.596 19.7091C142.598 20.2723 142.598 20.8355 142.598 21.3987C142.598 21.6658 142.599 21.933 142.6 22.2001C142.601 22.57 142.601 22.9399 142.6 23.3098C142.601 23.4184 142.602 23.5269 142.603 23.6388C142.599 24.2367 142.54 24.7038 142.263 25.2373C141.743 25.6502 141.103 25.5879 140.468 25.585C140.362 25.5874 140.256 25.5898 140.147 25.5923C139.465 25.593 139.04 25.5118 138.504 25.0869C138.172 24.7298 138.172 24.7298 137.865 24.3351C137.761 24.2048 137.658 24.0746 137.552 23.9404C137.301 23.5833 137.301 23.5833 137.15 23.1322C137.051 23.1322 136.952 23.1322 136.85 23.1322C136.768 22.9794 136.687 22.8267 136.603 22.6693C136.26 22.0705 135.842 21.5767 135.384 21.0646C134.613 20.185 133.912 19.279 133.241 18.3205C133.043 18.0393 132.844 17.7584 132.644 17.4779C132.513 17.2921 132.381 17.1059 132.25 16.9193C132.006 16.574 131.768 16.2462 131.468 15.9475C131.286 15.7643 131.286 15.7643 131.286 15.4635C131.187 15.4635 131.088 15.4635 130.985 15.4635C130.985 15.3643 130.985 15.265 130.985 15.1628C130.886 15.1628 130.787 15.1628 130.685 15.1628C130.684 15.2865 130.683 15.4101 130.682 15.5375C130.673 16.7014 130.662 17.8652 130.649 19.029C130.642 19.6274 130.637 20.2258 130.633 20.8242C130.629 21.4014 130.623 21.9785 130.615 22.5557C130.612 22.7762 130.611 22.9967 130.61 23.2172C130.608 23.5255 130.604 23.8336 130.599 24.1418C130.598 24.3174 130.596 24.493 130.594 24.674C130.574 24.8102 130.555 24.9465 130.534 25.0869C129.901 25.5092 129.335 25.4677 128.589 25.5004C128.453 25.5087 128.316 25.5171 128.176 25.5257C127.978 25.5353 127.978 25.5353 127.777 25.545C127.657 25.551 127.537 25.557 127.413 25.5631C127.033 25.5348 126.807 25.4144 126.474 25.2373C126.467 22.9094 126.462 20.5816 126.459 18.2538C126.457 17.173 126.455 16.0922 126.452 15.0114C126.449 14.0696 126.447 13.1278 126.446 12.186C126.446 11.6872 126.445 11.1883 126.443 10.6894C126.44 10.1331 126.44 9.57682 126.44 9.02051C126.439 8.85428 126.438 8.68804 126.437 8.51677C126.437 8.3658 126.438 8.21483 126.438 8.05928C126.438 7.9276 126.438 7.79593 126.437 7.66026C126.546 6.73026 127.675 6.96276 128.382 6.9491Z" fill="#C5FF4A"/>
<path d="M166.171 7.04338C166.598 7.00035 166.992 6.98652 167.42 6.99217C167.549 6.9921 167.678 6.99204 167.811 6.99197C168.239 6.99228 168.667 6.9958 169.095 6.99933C169.391 7.00017 169.687 7.00081 169.983 7.00126C170.764 7.00299 171.545 7.00742 172.325 7.0124C173.122 7.01701 173.918 7.01908 174.714 7.02135C176.277 7.02619 177.84 7.0339 179.403 7.04338C179.78 7.75681 179.753 8.36136 179.751 9.15789C179.753 9.29483 179.755 9.43177 179.758 9.57286C179.758 9.70438 179.758 9.83589 179.758 9.97139C179.759 10.0912 179.759 10.211 179.76 10.3344C179.687 10.7442 179.582 10.852 179.253 11.1032C178.867 11.1632 178.867 11.1632 178.401 11.1683C178.139 11.1727 178.139 11.1727 177.872 11.1773C177.683 11.1782 177.495 11.1792 177.301 11.1802C177.011 11.1842 177.011 11.1842 176.716 11.1884C176.204 11.1955 175.691 11.2 175.179 11.2039C174.656 11.2084 174.133 11.2154 173.609 11.2222C172.583 11.2351 171.557 11.245 170.531 11.2536C170.531 12.246 170.531 13.2384 170.531 14.2609C171.008 14.2592 171.484 14.2574 171.974 14.2556C172.438 14.2544 172.901 14.2535 173.364 14.2527C173.685 14.2519 174.006 14.2509 174.327 14.2496C174.79 14.2477 175.252 14.2469 175.715 14.2462C175.857 14.2454 176 14.2447 176.147 14.2439C176.898 14.2438 177.61 14.2826 178.35 14.4113C178.695 15.0986 178.696 15.7093 178.689 16.46C178.69 16.6321 178.69 16.6321 178.692 16.8077C178.69 17.3897 178.68 17.6758 178.35 18.1704C178.036 18.2283 178.036 18.2283 177.645 18.2306C177.498 18.2327 177.352 18.2347 177.201 18.2367C177.042 18.2367 176.883 18.2368 176.72 18.2368C176.557 18.2388 176.395 18.2408 176.228 18.2428C175.707 18.249 175.187 18.2522 174.666 18.255C174.146 18.2586 173.625 18.2628 173.105 18.2688C172.781 18.2725 172.456 18.2747 172.132 18.2753C171.912 18.2776 171.912 18.2776 171.688 18.28C171.494 18.281 171.494 18.281 171.296 18.2819C170.949 18.2922 170.949 18.2922 170.682 18.6215C170.64 18.9422 170.64 18.9422 170.652 19.3087C170.653 19.4434 170.654 19.5781 170.655 19.7169C170.658 19.8579 170.66 19.9988 170.663 20.1439C170.664 20.286 170.666 20.4281 170.667 20.5745C170.671 20.926 170.676 21.2774 170.682 21.6288C170.773 21.6285 170.865 21.6281 170.959 21.6278C171.915 21.6245 172.872 21.6222 173.828 21.6205C174.184 21.6198 174.541 21.6188 174.897 21.6175C175.411 21.6156 175.924 21.6148 176.438 21.6141C176.596 21.6133 176.754 21.6126 176.917 21.6118C177.758 21.6117 178.577 21.6133 179.403 21.7792C179.715 22.2471 179.742 22.3567 179.744 22.8887C179.744 23.0778 179.744 23.0778 179.745 23.2708C179.744 23.4019 179.742 23.533 179.741 23.6681C179.743 23.8657 179.743 23.8657 179.745 24.0672C179.744 24.1931 179.744 24.319 179.744 24.4487C179.743 24.564 179.743 24.6792 179.743 24.798C179.704 25.0872 179.704 25.0872 179.403 25.3879C178.605 25.523 177.821 25.5612 177.012 25.5625C176.901 25.5633 176.789 25.564 176.673 25.5648C176.308 25.567 175.942 25.568 175.576 25.5688C175.45 25.5693 175.325 25.5697 175.195 25.5701C174.531 25.5724 173.868 25.5738 173.204 25.5744C172.519 25.5753 171.835 25.5789 171.15 25.5831C170.622 25.5859 170.094 25.5867 169.566 25.587C169.314 25.5874 169.061 25.5886 168.809 25.5906C168.456 25.5932 168.104 25.5929 167.751 25.5919C167.647 25.5933 167.544 25.5947 167.437 25.5961C166.995 25.5923 166.606 25.5339 166.181 25.4131C165.647 24.8533 165.77 24.1704 165.78 23.4282C165.779 23.2573 165.779 23.0863 165.778 22.9102C165.777 22.3436 165.781 21.7772 165.786 21.2106C165.787 20.8179 165.787 20.4252 165.787 20.0325C165.788 19.2088 165.791 18.3852 165.797 17.5615C165.803 16.6091 165.806 15.6567 165.806 14.7042C165.807 13.7882 165.809 12.8723 165.812 11.9563C165.814 11.5663 165.815 11.1764 165.815 10.7865C165.817 10.2421 165.82 9.69783 165.824 9.15348C165.824 8.99131 165.824 8.82914 165.824 8.66205C165.826 8.51405 165.827 8.36605 165.829 8.21357C165.829 8.08484 165.83 7.95611 165.831 7.82347C165.87 7.49447 165.87 7.49447 166.171 7.04338Z" fill="#C5FF4A"/>
<path d="M113.007 6.98345C113.167 6.98287 113.326 6.98229 113.49 6.98169C113.656 6.98343 113.823 6.98518 113.994 6.98698C114.243 6.98436 114.243 6.98436 114.498 6.98169C114.657 6.98227 114.817 6.98285 114.981 6.98345C115.2 6.98421 115.2 6.98421 115.423 6.98499C115.862 7.05328 115.986 7.14344 116.249 7.49446C116.412 7.84387 116.559 8.18929 116.701 8.54701C116.796 8.77566 116.891 9.00413 116.987 9.23247C117.14 9.59953 117.293 9.96661 117.445 10.3341C117.686 10.9101 117.934 11.4756 118.22 12.0313C118.485 12.5514 118.685 13.0772 118.871 13.6312C119.146 14.4197 119.455 15.1718 119.81 15.9267C120.047 16.452 120.259 16.9854 120.469 17.5219C120.78 18.3125 121.122 19.0701 121.512 19.8244C121.881 20.642 122.196 21.4782 122.514 22.3166C122.767 22.9648 123.045 23.6012 123.329 24.2367C123.472 24.6509 123.506 24.9533 123.467 25.3879C122.983 25.8716 121.529 25.668 120.882 25.6798C119.388 25.6453 119.388 25.6453 118.896 25.1553C118.578 24.6363 118.378 24.1662 118.204 23.5835C118.153 23.4337 118.102 23.2839 118.05 23.1295C117.922 22.7283 117.922 22.7283 117.839 22.3695C117.769 22.0475 117.769 22.0475 117.452 21.7792C117.146 21.7322 117.146 21.7322 116.79 21.7379C116.585 21.7357 116.585 21.7357 116.375 21.7335C116.227 21.7336 116.079 21.7338 115.926 21.7339C115.774 21.7333 115.622 21.7326 115.465 21.732C115.143 21.7311 114.821 21.731 114.499 21.7317C114.006 21.7322 113.513 21.7286 113.019 21.7248C112.707 21.7245 112.395 21.7244 112.082 21.7245C111.86 21.7225 111.86 21.7225 111.634 21.7203C111.427 21.7217 111.427 21.7217 111.217 21.7232C111.096 21.7231 110.975 21.723 110.85 21.7229C110.455 21.7936 110.329 21.9171 110.085 22.2302C109.955 22.5361 109.837 22.847 109.727 23.1606C109.416 24.004 109.08 24.8886 108.43 25.5383C107.833 25.5763 107.234 25.5661 106.636 25.5665C106.382 25.5692 106.382 25.5692 106.124 25.5721C105.962 25.5723 105.801 25.5726 105.635 25.5729C105.412 25.5739 105.412 25.5739 105.185 25.5748C104.822 25.5383 104.822 25.5383 104.521 25.2376C104.577 24.5775 104.775 24.008 105.019 23.3956C105.087 23.225 105.154 23.0544 105.224 22.8787C105.29 22.7143 105.355 22.55 105.423 22.3806C105.475 22.2442 105.527 22.1077 105.58 21.9671C105.812 21.3623 106.059 20.8035 106.391 20.2473C106.729 19.6642 106.942 19.0645 107.143 18.4241C107.422 17.5348 107.781 16.7278 108.212 15.902C108.501 15.3217 108.722 14.7246 108.949 14.1176C109.265 13.281 109.61 12.4558 109.953 11.6295C110.018 11.4714 110.083 11.3133 110.15 11.1504C110.212 10.9999 110.275 10.8494 110.339 10.6944C110.395 10.5596 110.451 10.4248 110.509 10.2859C110.692 9.88709 110.91 9.52345 111.137 9.14848C111.298 8.72717 111.438 8.30213 111.579 7.8739C111.893 7.1264 112.207 6.98624 113.007 6.98345ZM113.844 12.9076C113.448 13.6702 113.103 14.4335 112.794 15.2347C112.598 15.7189 112.37 16.1849 112.135 16.6509C111.991 17.0357 111.991 17.0357 112.19 17.7193C113.331 17.7193 114.472 17.7193 115.648 17.7193C115.82 16.9705 115.82 16.9705 115.554 16.366C115.197 15.6326 114.922 14.8805 114.647 14.1129C114.436 13.6399 114.183 13.296 113.844 12.9076Z" fill="#C5FF4A"/>
<path d="M161.961 8.6973C161.961 8.79655 161.961 8.89579 161.961 8.99804C162.159 9.09728 162.358 9.19652 162.562 9.29877C162.632 9.94875 162.616 10.3568 162.216 10.8711C162.068 11.0416 161.917 11.2098 161.763 11.3757C161.688 11.4616 161.613 11.5476 161.536 11.6362C161.196 12.0186 160.884 12.3221 160.457 12.6068C159.589 12.6068 159.09 12.2956 158.398 11.7904C157.065 10.8832 155.561 10.8707 153.991 11.1031C153.367 11.3574 152.955 11.6772 152.488 12.1557C152.348 12.2642 152.208 12.3728 152.065 12.4846C151.03 13.8154 150.485 15.7438 150.683 17.4185C151.044 18.8896 151.741 19.9607 152.939 20.8769C152.939 20.9761 152.939 21.0754 152.939 21.1776C153.056 21.2241 153.174 21.2707 153.296 21.3186C153.69 21.4783 153.69 21.4783 153.991 21.6287C156.127 21.773 157.62 21.4279 159.464 20.3013C159.944 20.0854 160.236 20.0539 160.758 20.1251C161.164 20.3723 161.164 20.3723 161.547 20.6983C161.675 20.8047 161.803 20.9112 161.935 21.0208C162.298 21.3627 162.547 21.6086 162.591 22.1192C162.588 22.2395 162.584 22.3599 162.581 22.4839C162.578 22.6054 162.575 22.727 162.573 22.8522C162.569 22.9446 162.566 23.0371 162.562 23.1324C162.463 23.1324 162.364 23.1324 162.261 23.1324C162.221 23.2285 162.181 23.3246 162.139 23.4237C161.961 23.7338 161.961 23.7338 161.509 23.8842C161.469 23.977 161.429 24.0699 161.388 24.1655C161.125 24.6357 160.785 24.7324 160.297 24.9461C160.134 25.0192 159.971 25.0923 159.803 25.1676C159.622 25.2403 159.441 25.313 159.254 25.3878C159.112 25.4499 159.112 25.4499 158.968 25.5132C157.967 25.9084 156.973 25.9178 155.906 25.9143C155.6 25.9141 155.295 25.9204 154.989 25.927C153.635 25.9297 152.639 25.6949 151.435 25.0871C151.169 24.9677 150.903 24.8486 150.636 24.73C149.913 24.3613 149.417 23.8816 148.879 23.2827C148.745 23.1525 148.612 23.0222 148.475 22.888C146.552 20.9132 146.118 18.4617 146.152 15.8091C146.206 13.3621 146.984 11.2087 148.724 9.4274C149.651 8.57897 150.55 7.92639 151.736 7.49438C151.831 7.45722 151.927 7.42005 152.026 7.38176C152.894 7.06354 153.69 6.95805 154.611 6.93051C154.749 6.92564 154.887 6.92077 155.029 6.91576C157.563 6.84178 159.874 7.09122 161.961 8.6973Z" fill="#C5FF4A"/>
<path d="M57.0055 36.0635C57.3885 36.0184 57.7352 36.0033 58.1187 36.0071C58.2354 36.0065 58.3521 36.0059 58.4723 36.0053C58.8675 36.0038 59.2626 36.0055 59.6578 36.0072C59.9423 36.0068 60.2268 36.0062 60.5114 36.0054C61.2964 36.0038 62.0815 36.005 62.8666 36.0067C63.712 36.008 64.5574 36.0068 65.4028 36.0058C67.0604 36.0044 68.7179 36.0054 70.3755 36.0072C72.3041 36.0093 74.2327 36.009 76.1614 36.0087C79.7058 36.0082 83.2503 36.0101 86.7948 36.0132C90.0321 36.0159 93.2695 36.0168 96.5068 36.016C96.7146 36.0159 96.9224 36.0159 97.1302 36.0158C97.233 36.0158 97.3357 36.0158 97.4416 36.0158C97.9587 36.0156 98.4758 36.0155 98.993 36.0154C99.146 36.0154 99.146 36.0154 99.3021 36.0153C102.005 36.0147 104.708 36.0155 107.411 36.0168C107.798 36.017 108.185 36.0172 108.573 36.0174C108.763 36.0175 108.954 36.0175 109.15 36.0176C110.496 36.0182 111.841 36.0182 113.187 36.0179C114.826 36.0176 116.465 36.0183 118.104 36.0205C118.941 36.0216 119.778 36.0222 120.615 36.0215C121.381 36.0209 122.146 36.0217 122.911 36.0236C123.189 36.024 123.467 36.024 123.744 36.0233C124.12 36.0226 124.496 36.0237 124.872 36.0252C124.981 36.0245 125.09 36.0239 125.203 36.0232C125.746 36.0275 126.174 36.0423 126.625 36.3642C126.722 36.679 126.722 36.679 126.747 37.0408C126.757 37.1602 126.767 37.2796 126.778 37.4027C126.775 37.7175 126.775 37.7175 126.625 38.0182C125.997 38.2044 125.36 38.1898 124.711 38.1879C124.595 38.1882 124.478 38.1884 124.358 38.1887C123.967 38.1894 123.575 38.189 123.183 38.1887C122.9 38.189 122.617 38.1893 122.334 38.1897C121.555 38.1906 120.776 38.1906 119.998 38.1904C119.158 38.1904 118.318 38.1912 117.479 38.1919C115.834 38.1932 114.189 38.1936 112.543 38.1937C111.207 38.1938 109.87 38.1941 108.534 38.1946C105.363 38.1957 102.193 38.1966 99.0223 38.1965C98.9209 38.1965 98.8195 38.1965 98.715 38.1965C98.2011 38.1965 97.6871 38.1965 97.1732 38.1965C97.0711 38.1965 96.969 38.1965 96.8639 38.1964C96.6574 38.1964 96.451 38.1964 96.2446 38.1964C93.0314 38.1963 89.8183 38.1975 86.6051 38.1995C82.9964 38.2018 79.3876 38.2031 75.7789 38.203C73.8676 38.2029 71.9564 38.2034 70.0451 38.205C68.4183 38.2063 66.7916 38.2067 65.1648 38.2056C64.3342 38.2052 63.5037 38.2052 62.6732 38.2064C61.9137 38.2076 61.1542 38.2074 60.3947 38.2061C60.1192 38.2059 59.8436 38.2062 59.5681 38.207C59.1951 38.208 58.822 38.2073 58.449 38.206C58.3408 38.2067 58.2326 38.2075 58.1211 38.2083C57.5738 38.2043 57.1703 38.1683 56.7048 37.8678C56.6966 37.6518 56.6908 37.4356 56.686 37.2194C56.6825 37.099 56.679 36.9787 56.6754 36.8546C56.7048 36.5146 56.7048 36.5146 57.0055 36.0635Z" fill="#C5FF4A"/>
<path d="M159.287 30.6115C159.415 30.6106 159.542 30.6096 159.674 30.6086C159.88 30.6096 159.88 30.6096 160.091 30.6105C160.233 30.6102 160.376 30.6099 160.523 30.6096C160.825 30.6094 161.128 30.61 161.43 30.6112C161.889 30.6128 162.348 30.6112 162.806 30.6093C163.101 30.6095 163.396 30.6099 163.69 30.6105C163.826 30.6099 163.961 30.6093 164.101 30.6086C165.022 30.6153 165.876 30.7401 166.772 30.9512C166.772 31.0504 166.772 31.1496 166.772 31.2519C166.856 31.2829 166.939 31.3139 167.026 31.3459C167.648 31.716 168.03 32.3116 168.426 32.9059C168.66 35.0035 168.66 35.0035 168.06 35.7722C167.932 35.918 167.805 36.0638 167.674 36.2139C167.544 36.7052 167.544 36.7052 167.524 37.1161C167.649 37.2034 167.649 37.2034 167.776 37.2923C167.94 37.4098 167.94 37.4098 168.106 37.5296C168.269 37.6448 168.269 37.6448 168.434 37.7622C168.934 38.1996 169.04 38.5761 169.094 39.223C169.184 41.4548 169.184 41.4548 168.323 42.4053C168.208 42.4959 168.093 42.5864 167.975 42.6796C167.896 42.7428 167.817 42.806 167.736 42.8712C166.839 43.5164 165.945 43.6094 164.864 43.704C164.683 43.7218 164.502 43.7396 164.316 43.7579C162.279 43.9392 160.244 43.9264 158.201 43.8826C157.979 43.4384 158.03 42.9884 158.031 42.5016C158.031 42.3903 158.031 42.279 158.031 42.1643C158.03 41.7951 158.03 41.426 158.031 41.0568C158.031 40.8001 158.031 40.5435 158.03 40.2869C158.03 39.748 158.031 39.2091 158.031 38.6703C158.032 37.9813 158.032 37.2923 158.031 36.6034C158.03 36.0728 158.03 35.5422 158.031 35.0117C158.031 34.7578 158.031 34.5039 158.03 34.25C158.03 33.8938 158.031 33.5375 158.031 33.1813C158.031 33.0773 158.031 32.9733 158.03 32.8661C158.033 32.2151 158.063 31.5883 158.201 30.9512C158.665 30.6418 158.763 30.6126 159.287 30.6115ZM161.058 33.0563C160.748 33.3659 160.845 33.9911 160.823 34.419C160.817 34.533 160.81 34.6471 160.804 34.7646C160.788 35.0472 160.772 35.3298 160.757 35.6125C161.315 35.9726 161.864 35.9594 162.505 35.9508C162.612 35.9499 162.719 35.949 162.829 35.948C164.074 35.9261 164.074 35.9261 165.268 35.6125C165.552 35.1876 165.617 35.0395 165.672 34.5599C165.685 34.4576 165.698 34.3552 165.712 34.2498C165.737 33.9253 165.737 33.9253 165.569 33.5074C164.894 33.0765 164.267 32.9738 163.483 32.9435C163.377 32.9382 163.271 32.9329 163.162 32.9274C162.439 32.8971 161.767 32.9117 161.058 33.0563ZM160.908 38.4694C160.731 38.9983 160.737 39.4254 160.739 39.9825C160.738 40.1703 160.738 40.3581 160.737 40.5516C160.724 41.0109 160.724 41.0109 160.908 41.3264C161.534 41.3396 162.161 41.3475 162.787 41.3546C162.964 41.3583 163.14 41.3621 163.322 41.366C164.331 41.3745 165.111 41.329 166.02 40.8753C166.343 40.4916 166.449 40.2348 166.546 39.7475C166.434 39.1851 166.16 38.9741 165.719 38.6198C164.879 38.2367 164.049 38.2796 163.144 38.2909C162.921 38.291 162.921 38.291 162.694 38.2912C161.785 38.2718 161.785 38.2718 160.908 38.4694Z" fill="#C5FF4A"/>
<path d="M150.082 30.3502C150.766 30.6998 150.945 31.1384 151.172 31.8333C151.285 32.1569 151.425 32.444 151.585 32.7467C151.803 33.1686 151.969 33.5813 152.112 34.0342C152.288 34.5906 152.513 35.0904 152.782 35.6071C153.007 36.0477 153.201 36.5004 153.399 36.9534C153.516 37.2125 153.644 37.4662 153.775 37.7181C153.945 38.0735 154.059 38.3788 154.17 38.7519C154.353 39.3374 154.609 39.8534 154.896 40.3928C155.462 41.4598 155.838 42.3431 155.796 43.5824C155.171 43.8204 154.659 43.9805 153.991 43.8831C153.108 43.4045 152.836 42.6528 152.488 41.75C152.311 41.2109 152.311 41.2109 151.886 40.8758C151.47 40.8522 151.057 40.8369 150.64 40.8282C150.455 40.8235 150.455 40.8235 150.267 40.8187C149.873 40.8089 149.479 40.8 149.086 40.7912C148.819 40.7847 148.552 40.7782 148.286 40.7715C147.631 40.7554 146.977 40.7402 146.323 40.7254C146.276 40.8914 146.229 41.0574 146.181 41.2284C145.894 42.2221 145.563 43.2931 144.669 43.8831C144.109 43.9593 143.573 43.9685 143.015 43.8831C142.714 43.5824 142.714 43.5824 142.657 43.197C142.744 42.4056 143.089 41.756 143.457 41.0573C143.873 40.2655 144.178 39.4454 144.487 38.6076C144.721 37.9725 144.968 37.3495 145.252 36.7343C145.392 36.4282 145.526 36.1211 145.659 35.8121C146.132 34.7157 146.619 33.6335 147.163 32.5705C147.307 32.2889 147.446 32.0052 147.583 31.72C147.647 31.5843 147.712 31.4486 147.779 31.3088C147.836 31.189 147.892 31.0692 147.95 30.9458C148.43 30.1464 149.262 30.2479 150.082 30.3502ZM149.029 34.4101C148.764 34.8744 148.728 35.0466 148.728 35.613C148.629 35.613 148.53 35.613 148.428 35.613C148.33 35.8476 148.233 36.0826 148.136 36.3178C148.082 36.4487 148.028 36.5795 147.973 36.7143C147.831 37.1044 147.72 37.4555 147.676 37.8685C147.941 38.1963 147.941 38.1963 148.273 38.2034C148.45 38.201 148.45 38.201 148.631 38.1986C148.759 38.1976 148.887 38.1966 149.019 38.1956C149.152 38.1931 149.286 38.1906 149.424 38.188C149.626 38.186 149.626 38.186 149.833 38.1839C150.166 38.1803 150.5 38.1754 150.834 38.1692C150.97 37.7283 151 37.6089 150.822 37.1619C150.742 37.0136 150.662 36.8653 150.58 36.7125C150.182 35.9561 149.817 35.1954 149.48 34.4101C149.331 34.4101 149.183 34.4101 149.029 34.4101Z" fill="#C5FF4A"/>
<path d="M179.49 31.194C179.986 31.5855 180.263 31.8466 180.427 32.4645C180.252 33.0982 180.048 33.367 179.553 33.8084C178.669 33.8486 177.777 33.296 176.997 32.9062C176.042 32.8381 175.193 32.886 174.291 33.2069C174.241 33.7031 174.191 34.1993 174.14 34.7106C175.083 35.2615 175.928 35.6965 176.997 35.9135C178.382 36.2455 179.692 36.727 180.549 37.9246C181.089 38.9327 181.052 40.0672 180.907 41.1763C180.779 41.5445 180.626 41.8774 180.455 42.2288C180.356 42.2288 180.257 42.2288 180.155 42.2288C180.127 42.3126 180.099 42.3963 180.07 42.4826C179.66 43.143 179.052 43.4918 178.331 43.7519C176.251 44.22 173.999 44.0166 172.176 42.9055C171.7 42.5943 171.451 42.4058 171.133 41.9281C171.052 41.4168 171.111 41.2128 171.377 40.7628C171.818 40.3453 172.036 40.3145 172.637 40.2741C173.11 40.408 173.11 40.408 173.595 40.6124C173.766 40.6818 173.937 40.7512 174.114 40.8227C174.388 40.9394 174.661 41.0581 174.933 41.1822C175.901 41.6042 176.79 41.4993 177.768 41.1669C177.861 41.1204 177.954 41.0739 178.05 41.0259C178.087 40.8103 178.121 40.594 178.153 40.3775C178.172 40.2571 178.191 40.1367 178.211 40.0127C178.232 39.6688 178.232 39.6688 178.024 39.4312C177.211 38.8119 176.395 38.5726 175.418 38.31C175.138 38.2334 174.857 38.1564 174.577 38.0791C174.454 38.0458 174.33 38.0124 174.203 37.9781C173.82 37.8625 173.456 37.7208 173.088 37.5675C173.088 37.4683 173.088 37.369 173.088 37.2668C172.988 37.2668 172.889 37.2668 172.787 37.2668C172.787 37.1676 172.787 37.0683 172.787 36.9661C172.696 36.9502 172.605 36.9343 172.511 36.9179C172.055 36.7749 171.849 36.4853 171.59 36.0962C171.088 35.0292 171.274 33.7374 171.434 32.6055C171.533 32.6055 171.632 32.6055 171.734 32.6055C171.762 32.5 171.79 32.3946 171.819 32.2859C172.285 31.3536 173.169 30.8031 174.131 30.4545C175.895 30.0535 177.941 30.2251 179.49 31.194Z" fill="#C5FF4A"/>
<path d="M78.2727 6.98667C78.4909 6.97824 78.4909 6.97824 78.7135 6.96964C78.8531 6.96789 78.9928 6.96615 79.1367 6.96435C79.2647 6.96137 79.3927 6.95839 79.5246 6.95532C79.8609 7.04306 79.8609 7.04306 80.104 7.32122C80.4132 8.02543 80.3736 8.68552 80.368 9.44663C80.3685 9.6132 80.3691 9.77978 80.3696 9.95141C80.3709 10.5017 80.3688 11.0519 80.3666 11.6022C80.3665 11.9843 80.3666 12.3665 80.3668 12.7487C80.3668 13.5493 80.3653 14.3499 80.3625 15.1505C80.3594 16.0762 80.3588 17.0018 80.3598 17.9274C80.3606 18.8183 80.3598 19.7093 80.3581 20.6002C80.3575 20.9792 80.3573 21.3582 80.3576 21.7372C80.3576 22.2661 80.3557 22.7949 80.3533 23.3237C80.3537 23.4812 80.354 23.6387 80.3544 23.8009C80.3528 24.0166 80.3528 24.0166 80.3512 24.2366C80.3509 24.3616 80.3506 24.4866 80.3503 24.6154C80.312 24.9365 80.312 24.9365 80.0113 25.3876C79.4076 25.5888 78.8486 25.5775 78.2163 25.585C78.0333 25.5915 78.0333 25.5915 77.8465 25.5982C77.7284 25.5994 77.6103 25.6007 77.4885 25.602C77.3812 25.6042 77.2738 25.6064 77.1632 25.6087C76.6802 25.4984 76.5444 25.3424 76.2521 24.9365C76.1568 24.3939 76.1643 23.854 76.1653 23.3042C76.1632 23.1379 76.1612 22.9716 76.1591 22.8003C76.1531 22.2499 76.1515 21.6996 76.1499 21.1492C76.1469 20.7672 76.1437 20.3852 76.1402 20.0031C76.1336 19.2023 76.129 18.4014 76.126 17.6005C76.1225 16.6749 76.1159 15.7494 76.1075 14.8239C76.0994 13.933 76.0931 13.0422 76.0877 12.1513C76.0853 11.7724 76.0826 11.3935 76.0794 11.0147C76.0754 10.4855 76.0733 9.95635 76.0719 9.42717C76.0703 9.26999 76.0688 9.11281 76.0672 8.95087C76.0672 8.73458 76.0672 8.73458 76.0673 8.51393C76.0664 8.32632 76.0664 8.32632 76.0654 8.13492C76.106 7.75543 76.1997 7.5154 76.4025 7.19343C76.9698 6.90978 77.6483 6.99579 78.2727 6.98667Z" fill="#C5FF4A"/>
<path d="M5.41444 20.6867C5.51891 20.7495 5.62339 20.8123 5.73103 20.877C5.73103 20.9762 5.73103 21.0755 5.73103 21.1777C5.83027 21.1777 5.92951 21.1777 6.03176 21.1777C6.03176 21.277 6.03176 21.3762 6.03176 21.4785C6.17597 21.5389 6.17597 21.5389 6.32309 21.6006C6.63322 21.7792 6.63322 21.7792 6.78359 22.2303C6.88283 22.2303 6.98207 22.2303 7.08432 22.2303C7.08432 22.3295 7.08432 22.4288 7.08432 22.531C7.18356 22.531 7.2828 22.531 7.38505 22.531C7.6288 22.7836 7.6288 22.7836 7.90193 23.1137C8.22469 23.5027 8.46283 23.7507 8.8887 24.0347C8.8887 24.1339 8.8887 24.2331 8.8887 24.3354C8.98794 24.3354 9.08718 24.3354 9.18943 24.3354C9.18943 24.4346 9.18943 24.5339 9.18943 24.6361C9.28867 24.6361 9.38791 24.6361 9.49016 24.6361C9.84297 25.1653 9.87199 25.3662 9.79089 25.9894C9.50631 26.3812 9.50631 26.3812 9.10955 26.7694C9.00369 26.8744 9.00369 26.8744 8.89569 26.9816C8.74605 27.1292 8.59533 27.2757 8.44362 27.4213C8.21491 27.6407 7.98949 27.8631 7.76448 28.0863C7.14276 28.6986 6.50877 29.3015 5.8391 29.8613C5.75527 29.9319 5.67144 30.0024 5.58507 30.0751C5.08881 30.2776 4.73814 30.1812 4.22738 30.0493C3.81802 29.7471 3.81802 29.7471 3.43385 29.3544C3.29477 29.2138 3.1557 29.0732 3.01241 28.9283C2.94194 28.8547 2.87148 28.7811 2.79887 28.7053C2.58183 28.4789 2.36168 28.2558 2.14077 28.0331C1.06971 26.938 1.06971 26.938 1.06971 26.5909C0.970466 26.5909 0.871225 26.5909 0.768976 26.5909C0.768976 26.4916 0.768976 26.3924 0.768976 26.2901C0.672837 26.2436 0.576697 26.1971 0.477644 26.1492C0.167515 25.9894 0.167515 25.9894 0.0171502 25.839C-0.0270364 25.2793 -0.00511768 25.1206 0.317881 24.6361C0.417122 24.6361 0.516363 24.6361 0.618611 24.6361C0.618611 24.5369 0.618611 24.4376 0.618611 24.3354C0.739561 24.2951 0.860511 24.2548 0.985126 24.2132C1.11228 24.1543 1.23943 24.0954 1.37044 24.0347C1.42006 23.8858 1.46968 23.7369 1.5208 23.5836C1.75516 23.358 1.75516 23.358 2.03768 23.1325C2.40611 22.8371 2.60551 22.6331 2.87409 22.2303C2.97333 22.2303 3.07257 22.2303 3.17482 22.2303C3.17482 22.131 3.17482 22.0318 3.17482 21.9295C3.4543 21.6746 3.7308 21.4447 4.03002 21.2153C4.10978 21.1496 4.18954 21.0839 4.27172 21.0162C4.87793 20.5506 4.87793 20.5506 5.41444 20.6867Z" fill="#C5FF4A"/>
<path d="M23.3294 20.4476C24.1892 20.8227 24.802 21.6052 25.3923 22.3084C25.6739 22.6199 25.9612 22.9096 26.2639 23.2C26.3597 23.2924 26.4554 23.3849 26.554 23.4802C26.7476 23.666 26.9428 23.8503 27.1394 24.0329C27.8128 24.6823 27.8128 24.6823 27.9197 25.1947C27.6617 26.2357 26.5097 26.9779 25.7294 27.6434C25.456 27.8836 25.1835 28.1248 24.9118 28.367C24.7214 28.536 24.7214 28.536 24.5271 28.7083C24.2164 28.9733 24.2164 28.9733 24.0754 29.2974C23.9762 29.2974 23.8769 29.2974 23.7747 29.2974C23.725 29.4463 23.6754 29.5951 23.6243 29.7485C23.2108 30.0304 23.2108 30.0304 22.7221 30.1996C22.0658 29.9699 21.691 29.4536 21.2684 28.925C21.0766 28.6764 21.0766 28.6764 20.7674 28.5456C20.7674 28.4463 20.7674 28.3471 20.7674 28.2449C20.6681 28.2449 20.5689 28.2449 20.4666 28.2449C20.4666 28.1456 20.4666 28.0464 20.4666 27.9441C20.3674 27.9441 20.2682 27.9441 20.1659 27.9441C19.7712 27.587 19.7712 27.587 19.4141 27.1923C19.4141 27.0931 19.4141 26.9938 19.4141 26.8916C19.3148 26.8916 19.2156 26.8916 19.1133 26.8916C19.1133 26.7923 19.1133 26.6931 19.1133 26.5908C19.0234 26.5536 18.9335 26.5164 18.8408 26.4781C18.4688 26.2655 18.2963 26.0419 18.0608 25.6886C18.2767 25.2094 18.5424 24.8433 18.8878 24.4481C18.9793 24.3419 19.0708 24.2357 19.165 24.1263C19.4141 23.8843 19.4141 23.8843 19.7148 23.8843C19.7551 23.7943 19.7954 23.7044 19.837 23.6117C20.0154 23.283 20.1803 23.0703 20.4666 22.8317C20.5659 22.8317 20.6651 22.8317 20.7674 22.8317C20.8015 22.748 20.8356 22.6642 20.8707 22.578C21.1274 22.1257 21.4392 21.8343 21.8199 21.4784C21.9662 21.3362 21.9662 21.3362 22.1154 21.1912C22.2715 21.045 22.2715 21.045 22.4308 20.8958C22.5287 20.8031 22.6265 20.7105 22.7274 20.615C23.0228 20.4259 23.0228 20.4259 23.3294 20.4476Z" fill="#C5FF4A"/>
<path d="M40.6157 20.5767C41.009 20.6258 41.3135 20.7 41.6682 20.8774C41.6682 20.9766 41.6682 21.0759 41.6682 21.1781C41.8125 21.2386 41.8125 21.2386 41.9596 21.3003C42.2697 21.4789 42.2697 21.4789 42.4201 21.9299C42.5193 21.9299 42.6186 21.9299 42.7208 21.9299C42.7208 22.0292 42.7208 22.1284 42.7208 22.2307C42.8697 22.2803 43.0185 22.3299 43.1719 22.381C43.3869 22.5995 43.3869 22.5995 43.6042 22.8697C44.0846 23.4512 44.5865 23.9913 45.1736 24.4674C45.4274 24.7869 45.4274 24.7869 45.4938 25.2726C45.4072 26.0117 45.1312 26.2973 44.6192 26.8074C44.5428 26.8887 44.4664 26.97 44.3877 27.0538C44.191 27.2586 43.9829 27.4522 43.7734 27.6438C43.6741 27.6438 43.5749 27.6438 43.4726 27.6438C43.4323 27.7338 43.392 27.8237 43.3505 27.9164C43.172 28.2451 43.0071 28.4578 42.7208 28.6964C42.6216 28.6964 42.5223 28.6964 42.4201 28.6964C42.3608 28.8298 42.3608 28.8298 42.3003 28.966C42.0041 29.5092 41.5894 29.8744 41.0668 30.2C40.5441 30.2556 40.3007 30.1473 39.878 29.8441C39.258 29.3266 38.7277 28.7488 38.2104 28.1308C37.7095 27.5712 37.1479 27.0698 36.5946 26.5625C36.1848 26.0527 36.11 25.7373 36.1047 25.0876C36.2451 24.7916 36.2451 24.7916 36.4713 24.5613C36.5548 24.4745 36.6383 24.3877 36.7244 24.2982C37.1132 23.9361 37.5135 23.5893 37.9185 23.2456C38.1938 22.997 38.4258 22.7425 38.6609 22.4562C39.0799 21.9464 39.5513 21.5259 40.0542 21.1C40.3285 20.8718 40.3285 20.8718 40.6157 20.5767Z" fill="#C5FF4A"/>
<path d="M133.993 30.9514C134.298 32.1551 134.333 33.3053 134.323 34.5426C134.322 34.7373 134.322 34.9321 134.321 35.1328C134.32 35.6455 134.317 36.1582 134.314 36.6708C134.311 37.196 134.31 37.7213 134.308 38.2465C134.305 39.2732 134.3 40.2999 134.293 41.3266C134.463 41.3242 134.632 41.3219 134.806 41.3195C135.435 41.3113 136.064 41.3061 136.693 41.3018C136.965 41.2996 137.237 41.2965 137.509 41.2926C137.901 41.2871 138.292 41.2845 138.684 41.2826C138.866 41.2791 138.866 41.2791 139.051 41.2755C139.741 41.2753 140.202 41.3214 140.759 41.7777C140.854 42.1348 140.854 42.1348 140.844 42.5295C140.844 42.7249 140.844 42.7249 140.844 42.9242C140.759 43.2814 140.759 43.2814 140.519 43.5445C139.603 44.0211 138.476 43.8985 137.472 43.8805C137.318 43.878 137.164 43.8755 137.005 43.873C136.68 43.8673 136.356 43.8612 136.031 43.8547C135.533 43.8452 135.036 43.839 134.538 43.8329C134.223 43.827 133.907 43.821 133.591 43.8147C133.367 43.8125 133.367 43.8125 133.14 43.8103C133.001 43.8069 132.863 43.8034 132.721 43.7999C132.6 43.7977 132.478 43.7956 132.353 43.7934C132.038 43.7325 132.038 43.7325 131.773 43.5756C131.482 43.1157 131.527 42.6416 131.533 42.1145C131.533 41.9959 131.533 41.8772 131.532 41.755C131.532 41.3628 131.535 40.9706 131.538 40.5783C131.538 40.3062 131.538 40.0342 131.538 39.7621C131.539 39.192 131.541 38.622 131.545 38.0519C131.549 37.3195 131.55 36.5872 131.551 35.8548C131.552 35.2932 131.553 34.7316 131.555 34.1699C131.556 33.8998 131.557 33.6296 131.557 33.3595C131.558 32.9829 131.56 32.6063 131.563 32.2297C131.563 32.1171 131.563 32.0045 131.563 31.8884C131.57 31.119 131.57 31.119 131.737 30.9514C132.542 30.7873 133.193 30.8251 133.993 30.9514Z" fill="#C5FF4A"/>
</g>
<defs>
<clipPath id="clip0_5602_18156">
<rect width="181" height="51" fill="white"/>
</clipPath>
</defs>
</svg>
