<svg width="181" height="72" viewBox="0 0 181 72" fill="none" xmlns="http://www.w3.org/2000/svg">
<path d="M90.3719 0.0584238C90.5829 0.218121 90.7889 0.384504 90.9919 0.554389C91.1421 0.635931 91.2948 0.713148 91.4491 0.786873C92.0654 1.08284 92.6414 1.43705 93.2237 1.7943C93.3225 1.85264 93.4213 1.91098 93.523 1.97109C93.6587 2.05236 93.6587 2.05236 93.7972 2.13528C93.878 2.18323 93.9589 2.23118 94.0422 2.28058C94.1281 2.34675 94.1281 2.34675 94.2156 2.41426C94.2156 2.49609 94.2156 2.57793 94.2156 2.66224C93.9866 2.81384 93.75 2.95409 93.5104 3.08846C93.3795 3.16246 93.2486 3.23647 93.1138 3.31271C92.9864 3.38448 92.859 3.45624 92.7277 3.53018C92.617 3.60067 92.5062 3.67115 92.3921 3.74377C92.1078 3.90215 92.1078 3.90215 91.7358 3.90215C91.7358 3.98399 91.7358 4.06582 91.7358 4.15014C91.665 4.18338 91.5942 4.21663 91.5212 4.25088C90.7347 4.63103 90 5.06999 89.2599 5.53341C88.9672 5.71141 88.6812 5.87102 88.3725 6.01776C87.9716 6.20855 87.6061 6.43515 87.2334 6.67646C86.686 7.03065 86.1294 7.34818 85.5547 7.65531C85.067 7.92333 84.5889 8.20608 84.1103 8.48983C83.5443 8.82526 82.9786 9.15705 82.3977 9.46626C81.9465 9.70692 81.5078 9.9638 81.0711 10.2296C80.9594 10.2975 80.8476 10.3655 80.7325 10.4355C80.5071 10.5731 80.2822 10.7114 80.0577 10.8505C79.954 10.9138 79.8504 10.9771 79.7435 11.0423C79.6503 11.0999 79.557 11.1575 79.4609 11.2169C79.2127 11.3416 79.2127 11.3416 78.8407 11.3416C79.2594 11.8149 79.7266 12.0833 80.2744 12.3801C80.4062 12.4523 80.4062 12.4523 80.5407 12.526C80.7176 12.623 80.8947 12.7197 81.072 12.8162C81.2942 12.9389 81.5134 13.067 81.7322 13.1957C81.8495 13.2641 81.9669 13.3325 82.0877 13.403C82.1892 13.4634 82.2907 13.5238 82.3953 13.5861C82.7485 13.7222 82.9465 13.679 83.3044 13.5735C83.3044 13.4916 83.3044 13.4098 83.3044 13.3255C83.4411 13.2504 83.5777 13.1753 83.7185 13.0979C85.0404 12.3688 86.3461 11.6162 87.6441 10.8457C88.0107 10.6283 88.3775 10.4113 88.7445 10.1947C88.8321 10.143 88.9196 10.0913 89.0098 10.038C89.6211 9.67851 90.2394 9.33497 90.8674 9.00517C91.1327 8.8664 91.1327 8.8664 91.3638 8.61382C91.5275 8.61382 91.6912 8.61382 91.8598 8.61382C91.8598 8.53199 91.8598 8.45016 91.8598 8.36584C91.9928 8.30191 92.1258 8.23798 92.2628 8.17211C93.1709 7.71802 94.0367 7.18551 94.9053 6.66096C95.5374 6.28066 96.1742 5.90845 96.8117 5.53729C96.9161 5.47619 97.0205 5.4151 97.128 5.35215C97.2268 5.29481 97.3255 5.23747 97.4273 5.17839C97.5162 5.12664 97.605 5.07488 97.6966 5.02156C97.9354 4.89408 97.9354 4.89408 98.3074 4.77009C98.5757 4.87181 98.5757 4.87181 98.8808 5.03357C98.9895 5.09064 99.0982 5.1477 99.2102 5.20648C99.6963 5.47121 100.182 5.73674 100.663 6.01001C100.663 6.09184 100.663 6.17368 100.663 6.25799C100.786 6.2695 100.786 6.2695 100.911 6.28124C101.43 6.42183 101.832 6.7039 102.275 7.00194C102.103 7.5175 101.747 7.65134 101.299 7.90862C101.214 7.95834 101.129 8.00806 101.042 8.05928C100.466 8.39495 99.8826 8.71564 99.2954 9.03084C98.8419 9.28088 98.3965 9.5434 97.9509 9.80724C97.0206 10.358 96.0839 10.897 95.144 11.4312C94.6713 11.7001 94.1993 11.9694 93.7328 12.2488C93.6006 12.3279 93.4684 12.407 93.3322 12.4886C93.2219 12.5557 93.1116 12.6228 92.998 12.692C92.7277 12.8295 92.7277 12.8295 92.3558 12.8295C92.3558 12.9114 92.3558 12.9932 92.3558 13.0775C92.2491 13.1343 92.2491 13.1343 92.1402 13.1923C91.3542 13.6158 90.5789 14.0561 89.8062 14.5034C89.7037 14.5627 89.6011 14.6221 89.4955 14.6832C88.9646 14.9915 88.4379 15.3048 87.9153 15.6271C87.5072 15.8751 87.1176 16.0548 86.6522 16.1773C86.9816 16.527 87.2992 16.7879 87.7138 17.0297C87.8236 17.094 87.9335 17.1582 88.0466 17.2244C88.37 17.407 88.6959 17.5833 89.0235 17.7582C89.7022 18.1235 90.3495 18.5314 91.0002 18.9435C91.5994 19.321 92.208 19.6715 92.8348 20.0017C93.0997 20.145 93.0997 20.145 93.4717 20.393C94.0213 20.3585 94.3957 20.1055 94.8511 19.8118C94.993 19.7219 95.1351 19.6323 95.2773 19.543C95.3483 19.4983 95.4192 19.4537 95.4924 19.4077C95.8111 19.2106 96.1357 19.0255 96.463 18.8431C96.5707 18.783 96.6784 18.7229 96.7894 18.661C97.0674 18.5331 97.0674 18.5331 97.4394 18.5331C97.4394 18.4513 97.4394 18.3695 97.4394 18.2851C97.6584 18.1602 97.8781 18.0364 98.0981 17.9132C98.2204 17.8441 98.3427 17.7751 98.4686 17.7039C98.8033 17.5412 98.8033 17.5412 99.1753 17.5412C99.1753 17.4594 99.1753 17.3775 99.1753 17.2932C99.3799 17.2523 99.5845 17.2114 99.7952 17.1692C99.7952 17.0874 99.7952 17.0056 99.7952 16.9212C99.8635 16.8848 99.9317 16.8484 100.002 16.8108C100.818 16.3707 101.625 15.9158 102.43 15.4566C102.599 15.3606 102.599 15.3606 102.77 15.2626C103.542 14.8205 104.308 14.3682 105.061 13.8947C105.403 13.684 105.584 13.5735 105.995 13.5735C105.995 13.4916 105.995 13.4098 105.995 13.3255C106.237 13.2009 106.48 13.077 106.723 12.9535C106.858 12.8845 106.994 12.8154 107.133 12.7443C107.483 12.5815 107.483 12.5815 107.731 12.5815C107.731 12.4997 107.731 12.4179 107.731 12.3336C108.26 12.0629 108.785 11.7988 109.343 11.5896C109.343 11.5078 109.343 11.4259 109.343 11.3416C109.506 11.4235 109.67 11.5053 109.839 11.5896C109.875 12.28 109.902 12.9698 109.92 13.6609C109.928 13.8957 109.938 14.1303 109.951 14.3648C110.035 15.93 110.035 15.93 109.839 16.5493C109.404 17.0203 108.964 17.2448 108.351 17.4172C108.228 17.4172 108.105 17.4172 107.979 17.4172C107.979 17.499 107.979 17.5809 107.979 17.6652C107.839 17.7417 107.7 17.8183 107.556 17.8972C106.537 18.4585 105.527 19.0294 104.533 19.6336C103.972 19.9736 103.401 20.2899 102.823 20.5998C102.465 20.797 102.122 21.0129 101.777 21.2319C101.499 21.4049 101.218 21.5709 100.934 21.7337C100.844 21.7856 100.754 21.8375 100.661 21.8911C100.415 22.0049 100.415 22.0049 100.043 22.0049C100.043 22.0867 100.043 22.1686 100.043 22.2529C99.9026 22.3219 99.7619 22.391 99.617 22.4621C99.1237 22.7074 98.6456 22.9748 98.1688 23.2506C97.9354 23.3688 97.9354 23.3688 97.6874 23.3688C97.6874 23.4506 97.6874 23.5325 97.6874 23.6168C97.6071 23.66 97.5268 23.7031 97.4441 23.7476C96.5388 24.2376 95.6466 24.7477 94.7581 25.2674C94.6234 25.3458 94.4886 25.4242 94.3498 25.505C94.2221 25.5795 94.0944 25.6541 93.9628 25.7309C93.8475 25.7983 93.7321 25.8656 93.6133 25.935C93.3594 26.0751 93.3594 26.0751 93.2237 26.2206C93.2127 26.6053 93.2094 26.9872 93.2116 27.3719C93.2118 27.4873 93.212 27.6027 93.2121 27.7216C93.2128 28.0918 93.2144 28.462 93.216 28.8322C93.2166 29.0825 93.2171 29.3328 93.2177 29.5831C93.219 30.1982 93.2212 30.8132 93.2237 31.4282C93.3433 31.367 93.4628 31.3058 93.586 31.2427C93.7442 31.1625 93.9024 31.0822 94.0606 31.002C94.1393 30.9616 94.2179 30.9213 94.2989 30.8797C94.6786 30.6879 95.0347 30.5117 95.4556 30.4363C95.4556 30.3545 95.4556 30.2726 95.4556 30.1883C95.5145 30.1565 95.5735 30.1247 95.6343 30.0919C96.2611 29.7491 96.8748 29.388 97.4859 29.0181C98.1254 28.6318 98.7699 28.2609 99.4281 27.9071C99.8964 27.6538 100.361 27.3951 100.826 27.135C100.909 27.0888 100.992 27.0426 101.078 26.9951C101.575 26.716 102.049 26.4143 102.523 26.0966C102.726 25.9827 102.93 25.8715 103.135 25.7634C103.553 25.5399 103.963 25.3088 104.367 25.0611C104.449 25.0107 104.531 24.9603 104.616 24.9084C104.778 24.8086 104.939 24.7081 105.1 24.6067C105.52 24.3483 105.874 24.1698 106.367 24.1127C106.367 24.0309 106.367 23.9491 106.367 23.8648C106.445 23.8226 106.523 23.7804 106.604 23.7369C107.567 23.2153 108.518 22.6747 109.467 22.1289C109.589 22.2107 109.712 22.2925 109.839 22.3769C109.879 22.7242 109.897 23.0436 109.897 23.3916C109.898 23.4921 109.899 23.5927 109.9 23.6964C109.901 23.9093 109.901 24.1223 109.901 24.3352C109.901 24.6613 109.906 24.9871 109.911 25.3132C109.912 25.5199 109.912 25.7266 109.912 25.9334C109.915 26.0799 109.915 26.0799 109.918 26.2293C109.915 26.5051 109.915 26.5051 109.839 26.9645C109.549 27.1991 109.549 27.1991 109.219 27.3365C109.087 27.4201 108.955 27.5037 108.819 27.5898C108.749 27.6334 108.68 27.6769 108.609 27.7218C108.467 27.8119 108.324 27.9027 108.182 27.994C107.648 28.3284 107.648 28.3284 107.235 28.3284C107.235 28.4103 107.235 28.4921 107.235 28.5764C107.16 28.6125 107.084 28.6487 107.007 28.6859C106.355 29.005 105.73 29.3486 105.111 29.7272C104.684 29.9826 104.251 30.2251 103.817 30.4673C103.032 30.9062 102.254 31.3567 101.48 31.8147C100.698 32.2768 99.9125 32.7315 99.125 33.1837C98.6735 33.4438 98.2271 33.7087 97.7872 33.988C97.4005 34.2318 97.0084 34.4409 96.5947 34.6365C95.9431 34.9541 95.3455 35.3215 94.746 35.7282C94.4636 35.8919 94.4636 35.8919 94.0916 35.8919C94.0916 35.9737 94.0916 36.0556 94.0916 36.1399C93.9114 36.2281 93.9114 36.2281 93.7274 36.3181C93.3719 36.4749 93.3719 36.4749 93.2237 36.6359C93.2149 36.8558 93.2147 37.0762 93.2179 37.2963C93.2202 37.5081 93.2202 37.5081 93.2226 37.7241C93.2244 37.878 93.2262 38.032 93.2281 38.1906C93.229 38.5984 93.2293 39.0062 93.2293 39.414C93.2296 39.8415 93.2322 40.2687 93.2394 40.6962C93.2476 41.1888 93.2458 41.6811 93.2436 42.1738C93.2476 42.3263 93.2517 42.4787 93.2559 42.6357C93.2415 43.6774 93.2415 43.6774 92.8298 44.1128C92.5151 44.3356 92.2025 44.5195 91.8598 44.6953C91.7102 44.7876 91.561 44.8805 91.4123 44.9743C91.2195 45.0817 91.2195 45.0817 91.0229 45.1913C90.8931 45.2654 90.7633 45.3396 90.6296 45.416C90.1719 45.5926 89.9708 45.5802 89.504 45.4392C89.0995 45.2407 89.0995 45.2407 88.6748 44.9898C88.5993 44.9456 88.5238 44.9015 88.4461 44.856C87.972 44.5765 87.5087 44.2825 87.0474 43.9823C86.4839 43.617 85.9117 43.3313 85.2883 43.0834C85.2883 43.0016 85.2883 42.9197 85.2883 42.8354C85.2167 42.8201 85.1451 42.8047 85.0713 42.7889C84.7894 42.7106 84.5536 42.6013 84.2963 42.4635C84.2963 42.3816 84.2963 42.2998 84.2963 42.2155C84.1609 42.1951 84.1609 42.1951 84.0227 42.1743C83.655 42.0864 83.414 41.959 83.0952 41.7583C82.9871 41.6913 82.8791 41.6243 82.7678 41.5553C82.6584 41.4867 82.5491 41.4182 82.4365 41.3475C81.3461 40.6806 80.2386 40.0471 79.0887 39.4877C79.0887 39.4058 79.0887 39.324 79.0887 39.2397C78.9353 39.1936 78.9353 39.1936 78.7787 39.1467C78.2798 38.9685 77.8215 38.7408 77.3528 38.4957C77.3528 38.4139 77.3528 38.3321 77.3528 38.2477C77.271 38.2171 77.1892 38.1864 77.1048 38.1548C76.6382 37.9603 76.1909 37.7338 75.7409 37.5038C75.7409 37.422 75.7409 37.3401 75.7409 37.2558C75.4954 37.2149 75.2499 37.174 74.997 37.1318C74.997 37.05 74.997 36.9682 74.997 36.8838C74.8397 36.8378 74.8397 36.8378 74.6793 36.7908C74.2054 36.6185 73.8168 36.3989 73.3851 36.1399C73.3851 36.0581 73.3851 35.9762 73.3851 35.8919C73.2751 35.8817 73.1652 35.8715 73.0519 35.8609C72.5771 35.7534 72.3919 35.5809 72.0212 35.272C71.7876 35.1438 71.5505 35.0285 71.3092 34.9155C70.9169 34.72 70.5414 34.4984 70.1613 34.28C70.1468 31.3323 70.1359 28.3845 70.1292 25.4368C70.126 24.0681 70.1216 22.6994 70.1146 21.3308C70.1084 20.138 70.1044 18.9452 70.103 17.7524C70.1022 17.1207 70.1003 16.489 70.0958 15.8573C70.0916 15.2629 70.0903 14.6685 70.0912 14.074C70.091 13.8557 70.0898 13.6375 70.0874 13.4192C70.0843 13.1212 70.0851 12.8235 70.0868 12.5256C70.085 12.4391 70.0832 12.3526 70.0813 12.2635C70.0886 11.7864 70.1507 11.6023 70.4613 11.2308C70.7187 11.0208 70.9422 10.8511 71.2375 10.7042C71.3628 10.6403 71.3628 10.6403 71.4907 10.5752C71.5788 10.5314 71.6669 10.4877 71.7577 10.4427C72.4636 10.0808 73.1565 9.70765 73.8346 9.29578C73.9099 9.25005 73.9852 9.20433 74.0628 9.15722C74.2147 9.06462 74.3666 8.97186 74.5183 8.87894C74.9146 8.63653 75.312 8.39626 75.7099 8.15661C75.7873 8.10997 75.8647 8.06334 75.9444 8.0153C76.5126 7.67494 77.0902 7.35555 77.6739 7.04262C77.9456 6.89289 78.2073 6.73485 78.4687 6.56797C78.8306 6.33716 79.1987 6.12778 79.5769 5.92476C80.5461 5.40209 81.4893 4.83533 82.4365 4.27413C84.5457 3.02435 84.5457 3.02435 85.6142 2.45349C85.9866 2.24673 86.3416 2.0177 86.6948 1.77977C86.9002 1.67031 86.9002 1.67031 87.2721 1.67031C87.2721 1.58848 87.2721 1.50664 87.2721 1.42233C87.3365 1.39084 87.4009 1.35935 87.4673 1.32691C88.0275 1.05047 88.5657 0.757462 89.0928 0.421195C89.8604 -0.0492697 89.8604 -0.0492697 90.3719 0.0584238ZM73.6331 17.2932C73.6331 19.1345 73.6331 20.9758 73.6331 22.8728C74.0832 23.1183 74.5333 23.3638 74.997 23.6168C75.2458 23.76 75.494 23.9043 75.7409 24.0507C76.1893 24.3141 76.6393 24.5713 77.0971 24.8179C78.7851 25.7323 80.4407 26.7036 82.0834 27.6964C82.7218 28.0812 83.3648 28.4523 84.0232 28.8021C84.2861 28.9429 84.5431 29.0914 84.8 29.2429C85.1311 29.4644 85.1311 29.4644 85.4123 29.4444C85.4123 29.5262 85.4123 29.608 85.4123 29.6923C85.5721 29.7756 85.7323 29.8581 85.8927 29.9403C86.0265 30.0094 86.0265 30.0094 86.163 30.0798C86.3978 30.2053 86.3978 30.2053 86.6522 30.1883C86.7077 29.4364 86.748 28.6858 86.7748 27.9323C86.7859 27.6768 86.8011 27.4215 86.8205 27.1665C86.9695 25.7419 86.9695 25.7419 86.437 24.4828C85.8278 23.9859 85.14 23.6722 84.4203 23.3688C84.1898 23.2538 83.9596 23.1381 83.7306 23.0201C83.637 22.9756 83.5433 22.9312 83.4468 22.8854C83.0606 22.6874 82.7127 22.4413 82.3556 22.1957C81.9307 21.9172 81.4862 21.6804 81.0382 21.4416C80.6225 21.2192 80.2137 20.9854 79.805 20.7504C79.5887 20.6226 79.5887 20.6226 79.3367 20.641C79.3367 20.5591 79.3367 20.4773 79.3367 20.393C79.219 20.347 79.1014 20.3009 78.9802 20.2535C78.473 20.0367 78.014 19.7564 77.5446 19.4684C77.1632 19.2373 76.7735 19.0239 76.3822 18.8102C76.0228 18.6059 75.6786 18.3807 75.3351 18.151C75.1066 18.0081 75.1066 18.0081 74.749 18.0372C74.749 17.9553 74.749 17.8735 74.749 17.7892C74.5864 17.7062 74.4236 17.6236 74.2608 17.5412C74.1702 17.4952 74.0795 17.4491 73.9862 17.4017C73.7806 17.2844 73.7806 17.2844 73.6331 17.2932ZM73.6331 26.4686C73.6023 27.2119 73.5799 27.955 73.565 28.6988C73.5587 28.9515 73.5503 29.2042 73.5395 29.4568C73.4194 30.876 73.4194 30.876 73.8917 32.1522C74.2142 32.3812 74.5044 32.5274 74.873 32.6681C75.0906 32.778 75.3077 32.8889 75.5239 33.0014C75.6258 33.0496 75.7276 33.0979 75.8325 33.1476C76.0854 33.2743 76.3085 33.412 76.5391 33.5748C76.8452 33.8182 76.8452 33.8182 77.2288 33.7841C77.2288 33.8659 77.2288 33.9477 77.2288 34.032C77.5891 34.2852 77.7746 34.404 78.2208 34.404C78.2208 34.4859 78.2208 34.5677 78.2208 34.652C78.3216 34.7003 78.4225 34.7485 78.5264 34.7983C79.8358 35.4375 81.1123 36.1411 82.3349 36.9355C82.4224 36.9923 82.51 37.0491 82.6002 37.1076C82.6788 37.1597 82.7575 37.2118 82.8385 37.2654C83.0703 37.4086 83.0703 37.4086 83.4284 37.3798C83.4284 37.4616 83.4284 37.5435 83.4284 37.6278C83.6244 37.7292 83.8208 37.8298 84.0174 37.93C84.1267 37.9861 84.236 38.0422 84.3486 38.1C84.6239 38.2272 84.8685 38.3116 85.1643 38.3717C85.1643 38.4536 85.1643 38.5354 85.1643 38.6197C85.3689 38.6606 85.5734 38.7016 85.7842 38.7437C85.7842 38.8255 85.7842 38.9074 85.7842 38.9917C86.0706 39.1144 86.3571 39.2372 86.6522 39.3637C86.6522 37.5224 86.6522 35.6811 86.6522 33.7841C85.1957 32.7614 85.1957 32.7614 84.5443 32.7921C84.5443 32.7103 84.5443 32.6285 84.5443 32.5441C84.4484 32.4976 84.3525 32.4511 84.2537 32.4032C83.5914 32.0778 82.9466 31.7479 82.327 31.3469C81.8776 31.0616 81.4147 30.7995 80.9539 30.5332C80.4945 30.2642 80.0425 29.984 79.5919 29.7006C79.3295 29.5398 79.3295 29.5398 78.9647 29.5684C78.9647 29.4865 78.9647 29.4047 78.9647 29.3204C78.7601 29.2795 78.5555 29.2385 78.3447 29.1964C78.3447 29.1145 78.3447 29.0327 78.3447 28.9484C78.1257 28.8235 77.906 28.6997 77.686 28.5764C77.5638 28.5074 77.4415 28.4383 77.3155 28.3672C76.9871 28.1773 76.9871 28.1773 76.6089 28.2045C76.6089 28.1226 76.6089 28.0408 76.6089 27.9565C76.5262 27.9114 76.4436 27.8663 76.3585 27.8199C76.2442 27.7575 76.1299 27.6952 76.0122 27.631C75.8888 27.5639 75.7654 27.4967 75.6383 27.4276C75.378 27.2853 75.1184 27.1419 74.8594 26.9975C74.7386 26.9303 74.6178 26.8632 74.4933 26.794C74.3819 26.7317 74.2705 26.6694 74.1557 26.6052C73.8952 26.4502 73.8952 26.4502 73.6331 26.4686Z" fill="#C5FF4A"/>
<path d="M138.544 49.269C138.737 49.2691 138.931 49.2698 139.124 49.271C139.277 49.2713 139.277 49.2713 139.432 49.2715C139.758 49.2722 140.084 49.2738 140.41 49.2754C140.631 49.276 140.851 49.2766 141.072 49.2771C141.613 49.2784 142.155 49.2806 142.696 49.2831C143.303 50.4074 143.889 51.5361 144.432 52.6929C144.809 53.4944 145.197 54.2849 145.618 55.0642C146.059 55.8818 146.466 56.7111 146.857 57.5538C147.16 58.205 147.477 58.8482 147.799 59.4901C147.845 59.5818 147.891 59.6736 147.938 59.7681C148.051 59.9929 148.163 60.2176 148.276 60.4423C148.277 60.3044 148.278 60.1664 148.28 60.0242C148.292 58.7269 148.305 57.4296 148.318 56.1323C148.325 55.4653 148.331 54.7983 148.338 54.1312C148.343 53.4881 148.35 52.8449 148.357 52.2018C148.359 51.9558 148.362 51.7099 148.364 51.4639C148.367 51.1207 148.371 50.7774 148.374 50.4342C148.375 50.3314 148.376 50.2287 148.377 50.1228C148.386 49.4213 148.386 49.4213 148.524 49.2831C149.383 49.2831 150.242 49.2831 151.128 49.2831C151.128 53.9886 151.128 58.6941 151.128 63.5421C149.614 63.5421 148.1 63.5421 146.54 63.5421C145.933 62.4166 145.348 61.2897 144.804 60.1324C144.428 59.3308 144.039 58.5404 143.619 57.761C143.178 56.9435 142.77 56.1142 142.38 55.2715C142.077 54.6202 141.759 53.9771 141.438 53.3351C141.392 53.2434 141.346 53.1516 141.298 53.0571C141.186 52.8323 141.073 52.6076 140.96 52.3829C140.959 52.519 140.958 52.6552 140.957 52.7955C140.948 54.0763 140.937 55.3572 140.925 56.638C140.919 57.2965 140.913 57.9551 140.908 58.6136C140.904 59.2488 140.898 59.8839 140.891 60.519C140.889 60.7617 140.887 61.0045 140.886 61.2472C140.884 61.5863 140.88 61.9253 140.876 62.2644C140.876 62.3655 140.875 62.4666 140.875 62.5708C140.865 63.2659 140.865 63.2659 140.588 63.5421C140.333 63.5703 140.333 63.5703 140.022 63.5663C139.911 63.5655 139.8 63.5647 139.685 63.5639C139.511 63.5608 139.511 63.5608 139.333 63.5576C139.157 63.5559 139.157 63.5559 138.978 63.5542C138.688 63.5513 138.398 63.5472 138.109 63.5421C137.964 62.8547 137.967 62.1852 137.969 61.4864C137.968 61.3559 137.968 61.2254 137.968 61.0909C137.967 60.6608 137.968 60.2307 137.968 59.8006C137.968 59.5017 137.968 59.2028 137.968 58.904C137.968 58.2785 137.968 57.653 137.968 57.0276C137.969 56.2239 137.969 55.4203 137.968 54.6167C137.968 54.0001 137.968 53.3835 137.968 52.7669C137.968 52.4704 137.968 52.1739 137.968 51.8775C137.967 51.4645 137.968 51.0516 137.969 50.6386C137.968 50.515 137.968 50.3914 137.968 50.2641C137.968 50.1523 137.969 50.0405 137.969 49.9254C137.969 49.8277 137.969 49.7301 137.969 49.6294C137.998 49.2145 138.116 49.2829 138.544 49.269Z" fill="#C5FF4A"/>
<path d="M28.8723 49.2833C30.3019 49.2731 31.7314 49.2628 33.2043 49.2523C33.6537 49.2478 34.1031 49.2433 34.5662 49.2386C35.12 49.2364 35.12 49.2364 35.3802 49.236C35.5598 49.2352 35.7394 49.2335 35.9191 49.2309C37.1877 49.2139 38.1742 49.2949 39.2101 50.0737C40.0249 50.8885 40.0362 51.7837 40.0548 52.8713C40.0406 53.9893 39.9268 54.6837 39.1413 55.5202C38.8807 55.7634 38.6166 55.9472 38.2957 56.1028C38.4491 56.1373 38.4491 56.1373 38.6056 56.1726C39.255 56.4393 39.8471 56.8669 40.1788 57.4997C40.5638 58.7955 40.5769 60.6713 39.9947 61.897C39.4904 62.6937 38.9481 63.1703 38.038 63.4641C37.2527 63.6336 36.4407 63.5871 35.641 63.5786C35.4673 63.5781 35.2936 63.5777 35.12 63.5775C34.4814 63.5755 33.8428 63.5704 33.2043 63.5655C31.7747 63.5579 30.3452 63.5502 28.8723 63.5423C28.8723 58.8368 28.8723 54.1314 28.8723 49.2833ZM31.7241 51.6391C31.7241 52.7848 31.7241 53.9305 31.7241 55.1109C32.3485 55.1194 32.9727 55.1268 33.5972 55.1313C33.8094 55.1332 34.0217 55.1357 34.2339 55.1389C34.5396 55.1435 34.8452 55.1456 35.1508 55.1472C35.2453 55.1491 35.3397 55.151 35.437 55.153C36.0012 55.1532 36.3604 55.0894 36.8078 54.7389C37.277 54.0917 37.2619 53.399 37.1797 52.6311C37.0682 52.1899 37.0682 52.1899 36.8078 51.8871C36.2213 51.6301 35.672 51.6061 35.0419 51.6149C34.9466 51.6153 34.8513 51.6156 34.7531 51.616C34.4512 51.6174 34.1494 51.6205 33.8475 51.6236C33.6418 51.6249 33.4361 51.626 33.2304 51.627C32.7283 51.6295 32.2263 51.6344 31.7241 51.6391ZM31.7241 57.3427C31.7241 58.6112 31.7241 59.8796 31.7241 61.1865C32.3328 61.1916 32.9414 61.1967 33.5685 61.202C33.7579 61.2042 33.9472 61.2065 34.1424 61.2088C35.661 61.2928 35.661 61.2928 37.0106 60.7666C37.4603 60.2345 37.4693 59.816 37.4665 59.1483C37.4685 59.0536 37.4705 58.9589 37.4725 58.8614C37.4729 58.4489 37.4646 58.1604 37.2781 57.7878C36.7029 57.2779 36.0705 57.3092 35.3446 57.3185C35.2409 57.3189 35.1372 57.3192 35.0303 57.3196C34.7006 57.321 34.3709 57.3241 34.0412 57.3272C33.817 57.3285 33.5929 57.3296 33.3687 57.3306C32.8205 57.3331 32.2723 57.338 31.7241 57.3427Z" fill="#C5FF4A"/>
<path d="M58.4286 49.1357C58.5853 49.1342 58.7419 49.1327 58.9033 49.1311C60.254 49.129 61.9303 49.2163 63.0609 50.0642C63.2255 50.2284 63.2255 50.2284 63.4658 50.5229C63.5885 50.6456 63.5885 50.6456 63.7138 50.7709C63.7138 50.8936 63.7138 51.0164 63.7138 51.1429C63.7956 51.1429 63.8774 51.1429 63.9617 51.1429C64.0227 51.3231 64.0817 51.5041 64.14 51.6853C64.1731 51.786 64.2062 51.8867 64.2402 51.9904C64.4712 52.9597 64.4764 53.9561 64.4742 54.9478C64.4743 55.0697 64.4744 55.1916 64.4745 55.3172C64.4746 55.5731 64.4744 55.829 64.4739 56.0849C64.4732 56.4734 64.4739 56.8619 64.4747 57.2504C64.4746 57.5006 64.4744 57.7509 64.4742 58.0011C64.4744 58.1156 64.4747 58.2301 64.4749 58.348C64.4679 60.3176 64.4679 60.3176 64.14 61.2016C64.1066 61.294 64.0732 61.3864 64.0388 61.4816C64.0133 61.5478 63.9879 61.6139 63.9617 61.6821C63.8799 61.6821 63.7981 61.6821 63.7138 61.6821C63.6882 61.7716 63.6626 61.8611 63.6363 61.9533C63.2694 62.7038 62.6095 63.0156 61.8539 63.294C60.6737 63.6874 59.4888 63.6857 58.2581 63.6815C58.1188 63.682 57.9794 63.6824 57.8358 63.6829C55.742 63.6805 55.742 63.6805 54.8639 63.294C54.7632 63.2505 54.6625 63.207 54.5587 63.1623C54.4702 63.1239 54.3817 63.0855 54.2904 63.046C54.1677 63.0051 54.0449 62.9642 53.9184 62.922C53.9184 62.8402 53.9184 62.7584 53.9184 62.674C53.8468 62.6459 53.7752 62.6178 53.7015 62.5888C53.3433 62.3799 53.1557 62.1499 52.9265 61.8061C52.9265 61.6424 52.9265 61.4788 52.9265 61.3101C52.8447 61.3101 52.7628 61.3101 52.6785 61.3101C52.2869 59.827 52.2489 58.39 52.2581 56.8625C52.2601 56.467 52.2581 56.0716 52.2557 55.676C52.2515 51.9385 52.2515 51.9385 53.4225 50.5229C53.5043 50.5229 53.5862 50.5229 53.6705 50.5229C53.6705 50.4411 53.6705 50.3592 53.6705 50.2749C55.072 49.1119 56.6838 49.1366 58.4286 49.1357ZM56.1503 51.7628C56.1503 51.8446 56.1503 51.9265 56.1503 52.0108C56.0275 52.0108 55.9048 52.0108 55.7783 52.0108C55.1331 52.8109 55.12 53.9321 55.1211 54.9154C55.1205 55.0231 55.12 55.1308 55.1195 55.2418C55.1187 55.4683 55.1187 55.6947 55.1192 55.9211C55.1196 56.2631 55.1167 56.605 55.1136 56.947C55.0736 58.9204 55.0736 58.9204 55.8016 60.7057C56.8728 61.4199 58.5247 61.3297 59.7538 61.0932C60.4054 60.9137 60.9444 60.6795 61.3424 60.109C61.6265 59.2726 61.6248 58.3856 61.6224 57.509C61.6225 57.4114 61.6226 57.3138 61.6227 57.2133C61.6228 57.0086 61.6226 56.804 61.6221 56.5994C61.6214 56.2892 61.6221 55.9791 61.6229 55.669C61.6228 55.4687 61.6226 55.2683 61.6224 55.0679C61.6226 54.9769 61.6229 54.8858 61.6231 54.7919C61.6525 53.2909 61.6525 53.2909 60.986 52.0108C60.1609 51.5703 59.2697 51.5898 58.3589 51.6078C58.2282 51.6085 58.0976 51.6091 57.9629 51.6098C57.3468 51.616 56.7553 51.6332 56.1503 51.7628Z" fill="#C5FF4A"/>
<path d="M108.226 49.2831C108.226 51.1653 108.226 53.0475 108.226 54.9867C110.272 54.9458 112.318 54.9049 114.426 54.8627C114.467 53.0215 114.508 51.1802 114.55 49.2831C114.919 49.16 115.119 49.1523 115.501 49.1742C115.667 49.1832 115.667 49.1832 115.836 49.1923C116.009 49.2028 116.009 49.2028 116.185 49.2134C116.36 49.2231 116.36 49.2231 116.538 49.233C116.826 49.2491 117.114 49.2658 117.402 49.2831C117.405 51.124 117.407 52.9648 117.408 54.8056C117.409 55.6603 117.41 56.515 117.411 57.3697C117.413 58.1937 117.413 59.0177 117.414 59.8418C117.414 60.157 117.414 60.4721 117.415 60.7873C117.416 61.227 117.416 61.6668 117.416 62.1065C117.416 62.2382 117.417 62.37 117.417 62.5057C117.417 62.6248 117.417 62.7439 117.417 62.8666C117.417 62.9707 117.417 63.0749 117.417 63.1821C117.402 63.4181 117.402 63.4181 117.278 63.5421C117.086 63.5544 116.893 63.5584 116.7 63.5586C116.526 63.5588 116.526 63.5588 116.347 63.5591C116.163 63.5584 116.163 63.5584 115.976 63.5576C115.853 63.5581 115.731 63.5586 115.604 63.5591C115.488 63.5589 115.371 63.5588 115.251 63.5586C115.144 63.5585 115.036 63.5583 114.925 63.5582C114.674 63.5421 114.674 63.5421 114.55 63.4181C114.538 63.2354 114.535 63.0522 114.536 62.8691C114.536 62.7508 114.536 62.6325 114.536 62.5106C114.537 62.3854 114.537 62.2602 114.538 62.1313C114.538 62.0168 114.538 61.9024 114.538 61.7845C114.539 61.3552 114.541 60.9259 114.542 60.4966C114.545 59.5376 114.547 58.5786 114.55 57.5906C112.463 57.5906 110.376 57.5906 108.226 57.5906C108.231 59.5028 108.231 59.5028 108.238 61.4151C108.238 61.6538 108.238 61.8925 108.239 62.1313C108.239 62.2564 108.24 62.3816 108.24 62.5106C108.24 62.6289 108.24 62.7472 108.241 62.8691C108.241 62.9724 108.241 63.0756 108.241 63.182C108.226 63.4181 108.226 63.4181 108.102 63.5421C107.202 63.5421 106.302 63.5421 105.375 63.5421C105.375 58.8367 105.375 54.1312 105.375 49.2831C106.225 48.858 107.277 49.2379 108.226 49.2831Z" fill="#C5FF4A"/>
<path d="M80.1334 49.1621C80.2321 49.1685 80.3308 49.1749 80.4324 49.1815C80.5337 49.1895 80.6349 49.1975 80.7393 49.2057C80.8947 49.2163 80.8947 49.2163 81.0534 49.227C81.3078 49.2445 81.5621 49.2637 81.8164 49.2832C81.9168 49.6357 81.9556 49.9474 81.9545 50.3135C81.9545 50.4178 81.9545 50.522 81.9545 50.6294C81.9538 50.7407 81.9532 50.8521 81.9525 50.9668C81.9524 51.0817 81.9522 51.1966 81.952 51.3149C81.9513 51.6813 81.9498 52.0476 81.9482 52.414C81.9476 52.6626 81.947 52.9113 81.9465 53.1599C81.9451 53.7689 81.943 54.3778 81.9404 54.9868C82.6657 54.9637 82.6657 54.9637 83.3153 54.6883C83.3706 54.6145 83.426 54.5407 83.4831 54.4647C83.5472 54.3825 83.6113 54.3002 83.6774 54.2155C83.741 54.1274 83.8045 54.0392 83.8701 53.9484C83.9384 53.8593 84.0066 53.7702 84.077 53.6784C84.2779 53.4145 84.4739 53.1477 84.6682 52.879C84.7226 52.804 84.777 52.729 84.833 52.6517C85.0503 52.351 85.2656 52.0495 85.4756 51.7437C85.5365 51.6682 85.5974 51.5928 85.6602 51.5151C85.742 51.5151 85.8238 51.5151 85.9082 51.5151C85.9401 51.4454 85.9721 51.3757 86.005 51.3039C86.1737 50.986 86.3704 50.715 86.5901 50.4301C86.7033 50.2815 86.7033 50.2815 86.8187 50.1298C86.8865 50.055 86.9543 49.9802 87.0241 49.9032C87.1059 49.9032 87.1877 49.9032 87.2721 49.9032C87.29 49.8239 87.3079 49.7446 87.3263 49.6629C87.3961 49.4072 87.3961 49.4072 87.52 49.2832C87.7678 49.2636 88.0161 49.2521 88.2645 49.244C88.4904 49.2362 88.4904 49.2362 88.721 49.2282C88.8796 49.2234 89.0382 49.2185 89.2017 49.2135C89.3608 49.2081 89.5199 49.2028 89.6838 49.1972C90.0785 49.184 90.4731 49.1714 90.8678 49.1592C90.8678 49.7458 90.7239 49.9435 90.3718 50.3991C90.29 50.3991 90.2082 50.3991 90.1239 50.3991C90.0933 50.4679 90.0628 50.5366 90.0314 50.6074C89.846 50.9503 89.6197 51.2296 89.3722 51.5306C89.0322 51.9348 89.0322 51.9348 88.76 52.383C88.6781 52.383 88.5963 52.383 88.512 52.383C88.48 52.4527 88.448 52.5224 88.4151 52.5942C88.2464 52.9121 88.0498 53.183 87.83 53.4679C87.7546 53.567 87.6791 53.6661 87.6014 53.7682C87.5336 53.843 87.4659 53.9178 87.3961 53.9949C87.3142 53.9949 87.2324 53.9949 87.1481 53.9949C87.1187 54.0607 87.0893 54.1266 87.059 54.1944C86.8537 54.5773 86.6018 54.919 86.3421 55.2658C86.2921 55.3345 86.2421 55.4033 86.1905 55.4741C86.0614 55.6472 85.9234 55.8136 85.7842 55.9787C85.7023 55.9787 85.6205 55.9787 85.5362 55.9787C85.839 56.5302 86.2169 56.9805 86.6289 57.4511C86.7562 57.5981 86.8836 57.745 87.011 57.8919C87.2093 58.1206 87.4084 58.3484 87.6098 58.5745C87.6779 58.6516 87.7459 58.7288 87.816 58.8083C87.8781 58.878 87.9402 58.9477 88.0042 59.0195C88.14 59.2025 88.14 59.2025 88.14 59.4505C88.3241 59.5119 88.3241 59.5119 88.512 59.5745C88.512 59.6563 88.512 59.7382 88.512 59.8225C88.5938 59.8225 88.6756 59.8225 88.76 59.8225C88.9164 60.0046 88.9164 60.0046 89.0932 60.2564C89.5579 60.8972 90.0778 61.4795 90.6068 62.0674C90.9904 62.4979 91.3393 62.9054 91.6118 63.4182C91.272 63.758 90.3159 63.6018 89.8604 63.612C89.7085 63.6197 89.5567 63.6275 89.4003 63.6355C88.2967 63.6552 88.2967 63.6552 87.8389 63.3252C87.2721 62.6937 87.2721 62.6937 87.2721 62.3023C87.0879 62.2409 87.0879 62.2409 86.9001 62.1783C86.9001 62.0965 86.9001 62.0146 86.9001 61.9303C86.8183 61.9303 86.7364 61.9303 86.6521 61.9303C86.4467 61.7037 86.4467 61.7037 86.2181 61.4034C86.1427 61.3055 86.0673 61.2077 85.9895 61.1069C85.8093 60.8502 85.6667 60.6029 85.5362 60.3184C85.4544 60.3184 85.3725 60.3184 85.2882 60.3184C85.1134 60.1179 85.1134 60.1179 84.9085 59.838C84.4106 59.1783 83.8674 58.5672 83.3043 57.9626C83.2441 57.8899 83.1838 57.8172 83.1217 57.7422C82.8595 57.5323 82.682 57.553 82.3512 57.5674C82.2509 57.5707 82.1507 57.5741 82.0475 57.5776C81.9331 57.584 81.9331 57.584 81.8164 57.5906C81.8574 57.7134 81.8983 57.8361 81.9404 57.9626C81.9517 58.1382 81.9563 58.3143 81.9565 58.4903C81.9569 58.5962 81.9573 58.7022 81.9577 58.8113C81.9574 58.9252 81.9572 59.0391 81.9569 59.1565C81.9571 59.3323 81.9571 59.3323 81.9573 59.5117C81.9573 59.7595 81.9571 60.0072 81.9566 60.255C81.9559 60.6351 81.9566 61.0152 81.9574 61.3954C81.9573 61.6358 81.9571 61.8763 81.9569 62.1168C81.9572 62.231 81.9574 62.3452 81.9577 62.4628C81.9573 62.5683 81.9569 62.6738 81.9565 62.7826C81.9564 62.8756 81.9563 62.9686 81.9562 63.0645C81.9404 63.2942 81.9404 63.2942 81.8164 63.5422C81.3644 63.5458 80.9124 63.548 80.4603 63.55C80.2667 63.5515 80.2667 63.5515 80.0692 63.5531C79.9465 63.5535 79.8238 63.5539 79.6975 63.5543C79.527 63.5553 79.527 63.5553 79.3531 63.5563C79.0886 63.5422 79.0886 63.5422 78.9646 63.4182C78.9528 63.2363 78.9495 63.0537 78.9497 62.8714C78.9496 62.7533 78.9494 62.6353 78.9492 62.5136C78.9497 62.3831 78.9501 62.2525 78.9506 62.118C78.9506 61.9813 78.9505 61.8446 78.9505 61.7038C78.9506 61.2496 78.9516 60.7954 78.9525 60.3412C78.9528 60.0273 78.9529 59.7133 78.9531 59.3993C78.9535 58.6559 78.9545 57.9125 78.9557 57.169C78.9571 56.3228 78.9578 55.4767 78.9584 54.6305C78.9597 52.8894 78.9619 51.1483 78.9646 49.4072C79.3843 49.231 79.677 49.1293 80.1334 49.1621Z" fill="#C5FF4A"/>
<path d="M122.858 49.283C124.249 49.283 125.64 49.283 127.073 49.283C127.763 51.077 127.763 51.077 127.949 51.786C128.076 52.2717 128.226 52.7316 128.417 53.195C128.799 54.1299 129.084 55.0969 129.385 56.0599C129.627 56.8245 129.885 57.5717 130.191 58.313C130.338 58.6851 130.443 59.0638 130.545 59.4502C130.685 59.9589 130.834 60.4451 131.041 60.9304C131.264 61.4625 131.425 62.0016 131.576 62.5578C131.598 62.6406 131.621 62.7235 131.645 62.8089C131.697 63.0104 131.742 63.2141 131.785 63.418C131.661 63.542 131.661 63.542 131.396 63.556C131.283 63.5554 131.169 63.5547 131.052 63.5541C130.929 63.5537 130.807 63.5533 130.68 63.5529C130.551 63.5518 130.422 63.5508 130.289 63.5497C130.16 63.5491 130.03 63.5486 129.897 63.548C129.575 63.5465 129.254 63.5445 128.933 63.542C128.86 63.3638 128.788 63.1856 128.716 63.0072C128.656 62.8584 128.656 62.8584 128.594 62.7065C128.367 62.1207 128.156 61.5286 127.941 60.9381C126.018 60.9381 124.095 60.9381 122.114 60.9381C121.868 61.7565 121.623 62.5748 121.37 63.418C121.246 63.542 121.246 63.542 120.97 63.556C120.792 63.5551 120.792 63.5551 120.61 63.5541C120.417 63.5535 120.417 63.5535 120.221 63.5529C120.086 63.5518 119.951 63.5508 119.812 63.5497C119.609 63.5489 119.609 63.5489 119.401 63.548C119.066 63.5465 118.73 63.5445 118.394 63.542C118.229 63.0487 118.353 62.8441 118.526 62.3563C118.584 62.189 118.642 62.0218 118.699 61.8545C118.73 61.7662 118.761 61.6779 118.793 61.5869C118.959 61.1112 119.118 60.6333 119.277 60.1554C119.309 60.0603 119.341 59.9652 119.374 59.8673C119.568 59.2826 119.753 58.696 119.926 58.1047C120.128 57.4271 120.362 56.7616 120.608 56.0986C120.877 55.3596 121.118 54.613 121.354 53.8629C121.761 52.5803 122.18 51.3023 122.61 50.0269C122.691 49.7814 122.773 49.5359 122.858 49.283ZM124.965 51.8868C124.356 53.5152 123.804 55.1618 123.338 56.8372C123.239 57.1852 123.13 57.527 123.012 57.8694C122.844 58.2918 122.844 58.2918 122.858 58.5823C124.331 58.5823 125.804 58.5823 127.321 58.5823C126.949 57.1439 126.949 57.1439 126.453 55.8036C126.248 55.2711 126.11 54.7194 125.959 54.1695C125.816 53.6899 125.64 53.2357 125.44 52.7775C125.328 52.4832 125.267 52.1966 125.213 51.8868C125.132 51.8868 125.05 51.8868 124.965 51.8868Z" fill="#C5FF4A"/>
<path d="M71.8198 49.1438C71.9748 49.1433 72.1299 49.1428 72.2896 49.1423C75.3927 49.1456 75.3927 49.1456 76.4622 49.9483C77.2615 50.7556 77.4965 51.9359 77.5101 53.0357C77.5069 53.3972 77.4949 53.7579 77.4769 54.1189C77.0482 54.1469 76.6194 54.1719 76.1905 54.1964C76.0073 54.2084 76.0073 54.2084 75.8204 54.2207C75.7038 54.227 75.5871 54.2334 75.4669 54.24C75.3052 54.2498 75.3052 54.2498 75.1402 54.2597C74.8731 54.2429 74.8731 54.2429 74.6251 53.9949C74.5562 53.5896 74.5144 53.1842 74.4711 52.7754C74.3633 52.3254 74.2473 52.1634 73.8811 51.8871C73.491 51.8091 73.16 51.7754 72.7652 51.7631C72.61 51.7581 72.4548 51.7532 72.2949 51.7481C70.555 51.665 70.555 51.665 69.0455 52.3831C68.8024 52.7753 68.7657 53.0785 68.7634 53.5362C68.7623 53.6674 68.7611 53.7986 68.7599 53.9338C68.76 54.1456 68.76 54.1456 68.7602 54.3616C68.7597 54.5074 68.7591 54.6533 68.7586 54.8036C68.7579 55.1122 68.7578 55.4208 68.7584 55.7294C68.7587 56.2005 68.7558 56.6714 68.7527 57.1424C68.7524 57.4425 68.7523 57.7425 68.7524 58.0426C68.7513 58.183 68.7502 58.3234 68.749 58.4681C68.7534 59.2194 68.7859 59.7876 69.1695 60.4425C69.7611 61.0263 70.6222 60.9998 71.4023 61.0002C71.5503 60.9977 71.6983 60.9953 71.8508 60.9927C72.0742 60.994 72.0742 60.994 72.3022 60.9954C73.3393 61.0045 73.3393 61.0045 74.2531 60.5665C74.6321 60.0988 74.6771 59.7016 74.7026 59.1096C74.7386 58.3451 74.7386 58.3451 74.8731 58.2107C75.2829 58.1796 75.6944 58.1877 76.1052 58.1874C76.2209 58.1859 76.3365 58.1844 76.4557 58.1828C76.5662 58.1826 76.6767 58.1823 76.7906 58.1821C76.8924 58.1816 76.9942 58.1811 77.0991 58.1805C77.3529 58.2107 77.3529 58.2107 77.6009 58.4586C77.612 58.7942 77.6073 59.1091 77.5854 59.4428C77.5794 59.5377 77.5733 59.6326 77.5671 59.7304C77.504 60.5237 77.3297 61.2114 76.9809 61.9304C76.9144 62.0685 76.8479 62.2066 76.7794 62.3489C75.9235 63.2949 74.5713 63.5607 73.3493 63.6469C68.5834 63.8476 68.5834 63.8476 66.9986 62.6002C65.9242 61.5905 65.5853 60.006 65.5397 58.5772C65.5372 58.3588 65.5362 58.1404 65.5364 57.922C65.5359 57.804 65.5354 57.686 65.5348 57.5645C65.5341 57.3165 65.534 57.0685 65.5346 56.8205C65.535 56.4464 65.5321 56.0725 65.5289 55.6984C65.5225 53.7715 65.5898 51.8604 66.8524 50.2907C68.3174 49.1323 70.0334 49.1383 71.8198 49.1438Z" fill="#C5FF4A"/>
<path d="M98.1755 49.1438C98.3375 49.1433 98.4995 49.1428 98.6664 49.1423C101.74 49.1454 101.74 49.1454 102.848 50.0427C103.019 50.2752 103.019 50.2752 103.019 50.5232C103.101 50.5232 103.183 50.5232 103.267 50.5232C103.688 51.6332 103.916 52.8036 103.887 53.9949C103.398 54.3237 102.896 54.2797 102.329 54.2739C102.186 54.2754 102.186 54.2754 102.041 54.2768C101.559 54.2752 101.32 54.2677 100.911 53.9949C100.834 53.6041 100.834 53.6041 100.787 53.1348C100.745 52.5431 100.745 52.5431 100.497 52.0237C99.5273 51.3815 97.0548 51.6664 95.9514 51.8871C95.5545 52.1151 95.3821 52.2714 95.1936 52.6873C95.0415 53.2946 95.0481 53.8744 95.0506 54.4982C95.0503 54.6299 95.0501 54.7617 95.0498 54.8974C95.0497 55.1753 95.0501 55.4533 95.0512 55.7312C95.0525 56.1552 95.0512 56.579 95.0496 57.0029C95.0498 57.2736 95.0501 57.5443 95.0506 57.8149C95.0501 57.941 95.0496 58.0671 95.049 58.197C95.0535 58.872 95.1088 59.4325 95.3315 60.0705C95.3596 60.1626 95.3877 60.2546 95.4167 60.3495C95.6834 60.7051 96.0308 60.8268 96.4474 60.9385C97.0087 60.9924 97.5656 60.9904 98.129 60.985C98.2786 60.9864 98.4281 60.9878 98.5821 60.9893C98.7269 60.9888 98.8716 60.9884 99.0207 60.9879C99.217 60.9872 99.217 60.9872 99.4172 60.9866C99.8597 60.9302 100.158 60.795 100.539 60.5665C100.949 60.001 100.966 59.4316 100.997 58.7551C101.035 58.4586 101.035 58.4586 101.283 58.2107C101.537 58.1805 101.537 58.1805 101.845 58.1821C101.956 58.1823 102.066 58.1826 102.18 58.1828C102.296 58.1843 102.412 58.1858 102.531 58.1874C102.647 58.1875 102.763 58.1876 102.883 58.1876C103.746 58.1933 103.746 58.1933 103.887 58.3346C103.989 59.5844 103.872 60.8566 103.298 61.9846C102.378 63.0322 101.382 63.4906 99.9812 63.6353C94.8504 63.9192 94.8504 63.9192 93.2236 62.5503C91.7246 60.8955 91.8376 58.5081 91.8442 56.4205C91.8437 56.2708 91.8433 56.1212 91.8428 55.9669C91.8471 51.9564 91.8471 51.9564 93.042 50.4476C93.2236 50.2752 93.2236 50.2752 93.5956 50.1512C93.5956 50.0694 93.5956 49.9875 93.5956 49.9032C95.1379 49.2246 96.5001 49.1388 98.1755 49.1438Z" fill="#C5FF4A"/>
<path d="M42.1392 49.2831C42.6119 49.2795 43.0846 49.2773 43.5574 49.2754C43.6923 49.2743 43.8273 49.2733 43.9664 49.2722C44.0946 49.2718 44.2229 49.2714 44.3551 49.271C44.4739 49.2704 44.5927 49.2697 44.7151 49.269C44.991 49.2831 44.991 49.2831 45.115 49.4071C45.1305 49.7655 45.1381 50.1211 45.1405 50.4797C45.1417 50.5922 45.1429 50.7047 45.1442 50.8206C45.1481 51.1943 45.1512 51.568 45.1542 51.9417C45.1568 52.2 45.1594 52.4584 45.162 52.7167C45.1689 53.3982 45.175 54.0796 45.181 54.761C45.1883 55.5779 45.1965 56.3947 45.2046 57.2116C45.2168 58.4538 45.2278 59.6961 45.239 60.9383C47.3258 60.9792 49.4125 61.0201 51.5625 61.0623C51.5625 61.8397 51.5625 62.6171 51.5625 63.4181C51.3255 63.6552 50.8978 63.558 50.5842 63.5582C50.4949 63.5584 50.4056 63.5586 50.3135 63.5588C50.0169 63.5594 49.7203 63.559 49.4237 63.5586C49.2185 63.5587 49.0132 63.5588 48.808 63.5589C48.3773 63.5591 47.9466 63.5589 47.5159 63.5583C46.9626 63.5576 46.4092 63.558 45.8559 63.5587C45.4319 63.5592 45.008 63.559 44.584 63.5587C44.3799 63.5586 44.1758 63.5587 43.9718 63.559C43.687 63.5593 43.4023 63.5589 43.1176 63.5582C42.8741 63.558 42.8741 63.558 42.6256 63.5579C42.2632 63.5421 42.2632 63.5421 42.1392 63.4181C42.1273 63.2346 42.1241 63.0505 42.1243 62.8666C42.1241 62.7475 42.124 62.6284 42.1238 62.5057C42.1242 62.3739 42.1247 62.2422 42.1251 62.1065C42.1251 61.9686 42.1251 61.8307 42.1251 61.6887C42.1252 61.2304 42.1261 60.7722 42.1271 60.314C42.1273 59.9973 42.1275 59.6805 42.1276 59.3638C42.1281 58.6138 42.129 57.8637 42.1303 57.1137C42.1317 56.26 42.1323 55.4063 42.133 54.5527C42.1343 52.7961 42.1364 51.0396 42.1392 49.2831Z" fill="#C5FF4A"/>
<path d="M135.753 49.2829C135.898 49.574 135.892 49.746 135.893 50.0705C135.894 50.1838 135.894 50.2971 135.895 50.4139C135.895 50.5386 135.895 50.6633 135.895 50.7918C135.895 50.9229 135.895 51.0539 135.896 51.189C135.897 51.624 135.897 52.059 135.897 52.4941C135.898 52.7956 135.898 53.097 135.899 53.3985C135.899 54.0312 135.9 54.6639 135.9 55.2966C135.9 56.1083 135.901 56.92 135.903 57.7316C135.905 58.3545 135.905 58.9774 135.905 59.6003C135.905 59.8996 135.906 60.1989 135.907 60.4982C135.908 60.9164 135.907 61.3347 135.907 61.7529C135.907 61.8771 135.908 62.0013 135.909 62.1293C135.908 62.2433 135.908 62.3574 135.907 62.4749C135.907 62.5738 135.907 62.6727 135.907 62.7745C135.873 63.077 135.779 63.2796 135.629 63.5419C135.197 63.5455 134.766 63.5477 134.334 63.5497C134.15 63.5512 134.15 63.5512 133.961 63.5528C133.844 63.5532 133.727 63.5536 133.606 63.554C133.498 63.5547 133.39 63.5553 133.278 63.556C133.025 63.5419 133.025 63.5419 132.901 63.4179C132.889 63.2363 132.885 63.054 132.885 62.8719C132.885 62.754 132.884 62.6362 132.884 62.5147C132.884 62.3843 132.884 62.254 132.885 62.1196C132.885 61.9832 132.884 61.8467 132.884 61.7061C132.884 61.2525 132.884 60.7989 132.884 60.3453C132.884 60.0316 132.884 59.7179 132.884 59.4043C132.884 58.7459 132.884 58.0876 132.885 57.4292C132.885 56.6671 132.885 55.9049 132.884 55.1428C132.884 54.4109 132.884 53.679 132.884 52.9472C132.884 52.6351 132.884 52.3231 132.884 52.011C132.884 51.5757 132.884 51.1405 132.885 50.7052C132.884 50.5748 132.884 50.4444 132.884 50.3101C132.884 50.1922 132.885 50.0743 132.885 49.9529C132.885 49.8498 132.885 49.7468 132.885 49.6406C132.901 49.4069 132.901 49.4069 133.025 49.2829C133.944 49.1599 134.839 49.1155 135.753 49.2829Z" fill="#C5FF4A"/>
<path d="M126.349 66.3818C126.589 66.384 126.589 66.384 126.833 66.3862C126.993 66.3873 127.153 66.3884 127.318 66.3896C127.442 66.391 127.566 66.3925 127.693 66.3939C128.406 67.6954 129.054 69.0151 129.677 70.3617C129.718 69.0523 129.759 67.743 129.801 66.3939C130.129 66.3939 130.456 66.3939 130.793 66.3939C131.035 66.6356 130.933 67.0013 130.934 67.3228C130.934 67.4357 130.934 67.5486 130.934 67.6649C130.934 67.78 130.934 67.8951 130.934 68.0137C130.934 68.2576 130.934 68.5015 130.933 68.7454C130.933 69.1201 130.933 69.4949 130.934 69.8696C130.934 70.1059 130.934 70.3423 130.934 70.5787C130.934 70.6915 130.934 70.8044 130.934 70.9207C130.931 71.7113 130.931 71.7113 130.793 71.8496C130.501 71.8586 130.209 71.8599 129.917 71.8573C129.757 71.8562 129.597 71.8551 129.433 71.8539C129.309 71.8525 129.185 71.851 129.057 71.8496C128.618 71.0761 128.211 70.2913 127.817 69.4937C127.701 69.2612 127.585 69.0287 127.469 68.7963C127.378 68.6155 127.288 68.4346 127.197 68.2538C127.099 69.2952 127.064 70.3187 127.081 71.3633C127.073 71.7256 127.073 71.7256 126.949 71.8496C126.725 71.866 126.725 71.866 126.453 71.8651C126.364 71.8654 126.274 71.8657 126.182 71.866C125.958 71.8496 125.958 71.8496 125.834 71.7256C125.821 71.3423 125.816 70.9619 125.817 70.5787C125.817 70.4635 125.817 70.3484 125.817 70.2298C125.817 69.9859 125.817 69.742 125.817 69.4981C125.818 69.1234 125.817 68.7487 125.817 68.3739C125.817 68.1376 125.817 67.9012 125.817 67.6649C125.817 67.552 125.817 67.4391 125.816 67.3228C125.82 66.3982 125.82 66.3982 126.349 66.3818Z" fill="#C5FF4A"/>
<path d="M64.7257 66.3818C64.9652 66.384 64.9652 66.384 65.2095 66.3862C65.3695 66.3873 65.5295 66.3884 65.6944 66.3896C65.8182 66.391 65.9421 66.3925 66.0697 66.3939C66.731 67.7165 67.3923 69.0391 68.0536 70.3617C68.0945 69.0523 68.1354 67.743 68.1776 66.3939C68.5049 66.3939 68.8323 66.3939 69.1695 66.3939C69.2935 66.5179 69.2935 66.5179 69.3084 66.7353C69.3081 66.8297 69.3079 66.9241 69.3076 67.0214C69.3076 67.1282 69.3076 67.2349 69.3075 67.3449C69.3069 67.4609 69.3063 67.5768 69.3056 67.6963C69.3054 67.8145 69.3053 67.9327 69.3051 68.0544C69.3044 68.4334 69.3028 68.8125 69.3012 69.1915C69.3006 69.4478 69.3001 69.7041 69.2996 69.9604C69.2982 70.5901 69.296 71.2198 69.2935 71.8496C68.991 71.8663 68.6895 71.8786 68.3868 71.8883C68.3012 71.8935 68.2156 71.8987 68.1274 71.9041C67.8768 71.9101 67.8768 71.9101 67.4336 71.8496C67.2025 71.5653 67.2025 71.5653 67.0617 71.2296C67.0209 71.1528 66.9802 71.0759 66.9382 70.9968C66.9025 70.9248 66.8669 70.8528 66.8301 70.7787C66.7894 70.6968 66.7486 70.6149 66.7066 70.5305C66.6652 70.4466 66.6238 70.3628 66.5812 70.2764C66.4989 70.1106 66.4165 69.9448 66.3342 69.779C66.2469 69.603 66.1596 69.4271 66.0697 69.2457C65.8651 68.8366 65.6606 68.4274 65.4498 68.0058C65.4089 69.2743 65.3679 70.5427 65.3258 71.8496C64.9575 71.8496 64.5893 71.8496 64.2099 71.8496C64.2068 71.0925 64.2045 70.3355 64.203 69.5785C64.2024 69.3207 64.2016 69.063 64.2005 68.8052C64.199 68.4356 64.1983 68.066 64.1977 67.6963C64.1968 67.5224 64.1968 67.5224 64.1958 67.3449C64.1958 67.2381 64.1958 67.1314 64.1958 67.0214C64.1955 66.927 64.1952 66.8326 64.1949 66.7353C64.2219 66.3429 64.3262 66.3942 64.7257 66.3818Z" fill="#C5FF4A"/>
<path d="M136.381 66.3627C136.519 66.3602 136.658 66.3576 136.802 66.355C137.619 66.3512 138.233 66.4201 138.977 66.7657C138.977 66.8476 138.977 66.9294 138.977 67.0137C139.058 67.0137 139.14 67.0137 139.225 67.0137C139.544 67.714 139.514 68.356 139.511 69.1138C139.513 69.2467 139.515 69.3796 139.517 69.5165C139.518 70.7721 139.518 70.7721 139.101 71.3534C138.752 71.6954 138.558 71.8388 138.069 71.9057C137.916 71.9031 137.764 71.9005 137.606 71.8978C137.525 71.8971 137.443 71.8964 137.359 71.8957C137.1 71.8929 136.841 71.8867 136.582 71.8804C136.406 71.8779 136.229 71.8756 136.053 71.8736C135.622 71.8681 135.192 71.8596 134.761 71.8494C134.758 71.0923 134.756 70.3353 134.754 69.5783C134.753 69.3205 134.753 69.0628 134.752 68.805C134.75 68.4354 134.749 68.0658 134.749 67.6961C134.748 67.5222 134.748 67.5222 134.747 67.3447C134.747 67.2379 134.747 67.1312 134.747 67.0212C134.747 66.9268 134.746 66.8324 134.746 66.7351C134.789 66.112 135.921 66.3648 136.381 66.3627ZM136.001 67.5097C136.001 68.6144 136.001 69.7192 136.001 70.8574C137.119 70.93 137.119 70.93 138.109 70.6094C138.486 69.8202 138.509 68.734 138.246 67.9059C138.133 67.6151 138.133 67.6151 137.861 67.5097C137.544 67.5008 137.232 67.4981 136.915 67.5019C136.613 67.5045 136.312 67.507 136.001 67.5097Z" fill="#C5FF4A"/>
<path d="M74.7646 66.3631C74.9046 66.3605 75.0446 66.3579 75.1889 66.3553C75.9649 66.3517 76.5509 66.3739 77.2289 66.766C77.9412 67.5345 77.8791 68.1432 77.8876 69.1529C77.8912 69.2934 77.8948 69.4338 77.8985 69.5786C77.9046 70.3731 77.9061 70.8848 77.3529 71.4777C76.918 71.8938 76.5859 71.8935 75.9948 71.886C75.872 71.8852 75.872 71.8852 75.7468 71.8844C75.4865 71.8823 75.2263 71.8777 74.9661 71.8729C74.7892 71.8711 74.6122 71.8694 74.4353 71.8678C74.0025 71.8637 73.5699 71.8573 73.1372 71.8497C73.1342 71.0926 73.1319 70.3356 73.1304 69.5786C73.1298 69.3208 73.1289 69.0631 73.1279 68.8053C73.1264 68.4357 73.1257 68.0661 73.1251 67.6964C73.1242 67.5225 73.1242 67.5225 73.1232 67.345C73.1232 67.2383 73.1232 67.1315 73.1231 67.0215C73.1229 66.9271 73.1226 66.8327 73.1223 66.7354C73.1651 66.1114 74.3045 66.3651 74.7646 66.3631ZM74.2531 67.51C74.2531 68.5738 74.2531 69.6377 74.2531 70.7338C74.5705 70.8924 74.8055 70.8786 75.1598 70.881C75.277 70.8827 75.3941 70.8845 75.5149 70.8863C75.8901 70.8557 76.1529 70.7867 76.485 70.6098C76.8045 69.6512 76.8317 68.583 76.485 67.634C76.09 67.4365 75.6627 67.4974 75.2296 67.5022C74.7462 67.5061 74.7462 67.5061 74.2531 67.51Z" fill="#C5FF4A"/>
<path d="M90.6433 66.3626C90.8549 66.3588 90.8549 66.3588 91.0708 66.3549C91.9308 66.3509 92.5481 66.3702 93.206 66.9782C93.4125 67.3906 93.3925 67.7411 93.3866 68.1993C93.387 68.2826 93.3874 68.366 93.3879 68.4518C93.3829 68.9069 93.3584 69.1056 93.0999 69.4934C93.0181 69.4934 92.9362 69.4934 92.8519 69.4934C92.8519 69.5753 92.8519 69.6571 92.8519 69.7414C92.9338 69.7414 93.0156 69.7414 93.0999 69.7414C93.4088 70.2047 93.3735 70.4537 93.3634 71.0046C93.3612 71.1623 93.3589 71.3201 93.3566 71.4826C93.3537 71.6036 93.3509 71.7246 93.3479 71.8493C93.1645 71.8526 92.9811 71.855 92.7977 71.857C92.6445 71.8592 92.6445 71.8592 92.4882 71.8614C92.232 71.8493 92.232 71.8493 92.108 71.7253C92.0505 71.2304 92.0206 70.7343 91.984 70.2374C91.3702 70.1964 90.7565 70.1555 90.1241 70.1134C90.1241 70.6862 90.1241 71.2591 90.1241 71.8493C89.7559 71.8493 89.3876 71.8493 89.0082 71.8493C89.0051 71.0922 89.0029 70.3352 89.0014 69.5781C89.0008 69.3204 88.9999 69.0626 88.9988 68.8049C88.9973 68.4353 88.9966 68.0657 88.9961 67.696C88.9951 67.5221 88.9951 67.5221 88.9941 67.3446C88.9941 67.2378 88.9941 67.1311 88.9941 67.0211C88.9938 66.9267 88.9936 66.8322 88.9933 66.7349C89.0362 66.11 90.1826 66.3647 90.6433 66.3626ZM90.1241 67.5096C90.1241 68.0415 90.1241 68.5734 90.1241 69.1214C90.3799 69.1291 90.6356 69.1368 90.8991 69.1447C91.0429 69.149 91.1868 69.1533 91.335 69.1578C91.7677 69.1186 91.9366 69.0635 92.232 68.7495C92.3053 68.184 92.3053 68.184 92.0983 67.6699C91.7303 67.4223 91.4052 67.4743 90.9688 67.4863C90.7322 67.4913 90.7322 67.4913 90.4908 67.4965C90.3698 67.5008 90.2488 67.5051 90.1241 67.5096Z" fill="#C5FF4A"/>
<path d="M49.9196 66.3629C50.0053 66.3603 50.0909 66.3578 50.1792 66.3551C50.8134 66.3504 51.255 66.4512 51.8105 66.7659C52.1749 67.245 52.228 67.5978 52.2231 68.1927C52.2225 68.3457 52.2218 68.4987 52.2212 68.6562C52.2186 68.815 52.2161 68.9737 52.2134 69.1372C52.2128 69.2969 52.2121 69.4565 52.2115 69.6211C52.2016 70.8 52.2016 70.8 52.0584 71.2295C51.9766 71.2295 51.8948 71.2295 51.8105 71.2295C51.7695 71.3523 51.7286 71.4751 51.6865 71.6015C50.919 72.1161 49.705 72.0293 48.823 71.9047C48.2839 71.7788 48.0206 71.5583 47.7187 71.1056C47.5413 70.5066 47.572 69.8804 47.5715 69.2612C47.57 69.153 47.5685 69.0448 47.5669 68.9333C47.5636 67.4846 47.5636 67.4846 48.0166 66.9218C48.6628 66.445 49.1352 66.3686 49.9196 66.3629ZM48.8347 67.7578C48.8002 68.0586 48.8002 68.0586 48.8104 68.4058C48.8112 68.5337 48.812 68.6616 48.8129 68.7933C48.8149 68.9273 48.817 69.0612 48.8192 69.1992C48.8203 69.3341 48.8214 69.469 48.8226 69.608C48.8255 69.9419 48.8296 70.2757 48.8347 70.6096C49.3444 70.9024 49.6491 71.0391 50.2296 70.9118C50.3351 70.8912 50.4405 70.8706 50.5492 70.8493C50.8328 70.7577 50.8328 70.7577 50.9576 70.5111C51.0727 70.2221 51.0969 70.0234 51.0951 69.714C51.0947 69.5679 51.0947 69.5679 51.0944 69.4188C51.0928 69.3182 51.0913 69.2176 51.0898 69.1139C51.0897 69.0129 51.0896 68.9118 51.0895 68.8076C51.0863 68.376 51.0803 68.0472 50.9425 67.6338C50.5893 67.4572 50.2819 67.4887 49.8886 67.4866C49.7441 67.4848 49.5996 67.483 49.4507 67.4812C49.0679 67.4708 49.0679 67.4708 48.8347 67.7578Z" fill="#C5FF4A"/>
<path d="M99.0514 66.3469C99.1349 66.3454 99.2183 66.344 99.3043 66.3425C99.9347 66.3462 100.363 66.477 100.911 66.7654C101.159 67.1753 101.199 67.5309 101.159 68.0053C101.035 68.1293 101.035 68.1293 100.594 68.137C100.453 68.1345 100.312 68.1319 100.167 68.1293C100.086 67.9247 100.004 67.7201 99.9194 67.5093C99.6998 67.5026 99.4803 67.4978 99.2607 67.4938C99.1384 67.4909 99.0161 67.4881 98.8901 67.4851C98.5277 67.4837 98.5277 67.4837 98.1835 67.7573C98.2244 67.9619 98.2653 68.1665 98.3075 68.3772C98.5094 68.3976 98.5094 68.3976 98.7153 68.4184C98.8945 68.4382 99.0737 68.4581 99.2529 68.478C99.3413 68.4867 99.4297 68.4954 99.5208 68.5044C100.093 68.57 100.537 68.688 101.035 68.9972C101.455 69.6263 101.371 70.3713 101.283 71.1051C101.108 71.4275 100.976 71.519 100.663 71.725C100.622 71.7659 100.581 71.8068 100.539 71.849C100.075 71.8907 99.6099 71.8893 99.1444 71.8955C99.0142 71.9001 98.8839 71.9048 98.7497 71.9095C97.7822 71.9206 97.7822 71.9206 97.2942 71.5516C96.934 71.0389 96.9207 70.7418 96.9436 70.1131C97.0676 69.9891 97.0676 69.9891 97.5093 69.9814C97.6499 69.9839 97.7906 69.9865 97.9355 69.9891C97.9918 70.1093 98.048 70.2295 98.106 70.3534C98.2651 70.7419 98.2651 70.7419 98.5555 70.8571C98.7617 70.8721 98.9686 70.8788 99.1754 70.8803C99.2854 70.8821 99.3954 70.8838 99.5086 70.8856C99.8196 70.8852 99.8196 70.8852 100.043 70.6091C100.074 70.2319 100.074 70.2319 100.043 69.8651C99.8043 69.6261 99.3539 69.7077 99.0359 69.6947C98.3498 69.6569 97.7819 69.6158 97.1916 69.2452C96.9203 68.8379 96.9102 68.4874 96.9126 68.0053C96.9119 67.8774 96.9113 67.7495 96.9106 67.6178C96.9624 67.0575 96.9624 67.0575 97.1916 66.7654C97.8117 66.4227 98.3429 66.3347 99.0514 66.3469Z" fill="#C5FF4A"/>
<path d="M118.084 66.3625C118.518 66.3935 118.518 66.3935 118.766 66.6415C118.788 66.9526 118.795 67.2499 118.79 67.5608C118.79 67.6513 118.789 67.7417 118.789 67.835C118.788 68.1243 118.785 68.4136 118.781 68.7029C118.78 68.8989 118.779 69.0949 118.778 69.2909C118.775 69.7717 118.771 70.2525 118.766 70.7332C119.027 70.7399 119.288 70.7447 119.549 70.7487C119.694 70.7516 119.839 70.7545 119.989 70.7575C120.398 70.7646 120.398 70.7646 120.75 70.4853C120.79 70.1797 120.807 69.9037 120.809 69.5975C120.812 69.4663 120.812 69.4663 120.815 69.3325C120.821 69.0529 120.824 68.7733 120.827 68.4936C120.832 68.2136 120.837 67.9335 120.843 67.6534C120.846 67.479 120.849 67.3046 120.85 67.1302C120.86 66.5313 120.86 66.5313 120.998 66.3935C121.432 66.378 121.432 66.378 121.866 66.3935C122.115 66.6429 122.01 67.1467 122.011 67.4886C122.011 67.6352 122.011 67.6352 122.012 67.7848C122.012 67.9921 122.013 68.1994 122.013 68.4067C122.013 68.7235 122.015 69.0402 122.018 69.357C122.018 69.5582 122.018 69.7595 122.018 69.9607C122.019 70.0554 122.02 70.1501 122.021 70.2477C122.019 70.7165 122.014 71.0848 121.742 71.4772C121.163 71.9989 120.43 71.913 119.696 71.9112C119.568 71.9147 119.44 71.9182 119.308 71.9218C118.724 71.9233 118.378 71.9225 117.886 71.5896C117.45 70.9239 117.371 70.255 117.369 69.4715C117.369 69.3908 117.369 69.31 117.368 69.2268C117.368 69.058 117.369 68.8891 117.37 68.7202C117.371 68.4611 117.37 68.2022 117.368 67.9432C117.368 67.7801 117.369 67.617 117.369 67.4489C117.369 67.2999 117.37 67.1509 117.37 66.9974C117.419 66.4542 117.548 66.4008 118.084 66.3625Z" fill="#C5FF4A"/>
<path d="M82.3359 66.3772C82.4916 66.377 82.6473 66.3769 82.8077 66.3767C82.8891 66.377 82.9706 66.3772 83.0545 66.3775C83.3035 66.3782 83.5525 66.3775 83.8015 66.3767C83.9572 66.3769 84.1129 66.377 84.2733 66.3772C84.4173 66.3773 84.5613 66.3775 84.7097 66.3776C85.0405 66.3937 85.0405 66.3937 85.1645 66.5177C85.18 66.9516 85.18 66.9516 85.1645 67.3856C85.0405 67.5096 85.0405 67.5096 84.7988 67.5237C84.6955 67.523 84.5923 67.5224 84.4859 67.5217C84.3744 67.5213 84.2629 67.5209 84.1481 67.5205C84.0308 67.5194 83.9136 67.5184 83.7928 67.5173C83.6751 67.5168 83.5574 67.5162 83.4361 67.5156C83.1443 67.5142 82.8525 67.5121 82.5606 67.5096C82.6016 67.8369 82.6425 68.1643 82.6846 68.5015C82.9241 68.5128 82.9241 68.5128 83.1685 68.5243C83.3766 68.5347 83.5847 68.5452 83.7928 68.5558C83.8982 68.5606 84.0036 68.5655 84.1122 68.5705C84.2125 68.5757 84.3128 68.5809 84.4162 68.5863C84.5554 68.5931 84.5554 68.5931 84.6975 68.6001C84.9165 68.6255 84.9165 68.6255 85.0405 68.7495C84.9996 69.0359 84.9586 69.3223 84.9165 69.6174C84.1391 69.6174 83.3616 69.6174 82.5606 69.6174C82.6016 69.9857 82.6425 70.3539 82.6846 70.7334C82.9376 70.7446 82.9376 70.7446 83.1956 70.7561C83.4153 70.7666 83.6351 70.7771 83.8548 70.7876C83.9661 70.7925 84.0774 70.7974 84.1921 70.8024C84.298 70.8076 84.4039 70.8128 84.513 70.8181C84.6111 70.8227 84.7091 70.8272 84.8101 70.8319C85.0405 70.8574 85.0405 70.8574 85.1645 70.9813C85.1645 71.2678 85.1645 71.5542 85.1645 71.8493C83.9369 71.8493 82.7094 71.8493 81.4447 71.8493C81.4419 71.0922 81.4394 70.3352 81.4379 69.5782C81.4373 69.3204 81.4364 69.0627 81.4354 68.8049C81.4339 68.4353 81.4332 68.0657 81.4326 67.6961C81.4317 67.5221 81.4317 67.5221 81.4307 67.3446C81.4307 67.2379 81.4307 67.1311 81.4306 67.0212C81.4304 66.9267 81.4301 66.8323 81.4298 66.735C81.4647 66.2263 81.9266 66.3776 82.3359 66.3772Z" fill="#C5FF4A"/>
<path d="M56.4679 66.3857C56.6086 66.3883 56.7493 66.3908 56.8942 66.3935C57.2259 67.2619 57.1697 68.133 57.1576 69.0515C57.1565 69.2132 57.1554 69.3749 57.1543 69.5414C57.1513 69.9387 57.1473 70.3359 57.1422 70.7332C57.7808 70.8456 58.2419 70.8498 58.878 70.7332C59.2239 70.3873 59.1673 70.0606 59.173 69.5974C59.1751 69.51 59.1772 69.4225 59.1794 69.3325C59.186 69.0528 59.191 68.7732 59.1958 68.4936C59.2012 68.2135 59.207 67.9334 59.2135 67.6533C59.2174 67.4789 59.2208 67.3045 59.2234 67.1301C59.2361 66.5313 59.2361 66.5313 59.374 66.3935C59.808 66.378 59.808 66.378 60.2419 66.3935C60.491 66.6425 60.3892 67.1427 60.3911 67.4842C60.3918 67.5816 60.3925 67.6791 60.3933 67.7794C60.3944 67.9862 60.3952 68.193 60.3957 68.3998C60.3969 68.7153 60.4008 69.0306 60.4047 69.346C60.4055 69.5468 60.4061 69.7477 60.4066 69.9485C60.4081 70.0426 60.4097 70.1366 60.4112 70.2335C60.4089 70.794 60.3537 71.1634 59.994 71.6011C59.4302 71.992 58.7388 71.8997 58.0798 71.9033C57.9512 71.9074 57.8227 71.9115 57.6902 71.9157C56.7426 71.9224 56.7426 71.9224 56.2544 71.5512C55.8761 71.0171 55.8841 70.6225 55.8858 69.9848C55.8857 69.8864 55.8855 69.788 55.8854 69.6866C55.8853 69.4784 55.8856 69.2703 55.8861 69.0621C55.8867 68.7424 55.8861 68.4227 55.8853 68.1029C55.8854 67.9011 55.8855 67.6992 55.8858 67.4973C55.8855 67.4011 55.8853 67.3048 55.885 67.2057C55.8886 66.3959 55.8886 66.3959 56.4679 66.3857Z" fill="#C5FF4A"/>
<path d="M40.6516 66.3934C41.2044 66.3862 41.7571 66.3818 42.31 66.3779C42.5464 66.3748 42.5464 66.3748 42.7875 66.3716C42.9378 66.3708 43.088 66.37 43.2428 66.3692C43.3818 66.3679 43.5207 66.3666 43.6639 66.3652C43.9994 66.3934 43.9994 66.3934 44.2473 66.6414C44.2783 66.9513 44.2783 66.9513 44.2473 67.2613C43.9555 67.5531 43.8841 67.5439 43.4869 67.5606C43.3371 67.5678 43.3371 67.5678 43.1842 67.5752C43.0276 67.5809 43.0276 67.5809 42.8679 67.5868C42.7099 67.594 42.7099 67.594 42.5487 67.6013C42.2884 67.613 42.0279 67.6233 41.7675 67.6333C41.7675 68.0016 41.7675 68.3698 41.7675 68.7492C41.9272 68.7478 42.0869 68.7463 42.2514 68.7449C42.4595 68.7437 42.6676 68.7426 42.8757 68.7415C43.0338 68.7399 43.0338 68.7399 43.1951 68.7383C43.2954 68.7379 43.3957 68.7375 43.499 68.7371C43.5919 68.7365 43.6847 68.7358 43.7804 68.7351C43.9994 68.7492 43.9994 68.7492 44.1233 68.8732C44.1284 69.1211 44.1286 69.3692 44.1233 69.6172C43.7142 69.8217 43.2565 69.7886 42.8059 69.8109C42.7065 69.8163 42.6071 69.8216 42.5047 69.8271C42.259 69.8403 42.0132 69.8528 41.7675 69.8651C41.7689 69.9668 41.7704 70.0685 41.7719 70.1732C41.773 70.3068 41.7741 70.4404 41.7753 70.5781C41.7767 70.7104 41.7781 70.8428 41.7796 70.9791C41.7694 71.2952 41.736 71.5489 41.6435 71.849C40.8807 71.8611 40.8807 71.8611 40.6516 71.849C40.4138 71.6112 40.5116 71.2587 40.5104 70.9422C40.5106 70.8325 40.5109 70.7227 40.5111 70.6096C40.511 70.4975 40.5109 70.3854 40.5108 70.27C40.5107 70.0324 40.5109 69.7949 40.5114 69.5573C40.5121 69.1929 40.5114 68.8286 40.5106 68.4642C40.5107 68.2339 40.5109 68.0036 40.5111 67.7733C40.5109 67.6637 40.5106 67.5542 40.5104 67.4414C40.5133 66.6699 40.5133 66.6699 40.6516 66.3934Z" fill="#C5FF4A"/>
<path d="M110.334 66.394C110.905 66.3914 111.475 66.3888 112.063 66.3862C112.243 66.3851 112.423 66.384 112.608 66.3828C112.749 66.3825 112.89 66.3822 113.035 66.3819C113.252 66.3809 113.252 66.3809 113.473 66.3799C113.806 66.394 113.806 66.394 113.93 66.518C113.946 66.9519 113.946 66.9519 113.93 67.3859C113.806 67.5099 113.806 67.5099 113.576 67.524C113.478 67.5233 113.38 67.5227 113.279 67.522C113.173 67.5216 113.067 67.5212 112.958 67.5208C112.847 67.5197 112.735 67.5187 112.621 67.5176C112.509 67.5171 112.397 67.5165 112.282 67.5159C112.005 67.5145 111.728 67.5122 111.45 67.5099C111.491 67.8781 111.532 68.2464 111.574 68.6258C112.311 68.6667 113.047 68.7076 113.806 68.7498C113.806 69.0362 113.806 69.3226 113.806 69.6177C113.543 69.8805 112.985 69.7936 112.621 69.8115C112.521 69.8168 112.421 69.8222 112.318 69.8277C112.07 69.8409 111.822 69.8534 111.574 69.8657C111.533 70.5204 111.493 71.1751 111.45 71.8496C111.082 71.8496 110.714 71.8496 110.334 71.8496C110.334 70.0492 110.334 68.2489 110.334 66.394Z" fill="#C5FF4A"/>
</svg>
