<svg width="181" height="51" viewBox="0 0 181 51" fill="none" xmlns="http://www.w3.org/2000/svg">
<g clip-path="url(#clip0_5601_15408)">
<mask id="mask0_5601_15408" style="mask-type:luminance" maskUnits="userSpaceOnUse" x="14" y="0" width="153" height="51">
<path d="M166.377 0H14V51H166.377V0Z" fill="white"/>
</mask>
<g mask="url(#mask0_5601_15408)">
</g>
<g clip-path="url(#clip1_5601_15408)">
<path fill-rule="evenodd" clip-rule="evenodd" d="M22.5662 27.2065L32.1504 37.1276C32.2655 37.245 32.357 37.3848 32.4199 37.5388C32.4828 37.6929 32.5158 37.8583 32.5169 38.0256C32.518 38.1928 32.4873 38.3587 32.4265 38.5136C32.3657 38.6686 32.2759 38.8096 32.1624 38.9287L31.4592 39.6541C31.2616 39.8685 31.0005 40.0085 30.7173 40.0519C30.5303 40.0778 30.3401 40.0584 30.1615 39.9955C29.9829 39.9326 29.8208 39.8278 29.6879 39.6892L17.9844 27.5742C17.7809 27.3639 17.6194 27.1142 17.5093 26.8392C17.3991 26.5643 17.3424 26.2696 17.3424 25.972C17.3424 25.6743 17.3991 25.3796 17.5093 25.1047C17.6194 24.8297 17.7809 24.58 17.9844 24.3698L29.6879 12.2548C29.8019 12.1365 29.9373 12.0427 30.0864 11.9788C30.2354 11.9148 30.3953 11.8818 30.5566 11.8818C30.718 11.8818 30.8778 11.9148 31.0269 11.9788C31.1759 12.0427 31.3114 12.1365 31.4254 12.2548L32.1504 13.0177C32.2646 13.1358 32.3552 13.2759 32.417 13.4302C32.4788 13.5846 32.5106 13.75 32.5106 13.917C32.5106 14.0841 32.4788 14.2495 32.417 14.4038C32.3552 14.5581 32.2646 14.6983 32.1504 14.8163L22.5662 24.74C22.2519 25.0679 22.0755 25.5112 22.0755 25.9732C22.0755 26.4352 22.2519 26.8785 22.5662 27.2065ZM9.95033 24.7505L0.369848 14.8267C0.253597 14.7092 0.161043 14.5689 0.0975575 14.414C0.0340715 14.2592 0.000917663 14.0928 1.87808e-05 13.9245C-0.000880102 13.7563 0.0304961 13.5895 0.0923234 13.4339C0.15415 13.2783 0.245203 13.137 0.360191 13.0181L1.06073 12.2902C1.26022 12.0771 1.52149 11.9374 1.80475 11.8924C1.99164 11.8673 2.1816 11.887 2.36 11.9499C2.53841 12.0128 2.7005 12.1172 2.83382 12.2551L14.5328 24.3703C14.7362 24.5805 14.8976 24.8303 15.0077 25.1052C15.1178 25.3802 15.1745 25.6749 15.1745 25.9725C15.1745 26.2701 15.1178 26.5649 15.0077 26.8398C14.8976 27.1147 14.7362 27.3645 14.5328 27.5748L2.83382 39.6899C2.71963 39.8082 2.58406 39.902 2.43484 39.966C2.28563 40.0301 2.1257 40.063 1.96418 40.063C1.80266 40.063 1.64273 40.0301 1.49351 39.966C1.3443 39.902 1.20873 39.8082 1.09454 39.6899L0.369848 38.9394C0.255613 38.8212 0.164994 38.6808 0.103167 38.5263C0.0413408 38.3717 0.00952125 38.2061 0.00952125 38.0388C0.00952125 37.8716 0.0413408 37.706 0.103167 37.5514C0.164994 37.3969 0.255613 37.2565 0.369848 37.1383L9.95033 27.217C10.2645 26.8891 10.4408 26.4458 10.4408 25.9838C10.4408 25.5217 10.2645 25.0785 9.95033 24.7505Z" fill="#C5FF4A"/>
<path fill-rule="evenodd" clip-rule="evenodd" d="M81.6192 24.0962C80.901 23.6273 80.0597 23.3828 79.2021 23.3938C78.5024 23.3826 77.8117 23.5535 77.1981 23.8896C76.8068 24.0968 76.4567 24.374 76.1653 24.7075V18.6423H73.8927V33.5164H76.1653V32.4356C76.4535 32.7626 76.7959 33.0373 77.1775 33.2478C77.8023 33.5724 78.498 33.7357 79.2021 33.723C80.0568 33.7346 80.8963 33.4978 81.6192 33.0412C82.3439 32.5918 82.9358 31.9571 83.3336 31.2026C83.7655 30.3964 83.986 29.4937 83.974 28.5791C83.9892 27.664 83.7688 26.7605 83.3336 25.9554C82.9405 25.1922 82.3479 24.5497 81.6192 24.0962ZM81.2677 30.1284C81.0433 30.5716 80.7001 30.9436 80.2762 31.2026C79.8378 31.4585 79.3375 31.5885 78.83 31.5783C78.3163 31.5869 77.8099 31.4571 77.3635 31.2026C76.9393 30.9441 76.5957 30.572 76.3716 30.1284C76.1298 29.6411 76.0093 29.1024 76.0205 28.5584C76.0093 28.0144 76.1298 27.4757 76.3716 26.9884C76.5925 26.5479 76.9371 26.1816 77.3635 25.9348C77.8055 25.6686 78.3141 25.5326 78.83 25.5422C79.34 25.5309 79.8421 25.6672 80.2762 25.9348C80.7023 26.1822 81.0465 26.5483 81.2677 26.9884C81.524 27.4714 81.6532 28.0117 81.6434 28.5584C81.6532 29.1051 81.524 29.6454 81.2677 30.1284ZM56.9659 31.451C57.8474 31.451 58.5909 31.3202 59.1969 31.0585C59.7913 30.7995 60.3249 30.4188 60.7633 29.941L62.3746 31.5524C61.7085 32.2307 60.915 32.7712 60.04 33.1431C59.1452 33.5288 58.1189 33.7216 56.9619 33.7216C55.9643 33.7308 54.9749 33.5412 54.0511 33.1638C53.1794 32.7906 52.391 32.2477 51.7314 31.5667C51.0715 30.8858 50.5538 30.0803 50.2085 29.1973C49.8472 28.2697 49.6651 27.2819 49.6716 26.2864C49.664 25.2967 49.8472 24.3148 50.2106 23.3942C50.5538 22.5073 51.0733 21.6992 51.7372 21.0185C52.4156 20.3206 53.2293 19.7683 54.1282 19.3953C55.027 19.0223 55.9925 18.8366 56.9659 18.8494C58.137 18.8487 59.1488 19.0428 60.0006 19.4315C60.8476 19.8111 61.6183 20.3419 62.275 20.9978L60.6637 22.6092C60.2264 22.1339 59.6907 21.7602 59.0937 21.5143C58.4888 21.2526 57.7797 21.1218 56.9659 21.1218C56.293 21.1146 55.6258 21.2423 55.0031 21.4974C54.4167 21.7401 53.8886 22.1051 53.4538 22.5679C53.0169 23.0393 52.6802 23.5945 52.4641 24.1999C52.2241 24.869 52.105 25.5755 52.1129 26.2864C52.105 26.9958 52.2234 27.7011 52.4623 28.3691C52.682 28.9794 53.0187 29.5408 53.4538 30.0218C53.8929 30.4753 54.4203 30.8339 55.0031 31.0754C55.6258 31.3305 56.293 31.4582 56.9659 31.451ZM64.9086 23.6001L67.4487 30.0606L70.1351 23.6001H72.6554L68.0485 33.6195L66.2099 37.6479H63.6897L66.1792 32.5189L62.4089 23.6001H64.9086ZM90.3546 23.3918C91.2799 23.3912 92.0937 23.6047 92.7959 24.0322C93.5022 24.4518 94.0785 25.0581 94.4619 25.7844C94.884 26.5639 95.0975 27.4392 95.0816 28.3254C95.0813 28.4984 95.0675 28.6711 95.0403 28.8419C95.0237 29.0293 94.9962 29.2155 94.9578 29.3997H87.5611C87.6201 29.6511 87.7106 29.894 87.8304 30.1227C88.0693 30.5814 88.4349 30.9615 88.8842 31.2176C89.3671 31.4737 89.9075 31.603 90.4542 31.5932C90.9371 31.5994 91.416 31.508 91.8627 31.3247C92.2913 31.1546 92.6736 30.8856 92.978 30.5396L94.4242 32.0064C93.9489 32.5665 93.3469 33.0055 92.6682 33.2872C91.9749 33.5775 91.2303 33.725 90.4784 33.721C89.5419 33.7355 88.617 33.5092 87.7931 33.0637C86.9985 32.6141 86.3408 31.9576 85.8897 31.1639C85.4387 30.3702 85.211 29.4691 85.2312 28.5564C85.2207 27.8788 85.3456 27.2059 85.599 26.5772C85.8521 25.9486 86.2285 25.3769 86.706 24.8957C87.1831 24.4146 87.7518 24.0337 88.3785 23.7754C89.0051 23.5171 89.677 23.3867 90.3546 23.3918ZM88.8107 25.8502C88.385 26.0976 88.0404 26.4637 87.8192 26.9038L87.8174 26.9056C87.712 27.1068 87.6313 27.3199 87.577 27.5404H92.8531C92.8003 27.2685 92.7123 27.0046 92.5914 26.7554C92.3977 26.3563 92.0882 26.025 91.7031 25.8051C91.3317 25.5847 90.8705 25.4746 90.3188 25.4746C89.7917 25.4628 89.2708 25.5925 88.8107 25.8502ZM103.108 23.6628C102.685 23.4787 102.227 23.3871 101.765 23.3942C100.638 23.3942 99.7916 23.7868 99.2243 24.5717C99.2157 24.5841 99.207 24.5968 99.1986 24.6096C99.1936 24.6173 99.1881 24.625 99.1831 24.6328V23.5999H96.9104V33.5169H99.1831V28.001C99.1831 27.1472 99.3894 26.5212 99.8028 26.123C100.216 25.7249 100.739 25.5252 101.373 25.5239C101.633 25.519 101.892 25.561 102.137 25.6479C102.367 25.7365 102.572 25.8781 102.736 26.0611L104.228 24.5304C103.924 24.1619 103.541 23.8656 103.108 23.6628ZM112.566 31.451C113.448 31.451 114.192 31.3202 114.798 31.0585C115.393 30.7997 115.927 30.419 116.366 29.941L117.977 31.5524C117.311 32.2307 116.517 32.7712 115.642 33.1431C114.747 33.5287 113.721 33.7215 112.564 33.7215C111.567 33.7307 110.577 33.5412 109.654 33.1637C108.782 32.7906 107.993 32.2477 107.334 31.5667C106.674 30.8858 106.156 30.0803 105.811 29.1973C105.45 28.2697 105.268 27.2819 105.274 26.2864C105.266 25.2968 105.448 24.3149 105.811 23.3942C106.155 22.5072 106.675 21.699 107.34 21.0185C108.018 20.3207 108.831 19.7686 109.73 19.3957C110.628 19.0227 111.594 18.8368 112.566 18.8493C113.737 18.8487 114.749 19.0428 115.603 19.4315C116.449 19.8113 117.219 20.342 117.876 20.9978L116.264 22.6092C115.827 22.1339 115.291 21.7602 114.694 21.5143C114.09 21.2526 113.38 21.1217 112.566 21.1217C111.894 21.1146 111.226 21.2423 110.604 21.4974C110.017 21.7401 109.489 22.105 109.054 22.5679C108.617 23.0391 108.279 23.5943 108.063 24.1999C107.823 24.869 107.704 25.5755 107.712 26.2864C107.704 26.996 107.823 27.7012 108.063 28.3691C108.283 28.9794 108.619 29.5408 109.054 30.0218C109.493 30.4753 110.021 30.8339 110.604 31.0754C111.226 31.3304 111.894 31.4582 112.566 31.451ZM126.696 24.0761C125.891 23.6165 124.978 23.3811 124.052 23.3944C123.129 23.383 122.221 23.626 121.428 24.0968C120.656 24.5396 120.009 25.1725 119.55 25.9354C119.09 26.7253 118.853 27.6259 118.866 28.5402C118.855 29.46 119.091 30.366 119.548 31.1638C120.006 31.938 120.652 32.584 121.426 33.0419C122.017 33.3903 122.67 33.6182 123.349 33.7124C124.028 33.8065 124.719 33.765 125.382 33.5904C126.045 33.4157 126.666 33.1113 127.211 32.6948C127.755 32.2783 128.211 31.7579 128.554 31.1638C129.025 30.3704 129.268 29.4628 129.258 28.5402C129.27 27.6241 129.027 26.7226 128.555 25.9373C128.112 25.1626 127.47 24.5201 126.696 24.0761ZM126.551 30.0858C126.324 30.5332 125.972 30.906 125.539 31.1601C125.086 31.416 124.572 31.5457 124.052 31.5357C123.532 31.5425 123.019 31.413 122.564 31.1601C122.137 30.8983 121.788 30.5275 121.552 30.0858C121.312 29.6053 121.191 29.0737 121.201 28.5364C121.189 28.0056 121.31 27.4803 121.552 27.0077C121.789 26.5778 122.139 26.2207 122.564 25.9748C123.015 25.7102 123.529 25.5745 124.052 25.5823C124.574 25.5711 125.09 25.7071 125.539 25.9748C125.964 26.221 126.314 26.578 126.551 27.0077C126.808 27.4759 126.937 28.0029 126.927 28.5364C126.936 29.0771 126.807 29.6109 126.551 30.0877V30.0858ZM136.373 23.3943C137.077 23.3826 137.768 23.5843 138.356 23.9727C138.929 24.3378 139.4 24.8433 139.723 25.4414C140.044 26.0079 140.212 26.6478 140.211 27.2988V33.517H137.939V27.7946C137.939 27.1341 137.727 26.5901 137.302 26.1626C136.889 25.7356 136.352 25.5221 135.691 25.5221C135.28 25.515 134.874 25.6146 134.514 25.8113C134.175 25.9991 133.896 26.2783 133.708 26.617C133.511 26.9779 133.411 27.3837 133.418 27.7946V33.517H131.146V23.6009H133.418V24.723C133.691 24.396 134.019 24.1208 134.389 23.9108C134.992 23.5636 135.677 23.3852 136.373 23.3943ZM149.735 23.9727C149.147 23.5843 148.456 23.3826 147.751 23.3943C147.056 23.3852 146.371 23.5636 145.768 23.9108C145.397 24.1206 145.067 24.3957 144.794 24.723V23.6009H142.522V33.517H144.794V27.7946C144.787 27.3837 144.887 26.9779 145.084 26.617C145.271 26.2783 145.551 25.9991 145.889 25.8113C146.25 25.6146 146.656 25.515 147.067 25.5221C147.728 25.5221 148.265 25.7356 148.678 26.1626C149.106 26.5895 149.319 27.1335 149.319 27.7946V33.517H151.591V27.2988C151.589 26.6465 151.419 26.0058 151.095 25.4395C150.774 24.8429 150.305 24.3381 149.735 23.9727ZM158.382 23.3918C159.308 23.3912 160.121 23.6047 160.824 24.0322C161.529 24.4523 162.106 25.0586 162.49 25.7844C162.912 26.5639 163.125 27.4392 163.109 28.3254C163.109 28.4984 163.095 28.671 163.068 28.8419C163.051 29.0292 163.023 29.2154 162.986 29.3997H155.589C155.648 29.6511 155.738 29.894 155.858 30.1227C156.097 30.5814 156.463 30.9615 156.912 31.2176C157.395 31.4739 157.935 31.6031 158.482 31.5932C158.965 31.5992 159.444 31.5079 159.89 31.3247C160.319 31.1541 160.701 30.8852 161.006 30.5396L162.452 32.0064C161.976 32.5661 161.374 33.005 160.696 33.2872C160.003 33.5773 159.258 33.7248 158.506 33.721C157.57 33.7357 156.645 33.5093 155.821 33.0637C155.026 32.6141 154.369 31.9576 153.917 31.1639C153.466 30.3702 153.239 29.4691 153.259 28.5564C153.248 27.8788 153.373 27.2059 153.627 26.5772C153.88 25.9486 154.256 25.3769 154.734 24.8957C155.211 24.4146 155.78 24.0337 156.406 23.7754C157.033 23.5171 157.705 23.3867 158.382 23.3918ZM156.838 25.8502C156.412 26.097 156.068 26.4633 155.847 26.9038L155.845 26.9056C155.74 27.1066 155.659 27.3198 155.606 27.5404H160.88C160.828 27.2684 160.74 27.0045 160.619 26.7554C160.426 26.3565 160.116 26.0253 159.731 25.8051C159.358 25.5847 158.897 25.4746 158.347 25.4746C157.819 25.4627 157.299 25.5924 156.838 25.8502ZM167.996 25.9761C168.454 25.7097 168.975 25.5739 169.504 25.5836C169.959 25.5779 170.41 25.6695 170.826 25.8522C171.236 26.0146 171.599 26.2775 171.88 26.6165L173.367 25.1085C172.902 24.5585 172.314 24.1255 171.65 23.8446C170.975 23.5385 170.242 23.3834 169.502 23.3901C168.569 23.3783 167.649 23.6135 166.837 24.0718C166.063 24.5153 165.421 25.1571 164.977 25.9311C164.516 26.7275 164.28 27.6345 164.296 28.5547C164.284 29.4745 164.519 30.3805 164.977 31.1783C165.421 31.9523 166.063 32.5941 166.837 33.0376C167.568 33.4388 168.382 33.6694 169.215 33.7124C170.049 33.7553 170.881 33.6094 171.65 33.2855C172.311 32.9928 172.897 32.555 173.365 32.0046L171.877 30.4966C171.592 30.8374 171.232 31.1064 170.824 31.2816C170.404 31.4507 169.954 31.535 169.502 31.5295C168.975 31.538 168.455 31.4085 167.993 31.1539C167.571 30.8963 167.222 30.5332 166.981 30.1003C166.741 29.6198 166.62 29.0882 166.63 28.5509C166.617 28.0134 166.738 27.481 166.981 27.0015C167.22 26.574 167.571 26.2196 167.996 25.9761ZM178.624 23.6008H181V25.6666H178.624V33.5168H176.352V25.6666H173.976V23.6008H176.352V19.4691H178.624V23.6008Z" fill="#C5FF4A"/>
</g>
</g>
<defs>
<clipPath id="clip0_5601_15408">
<rect width="181" height="51" fill="white"/>
</clipPath>
<clipPath id="clip1_5601_15408">
<rect width="181" height="28.236" fill="white" transform="translate(0 11.8818)"/>
</clipPath>
</defs>
</svg>
