<svg width="181" height="72" viewBox="0 0 181 72" fill="none" xmlns="http://www.w3.org/2000/svg">
<path d="M99.6276 0.358371C100.597 0.331018 101.474 0.594267 102.239 1.20117C102.34 1.29949 102.34 1.29949 102.443 1.39979C102.443 1.45648 102.443 1.51317 102.443 1.57157C102.528 1.59991 102.613 1.62826 102.701 1.65746C102.701 1.71415 102.701 1.77084 102.701 1.82924C102.757 1.82924 102.814 1.82924 102.872 1.82924C103.012 1.94734 103.012 1.94734 103.13 2.08691C103.13 2.1436 103.13 2.20029 103.13 2.25869C103.215 2.28704 103.3 2.31538 103.388 2.34458C103.502 2.461 103.502 2.461 103.629 2.61836C103.932 2.97615 104.257 3.30417 104.59 3.63294C104.953 3.99184 105.304 4.35207 105.633 4.7428C105.903 5.04439 106.196 5.32465 106.487 5.60544C106.603 5.71784 106.713 5.83459 106.823 5.95197C106.823 6.00866 106.823 6.06535 106.823 6.12375C106.88 6.12375 106.937 6.12375 106.995 6.12375C107.111 6.26548 107.226 6.40869 107.339 6.55321C107.395 6.58155 107.452 6.60989 107.51 6.6391C107.51 6.69578 107.51 6.75247 107.51 6.81088C107.567 6.81088 107.624 6.81088 107.682 6.81088C107.822 6.92898 107.822 6.92898 107.94 7.06855C107.94 7.12523 107.94 7.18192 107.94 7.24033C108.025 7.26867 108.11 7.29702 108.198 7.32622C108.312 7.44264 108.312 7.44264 108.439 7.59999C108.741 7.95779 109.067 8.2858 109.4 8.61457C109.763 8.97348 110.114 9.33371 110.442 9.72444C110.713 10.026 111.006 10.3063 111.297 10.5871C111.412 10.6995 111.523 10.8162 111.633 10.9336C111.633 10.9903 111.633 11.047 111.633 11.1054C111.718 11.1337 111.803 11.1621 111.891 11.1913C111.891 11.248 111.891 11.3047 111.891 11.3631C111.947 11.3631 112.004 11.3631 112.063 11.3631C112.202 11.4812 112.202 11.4812 112.32 11.6207C112.32 11.6774 112.32 11.7341 112.32 11.7925C112.405 11.8209 112.49 11.8492 112.578 11.8784C112.578 11.9351 112.578 11.9918 112.578 12.0502C112.635 12.0502 112.691 12.0502 112.75 12.0502C113.179 12.5205 113.179 12.5205 113.179 12.7373C113.264 12.7656 113.349 12.794 113.437 12.8232C113.437 12.8799 113.437 12.9366 113.437 12.995C113.492 13.018 113.547 13.041 113.603 13.0648C113.78 13.1668 113.78 13.1668 113.866 13.4244C113.951 13.4528 114.036 13.4811 114.124 13.5103C114.124 13.567 114.124 13.6237 114.124 13.6821C114.179 13.7051 114.234 13.7282 114.29 13.7519C114.468 13.8539 114.468 13.8539 114.553 14.1115C114.638 14.1399 114.723 14.1682 114.811 14.1974C114.811 14.2541 114.811 14.3108 114.811 14.3692C114.868 14.3692 114.924 14.3692 114.983 14.3692C115.097 14.4887 115.097 14.4887 115.224 14.6484C115.438 14.9076 115.665 15.1051 115.928 15.314C115.928 15.3707 115.928 15.4274 115.928 15.4858C115.984 15.4858 116.041 15.4858 116.099 15.4858C116.202 15.5908 116.202 15.5908 116.33 15.7488C116.707 16.1945 117.122 16.5992 117.539 17.0077C117.593 17.0613 117.647 17.1148 117.703 17.17C117.752 17.2179 117.801 17.2657 117.851 17.3149C118.247 17.7346 118.247 17.7346 118.247 17.9766C118.321 18.0085 118.321 18.0085 118.397 18.041C118.619 18.1641 118.767 18.3016 118.934 18.492C118.934 18.5486 118.934 18.6053 118.934 18.6637C118.989 18.6868 119.044 18.7098 119.1 18.7335C119.277 18.8355 119.277 18.8355 119.363 19.0932C119.448 19.1215 119.533 19.1499 119.621 19.1791C119.621 19.2358 119.621 19.2924 119.621 19.3509C119.678 19.3509 119.734 19.3509 119.793 19.3509C119.907 19.4703 119.907 19.4703 120.034 19.63C120.193 19.823 120.329 19.9688 120.528 20.1239C121.167 20.6481 121.569 21.4647 121.682 22.2711C121.746 23.3792 121.66 24.3252 120.909 25.1914C120.853 25.1914 120.796 25.1914 120.738 25.1914C120.716 25.2408 120.694 25.2902 120.672 25.3411C120.551 25.5611 120.413 25.7102 120.236 25.8879C120.171 25.9527 120.106 26.0175 120.04 26.0842C119.973 26.1509 119.905 26.2177 119.836 26.2865C119.735 26.3886 119.735 26.3886 119.631 26.4928C119.567 26.5572 119.502 26.6215 119.436 26.6878C119.377 26.7467 119.317 26.8057 119.256 26.8665C119.106 26.9951 119.106 26.9951 118.934 26.9951C118.905 27.0801 118.877 27.1652 118.848 27.2528C118.791 27.2528 118.735 27.2528 118.676 27.2528C118.676 27.3094 118.676 27.3661 118.676 27.4245C118.558 27.5641 118.558 27.5641 118.418 27.6822C118.362 27.6822 118.305 27.6822 118.247 27.6822C118.218 27.7672 118.19 27.8523 118.161 27.9399C118.104 27.9399 118.047 27.9399 117.989 27.9399C117.989 27.9966 117.989 28.0533 117.989 28.1117C117.871 28.2512 117.871 28.2512 117.731 28.3693C117.675 28.3693 117.618 28.3693 117.56 28.3693C117.531 28.4544 117.503 28.5394 117.474 28.627C117.348 28.7505 117.348 28.7505 117.184 28.8847C116.819 29.1918 116.487 29.5237 116.158 29.8675C116.056 29.9725 115.949 30.0732 115.842 30.173C115.785 30.173 115.728 30.173 115.67 30.173C115.67 30.2297 115.67 30.2864 115.67 30.3448C115.55 30.4629 115.55 30.4629 115.38 30.6025C114.998 30.9256 114.652 31.2776 114.304 31.6382C114.124 31.8049 114.124 31.8049 113.952 31.8049C113.924 31.89 113.895 31.975 113.866 32.0626C113.81 32.0626 113.753 32.0626 113.695 32.0626C113.695 32.1193 113.695 32.176 113.695 32.2344C113.575 32.3488 113.575 32.3488 113.415 32.476C113.156 32.6903 112.959 32.9154 112.75 33.1792C112.295 33.6086 112.295 33.6086 112.063 33.6086C112.034 33.6937 112.006 33.7787 111.977 33.8663C111.92 33.8663 111.863 33.8663 111.805 33.8663C111.805 33.923 111.805 33.9797 111.805 34.0381C111.748 34.0381 111.692 34.0381 111.633 34.0381C111.605 34.1231 111.576 34.2082 111.547 34.2958C111.491 34.2958 111.434 34.2958 111.375 34.2958C111.347 34.3808 111.319 34.4658 111.29 34.5534C111.233 34.5534 111.176 34.5534 111.118 34.5534C111.118 34.6101 111.118 34.6668 111.118 34.7252C111.061 34.7252 111.004 34.7252 110.946 34.7252C110.918 34.8102 110.889 34.8953 110.86 34.9829C110.803 34.9829 110.747 34.9829 110.688 34.9829C110.688 35.0396 110.688 35.0963 110.688 35.1547C110.574 35.2667 110.574 35.2667 110.409 35.4016C110.021 35.729 109.669 36.0851 109.317 36.4505C109.205 36.5656 109.088 36.6765 108.971 36.7866C108.914 36.7866 108.857 36.7866 108.799 36.7866C108.799 36.8433 108.799 36.9 108.799 36.9584C108.685 37.0667 108.685 37.0667 108.53 37.1892C108.306 37.374 108.114 37.5611 107.929 37.7851C107.725 38.0312 107.517 38.2349 107.253 38.4185C107.196 38.4185 107.139 38.4185 107.081 38.4185C107.053 38.5035 107.024 38.5886 106.995 38.6762C106.938 38.6762 106.882 38.6762 106.823 38.6762C106.823 38.7329 106.823 38.7895 106.823 38.8479C106.767 38.8479 106.71 38.8479 106.652 38.8479C106.623 38.933 106.595 39.018 106.566 39.1056C106.509 39.1056 106.452 39.1056 106.394 39.1056C106.365 39.1906 106.337 39.2757 106.308 39.3633C106.251 39.3633 106.195 39.3633 106.136 39.3633C106.136 39.42 106.136 39.4767 106.136 39.5351C106.079 39.5351 106.023 39.5351 105.964 39.5351C105.936 39.6201 105.908 39.7051 105.878 39.7927C105.822 39.7927 105.765 39.7927 105.707 39.7927C105.707 39.8494 105.707 39.9061 105.707 39.9645C105.593 40.0766 105.593 40.0766 105.428 40.2115C105.04 40.5388 104.687 40.8949 104.336 41.2604C104.223 41.3755 104.106 41.4864 103.989 41.5964C103.932 41.5964 103.876 41.5964 103.817 41.5964C103.817 41.6531 103.817 41.7098 103.817 41.7682C103.699 41.9078 103.699 41.9078 103.559 42.0259C103.503 42.0259 103.446 42.0259 103.388 42.0259C103.388 42.0826 103.388 42.1393 103.388 42.1977C103.246 42.314 103.103 42.4284 102.958 42.5412C102.93 42.5979 102.902 42.6546 102.872 42.713C102.816 42.713 102.759 42.713 102.701 42.713C102.701 42.7697 102.701 42.8264 102.701 42.8848C102.574 43.0119 102.574 43.0119 102.4 43.1586C102.153 43.3678 101.91 43.5798 101.67 43.7974C100.788 44.5643 99.945 44.8509 98.7754 44.8099C97.9834 44.754 97.161 44.4052 96.6023 43.8296C96.6023 43.7729 96.6023 43.7162 96.6023 43.6578C96.5457 43.6578 96.489 43.6578 96.4306 43.6578C96.0011 43.1874 96.0011 43.1874 96.0011 42.9707C95.9161 42.9423 95.831 42.914 95.7434 42.8848C95.7434 42.8281 95.7434 42.7714 95.7434 42.713C95.6885 42.69 95.6336 42.6669 95.577 42.6432C95.3999 42.5412 95.3999 42.5412 95.314 42.2836C95.229 42.2552 95.1439 42.2269 95.0563 42.1977C95.0563 42.141 95.0563 42.0843 95.0563 42.0259C95.0014 42.0029 94.9465 41.9798 94.8899 41.9561C94.7128 41.8541 94.7128 41.8541 94.6269 41.5964C94.5418 41.5681 94.4568 41.5397 94.3692 41.5105C94.3692 41.4539 94.3692 41.3972 94.3692 41.3388C94.3125 41.3388 94.2558 41.3388 94.1974 41.3388C94.083 41.2193 94.083 41.2193 93.9558 41.0596C93.8004 40.8715 93.6649 40.7239 93.4727 40.5711C93.2874 40.422 93.1573 40.2892 93.0057 40.1095C92.6314 39.6693 92.2178 39.2689 91.8058 38.8644C91.7512 38.8106 91.6967 38.7568 91.6405 38.7013C91.5913 38.6531 91.542 38.6048 91.4913 38.5551C91.363 38.4185 91.363 38.4185 91.1913 38.1608C91.2132 37.8342 91.3883 37.6739 91.6153 37.4522C91.7068 37.3612 91.7068 37.3612 91.8002 37.2684C91.9643 37.1301 91.9643 37.1301 92.136 37.1301C92.136 37.0735 92.136 37.0168 92.136 36.9584C92.1927 36.9584 92.2494 36.9584 92.3078 36.9584C92.3362 36.8733 92.3645 36.7883 92.3937 36.7007C92.4504 36.7007 92.5071 36.7007 92.5655 36.7007C92.5938 36.6157 92.6222 36.5306 92.6514 36.443C92.7081 36.443 92.7648 36.443 92.8232 36.443C92.8232 36.3863 92.8232 36.3296 92.8232 36.2712C92.8799 36.2712 92.9365 36.2712 92.9949 36.2712C93.0233 36.1862 93.0516 36.1012 93.0808 36.0136C93.1375 36.0136 93.1942 36.0136 93.2526 36.0136C93.281 35.9285 93.3093 35.8435 93.3385 35.7559C93.3952 35.7559 93.4519 35.7559 93.5103 35.7559C93.5103 35.6992 93.5103 35.6425 93.5103 35.5841C93.6244 35.4721 93.6244 35.4721 93.7894 35.3372C94.1141 35.062 94.4144 34.7705 94.7128 34.4675C95.0467 34.1294 95.3849 33.8058 95.7491 33.4999C96.016 33.2606 96.2536 32.9925 96.493 32.7259C96.7452 32.5348 96.8942 32.541 97.2036 32.578C97.3646 32.6961 97.3646 32.6961 97.4612 32.8356C97.4612 32.8923 97.4612 32.949 97.4612 33.0074C97.5463 33.0358 97.6313 33.0641 97.7189 33.0933C97.7189 33.15 97.7189 33.2067 97.7189 33.2651C97.7756 33.2651 97.8323 33.2651 97.8907 33.2651C98.0303 33.3832 98.0303 33.3832 98.1484 33.5227C98.1484 33.5794 98.1484 33.6361 98.1484 33.6945C98.2334 33.7229 98.3184 33.7512 98.406 33.7804C98.406 33.8371 98.406 33.8938 98.406 33.9522C98.4627 33.9522 98.5194 33.9522 98.5778 33.9522C98.7073 34.0837 98.7073 34.0837 98.8462 34.2528C98.8925 34.3086 98.9388 34.3644 98.9865 34.4219C99.0217 34.4653 99.0569 34.5087 99.0932 34.5534C99.4791 34.5121 99.6373 34.3892 99.8984 34.1079C100.13 33.8647 100.36 33.631 100.618 33.4154C100.944 33.1419 101.243 32.8616 101.498 32.5189C101.689 32.2986 101.832 32.2496 102.099 32.1485C102.128 32.0635 102.156 31.9784 102.185 31.8908C102.242 31.8908 102.299 31.8908 102.357 31.8908C102.385 31.8058 102.414 31.7208 102.443 31.6332C102.5 31.6332 102.556 31.6332 102.615 31.6332C102.615 31.5765 102.615 31.5198 102.615 31.4614C102.671 31.4614 102.728 31.4614 102.786 31.4614C102.815 31.3764 102.843 31.2913 102.872 31.2037C102.929 31.2037 102.986 31.2037 103.044 31.2037C103.072 31.1187 103.101 31.0336 103.13 30.946C103.187 30.946 103.243 30.946 103.302 30.946C103.302 30.8894 103.302 30.8327 103.302 30.7743C103.358 30.7743 103.415 30.7743 103.474 30.7743C103.502 30.6892 103.53 30.6042 103.559 30.5166C103.676 30.4022 103.676 30.4022 103.833 30.275C104.191 29.9727 104.519 29.6472 104.848 29.3141C105.207 28.9514 105.567 28.6004 105.958 28.2717C106.259 28.0013 106.54 27.7086 106.82 27.4168C106.933 27.3017 107.049 27.191 107.167 27.081C107.224 27.081 107.28 27.081 107.339 27.081C107.367 26.9959 107.395 26.9109 107.425 26.8233C107.481 26.8233 107.538 26.8233 107.596 26.8233C107.596 26.7666 107.596 26.7099 107.596 26.6515C107.653 26.6515 107.71 26.6515 107.768 26.6515C107.796 26.5665 107.825 26.4815 107.854 26.3939C107.911 26.3939 107.967 26.3939 108.026 26.3939C108.054 26.3088 108.082 26.2238 108.112 26.1362C108.168 26.1362 108.225 26.1362 108.283 26.1362C108.283 26.0795 108.283 26.0228 108.283 25.9644C108.34 25.9644 108.397 25.9644 108.455 25.9644C108.484 25.8794 108.512 25.7943 108.541 25.7067C108.684 25.6495 108.827 25.5922 108.971 25.535C108.999 25.4499 109.027 25.3649 109.056 25.2773C109.113 25.2773 109.17 25.2773 109.228 25.2773C109.251 25.2224 109.274 25.1675 109.298 25.1109C109.4 24.9337 109.4 24.9337 109.658 24.8478C109.686 24.7628 109.714 24.6778 109.744 24.5902C109.8 24.5902 109.857 24.5902 109.915 24.5902C109.938 24.5352 109.961 24.4803 109.985 24.4238C110.087 24.2466 110.087 24.2466 110.345 24.1607C110.345 24.104 110.345 24.0473 110.345 23.9889C110.487 23.8726 110.63 23.7582 110.774 23.6454C110.803 23.5887 110.831 23.532 110.86 23.4736C110.917 23.4736 110.973 23.4736 111.032 23.4736C111.032 23.4169 111.032 23.3602 111.032 23.3018C111.174 23.1859 111.317 23.0715 111.461 22.9582C111.518 22.8732 111.575 22.7882 111.633 22.7006C111.578 22.6465 111.523 22.5925 111.466 22.5368C110.786 21.8631 110.786 21.8631 110.484 21.5088C110.171 21.1405 109.826 20.8055 109.478 20.4705C109.363 20.3581 109.252 20.2413 109.142 20.1239C109.142 20.0672 109.142 20.0105 109.142 19.9521C109.086 19.9521 109.029 19.9521 108.971 19.9521C108.831 19.834 108.831 19.834 108.713 19.6944C108.713 19.6377 108.713 19.581 108.713 19.5226C108.656 19.5226 108.599 19.5226 108.541 19.5226C108.425 19.3809 108.31 19.2377 108.198 19.0932C108.141 19.0648 108.084 19.0365 108.026 19.0073C108.026 18.9506 108.026 18.8939 108.026 18.8355C107.969 18.8355 107.912 18.8355 107.854 18.8355C107.596 18.5382 107.596 18.5382 107.596 18.3202C107.541 18.2971 107.486 18.2741 107.43 18.2504C107.253 18.1484 107.253 18.1484 107.167 17.8907C107.082 17.8624 106.997 17.834 106.909 17.8048C106.909 17.7481 106.909 17.6915 106.909 17.633C106.854 17.61 106.799 17.587 106.743 17.5633C106.566 17.4613 106.566 17.4613 106.48 17.2036C106.395 17.1753 106.31 17.1469 106.222 17.1177C106.222 17.061 106.222 17.0043 106.222 16.9459C106.137 16.9176 106.052 16.8892 105.964 16.86C105.964 16.8033 105.964 16.7467 105.964 16.6883C105.908 16.6883 105.851 16.6883 105.793 16.6883C105.684 16.5749 105.684 16.5749 105.562 16.4198C105.381 16.2015 105.201 16.0139 104.982 15.8347C104.771 15.6597 104.59 15.4805 104.413 15.2711C104.07 14.8666 103.693 14.4983 103.315 14.1277C102.613 13.4361 102.613 13.4361 102.357 13.0809C102.357 13.0242 102.357 12.9675 102.357 12.9091C102.272 12.8807 102.187 12.8524 102.099 12.8232C102.099 12.7665 102.099 12.7098 102.099 12.6514C102.044 12.6284 101.989 12.6054 101.933 12.5816C101.756 12.4796 101.756 12.4796 101.67 12.222C101.585 12.1936 101.5 12.1653 101.412 12.1361C101.412 12.0794 101.412 12.0227 101.412 11.9643C101.356 11.9643 101.299 11.9643 101.24 11.9643C101.126 11.8479 101.126 11.8479 100.999 11.6905C100.71 11.3432 100.414 11.0276 100.059 10.7457C99.8662 10.59 99.8662 10.59 99.7803 10.4183C99.6102 10.475 99.4402 10.5316 99.2649 10.59C99.2649 10.6467 99.2649 10.7034 99.2649 10.7618C99.1468 10.9014 99.1468 10.9014 99.0073 11.0195C98.9506 11.0195 98.8939 11.0195 98.8355 11.0195C98.8071 11.1045 98.7788 11.1896 98.7496 11.2772C98.6929 11.2772 98.6362 11.2772 98.5778 11.2772C98.5778 11.3339 98.5778 11.3905 98.5778 11.449C98.4597 11.5885 98.4597 11.5885 98.3201 11.7066C98.2635 11.7066 98.2068 11.7066 98.1484 11.7066C98.12 11.7917 98.0917 11.8767 98.0625 11.9643C98.0058 11.9643 97.9491 11.9643 97.8907 11.9643C97.8907 12.021 97.8907 12.0777 97.8907 12.1361C97.7796 12.2451 97.7796 12.2451 97.6169 12.3776C97.2138 12.7174 96.8497 13.0902 96.487 13.4722C96.2239 13.7426 96.022 13.9031 95.6575 14.0257C95.5623 14.1874 95.5623 14.1874 95.4858 14.3692C95.314 14.5625 95.314 14.5625 95.1422 14.7128C95.0855 14.7128 95.0288 14.7128 94.9704 14.7128C94.9492 14.7624 94.9279 14.812 94.906 14.8631C94.7829 15.0846 94.6454 15.2334 94.4551 15.3999C94.3984 15.3999 94.3417 15.3999 94.2833 15.3999C94.2833 15.4566 94.2833 15.5133 94.2833 15.5717C94.1639 15.6861 94.1639 15.6861 94.0042 15.8132C93.8161 15.9687 93.6684 16.1042 93.5157 16.2964C93.214 16.6712 92.8556 17.0496 92.3937 17.2036C92.3937 17.2603 92.3937 17.317 92.3937 17.3754C92.337 17.3754 92.2803 17.3754 92.2219 17.3754C92.1936 17.4604 92.1652 17.5454 92.136 17.633C92.0794 17.633 92.0227 17.633 91.9643 17.633C91.9359 17.7181 91.9076 17.8031 91.8784 17.8907C91.8217 17.8907 91.765 17.8907 91.7066 17.8907C91.7066 17.9474 91.7066 18.0041 91.7066 18.0625C91.6499 18.0625 91.5932 18.0625 91.5348 18.0625C91.5065 18.1475 91.4781 18.2326 91.4489 18.3202C91.3922 18.3202 91.3355 18.3202 91.2771 18.3202C91.2488 18.4052 91.2205 18.4902 91.1913 18.5778C91.1346 18.5778 91.0779 18.5778 91.0195 18.5778C91.0195 18.6345 91.0195 18.6912 91.0195 18.7496C90.9054 18.8617 90.9054 18.8617 90.7403 18.9966C90.4156 19.2717 90.1153 19.5633 89.817 19.8662C89.4888 20.1985 89.1559 20.5149 88.7991 20.8167C88.4959 21.0896 88.2132 21.3837 87.9304 21.6776C87.818 21.7927 87.7013 21.9035 87.5839 22.0135C87.5272 22.0135 87.4705 22.0135 87.4121 22.0135C87.4121 22.0701 87.4121 22.1268 87.4121 22.1852C87.3554 22.1852 87.2987 22.1852 87.2403 22.1852C87.3599 22.334 87.4798 22.4825 87.6 22.6308C87.6667 22.7135 87.7335 22.7962 87.8023 22.8814C88.0814 23.2103 88.3717 23.5015 88.7058 23.7742C88.9412 23.9746 89.1243 24.166 89.3017 24.4184C89.3017 24.4751 89.3017 24.5318 89.3017 24.5902C89.3584 24.5902 89.415 24.5902 89.4734 24.5902C89.4734 24.6468 89.4734 24.7035 89.4734 24.7619C89.5585 24.7903 89.6435 24.8186 89.7311 24.8478C89.7311 24.9045 89.7311 24.9612 89.7311 25.0196C89.8161 25.048 89.9012 25.0763 89.9888 25.1055C89.9888 25.1622 89.9888 25.2189 89.9888 25.2773C90.0455 25.2773 90.1022 25.2773 90.1606 25.2773C90.2411 25.492 90.2411 25.492 90.2465 25.7926C89.9435 26.2875 89.4501 26.6634 89.0185 27.0421C88.6758 27.3531 88.3562 27.6852 88.0348 28.0181C87.8415 28.1976 87.8415 28.1976 87.6698 28.1976C87.6698 28.2542 87.6698 28.3109 87.6698 28.3693C87.5517 28.5089 87.5517 28.5089 87.4121 28.627C87.3554 28.627 87.2987 28.627 87.2403 28.627C87.212 28.712 87.1836 28.7971 87.1544 28.8847C87.0977 28.8847 87.041 28.8847 86.9826 28.8847C86.9826 28.9414 86.9826 28.9981 86.9826 29.0565C86.8645 29.196 86.8645 29.196 86.725 29.3141C86.6683 29.3141 86.6116 29.3141 86.5532 29.3141C86.5248 29.3992 86.4965 29.4842 86.4673 29.5718C86.3637 29.6117 86.3637 29.6117 86.2579 29.6523C85.9948 29.7614 85.9788 29.8375 85.8661 30.0871C85.781 30.1155 85.696 30.1438 85.6084 30.173C85.58 30.2581 85.5517 30.3431 85.5225 30.4307C85.4658 30.4307 85.4091 30.4307 85.3507 30.4307C85.3277 30.4856 85.3047 30.5405 85.2809 30.5971C85.1789 30.7743 85.1789 30.7743 84.9213 30.8602C84.8929 30.9452 84.8646 31.0302 84.8354 31.1178C84.6582 31.1554 84.6582 31.1554 84.4059 31.1178C84.1831 30.9381 83.9971 30.7279 83.8047 30.5166C83.725 30.4404 83.6453 30.3642 83.5631 30.2858C83.3925 30.1054 83.3122 29.9612 83.2035 29.7436C83.1184 29.7152 83.0334 29.6869 82.9458 29.6577C82.9458 29.601 82.9458 29.5443 82.9458 29.4859C82.8891 29.4859 82.8324 29.4859 82.774 29.4859C82.774 29.4292 82.774 29.3725 82.774 29.3141C82.689 29.2858 82.6039 29.2574 82.5163 29.2282C82.5163 29.1715 82.5163 29.1149 82.5163 29.0565C82.4313 29.0281 82.3463 28.9998 82.2587 28.9706C82.2587 28.9139 82.2587 28.8572 82.2587 28.7988C82.202 28.7988 82.1453 28.7988 82.0869 28.7988C82.0869 28.7421 82.0869 28.6854 82.0869 28.627C82.0019 28.5987 81.9168 28.5703 81.8292 28.5411C81.8292 28.4844 81.8292 28.4277 81.8292 28.3693C81.7442 28.341 81.6592 28.3126 81.5715 28.2834C81.5715 28.2268 81.5715 28.1701 81.5715 28.1117C81.5149 28.1117 81.4582 28.1117 81.3998 28.1117C81.2877 27.9976 81.2877 27.9976 81.1528 27.8325C80.8254 27.4447 80.4694 27.0922 80.1039 26.7407C79.9888 26.6282 79.8779 26.5113 79.7678 26.3939C79.7678 26.3372 79.7678 26.2805 79.7678 26.2221C79.7112 26.2221 79.6545 26.2221 79.5961 26.2221C79.4659 26.0869 79.4659 26.0869 79.3169 25.9054C79.1296 25.6842 78.9481 25.4844 78.7211 25.3041C78.4865 25.1113 78.3102 24.924 78.1359 24.6761C78.1359 24.6194 78.1359 24.5627 78.1359 24.5043C78.0792 24.5043 78.0226 24.5043 77.9642 24.5043C77.8625 24.3781 77.8625 24.3781 77.7548 24.2037C77.7195 24.1479 77.6842 24.0921 77.6478 24.0346C77.3268 23.4174 77.234 22.9223 77.2395 22.2335C77.2377 22.1571 77.236 22.0806 77.2343 22.0019C77.2348 21.2389 77.5161 20.684 77.9212 20.0487C77.9699 19.971 78.0186 19.8933 78.0688 19.8132C78.2197 19.6114 78.3519 19.483 78.5654 19.3509C78.6221 19.3509 78.6788 19.3509 78.7372 19.3509C78.8222 19.1808 78.8222 19.1808 78.9089 19.0073C78.9656 19.0073 79.0223 19.0073 79.0807 19.0073C79.1658 18.8372 79.1658 18.8372 79.2525 18.6637C79.3092 18.6637 79.3659 18.6637 79.4243 18.6637C79.5093 18.4937 79.5093 18.4937 79.5961 18.3202C79.6528 18.3202 79.7094 18.3202 79.7678 18.3202C79.7962 18.2351 79.8245 18.1501 79.8537 18.0625C80.2366 17.7189 80.2366 17.7189 80.455 17.7189C80.478 17.664 80.501 17.6091 80.5248 17.5525C80.6268 17.3754 80.6268 17.3754 80.8844 17.2895C80.9128 17.2045 80.9411 17.1194 80.9703 17.0318C81.027 17.0318 81.0837 17.0318 81.1421 17.0318C81.1651 16.9769 81.1882 16.922 81.2119 16.8654C81.3139 16.6883 81.3139 16.6883 81.5715 16.6024C81.5999 16.5173 81.6282 16.4323 81.6574 16.3447C81.7141 16.3447 81.7708 16.3447 81.8292 16.3447C81.8292 16.288 81.8292 16.2313 81.8292 16.1729C81.9463 16.0578 81.9463 16.0578 82.1137 15.9206C82.6428 15.4718 83.1348 14.9779 83.6071 14.4699C83.7188 14.3692 83.7188 14.3692 83.8906 14.3692C83.9189 14.2842 83.9473 14.1992 83.9765 14.1115C84.0332 14.1115 84.0898 14.1115 84.1483 14.1115C84.1483 14.0549 84.1483 13.9982 84.1483 13.9398C84.2664 13.8002 84.2664 13.8002 84.4059 13.6821C84.4626 13.6821 84.5193 13.6821 84.5777 13.6821C84.606 13.5971 84.6344 13.512 84.6636 13.4244C84.7203 13.4244 84.777 13.4244 84.8354 13.4244C84.8354 13.3677 84.8354 13.3111 84.8354 13.2526C84.9434 13.1466 84.9434 13.1466 85.1038 13.0164C85.5313 12.6563 85.9165 12.2578 86.3019 11.8537C86.3765 11.7772 86.3765 11.7772 86.4525 11.6992C86.4967 11.6531 86.5409 11.607 86.5865 11.5595C86.7452 11.4328 86.8731 11.4083 87.0685 11.3631C87.1587 11.2042 87.1587 11.2042 87.2403 11.0195C87.4121 10.8262 87.4121 10.8262 87.5839 10.6759C87.6405 10.6759 87.6972 10.6759 87.7556 10.6759C87.7875 10.6015 87.7875 10.6015 87.8201 10.5256C87.9431 10.3041 88.0807 10.1553 88.271 9.98882C88.3277 9.98882 88.3844 9.98882 88.4428 9.98882C88.4428 9.93213 88.4428 9.87544 88.4428 9.81704C88.5609 9.67746 88.5609 9.67746 88.7004 9.55937C88.7571 9.55937 88.8138 9.55937 88.8722 9.55937C88.9006 9.47433 88.9289 9.3893 88.9581 9.30169C89.0148 9.30169 89.0715 9.30169 89.1299 9.30169C89.1299 9.24501 89.1299 9.18832 89.1299 9.12991C89.248 8.99034 89.248 8.99034 89.3876 8.87224C89.4442 8.87224 89.5009 8.87224 89.5593 8.87224C89.5877 8.78721 89.616 8.70218 89.6452 8.61457C89.7019 8.61457 89.7586 8.61457 89.817 8.61457C89.817 8.55788 89.817 8.5012 89.817 8.44279C89.9311 8.33073 89.9311 8.33073 90.0962 8.19586C90.484 7.86848 90.8365 7.51239 91.188 7.14693C91.3005 7.03181 91.4173 6.92094 91.5348 6.81088C91.5915 6.81088 91.6482 6.81088 91.7066 6.81088C91.7066 6.75419 91.7066 6.6975 91.7066 6.6391C91.8207 6.52704 91.8207 6.52704 91.9857 6.39216C92.3124 6.11541 92.6143 5.82188 92.9144 5.51715C93.1901 5.23758 93.4656 4.96294 93.768 4.71193C94.0244 4.5071 94.0244 4.5071 94.192 4.28248C94.4937 3.90764 94.8521 3.52922 95.314 3.37527C95.314 3.31858 95.314 3.26189 95.314 3.20349C95.3707 3.20349 95.4274 3.20349 95.4858 3.20349C95.5141 3.11845 95.5425 3.03342 95.5717 2.94581C95.6283 2.94581 95.685 2.94581 95.7434 2.94581C95.7718 2.86078 95.8001 2.77575 95.8293 2.68814C95.886 2.68814 95.9427 2.68814 96.0011 2.68814C96.0011 2.63146 96.0011 2.57477 96.0011 2.51636C96.0578 2.51636 96.1145 2.51636 96.1729 2.51636C96.2012 2.43133 96.2296 2.3463 96.2588 2.25869C96.3155 2.25869 96.3722 2.25869 96.4306 2.25869C96.4589 2.17366 96.4872 2.08863 96.5164 2.00102C96.5731 2.00102 96.6298 2.00102 96.6882 2.00102C96.6882 1.94433 96.6882 1.88765 96.6882 1.82924C96.9029 1.61296 97.1415 1.42319 97.3754 1.22801C97.4551 1.15892 97.5348 1.08983 97.6169 1.01865C97.8048 0.884449 97.8048 0.884449 98.0625 0.884449C98.0625 0.827761 98.0625 0.771073 98.0625 0.712668C98.589 0.455024 99.0473 0.391008 99.6276 0.358371Z" fill="#C5FF4A"/>
<path d="M82.7201 0.0039549C84.1782 0.0229359 85.0727 0.743527 86.0595 1.73994C86.3889 2.07863 86.7025 2.42799 87.0115 2.78526C87.2578 3.06229 87.5247 3.31688 87.7925 3.5731C87.8977 3.67585 87.9988 3.78285 88.099 3.89049C88.099 3.94718 88.099 4.00386 88.099 4.06227C88.184 4.09061 88.269 4.11896 88.3566 4.14816C88.3566 4.20485 88.3566 4.26154 88.3566 4.31994C88.4133 4.31994 88.47 4.31994 88.5284 4.31994C88.668 4.43804 88.668 4.43804 88.7861 4.57761C88.7861 4.6343 88.7861 4.69099 88.7861 4.74939C88.8711 4.77774 88.9562 4.80608 89.0438 4.83528C89.0438 4.89197 89.0438 4.94866 89.0438 5.00706C89.1004 5.00706 89.1571 5.00706 89.2155 5.00706C89.3551 5.12516 89.3551 5.12516 89.4732 5.26473C89.4732 5.32142 89.4732 5.37811 89.4732 5.43651C89.5299 5.43651 89.5866 5.43651 89.645 5.43651C89.7752 5.56569 89.7752 5.56568 89.9241 5.7425C90.0034 5.83567 90.0034 5.83567 90.0842 5.93072C90.1644 6.02621 90.1644 6.02621 90.2462 6.12364C90.3445 6.23824 90.443 6.35277 90.5415 6.4672C90.6141 6.55223 90.6867 6.63726 90.7616 6.72487C90.4908 7.16866 90.1657 7.51597 89.7953 7.87902C89.7374 7.9364 89.6794 7.99379 89.6197 8.05292C89.2956 8.37205 88.9666 8.68036 88.618 8.97278C88.3172 9.24192 88.0381 9.53393 87.7584 9.8247C87.646 9.93974 87.5292 10.0505 87.4118 10.1605C87.3552 10.1605 87.2985 10.1605 87.2401 10.1605C87.2117 10.2455 87.1834 10.3305 87.1542 10.4181C87.0975 10.4181 87.0408 10.4181 86.9824 10.4181C86.9824 10.4748 86.9824 10.5315 86.9824 10.5899C86.9257 10.5899 86.869 10.5899 86.8106 10.5899C86.7823 10.675 86.7539 10.76 86.7247 10.8476C86.668 10.8476 86.6113 10.8476 86.5529 10.8476C86.5246 10.9326 86.4963 11.0177 86.4671 11.1053C86.4104 11.1053 86.3537 11.1053 86.2953 11.1053C86.2953 11.162 86.2953 11.2186 86.2953 11.2771C86.2386 11.2771 86.1819 11.2771 86.1235 11.2771C86.0951 11.3621 86.0668 11.4471 86.0376 11.5347C85.8944 11.592 85.7513 11.6492 85.6081 11.7065C85.5798 11.7915 85.5515 11.8766 85.5223 11.9642C85.4656 11.9642 85.4089 11.9642 85.3505 11.9642C85.3221 12.0492 85.2938 12.1342 85.2646 12.2218C85.1066 12.2957 85.1066 12.2957 84.921 12.3077C84.7704 12.2178 84.7704 12.2178 84.615 12.0715C84.5559 12.0163 84.4968 11.961 84.4359 11.9041C84.3359 11.8063 84.3359 11.8063 84.2339 11.7065C84.1549 11.6298 84.0758 11.553 83.9944 11.474C83.5945 11.0819 83.2054 10.6875 82.8597 10.2464C82.5356 10.2902 82.3916 10.35 82.1725 10.5899C82.1159 10.5899 82.0592 10.5899 82.0008 10.5899C81.9724 10.675 81.9441 10.76 81.9149 10.8476C81.8582 10.8476 81.8015 10.8476 81.7431 10.8476C81.7201 10.9025 81.697 10.9574 81.6733 11.014C81.5713 11.1912 81.5713 11.1912 81.3136 11.2771C81.2853 11.3621 81.2569 11.4471 81.2277 11.5347C81.1711 11.5347 81.1144 11.5347 81.056 11.5347C81.0254 11.6088 81.0254 11.6088 80.9942 11.6844C80.8603 11.9203 80.7036 12.056 80.4977 12.2326C80.0919 12.5871 79.7143 12.9612 79.3408 13.3495C79.1664 13.5102 79.1664 13.5102 78.9946 13.5102C78.9663 13.5952 78.9379 13.6803 78.9087 13.7679C78.852 13.7679 78.7953 13.7679 78.7369 13.7679C78.7086 13.8529 78.6802 13.9379 78.651 14.0255C78.5943 14.0255 78.5377 14.0255 78.4793 14.0255C78.4793 14.0822 78.4793 14.1389 78.4793 14.1973C78.4226 14.1973 78.3659 14.1973 78.3075 14.1973C78.2791 14.2824 78.2508 14.3674 78.2216 14.455C78.1649 14.455 78.1082 14.455 78.0498 14.455C78.0498 14.5117 78.0498 14.5684 78.0498 14.6268C77.9267 14.7479 77.9267 14.7479 77.7546 14.8898C77.3437 15.2391 76.9675 15.6167 76.5897 16.001C76.1664 16.4315 75.7413 16.851 75.281 17.2421C75.126 17.3784 74.983 17.522 74.8397 17.6705C74.6142 17.8906 74.6142 17.8906 74.4424 17.8906C74.4212 17.9402 74.3999 17.9898 74.378 18.0409C74.2549 18.2625 74.1174 18.4112 73.9271 18.5777C73.8704 18.5777 73.8137 18.5777 73.7553 18.5777C73.7553 18.6344 73.7553 18.6911 73.7553 18.7495C73.6136 18.8658 73.4704 18.9803 73.3258 19.0931C73.2975 19.1498 73.2692 19.2064 73.24 19.2648C73.1833 19.2648 73.1266 19.2648 73.0682 19.2648C73.0682 19.3215 73.0682 19.3782 73.0682 19.4366C72.9439 19.5589 72.9439 19.5589 72.7709 19.7017C72.3723 20.0406 72.0067 20.4056 71.6402 20.7787C71.2431 21.1829 70.8488 21.5737 70.4056 21.9274C70.4176 22.3495 70.6401 22.5374 70.9264 22.8137C70.9831 22.8667 71.0397 22.9196 71.0981 22.9742C71.2104 23.0807 71.3223 23.1874 71.4339 23.2946C71.4837 23.3414 71.5336 23.3881 71.5849 23.4363C71.6939 23.5594 71.6939 23.5594 71.6939 23.7311C71.7506 23.7311 71.8073 23.7311 71.8657 23.7311C71.8657 23.7878 71.8657 23.8445 71.8657 23.9029C71.9507 23.9313 72.0358 23.9596 72.1234 23.9888C72.1234 24.0455 72.1234 24.1022 72.1234 24.1606C72.2084 24.1889 72.2934 24.2173 72.381 24.2465C72.381 24.3032 72.381 24.3599 72.381 24.4183C72.4377 24.4183 72.4944 24.4183 72.5528 24.4183C72.5528 24.475 72.5528 24.5316 72.5528 24.59C72.6379 24.6184 72.7229 24.6467 72.8105 24.6759C72.8105 24.7326 72.8105 24.7893 72.8105 24.8477C72.8955 24.8761 72.9806 24.9044 73.0682 24.9336C73.0682 24.9903 73.0682 25.047 73.0682 25.1054C73.1249 25.1054 73.1815 25.1054 73.24 25.1054C73.352 25.2195 73.352 25.2195 73.4869 25.3845C73.7621 25.7092 74.0536 26.0095 74.3565 26.3078C74.6889 26.636 75.0052 26.969 75.307 27.3258C75.5799 27.629 75.874 27.9116 76.1679 28.1944C76.283 28.3068 76.3938 28.4236 76.5038 28.541C76.5038 28.5977 76.5038 28.6544 76.5038 28.7128C76.5605 28.7128 76.6172 28.7128 76.6756 28.7128C76.8151 28.8309 76.8151 28.8309 76.9332 28.9704C76.9332 29.0271 76.9332 29.0838 76.9332 29.1422C77.0183 29.1706 77.1033 29.1989 77.1909 29.2281C77.1909 29.2848 77.1909 29.3415 77.1909 29.3999C77.2476 29.3999 77.3043 29.3999 77.3627 29.3999C77.3627 29.4566 77.3627 29.5133 77.3627 29.5717C77.4477 29.6 77.5327 29.6284 77.6204 29.6576C77.6204 29.7143 77.6204 29.7709 77.6204 29.8293C77.7054 29.8577 77.7904 29.886 77.878 29.9152C77.878 29.9719 77.878 30.0286 77.878 30.087C77.9347 30.087 77.9914 30.087 78.0498 30.087C78.1619 30.2011 78.1619 30.2011 78.2967 30.3662C78.5719 30.6909 78.8635 30.9912 79.1664 31.2895C79.4987 31.6177 79.815 31.9506 80.1169 32.3074C80.3898 32.6106 80.6839 32.8933 80.9778 33.176C81.0929 33.2885 81.2036 33.4052 81.3136 33.5226C81.3136 33.5793 81.3136 33.636 81.3136 33.6944C81.3703 33.6944 81.427 33.6944 81.4854 33.6944C81.625 33.8125 81.625 33.8125 81.7431 33.9521C81.7431 34.0088 81.7431 34.0655 81.7431 34.1239C81.8281 34.1522 81.9131 34.1806 82.0008 34.2098C82.0008 34.2664 82.0008 34.3231 82.0008 34.3815C82.1708 34.3815 82.3409 34.3815 82.5161 34.3815C82.5161 34.3248 82.5161 34.2682 82.5161 34.2098C82.6342 34.0702 82.6342 34.0702 82.7738 33.9521C82.8305 33.9521 82.8871 33.9521 82.9456 33.9521C82.9739 33.8671 83.0022 33.782 83.0314 33.6944C83.0881 33.6944 83.1448 33.6944 83.2032 33.6944C83.2032 33.6377 83.2032 33.581 83.2032 33.5226C83.3082 33.4196 83.3082 33.4196 83.4663 33.2918C83.843 32.9729 84.1879 32.628 84.5345 32.2772C84.911 31.897 85.2876 31.5267 85.6971 31.1818C86.0081 30.9053 86.2954 30.6036 86.5862 30.3061C86.8106 30.087 86.8106 30.087 87.0485 29.8975C87.2467 29.76 87.2467 29.76 87.326 29.5717C87.3826 29.5717 87.4393 29.5717 87.4977 29.5717C87.4977 29.515 87.4977 29.4583 87.4977 29.3999C87.6395 29.2836 87.7827 29.1691 87.9272 29.0563C87.9555 28.9996 87.9839 28.943 88.0131 28.8846C88.0698 28.8846 88.1265 28.8846 88.1849 28.8846C88.1849 28.8279 88.1849 28.7712 88.1849 28.7128C88.4822 28.4551 88.4822 28.4551 88.7002 28.4551C88.7232 28.4002 88.7463 28.3453 88.77 28.2887C88.872 28.1115 88.872 28.1115 89.1296 28.0257C89.158 27.9406 89.1863 27.8556 89.2155 27.768C89.2722 27.768 89.3289 27.768 89.3873 27.768C89.3873 27.7113 89.3873 27.6546 89.3873 27.5962C89.444 27.5962 89.5007 27.5962 89.5591 27.5962C89.5874 27.5112 89.6158 27.4261 89.645 27.3385C89.7017 27.3385 89.7584 27.3385 89.8168 27.3385C89.8451 27.2535 89.8735 27.1685 89.9027 27.0809C89.9593 27.0809 90.016 27.0809 90.0744 27.0809C90.0744 27.0242 90.0744 26.9675 90.0744 26.9091C90.1885 26.797 90.1885 26.797 90.3536 26.6621C90.7414 26.3348 91.0939 25.9787 91.4454 25.6132C91.5579 25.4981 91.6748 25.3872 91.7922 25.2772C91.8489 25.2772 91.9056 25.2772 91.964 25.2772C91.9933 25.2028 91.9933 25.2028 92.0231 25.1269C92.1654 24.883 92.3442 24.7659 92.5653 24.59C92.653 24.4915 92.7388 24.3911 92.8229 24.2894C93.0311 24.04 93.2415 23.8318 93.5101 23.6453C93.5667 23.6453 93.6234 23.6453 93.6818 23.6453C93.7049 23.5903 93.7279 23.5354 93.7516 23.4788C93.8536 23.3017 93.8536 23.3017 94.1113 23.2158C94.1396 23.1308 94.168 23.0457 94.1972 22.9581C94.2539 22.9581 94.3106 22.9581 94.369 22.9581C94.5167 22.7148 94.5167 22.7148 94.5139 22.4374C94.4944 22.3825 94.4749 22.3276 94.4548 22.271C94.4265 22.186 94.3982 22.1009 94.369 22.0133C94.2552 21.9545 94.1406 21.8975 94.0254 21.8416C93.8321 21.6698 93.8321 21.6698 93.6818 21.498C93.6818 21.4413 93.6818 21.3846 93.6818 21.3262C93.6074 21.2943 93.6074 21.2943 93.5315 21.2618C93.31 21.1387 93.1612 21.0012 92.9947 20.8109C92.9947 20.7542 92.9947 20.6975 92.9947 20.6391C92.938 20.6391 92.8813 20.6391 92.8229 20.6391C92.7066 20.4974 92.5922 20.3542 92.4794 20.2096C92.4227 20.1813 92.366 20.153 92.3076 20.1237C92.3076 20.0671 92.3076 20.0104 92.3076 19.952C92.2509 19.952 92.1942 19.952 92.1358 19.952C91.9334 19.7742 91.7647 19.5782 91.6205 19.3507C91.6312 19.0984 91.6312 19.0984 91.7064 18.9213C91.763 18.9213 91.8197 18.9213 91.8781 18.9213C91.9065 18.8363 91.9348 18.7512 91.964 18.6636C92.0207 18.6636 92.0774 18.6636 92.1358 18.6636C92.1358 18.6069 92.1358 18.5502 92.1358 18.4918C92.2539 18.3523 92.2539 18.3523 92.3935 18.2342C92.4502 18.2342 92.5069 18.2342 92.5653 18.2342C92.5936 18.1491 92.6219 18.0641 92.6512 17.9765C92.7078 17.9765 92.7645 17.9765 92.8229 17.9765C92.8229 17.9198 92.8229 17.8631 92.8229 17.8047C92.9279 17.7017 92.9279 17.7017 93.086 17.5739C93.538 17.1934 93.9442 16.7691 94.3524 16.3428C94.4062 16.2877 94.4601 16.2326 94.5156 16.1758C94.5638 16.1257 94.6121 16.0755 94.6618 16.0239C94.7984 15.9151 94.7984 15.9151 95.0561 15.9151C95.0788 15.8644 95.1016 15.8136 95.125 15.7613C95.231 15.5657 95.3404 15.4393 95.4986 15.284C95.5511 15.2321 95.6037 15.1801 95.6578 15.1265C95.7126 15.0732 95.7673 15.0199 95.8237 14.965C95.8781 14.9113 95.9326 14.8577 95.9886 14.8024C96.09 14.7025 96.1916 14.6028 96.2934 14.5033C96.3865 14.4121 96.4773 14.3185 96.5661 14.223C96.688 14.1114 96.688 14.1114 96.8598 14.1114C96.8598 14.0547 96.8598 13.9981 96.8598 13.9397C97.0047 13.7947 97.0047 13.7947 97.2033 13.682C97.5871 13.7081 97.7583 13.8517 98.0226 14.1212C98.0937 14.193 98.1648 14.2648 98.238 14.3387C98.3111 14.4143 98.3842 14.4899 98.4595 14.5677C98.5332 14.6423 98.607 14.7169 98.6829 14.7937C99.5224 15.6482 99.5224 15.6482 99.5224 15.9151C99.5968 15.947 99.5968 15.947 99.6727 15.9795C99.8942 16.1026 100.043 16.2402 100.209 16.4305C100.209 16.4872 100.209 16.5438 100.209 16.6022C100.284 16.6341 100.284 16.6341 100.36 16.6667C100.581 16.7897 100.73 16.9273 100.897 17.1176C100.897 17.1743 100.897 17.231 100.897 17.2894C100.953 17.2894 101.01 17.2894 101.068 17.2894C101.185 17.4311 101.299 17.5743 101.412 17.7188C101.469 17.7472 101.525 17.7755 101.584 17.8047C101.584 17.8614 101.584 17.9181 101.584 17.9765C101.64 17.9765 101.697 17.9765 101.756 17.9765C101.872 18.1182 101.986 18.2614 102.099 18.4059C102.156 18.4343 102.212 18.4626 102.271 18.4918C102.271 18.5485 102.271 18.6052 102.271 18.6636C102.328 18.6636 102.384 18.6636 102.443 18.6636C102.564 18.7867 102.564 18.7867 102.706 18.9589C102.937 19.2323 103.177 19.484 103.436 19.7319C104.019 20.3114 104.364 20.8829 104.59 21.6698C104.64 21.7973 104.64 21.7973 104.692 21.9274C104.902 22.7038 104.688 23.4425 104.397 24.1713C103.827 25.1075 103.026 25.8692 102.195 26.5739C101.912 26.8283 101.648 27.102 101.384 27.3768C101.282 27.4817 101.176 27.5823 101.068 27.6821C101.012 27.6821 100.955 27.6821 100.897 27.6821C100.868 27.7671 100.84 27.8522 100.811 27.9398C100.754 27.9398 100.697 27.9398 100.639 27.9398C100.639 27.9965 100.639 28.0531 100.639 28.1115C100.582 28.1115 100.526 28.1115 100.467 28.1115C100.439 28.1966 100.41 28.2816 100.381 28.3692C100.325 28.3692 100.268 28.3692 100.209 28.3692C100.181 28.4542 100.153 28.5393 100.124 28.6269C100.067 28.6269 100.01 28.6269 99.9518 28.6269C99.9518 28.6836 99.9518 28.7403 99.9518 28.7987C99.8951 28.7987 99.8384 28.7987 99.78 28.7987C99.7517 28.8837 99.7234 28.9687 99.6942 29.0563C99.6375 29.0563 99.5808 29.0563 99.5224 29.0563C99.5224 29.113 99.5224 29.1697 99.5224 29.2281C99.4083 29.3402 99.4083 29.3402 99.2432 29.4751C98.9185 29.7502 98.6182 30.0418 98.3199 30.3447C97.9917 30.677 97.6587 30.9934 97.302 31.2952C96.9988 31.5681 96.7161 31.8622 96.4333 32.1561C96.3209 32.2712 96.2042 32.382 96.0868 32.4919C96.0301 32.4919 95.9734 32.4919 95.915 32.4919C95.8866 32.577 95.8583 32.662 95.8291 32.7496C95.7724 32.7496 95.7157 32.7496 95.6573 32.7496C95.6573 32.8063 95.6573 32.863 95.6573 32.9214C95.5392 33.061 95.5392 33.061 95.3996 33.1791C95.343 33.1791 95.2863 33.1791 95.2279 33.1791C95.1995 33.2641 95.1712 33.3491 95.142 33.4367C95.0853 33.4367 95.0286 33.4367 94.9702 33.4367C94.9702 33.4934 94.9702 33.5501 94.9702 33.6085C94.8521 33.7481 94.8521 33.7481 94.7125 33.8662C94.6558 33.8662 94.5991 33.8662 94.5407 33.8662C94.5407 33.9229 94.5407 33.9796 94.5407 34.038C94.2434 34.2956 94.2434 34.2956 94.0254 34.2956C94.0024 34.3506 93.9793 34.4055 93.9556 34.4621C93.8536 34.6392 93.8536 34.6392 93.5959 34.7251C93.5676 34.8101 93.5393 34.8952 93.5101 34.9828C93.4534 34.9828 93.3967 34.9828 93.3383 34.9828C93.3152 35.0377 93.2922 35.0926 93.2685 35.1492C93.1665 35.3263 93.1665 35.3263 92.9088 35.4122C92.8805 35.4972 92.8521 35.5823 92.8229 35.6699C92.7662 35.6699 92.7096 35.6699 92.6512 35.6699C92.6512 35.7266 92.6512 35.7833 92.6512 35.8417C92.5317 35.9561 92.5317 35.9561 92.372 36.0832C92.1839 36.2387 92.0362 36.3742 91.8835 36.5664C91.7291 36.7582 91.5852 36.8961 91.3987 37.0539C91.0021 37.397 90.6351 37.7653 90.2677 38.1392C90.1413 38.2678 90.0147 38.3962 89.8879 38.5244C89.8054 38.6084 89.8054 38.6084 89.7212 38.6941C89.2874 39.1055 89.2874 39.1055 89.0438 39.1055C89.0207 39.1604 88.9977 39.2153 88.974 39.2719C88.872 39.4491 88.872 39.4491 88.6143 39.5349C88.586 39.62 88.5576 39.705 88.5284 39.7926C88.4717 39.7926 88.415 39.7926 88.3566 39.7926C88.3336 39.8475 88.3106 39.9025 88.2869 39.959C88.1849 40.1362 88.1849 40.1362 87.9272 40.2221C87.8988 40.3071 87.8705 40.3921 87.8413 40.4797C87.7846 40.4797 87.7279 40.4797 87.6695 40.4797C87.6695 40.5364 87.6695 40.5931 87.6695 40.6515C87.5554 40.7636 87.5554 40.7636 87.3904 40.8985C87.0025 41.2258 86.65 41.5819 86.2985 41.9474C86.186 42.0625 86.0692 42.1734 85.9517 42.2834C85.895 42.2834 85.8383 42.2834 85.7799 42.2834C85.7799 42.3401 85.7799 42.3968 85.7799 42.4552C85.7232 42.4552 85.6666 42.4552 85.6081 42.4552C85.5798 42.5402 85.5515 42.6253 85.5223 42.7129C85.4656 42.7129 85.4089 42.7129 85.3505 42.7129C85.3221 42.7979 85.2938 42.883 85.2646 42.9706C85.2079 42.9706 85.1512 42.9706 85.0928 42.9706C85.0928 43.0272 85.0928 43.0839 85.0928 43.1423C85.0361 43.1423 84.9794 43.1423 84.921 43.1423C84.8927 43.2274 84.8643 43.3124 84.8351 43.4C84.7784 43.4 84.7218 43.4 84.6634 43.4C84.6634 43.4567 84.6634 43.5134 84.6634 43.5718C83.7649 44.2886 82.8047 44.6219 81.6572 44.5166C81.3592 44.4562 81.082 44.3676 80.7983 44.2589C80.7141 44.229 80.7141 44.229 80.6282 44.1985C80.0139 43.9402 79.5515 43.4276 79.0805 42.9706C79.0279 42.922 78.9753 42.8733 78.9211 42.8233C78.8228 42.7129 78.8228 42.7129 78.8228 42.5411C78.7661 42.5411 78.7094 42.5411 78.651 42.5411C78.5348 42.3994 78.4203 42.2562 78.3075 42.1117C78.2508 42.0833 78.1941 42.055 78.1357 42.0258C78.1357 41.9691 78.1357 41.9124 78.1357 41.854C78.079 41.854 78.0223 41.854 77.9639 41.854C77.8186 41.7127 77.8186 41.7127 77.6579 41.5265C77.6047 41.4657 77.5514 41.405 77.4966 41.3423C77.3627 41.1669 77.3627 41.1669 77.2768 40.9092C77.1918 40.8808 77.1067 40.8525 77.0191 40.8233C77.0191 40.7666 77.0191 40.7099 77.0191 40.6515C76.9624 40.6515 76.9057 40.6515 76.8473 40.6515C76.8473 40.5948 76.8473 40.5381 76.8473 40.4797C76.7623 40.4514 76.6773 40.4231 76.5897 40.3939C76.5897 40.3372 76.5897 40.2805 76.5897 40.2221C76.5046 40.1937 76.4196 40.1654 76.332 40.1362C76.332 40.0795 76.332 40.0228 76.332 39.9644C76.2753 39.9644 76.2186 39.9644 76.1602 39.9644C76.1602 39.9077 76.1602 39.851 76.1602 39.7926C76.0752 39.7643 75.9902 39.7359 75.9025 39.7067C75.9025 39.65 75.9025 39.5934 75.9025 39.5349C75.8459 39.5349 75.7892 39.5349 75.7308 39.5349C75.6247 39.4269 75.6247 39.4269 75.4946 39.2665C75.1426 38.8508 74.7585 38.4718 74.3695 38.091C74.0714 37.7972 73.7945 37.4941 73.5251 37.1739C73.3948 37.0247 73.2556 36.8986 73.1004 36.7757C72.8542 36.5716 72.6506 36.3638 72.4669 36.0993C72.4669 36.0427 72.4669 35.986 72.4669 35.9276C72.3819 35.8992 72.2969 35.8709 72.2093 35.8417C72.2093 35.785 72.2093 35.7283 72.2093 35.6699C72.1544 35.6469 72.0994 35.6238 72.0429 35.6001C71.8657 35.4981 71.8657 35.4981 71.7798 35.2404C71.6948 35.2121 71.6098 35.1837 71.5221 35.1545C71.5221 35.0979 71.5221 35.0412 71.5221 34.9828C71.4672 34.9597 71.4123 34.9367 71.3557 34.913C71.1786 34.811 71.1786 34.811 71.0927 34.5533C71.036 34.5533 70.9793 34.5533 70.9209 34.5533C70.8089 34.4392 70.8089 34.4392 70.674 34.2742C70.3466 33.8863 69.9905 33.5338 69.6251 33.1823C69.5099 33.0698 69.3991 32.953 69.289 32.8355C69.289 32.7788 69.289 32.7221 69.289 32.6637C69.2323 32.6637 69.1756 32.6637 69.1172 32.6637C68.9776 32.5456 68.9776 32.5456 68.8595 32.4061C68.8595 32.3494 68.8595 32.2927 68.8595 32.2343C68.7745 32.2059 68.6895 32.1776 68.6019 32.1484C68.6019 32.0917 68.6019 32.035 68.6019 31.9766C68.5452 31.9766 68.4885 31.9766 68.4301 31.9766C68.4301 31.9199 68.4301 31.8632 68.4301 31.8048C68.3451 31.7765 68.26 31.7481 68.1724 31.7189C68.1724 31.6622 68.1724 31.6056 68.1724 31.5472C68.0874 31.5188 68.0024 31.4905 67.9148 31.4613C67.9148 31.4046 67.9148 31.3479 67.9148 31.2895C67.8581 31.2895 67.8014 31.2895 67.743 31.2895C67.6309 31.1754 67.6309 31.1754 67.496 31.0103C67.2209 30.6856 66.9293 30.3853 66.6264 30.087C66.2941 29.7588 65.9777 29.4259 65.6759 29.0691C65.403 28.7659 65.1089 28.4832 64.815 28.2005C64.6999 28.088 64.5891 27.9713 64.4791 27.8539C64.4791 27.7972 64.4791 27.7405 64.4791 27.6821C64.4225 27.6821 64.3658 27.6821 64.3074 27.6821C64.1678 27.564 64.1678 27.564 64.0497 27.4244C64.0497 27.3677 64.0497 27.311 64.0497 27.2526C63.9647 27.2243 63.8796 27.196 63.792 27.1668C63.792 27.1101 63.792 27.0534 63.792 26.995C63.7353 26.995 63.6786 26.995 63.6202 26.995C63.4807 26.8769 63.4807 26.8769 63.3626 26.7373C63.3626 26.6806 63.3626 26.6239 63.3626 26.5655C63.2775 26.5372 63.1925 26.5088 63.1049 26.4796C63.1049 26.4229 63.1049 26.3663 63.1049 26.3078C63.0482 26.3078 62.9915 26.3078 62.9331 26.3078C62.8211 26.1938 62.8211 26.1938 62.6862 26.0287C62.4134 25.7064 62.1234 25.411 61.8219 25.1161C60.5854 23.8929 60.5854 23.8929 60.3564 23.044C60.3303 22.9608 60.3303 22.9608 60.3037 22.8759C60.0668 22.0587 60.2132 21.3591 60.4423 20.5532C60.499 20.5532 60.5557 20.5532 60.6141 20.5532C60.63 20.4575 60.63 20.4575 60.6463 20.3599C60.6961 20.1408 60.7633 19.9754 60.8718 19.7802C60.9284 19.7802 60.9851 19.7802 61.0435 19.7802C61.0612 19.7346 61.079 19.689 61.0972 19.642C61.2651 19.3501 61.492 19.1351 61.7307 18.8998C61.7776 18.8522 61.8245 18.8046 61.8729 18.7555C62.2242 18.4059 62.2242 18.4059 62.4178 18.4059C62.4461 18.3209 62.4745 18.2359 62.5037 18.1483C62.5604 18.1483 62.617 18.1483 62.6754 18.1483C62.6754 18.0916 62.6754 18.0349 62.6754 17.9765C62.7321 17.9765 62.7888 17.9765 62.8472 17.9765C62.8756 17.8915 62.9039 17.8064 62.9331 17.7188C62.9898 17.7188 63.0465 17.7188 63.1049 17.7188C63.1049 17.6621 63.1049 17.6054 63.1049 17.547C63.223 17.4075 63.223 17.4075 63.3626 17.2894C63.4193 17.2894 63.4759 17.2894 63.5344 17.2894C63.5627 17.2043 63.591 17.1193 63.6202 17.0317C63.6769 17.0317 63.7336 17.0317 63.792 17.0317C63.792 16.975 63.792 16.9183 63.792 16.8599C63.8771 16.8599 63.9621 16.8599 64.0497 16.8599C64.0709 16.8103 64.0922 16.7607 64.1141 16.7096C64.2372 16.4881 64.3747 16.3393 64.565 16.1728C64.6217 16.1728 64.6784 16.1728 64.7368 16.1728C64.7581 16.1232 64.7793 16.0736 64.8012 16.0225C64.9243 15.8009 65.0618 15.6522 65.2522 15.4857C65.3088 15.4857 65.3655 15.4857 65.4239 15.4857C65.4239 15.429 65.4239 15.3723 65.4239 15.3139C65.5657 15.1976 65.7089 15.0831 65.8534 14.9703C65.8817 14.9136 65.9101 14.857 65.9393 14.7986C65.996 14.7986 66.0527 14.7986 66.1111 14.7986C66.1111 14.7419 66.1111 14.6852 66.1111 14.6268C66.2275 14.5124 66.2275 14.5124 66.3848 14.3852C66.6548 14.1658 66.8975 13.93 67.1417 13.682C67.3723 13.4491 67.6032 13.2166 67.8342 12.9841C67.9253 12.8919 67.9253 12.8919 68.0183 12.7979C68.0772 12.7387 68.1362 12.6794 68.1969 12.6184C68.25 12.5649 68.303 12.5114 68.3576 12.4563C68.7906 12.0501 68.7906 12.0501 69.0313 12.0501C69.0526 12.0005 69.0738 11.9509 69.0957 11.8998C69.2188 11.6782 69.3564 11.5295 69.5467 11.3629C69.6034 11.3629 69.66 11.3629 69.7184 11.3629C69.7397 11.3133 69.761 11.2637 69.7829 11.2126C69.9059 10.9911 70.0435 10.8423 70.2338 10.6758C70.2905 10.6758 70.3472 10.6758 70.4056 10.6758C70.4056 10.6191 70.4056 10.5624 70.4056 10.504C70.5408 10.3708 70.5408 10.3708 70.7223 10.2195C71.0586 9.93334 71.3699 9.63194 71.6758 9.31332C71.7296 9.25807 71.7834 9.20282 71.8389 9.1459C71.9138 9.06801 71.9138 9.06801 71.9902 8.98855C72.1234 8.87212 72.1234 8.87212 72.2952 8.87212C72.2952 8.81544 72.2952 8.75875 72.2952 8.70034C72.3518 8.70034 72.4085 8.70034 72.4669 8.70034C72.4953 8.61531 72.5236 8.53028 72.5528 8.44267C72.6095 8.44267 72.6662 8.44267 72.7246 8.44267C72.753 8.35764 72.7813 8.27261 72.8105 8.185C72.8672 8.185 72.9239 8.185 72.9823 8.185C72.9823 8.12831 72.9823 8.07163 72.9823 8.01322C73.039 8.01322 73.0957 8.01322 73.1541 8.01322C73.1824 7.92819 73.2107 7.84316 73.24 7.75555C73.2966 7.75555 73.3533 7.75555 73.4117 7.75555C73.4401 7.67052 73.4684 7.58549 73.4976 7.49788C73.5543 7.49788 73.611 7.49788 73.6694 7.49788C73.6694 7.44119 73.6694 7.38451 73.6694 7.3261C73.7835 7.21404 73.7835 7.21404 73.9485 7.07917C74.2732 6.80398 74.5735 6.51245 74.8719 6.20953C75.2 5.87718 75.533 5.56086 75.8898 5.25903C76.193 4.98613 76.4756 4.69201 76.7584 4.39811C76.8709 4.28305 76.9876 4.17226 77.105 4.06227C77.1617 4.06227 77.2184 4.06227 77.2768 4.06227C77.2768 4.00558 77.2768 3.94889 77.2768 3.89049C77.3949 3.75092 77.3949 3.75092 77.5345 3.63282C77.5912 3.63282 77.6478 3.63282 77.7062 3.63282C77.7346 3.54779 77.7629 3.46276 77.7921 3.37515C77.8488 3.37515 77.9055 3.37515 77.9639 3.37515C77.9639 3.31846 77.9639 3.26177 77.9639 3.20337C78.082 3.0638 78.082 3.0638 78.2216 2.9457C78.2783 2.9457 78.335 2.9457 78.3934 2.9457C78.4217 2.86067 78.4501 2.77563 78.4793 2.68803C78.5359 2.68803 78.5926 2.68803 78.651 2.68803C78.651 2.63134 78.651 2.57465 78.651 2.51625C78.7681 2.40117 78.7681 2.40117 78.9355 2.26394C79.2437 2.00322 79.5288 1.7259 79.8106 1.43725C80.5175 0.720874 81.1445 0.23468 82.1725 0.111318C82.3215 -0.0376324 82.5172 0.00708408 82.7201 0.0039549Z" fill="#C5FF4A"/>
<path d="M125.037 47.9215C125.143 47.9213 125.143 47.9213 125.251 47.921C125.485 47.9207 125.719 47.9223 125.953 47.924C126.116 47.9242 126.279 47.9244 126.442 47.9244C126.784 47.9248 127.126 47.9261 127.468 47.928C127.905 47.9304 128.342 47.9313 128.778 47.9317C129.196 47.9322 129.614 47.9334 130.033 47.9347C130.151 47.9349 130.151 47.9349 130.272 47.9352C132.268 47.9405 133.772 48.1178 135.253 49.5841C136.011 50.383 136.011 50.383 136.042 50.8563C136.037 50.9183 136.032 50.9803 136.026 51.0442C136.083 51.0442 136.139 51.0442 136.198 51.0442C136.438 51.6964 136.495 52.285 136.488 52.9767C136.489 53.0681 136.49 53.1594 136.491 53.2535C136.486 54.5048 136.002 55.6012 135.146 56.5143C134.664 56.9736 134.089 57.3033 133.449 57.486C133.334 57.5408 133.219 57.597 133.106 57.6577C133.177 57.7392 133.248 57.8207 133.321 57.9047C133.535 58.1516 133.535 58.1516 133.535 58.3449C133.59 58.3679 133.645 58.3909 133.702 58.4146C133.879 58.5166 133.879 58.5166 133.965 58.7743C134.021 58.7743 134.078 58.7743 134.136 58.7743C134.256 58.9076 134.37 59.0466 134.48 59.1877C134.837 59.6362 135.214 60.0565 135.608 60.4737C135.768 60.6639 135.768 60.6639 135.768 60.8357C135.825 60.8357 135.882 60.8357 135.94 60.8357C136.059 60.9752 136.173 61.1192 136.284 61.2651C136.362 61.3566 136.441 61.4479 136.52 61.5389C136.713 61.7805 136.713 61.7805 136.713 61.9522C136.798 61.9806 136.883 62.0089 136.971 62.0381C137.156 62.3154 137.16 62.4061 137.143 62.7253C136.867 62.863 136.568 62.8233 136.265 62.8226C136.195 62.8226 136.125 62.8227 136.053 62.8228C135.905 62.8229 135.757 62.8227 135.61 62.8223C135.383 62.8219 135.156 62.8223 134.929 62.8229C134.786 62.8228 134.642 62.8227 134.499 62.8226C134.431 62.8227 134.363 62.8229 134.293 62.8231C133.813 62.821 133.813 62.821 133.621 62.7253C133.621 62.6686 133.621 62.6119 133.621 62.5535C133.536 62.5251 133.451 62.4968 133.363 62.4676C133.363 62.4109 133.363 62.3542 133.363 62.2958C133.307 62.2958 133.25 62.2958 133.192 62.2958C133.062 62.1515 133.062 62.1515 132.923 61.963C132.877 61.9012 132.831 61.8394 132.783 61.7758C132.676 61.6087 132.676 61.6087 132.676 61.4369C132.591 61.4086 132.506 61.3802 132.419 61.351C132.419 61.2943 132.419 61.2376 132.419 61.1792C132.362 61.1792 132.305 61.1792 132.247 61.1792C131.817 60.7089 131.817 60.7089 131.817 60.4921C131.732 60.4638 131.647 60.4354 131.56 60.4062C131.406 60.2378 131.406 60.2378 131.248 60.0305C131.196 59.9625 131.143 59.8945 131.089 59.8245C130.959 59.6332 130.959 59.6332 130.873 59.3755C130.816 59.3755 130.759 59.3755 130.701 59.3755C130.569 59.2299 130.442 59.0785 130.32 58.9246C130.253 58.8409 130.185 58.7572 130.116 58.671C129.928 58.4307 129.928 58.4307 129.824 58.2472C129.675 58.0612 129.675 58.0612 129.404 58.0403C129.298 58.0385 129.191 58.0367 129.081 58.0348C129.025 58.0334 128.968 58.032 128.909 58.0305C128.728 58.0264 128.547 58.0245 128.366 58.0228C128.243 58.0204 128.12 58.0178 127.997 58.0151C127.696 58.0087 127.395 58.0044 127.093 58.0013C127.094 58.0603 127.094 58.1193 127.094 58.1801C127.096 58.7917 127.097 59.4033 127.098 60.0149C127.099 60.2434 127.099 60.4719 127.1 60.7005C127.101 61.0282 127.102 61.3558 127.102 61.6835C127.102 61.7864 127.103 61.8893 127.103 61.9953C127.103 62.0899 127.103 62.1844 127.103 62.2819C127.103 62.3656 127.104 62.4493 127.104 62.5356C127.093 62.7253 127.093 62.7253 127.008 62.8112C126.631 62.8361 126.255 62.8381 125.878 62.8412C125.751 62.8426 125.624 62.845 125.497 62.8483C125.315 62.853 125.132 62.8548 124.95 62.8561C124.84 62.8578 124.73 62.8595 124.617 62.8613C124.345 62.8112 124.345 62.8112 124.201 62.63C124.065 62.332 124.055 62.1214 124.055 61.7938C124.054 61.7357 124.054 61.6777 124.053 61.6178C124.052 61.4239 124.053 61.23 124.054 61.0361C124.054 60.8968 124.053 60.7576 124.053 60.6183C124.051 60.2405 124.052 59.8627 124.053 59.4849C124.053 59.0897 124.053 58.6944 124.052 58.2992C124.052 57.6357 124.053 56.9721 124.054 56.3086C124.055 55.541 124.055 54.7734 124.053 54.0058C124.052 53.3469 124.052 52.6881 124.053 52.0293C124.053 51.6357 124.053 51.2421 124.052 50.8485C124.051 50.4787 124.052 50.1088 124.053 49.739C124.054 49.6031 124.054 49.4672 124.053 49.3313C124.052 49.1461 124.053 48.9611 124.055 48.7759C124.055 48.6204 124.055 48.6204 124.055 48.4616C124.087 48.2098 124.087 48.2098 124.199 48.0476C124.453 47.8816 124.744 47.918 125.037 47.9215ZM127.093 50.9583C127.085 51.087 127.083 51.2161 127.082 51.3451C127.082 51.4274 127.082 51.5097 127.082 51.5944C127.082 51.6839 127.082 51.7733 127.082 51.8655C127.082 52.0023 127.082 52.0023 127.082 52.1418C127.082 52.335 127.082 52.5283 127.082 52.7215C127.083 53.0184 127.082 53.3153 127.082 53.6122C127.082 53.7994 127.082 53.9866 127.082 54.1738C127.082 54.2633 127.082 54.3527 127.082 54.4449C127.082 54.5272 127.082 54.6094 127.082 54.6942C127.082 54.767 127.083 54.8398 127.083 54.9148C127.075 55.0816 127.075 55.0816 127.179 55.1669C127.318 55.1767 127.456 55.1806 127.595 55.1821C127.683 55.1832 127.772 55.1843 127.863 55.1855C128.008 55.1864 128.008 55.1864 128.156 55.1874C128.255 55.1881 128.355 55.1888 128.457 55.1895C128.667 55.1907 128.878 55.1916 129.088 55.1923C129.409 55.1937 129.729 55.1975 130.05 55.2013C130.254 55.2022 130.459 55.2029 130.663 55.2035C130.759 55.205 130.854 55.2065 130.952 55.208C131.67 55.2061 132.167 55.0483 132.762 54.6516C132.762 54.5949 132.762 54.5382 132.762 54.4798C132.819 54.4798 132.876 54.4798 132.934 54.4798C133.339 54.0258 133.436 53.5743 133.423 52.9821C133.422 52.9105 133.421 52.839 133.42 52.7652C133.401 52.2572 133.302 51.9031 132.978 51.4995C132.855 51.369 132.855 51.369 132.676 51.3877C132.676 51.3311 132.676 51.2744 132.676 51.216C132.464 51.1735 132.464 51.1735 132.247 51.1301C132.247 51.0734 132.247 51.0167 132.247 50.9583C131.701 50.8607 131.166 50.86 130.613 50.861C130.466 50.8609 130.466 50.8609 130.316 50.8607C130.109 50.8607 129.903 50.8608 129.697 50.8612C129.38 50.8617 129.062 50.8612 128.745 50.8607C128.545 50.8607 128.344 50.8608 128.144 50.861C128.048 50.8608 127.953 50.8607 127.855 50.8605C127.767 50.8607 127.68 50.861 127.59 50.8613C127.512 50.8614 127.435 50.8614 127.355 50.8615C127.18 50.8529 127.18 50.8529 127.093 50.9583Z" fill="#C5FF4A"/>
<path d="M93.3939 47.9245C93.4535 47.9247 93.5132 47.9249 93.5746 47.9251C93.756 47.9253 93.9372 47.9233 94.1186 47.9211C94.2341 47.9209 94.3497 47.9209 94.4652 47.921C94.5702 47.9207 94.6753 47.9205 94.7835 47.9202C95.0885 47.9559 95.1884 47.9916 95.3999 48.2098C95.4412 48.4626 95.4412 48.4626 95.4389 48.7752C95.439 48.8332 95.439 48.8911 95.439 48.9508C95.4388 49.1381 95.4362 49.3253 95.4335 49.5126C95.433 49.6283 95.4326 49.7441 95.4324 49.8598C95.4306 50.2886 95.4258 50.7174 95.4214 51.1462C95.4108 52.5838 95.4108 52.5838 95.3999 54.0504C97.6107 54.0504 99.8215 54.0504 102.099 54.0504C102.093 52.1077 102.093 52.1077 102.084 50.1651C102.083 49.7897 102.083 49.7897 102.083 49.614C102.083 49.4911 102.082 49.3682 102.081 49.2453C102.08 49.0594 102.08 48.8734 102.08 48.6875C102.079 48.5826 102.079 48.4777 102.079 48.3696C102.099 48.124 102.099 48.124 102.271 47.9522C102.524 47.9299 102.524 47.9299 102.846 47.9294C102.902 47.9292 102.959 47.929 103.017 47.9289C103.136 47.9287 103.256 47.9291 103.376 47.9298C103.559 47.9307 103.742 47.9298 103.925 47.9287C104.041 47.9288 104.157 47.929 104.273 47.9294C104.432 47.9297 104.432 47.9297 104.595 47.9299C104.848 47.9522 104.848 47.9522 105.02 48.124C105.041 48.3713 105.041 48.3713 105.041 48.6945C105.042 48.7835 105.042 48.7835 105.042 48.8742C105.043 49.0739 105.042 49.2735 105.042 49.4732C105.042 49.616 105.042 49.7587 105.043 49.9015C105.044 50.2899 105.043 50.6784 105.043 51.0668C105.042 51.4726 105.043 51.8785 105.043 52.2843C105.043 52.9659 105.043 53.6475 105.042 54.3292C105.041 55.1181 105.041 55.907 105.042 56.6959C105.043 57.3723 105.043 58.0487 105.043 58.7251C105.042 59.1295 105.042 59.5339 105.043 59.9383C105.044 60.3184 105.043 60.6985 105.042 61.0787C105.042 61.2185 105.042 61.3583 105.042 61.4981C105.043 61.6884 105.042 61.8786 105.041 62.0688C105.041 62.2288 105.041 62.2288 105.041 62.3921C105.02 62.6394 105.02 62.6394 104.848 62.8112C104.595 62.8334 104.595 62.8334 104.273 62.834C104.217 62.8342 104.16 62.8343 104.102 62.8345C103.983 62.8346 103.863 62.8343 103.743 62.8336C103.56 62.8327 103.377 62.8336 103.194 62.8347C103.078 62.8346 102.962 62.8343 102.846 62.834C102.74 62.8338 102.634 62.8336 102.524 62.8334C102.271 62.8112 102.271 62.8112 102.099 62.6394C102.079 62.4003 102.079 62.4003 102.08 62.0917C102.08 62.0346 102.08 61.9775 102.08 61.9187C102.08 61.7337 102.081 61.5488 102.083 61.3638C102.083 61.2509 102.083 61.1379 102.083 61.0215C102.084 60.5981 102.086 60.1747 102.089 59.7514C102.094 58.3324 102.094 58.3324 102.099 56.8848C99.8885 56.8848 97.6777 56.8848 95.3999 56.8848C95.4101 58.7066 95.4101 58.7066 95.4231 60.5285C95.4239 60.7566 95.4245 60.9847 95.4251 61.2128C95.4257 61.272 95.4264 61.3311 95.4271 61.3921C95.429 61.5668 95.4291 61.7414 95.4292 61.9161C95.4297 62.0146 95.4303 62.113 95.4309 62.2144C95.3965 62.4958 95.3449 62.6151 95.1422 62.8112C94.862 62.8516 94.862 62.8516 94.5189 62.8478C94.4282 62.8473 94.4282 62.8473 94.3357 62.8469C94.2082 62.846 94.0807 62.8443 93.9532 62.8418C93.7574 62.838 93.5616 62.8366 93.3657 62.8355C92.4092 62.8266 92.4092 62.8266 92.3079 62.7253C92.2992 62.5376 92.2966 62.3497 92.2964 62.1618C92.2962 62.1022 92.296 62.0427 92.2958 61.9813C92.2952 61.7802 92.2953 61.579 92.2954 61.3779C92.2951 61.2343 92.2948 61.0907 92.2945 60.9472C92.2937 60.556 92.2935 60.1649 92.2935 59.7738C92.2934 59.4479 92.2931 59.1219 92.2928 58.796C92.2921 58.0273 92.2919 57.2586 92.2919 56.4899C92.292 55.6957 92.2911 54.9014 92.2897 54.1072C92.2886 53.4264 92.2882 52.7456 92.2882 52.0649C92.2882 51.6578 92.288 51.2507 92.2871 50.8436C92.2862 50.4609 92.2862 50.0782 92.2869 49.6954C92.287 49.5546 92.2867 49.4138 92.2862 49.2731C92.2856 49.0815 92.286 48.8899 92.2866 48.6984C92.2866 48.591 92.2865 48.4835 92.2865 48.3729C92.3386 47.7661 92.9214 47.9265 93.3939 47.9245Z" fill="#C5FF4A"/>
<path d="M77.0292 47.9403C77.1013 47.94 77.1734 47.9397 77.2477 47.9394C77.4872 47.9386 77.7267 47.9384 77.9662 47.9383C78.1329 47.9381 78.2997 47.9378 78.4664 47.9375C78.8169 47.937 79.1674 47.9368 79.5179 47.9369C79.9647 47.9369 80.4116 47.9357 80.8584 47.9342C81.2034 47.9333 81.5484 47.9331 81.8934 47.9331C82.058 47.933 82.2225 47.9327 82.3871 47.932C84.6057 47.9238 84.6057 47.9238 85.5225 48.3822C85.5789 48.4089 85.6352 48.4356 85.6933 48.4631C86.0585 48.6384 86.4005 48.826 86.725 49.0693C86.725 49.126 86.725 49.1827 86.725 49.2411C86.81 49.2695 86.895 49.2978 86.9827 49.327C86.9827 49.3837 86.9827 49.4404 86.9827 49.4988C87.0393 49.4988 87.096 49.4988 87.1544 49.4988C87.3185 49.6904 87.3185 49.6904 87.5034 49.9444C87.5646 50.0271 87.6258 50.1098 87.6889 50.195C87.8351 50.433 87.8948 50.5985 87.9274 50.873C87.9841 50.873 88.0408 50.873 88.0992 50.873C88.5451 52.034 88.6258 53.6013 88.3569 54.824C88.3002 54.909 88.2435 54.9941 88.1851 55.0817C88.152 55.2239 88.1226 55.367 88.0992 55.5111C88.0425 55.5111 87.9859 55.5111 87.9274 55.5111C87.9221 55.5678 87.9168 55.6245 87.9113 55.6829C87.8155 56.0369 87.6408 56.3406 87.4121 56.6277C87.3554 56.6277 87.2987 56.6277 87.2403 56.6277C87.235 56.6773 87.2297 56.7269 87.2242 56.778C87.1258 57.0507 86.9604 57.1541 86.725 57.3148C86.6683 57.3148 86.6116 57.3148 86.5532 57.3148C86.5532 57.3715 86.5532 57.4282 86.5532 57.4866C86.4398 57.5149 86.3265 57.5433 86.2096 57.5725C86.2096 57.6292 86.2096 57.6859 86.2096 57.7443C85.916 57.9624 85.7151 58.0332 85.3507 58.0019C85.3507 58.0586 85.3507 58.1153 85.3507 58.1737C84.6714 58.4535 84.0665 58.4652 83.3373 58.4565C83.2191 58.4561 83.1008 58.4557 82.9825 58.4554C82.6737 58.4545 82.3649 58.4519 82.0561 58.4491C81.74 58.4464 81.4238 58.4453 81.1077 58.444C80.4893 58.4412 79.8709 58.4368 79.2525 58.4314C79.2527 58.4801 79.2529 58.5289 79.2531 58.5791C79.255 59.0862 79.2563 59.5934 79.2572 60.1005C79.2577 60.2898 79.2583 60.4791 79.259 60.6684C79.26 60.9404 79.2605 61.2125 79.2609 61.4845C79.2614 61.5692 79.2618 61.6538 79.2623 61.741C79.2623 61.8201 79.2623 61.8992 79.2623 61.9806C79.2625 62.0501 79.2627 62.1195 79.2629 62.191C79.2525 62.3829 79.23 62.5445 79.1666 62.7259C78.9135 62.8525 78.6573 62.824 78.3799 62.8232C78.3193 62.8233 78.2588 62.8234 78.1964 62.8234C78.0684 62.8235 77.9403 62.8233 77.8123 62.823C77.6157 62.8225 77.4191 62.823 77.2225 62.8235C77.0983 62.8235 76.9741 62.8234 76.8499 62.8232C76.7612 62.8235 76.7612 62.8235 76.6707 62.8237C76.2562 62.8217 76.2562 62.8217 76.1605 62.7259C76.1521 62.5367 76.15 62.3473 76.1502 62.158C76.1501 62.0979 76.15 62.0379 76.1499 61.976C76.1498 61.7733 76.1503 61.5706 76.1507 61.3679C76.1508 61.2232 76.1507 61.0785 76.1507 60.9338C76.1507 60.5396 76.1512 60.1455 76.1518 59.7514C76.1523 59.34 76.1524 58.9286 76.1525 58.5172C76.1527 57.7375 76.1534 56.9579 76.1543 56.1783C76.1553 55.2909 76.1557 54.4036 76.1562 53.5162C76.1571 51.6904 76.1586 49.8645 76.1605 48.0387C76.4338 47.902 76.7291 47.9401 77.0292 47.9403ZM79.2525 50.873C79.2525 52.4603 79.2525 54.0475 79.2525 55.6829C79.8885 55.6847 80.5245 55.6864 81.1797 55.6883C81.3789 55.689 81.5782 55.6898 81.7834 55.6906C81.9435 55.6909 82.1036 55.6911 82.2637 55.6913C82.3451 55.6917 82.4264 55.6922 82.5102 55.6926C83.4737 55.7248 83.4737 55.7248 84.3469 55.393C84.4027 55.3543 84.4585 55.3155 84.516 55.2756C84.5647 55.2399 84.6134 55.2043 84.6636 55.1676C84.7292 55.125 84.7947 55.0825 84.8622 55.0387C85.2448 54.6987 85.4379 54.2032 85.4685 53.701C85.4984 52.6033 85.4984 52.6033 85.0072 51.6461C84.5966 51.2485 84.5966 51.2485 84.0624 51.1307C84.0624 51.074 84.0624 51.0173 84.0624 50.9589C83.4578 50.8866 82.8639 50.8613 82.2553 50.8647C82.1401 50.8648 82.1401 50.8648 82.0226 50.8649C81.7398 50.8654 81.4571 50.8666 81.1743 50.8677C80.5401 50.8694 79.9059 50.8712 79.2525 50.873Z" fill="#C5FF4A"/>
<path d="M51.0318 47.5867C51.1023 47.5861 51.1728 47.5854 51.2454 47.5847C51.6793 47.5861 52.0375 47.6477 52.4544 47.78C52.5792 47.7946 52.7046 47.8059 52.8301 47.8122C53.1927 47.8472 53.4721 47.9558 53.7984 48.1131C54.1443 48.2781 54.5027 48.413 54.8593 48.553C54.8593 48.6097 54.8593 48.6664 54.8593 48.7248C55.001 48.7531 55.1427 48.7815 55.2887 48.8107C55.2887 48.8674 55.2887 48.924 55.2887 48.9824C55.3401 48.9931 55.3915 49.0037 55.4444 49.0147C55.6323 49.0683 55.6323 49.0683 55.89 49.2401C55.89 49.2968 55.89 49.3535 55.89 49.4119C55.975 49.4402 56.06 49.4686 56.1476 49.4978C56.1476 49.5545 56.1476 49.6112 56.1476 49.6696C56.2327 49.6979 56.3177 49.7263 56.4053 49.7555C56.5073 49.9326 56.5073 49.9326 56.5771 50.099C56.2587 50.4891 55.9332 50.8252 55.5474 51.1485C55.3718 51.304 55.22 51.4707 55.0633 51.645C54.9173 51.7957 54.9173 51.7957 54.7734 51.9027C54.4782 51.8973 54.4782 51.8973 54.2581 51.8168C54.2581 51.7601 54.2581 51.7034 54.2581 51.645C54.1305 51.6025 54.1305 51.6025 54.0004 51.5592C54.0004 51.5025 54.0004 51.4458 54.0004 51.3874C53.9384 51.3785 53.8764 51.3697 53.8125 51.3605C53.546 51.2954 53.3757 51.1855 53.1415 51.0438C52.0966 50.557 50.735 50.5802 49.62 50.7861C49.535 50.8428 49.4499 50.8995 49.3623 50.9579C49.1315 50.9687 49.1315 50.9687 48.9329 50.9579C48.9329 51.0146 48.9329 51.0713 48.9329 51.1297C48.4497 51.3874 48.4497 51.3874 48.1599 51.3874C48.1315 51.4724 48.1032 51.5574 48.074 51.645C48.0173 51.645 47.9606 51.645 47.9022 51.645C47.9022 51.7017 47.9022 51.7584 47.9022 51.8168C47.8455 51.8168 47.7888 51.8168 47.7304 51.8168C47.7021 51.9019 47.6737 51.9869 47.6445 52.0745C47.5878 52.0745 47.5311 52.0745 47.4727 52.0745C47.4727 52.1312 47.4727 52.1879 47.4727 52.2463C47.416 52.2463 47.3594 52.2463 47.301 52.2463C47.1795 52.4729 47.0972 52.6818 47.0433 52.9334C46.9866 52.9334 46.9299 52.9334 46.8715 52.9334C46.8626 53.0025 46.8538 53.0716 46.8447 53.1428C46.6624 54.0873 46.6624 54.0873 46.442 54.3076C46.4202 54.6757 46.4261 55.0448 46.4259 55.4135C46.4244 55.5694 46.4244 55.5694 46.4228 55.7285C46.4226 55.8281 46.4224 55.9276 46.4223 56.0301C46.4219 56.1218 46.4215 56.2135 46.4212 56.3079C46.425 56.5598 46.425 56.5598 46.6138 56.7985C46.6209 56.8835 46.628 56.9685 46.6353 57.0561C46.6806 57.4636 46.8942 57.7849 47.097 58.1338C47.2151 58.3445 47.2151 58.3445 47.301 58.6022C47.3576 58.6022 47.4143 58.6022 47.4727 58.6022C47.5962 58.7307 47.5962 58.7307 47.7304 58.8974C47.9147 59.1305 47.9147 59.1305 48.1599 59.2893C48.1599 59.346 48.1599 59.4027 48.1599 59.4611C48.2077 59.4718 48.2555 59.4825 48.3048 59.4936C48.5221 59.552 48.7242 59.6291 48.9329 59.7134C49.0418 59.757 49.0418 59.757 49.153 59.8016C49.3623 59.8905 49.3623 59.8905 49.5117 59.9802C49.9079 60.1477 50.3614 60.0942 50.7855 60.0941C50.9597 60.0945 51.1337 60.0976 51.3079 60.1009C51.997 60.1029 52.5268 60.033 53.1415 59.7187C53.2614 59.6632 53.3813 59.6078 53.5012 59.5523C54.0964 59.2555 54.0964 59.2555 54.5157 58.7739C54.6858 58.8023 54.8559 58.8306 55.0311 58.8598C55.0311 58.9165 55.0311 58.9732 55.0311 59.0316C55.0878 59.0316 55.1445 59.0316 55.2029 59.0316C55.3191 59.1733 55.4336 59.3165 55.5464 59.4611C55.6031 59.4894 55.6598 59.5177 55.7182 59.5469C55.7182 59.6036 55.7182 59.6603 55.7182 59.7187C55.7749 59.7187 55.8316 59.7187 55.89 59.7187C56.0073 59.8596 56.1214 60.0031 56.2335 60.1482C56.2955 60.2031 56.3575 60.258 56.4214 60.3146C56.5771 60.4917 56.5771 60.4917 56.6845 60.7333C56.6589 61.0587 56.6079 61.0958 56.3731 61.3077C56.2428 61.4106 56.1102 61.5107 55.9759 61.6083C55.9069 61.6587 55.8379 61.7091 55.7668 61.761C55.2471 62.1237 55.2471 62.1237 54.9452 62.1237C54.9452 62.1803 54.9452 62.237 54.9452 62.2954C54.8903 62.3167 54.8354 62.338 54.7788 62.3599C54.5003 62.4735 54.2281 62.598 53.9554 62.7249C53.4645 62.9231 53.009 63.0058 52.4812 63.0309C52.144 63.0475 51.8349 63.0656 51.5096 63.1543C50.9831 63.1731 50.9831 63.1731 50.7408 63.1122C50.5554 63.0661 50.3867 63.0522 50.1961 63.0443C50.1278 63.0411 50.0595 63.0379 49.9892 63.0346C49.8458 63.0285 49.7025 63.0224 49.5591 63.0164C49.0275 62.9913 49.0275 62.9913 48.9329 62.8967C48.7708 62.8648 48.7708 62.8648 48.6054 62.8323C47.5653 62.6077 46.5295 62.0845 45.7549 61.3506C45.7549 61.294 45.7549 61.2373 45.7549 61.1789C45.6982 61.1789 45.6416 61.1789 45.5831 61.1789C45.5831 61.1222 45.5831 61.0655 45.5831 61.0071C45.4981 60.9787 45.4131 60.9504 45.3255 60.9212C45.3255 60.8645 45.3255 60.8078 45.3255 60.7494C45.2688 60.7494 45.2121 60.7494 45.1537 60.7494C44.7885 60.3749 44.5267 59.8935 44.2626 59.445C44.2318 59.394 44.2011 59.343 44.1694 59.2904C43.9977 58.9914 43.9135 58.7761 43.9512 58.4304C43.8945 58.4304 43.8379 58.4304 43.7795 58.4304C43.5832 57.8724 43.4864 57.3521 43.454 56.7612C43.4438 56.5306 43.4438 56.5306 43.35 56.2831C43.3421 56.1517 43.3388 56.0199 43.3386 55.8882C43.3385 55.8123 43.3384 55.7364 43.3383 55.6582C43.3386 55.5792 43.3389 55.5002 43.3393 55.4188C43.3389 55.3395 43.3386 55.2602 43.3383 55.1785C43.3384 55.1027 43.3385 55.0269 43.3386 54.9488C43.3387 54.8794 43.3388 54.8099 43.3389 54.7384C43.35 54.5653 43.35 54.5653 43.4359 54.3935C43.4471 54.2219 43.4556 54.0501 43.4627 53.8782C43.4953 53.4154 43.5799 53.054 43.7691 52.6328C43.8781 52.3896 43.9687 52.1428 44.0586 51.892C44.1018 51.7721 44.1018 51.7721 44.1458 51.6497C44.1666 51.5915 44.1875 51.5333 44.2089 51.4733C44.2656 51.4733 44.3223 51.4733 44.3807 51.4733C44.409 51.3315 44.4374 51.1898 44.4666 51.0438C44.5233 51.0438 44.5799 51.0438 44.6384 51.0438C44.6605 50.9815 44.6826 50.9191 44.7055 50.8549C44.8146 50.604 44.9424 50.4161 45.1108 50.201C45.1891 50.0992 45.1891 50.0992 45.2691 49.9953C45.3161 49.9445 45.363 49.8937 45.4114 49.8413C45.4681 49.8413 45.5247 49.8413 45.5831 49.8413C45.5831 49.7847 45.5831 49.728 45.5831 49.6696C45.6398 49.6696 45.6965 49.6696 45.7549 49.6696C45.7549 49.6129 45.7549 49.5562 45.7549 49.4978C46.6459 48.5499 48.1878 47.883 49.467 47.8095C49.7099 47.7887 49.7099 47.7887 49.9424 47.6928C50.3109 47.581 50.6491 47.5831 51.0318 47.5867Z" fill="#C5FF4A"/>
<path d="M59.5907 47.9383C59.6605 47.938 59.7303 47.9377 59.8023 47.9375C59.9503 47.937 60.0983 47.9368 60.2463 47.9368C60.4729 47.9366 60.6995 47.9351 60.9261 47.9335C61.0697 47.9332 61.2132 47.933 61.3568 47.933C61.4587 47.932 61.4587 47.932 61.5626 47.9311C61.8933 47.9325 62.0502 47.9367 62.3318 48.1245C62.3318 48.1812 62.3318 48.2379 62.3318 48.2963C62.3885 48.2963 62.4452 48.2963 62.5036 48.2963C62.5739 48.4177 62.6436 48.5394 62.713 48.6613C62.7713 48.763 62.7713 48.763 62.8307 48.8667C62.9239 49.0511 62.9787 49.2112 63.019 49.4129C63.0756 49.4129 63.1323 49.4129 63.1907 49.4129C63.2283 49.4831 63.2283 49.4831 63.2666 49.5548C63.4567 49.9046 63.6537 50.2432 63.8779 50.5724C64.0493 50.8243 64.2052 51.0775 64.3503 51.3454C64.5691 51.7492 64.823 52.1249 65.0803 52.5049C65.338 52.9 65.338 52.9 65.338 53.1921C65.3947 53.1921 65.4514 53.1921 65.5098 53.1921C65.6493 53.4068 65.6493 53.4068 65.7674 53.6215C65.9605 53.4452 66.0253 53.3633 66.111 53.1062C66.1677 53.1062 66.2244 53.1062 66.2828 53.1062C66.317 53.0132 66.317 53.0132 66.3519 52.9183C66.4557 52.674 66.5776 52.4691 66.723 52.2473C66.9439 51.9062 67.1607 51.5634 67.3725 51.2166C67.7208 50.6482 68.077 50.0848 68.4345 49.5221C68.4772 49.4547 68.5199 49.3873 68.5639 49.3179C68.6023 49.2576 68.6406 49.1972 68.6801 49.135C68.7771 48.9827 68.7771 48.9827 68.8595 48.8117C68.9162 48.8117 68.9729 48.8117 69.0313 48.8117C69.0401 48.7638 69.049 48.716 69.0581 48.6667C69.1298 48.4256 69.2303 48.2443 69.3748 48.0386C69.6928 47.9327 69.9906 47.9355 70.322 47.9323C70.4232 47.9312 70.4232 47.9312 70.5264 47.9302C70.669 47.929 70.8116 47.9281 70.9541 47.9274C71.1721 47.9259 71.3899 47.9221 71.6078 47.9184C71.7464 47.9175 71.8851 47.9168 72.0237 47.9162C72.1213 47.9139 72.1213 47.9139 72.2208 47.9116C72.5343 47.9129 72.6923 47.9267 72.9401 48.1268C73.0035 48.2107 73.0035 48.2107 73.0681 48.2963C72.9865 48.4256 72.9041 48.5543 72.8212 48.6828C72.7753 48.7546 72.7295 48.8263 72.6823 48.9002C72.6395 48.956 72.5968 49.0118 72.5528 49.0693C72.4961 49.0693 72.4394 49.0693 72.381 49.0693C72.3651 49.1437 72.3651 49.1437 72.3488 49.2196C72.2945 49.4149 72.2188 49.5783 72.1233 49.7564C72.0666 49.7564 72.01 49.7564 71.9515 49.7564C71.9197 49.8229 71.9197 49.8229 71.8871 49.8906C71.7458 50.1663 71.591 50.4329 71.4362 50.7012C71.3795 50.7012 71.3228 50.7012 71.2644 50.7012C71.2572 50.7469 71.25 50.7925 71.2426 50.8395C71.1546 51.1215 71.0042 51.3363 70.8403 51.5816C70.7793 51.6742 70.7183 51.7667 70.6555 51.8621C70.6013 51.9325 70.5472 52.0029 70.4914 52.0755C70.4347 52.0755 70.378 52.0755 70.3196 52.0755C70.3037 52.1499 70.3037 52.1499 70.2874 52.2258C70.2332 52.421 70.1574 52.5844 70.062 52.7626C70.0053 52.7626 69.9486 52.7626 69.8902 52.7626C69.8654 52.8281 69.8406 52.8937 69.815 52.9612C69.7184 53.1921 69.7184 53.1921 69.5466 53.4497C69.4899 53.4497 69.4332 53.4497 69.3748 53.4497C69.3646 53.5002 69.3543 53.5506 69.3438 53.6025C69.287 53.8 69.2148 53.9281 69.0987 54.0966C69.061 54.1521 69.0233 54.2075 68.9845 54.2647C68.945 54.3217 68.9055 54.3787 68.8649 54.4375C68.787 54.551 68.7092 54.6646 68.6317 54.7783C68.5971 54.8283 68.5626 54.8783 68.527 54.9298C68.4247 55.09 68.3404 55.2539 68.2583 55.4252C68.2016 55.4252 68.1449 55.4252 68.0865 55.4252C68.0546 55.4916 68.0546 55.4916 68.0221 55.5594C67.8334 55.9273 67.6288 56.2835 67.3994 56.6277C67.371 56.9004 67.371 56.9004 67.372 57.2167C67.3711 57.2762 67.3703 57.3357 67.3694 57.3971C67.3667 57.5936 67.3652 57.7902 67.3638 57.9868C67.3622 58.1232 67.3605 58.2595 67.3588 58.3959C67.3543 58.7547 67.3509 59.1135 67.3478 59.4723C67.3443 59.8384 67.3399 60.2046 67.3356 60.5707C67.3273 61.2891 67.3201 62.0075 67.3135 62.7259C67.0594 62.8529 66.802 62.8222 66.5237 62.8202C66.4629 62.82 66.4022 62.8199 66.3396 62.8198C66.1453 62.8193 65.951 62.8182 65.7567 62.8171C65.6251 62.8167 65.4934 62.8163 65.3618 62.816C65.0389 62.815 64.7161 62.8135 64.3932 62.8118C64.227 62.4621 64.2005 62.1828 64.2019 61.7974C64.2019 61.7404 64.2019 61.6834 64.2018 61.6246C64.202 61.4373 64.2033 61.25 64.2046 61.0628C64.205 60.9324 64.2052 60.8021 64.2054 60.6718C64.206 60.3296 64.2077 59.9875 64.2096 59.6454C64.2114 59.2959 64.2122 58.9464 64.213 58.5969C64.2149 57.9119 64.2178 57.2268 64.2214 56.5418C64.1647 56.5418 64.108 56.5418 64.0496 56.5418C64.0496 56.4284 64.0496 56.315 64.0496 56.1982C63.9646 56.1699 63.8796 56.1415 63.792 56.1123C63.792 56.0273 63.792 55.9423 63.792 55.8547C63.7353 55.8547 63.6786 55.8547 63.6202 55.8547C63.4907 55.6946 63.4907 55.6946 63.3518 55.4843C63.3055 55.4155 63.2592 55.3467 63.2115 55.2759C63.1048 55.0816 63.1048 55.0816 63.1048 54.824C63.0482 54.824 62.9915 54.824 62.9331 54.824C62.9051 54.7722 62.877 54.7203 62.8482 54.667C62.8107 54.5983 62.7731 54.5297 62.7344 54.4589C62.6976 54.3912 62.6607 54.3234 62.6227 54.2536C62.5084 54.0485 62.5084 54.0485 62.3604 53.8698C62.2459 53.7074 62.2459 53.7074 62.2459 53.4497C62.1609 53.4214 62.0759 53.393 61.9883 53.3638C61.8843 53.2334 61.8843 53.2334 61.7843 53.0669C61.7291 52.9766 61.7291 52.9766 61.6729 52.8846C61.6353 52.8213 61.5976 52.758 61.5588 52.6928C61.4838 52.5687 61.4087 52.4447 61.3334 52.3207C61.2983 52.2625 61.2632 52.2043 61.227 52.1444C61.1256 51.978 61.1256 51.978 60.9737 51.79C60.8717 51.646 60.8717 51.646 60.8717 51.3884C60.7442 51.3458 60.7442 51.3458 60.614 51.3025C60.5281 51.1625 60.4432 51.0216 60.3655 50.8769C60.2007 50.5722 60.0138 50.281 59.8303 49.9873C59.7923 49.9259 59.7543 49.8645 59.7152 49.8012C59.6786 49.7425 59.6419 49.6838 59.6041 49.6232C59.5713 49.5704 59.5384 49.5176 59.5045 49.4631C59.4082 49.313 59.4082 49.313 59.2398 49.1552C59.2398 49.0702 59.2398 48.9851 59.2398 48.8975C59.1831 48.8975 59.1264 48.8975 59.068 48.8975C58.8517 48.6064 58.7701 48.4011 58.8103 48.0386C58.9856 47.8633 59.3498 47.9387 59.5907 47.9383Z" fill="#C5FF4A"/>
<path d="M110.075 53.9535C110.163 53.9531 110.251 53.9527 110.342 53.9524C110.439 53.9524 110.536 53.9524 110.636 53.9525C110.789 53.952 110.789 53.952 110.945 53.9516C111.225 53.9509 111.505 53.9506 111.785 53.9506C112.019 53.9505 112.252 53.9502 112.486 53.9499C113.037 53.9492 113.587 53.949 114.138 53.949C114.707 53.9491 115.276 53.9482 115.844 53.9468C116.332 53.9457 116.82 53.9452 117.308 53.9453C117.6 53.9453 117.891 53.9451 118.183 53.9442C118.508 53.9433 118.833 53.9436 119.158 53.9441C119.255 53.9436 119.352 53.9431 119.452 53.9426C119.584 53.9432 119.584 53.9432 119.719 53.9437C119.834 53.9436 119.834 53.9436 119.952 53.9436C120.136 53.965 120.136 53.965 120.308 54.1367C120.342 54.4904 120.336 54.8445 120.335 55.1997C120.335 55.3758 120.337 55.5518 120.339 55.7279C120.339 55.8387 120.339 55.9494 120.339 56.0636C120.339 56.1655 120.34 56.2674 120.34 56.3724C120.308 56.6276 120.308 56.6276 120.222 56.7705C119.946 56.9547 119.648 56.9187 119.327 56.9145C119.253 56.9145 119.18 56.9146 119.104 56.9146C118.86 56.9144 118.616 56.9124 118.372 56.9104C118.203 56.9099 118.034 56.9095 117.865 56.9093C117.419 56.9083 116.974 56.9058 116.529 56.9029C116.075 56.9003 115.62 56.8991 115.166 56.8978C114.275 56.895 113.383 56.8905 112.492 56.8852C112.52 57.7922 112.549 58.6992 112.578 59.6337C115.186 59.6621 117.793 59.6904 120.48 59.7196C120.48 60.7116 120.48 61.7037 120.48 62.7258C120.338 62.8676 120.172 62.8225 119.977 62.8226C119.842 62.8229 119.842 62.8229 119.704 62.8233C119.554 62.823 119.554 62.823 119.401 62.8228C119.245 62.823 119.245 62.823 119.085 62.8232C118.797 62.8235 118.51 62.8235 118.223 62.8232C117.923 62.823 117.623 62.8232 117.322 62.8233C116.818 62.8235 116.314 62.8233 115.81 62.8228C115.226 62.8224 114.643 62.8225 114.059 62.823C113.559 62.8234 113.059 62.8235 112.559 62.8232C112.26 62.8231 111.961 62.8231 111.661 62.8234C111.328 62.8237 110.995 62.8232 110.661 62.8228C110.512 62.823 110.512 62.823 110.359 62.8233C110.269 62.823 110.178 62.8228 110.085 62.8226C110.006 62.8225 109.927 62.8225 109.846 62.8225C109.658 62.8117 109.658 62.8117 109.486 62.7258C109.486 59.863 109.486 57.0003 109.486 54.0508C109.698 53.9448 109.838 53.9539 110.075 53.9535Z" fill="#C5FF4A"/>
<path d="M110.178 47.9313C110.268 47.9309 110.358 47.9305 110.45 47.9302C110.549 47.9307 110.647 47.9311 110.749 47.9316C110.853 47.9315 110.957 47.9313 111.063 47.9311C111.348 47.9309 111.633 47.9314 111.917 47.9323C112.215 47.933 112.512 47.9329 112.81 47.9328C113.309 47.9329 113.809 47.9337 114.308 47.9348C114.887 47.9362 115.465 47.9366 116.043 47.9366C116.599 47.9365 117.154 47.937 117.71 47.9377C117.947 47.938 118.183 47.9381 118.42 47.9382C118.75 47.9383 119.08 47.9391 119.41 47.94C119.509 47.94 119.608 47.9399 119.71 47.9399C119.799 47.9403 119.889 47.9406 119.981 47.941C120.059 47.9412 120.137 47.9413 120.218 47.9415C120.394 47.9525 120.394 47.9525 120.48 48.0384C120.488 48.2477 120.492 48.4545 120.491 48.6638C120.491 48.7264 120.491 48.789 120.491 48.8534C120.491 48.986 120.491 49.1186 120.491 49.2511C120.49 49.4547 120.491 49.6583 120.491 49.8619C120.491 49.9904 120.491 50.1189 120.491 50.2474C120.491 50.3087 120.491 50.37 120.492 50.4331C120.49 50.8629 120.49 50.8629 120.394 50.9587C120.255 50.9671 120.116 50.9695 119.977 50.9696C119.842 50.9699 119.842 50.9699 119.704 50.9703C119.554 50.97 119.554 50.97 119.401 50.9698C119.245 50.97 119.245 50.97 119.085 50.9702C118.797 50.9705 118.51 50.9705 118.223 50.9702C117.923 50.97 117.623 50.9702 117.322 50.9703C116.818 50.9705 116.314 50.9703 115.81 50.9699C115.226 50.9694 114.643 50.9695 114.059 50.97C113.559 50.9704 113.059 50.9705 112.559 50.9702C112.26 50.9701 111.96 50.9701 111.661 50.9704C111.328 50.9707 110.995 50.9703 110.661 50.9698C110.512 50.97 110.512 50.97 110.359 50.9703C110.269 50.9701 110.178 50.9698 110.085 50.9696C110.006 50.9695 109.927 50.9695 109.846 50.9695C109.658 50.9587 109.658 50.9587 109.486 50.8728C109.479 50.4845 109.475 50.0962 109.472 49.7079C109.47 49.5758 109.469 49.4437 109.466 49.3115C109.463 49.1218 109.462 48.9321 109.461 48.7423C109.459 48.6831 109.458 48.6238 109.457 48.5628C109.456 48.3961 109.456 48.3961 109.486 48.1243C109.768 47.9358 109.85 47.9311 110.178 47.9313Z" fill="#C5FF4A"/>
<path d="M44.3552 67.8569C44.4711 67.8565 44.4711 67.8565 44.5893 67.8561C44.8492 67.8554 45.1092 67.8559 45.3691 67.8565C45.555 67.8562 45.7409 67.8559 45.9269 67.8556C46.4326 67.8548 46.9383 67.8551 47.4441 67.8556C47.9724 67.8561 48.5008 67.8557 49.0292 67.8554C49.9165 67.8551 50.8038 67.8555 51.6912 67.8563C52.7183 67.8572 53.7455 67.8569 54.7726 67.856C55.6533 67.8552 56.5339 67.8551 57.4146 67.8555C57.9411 67.8558 58.4676 67.8559 58.9941 67.8553C59.4889 67.8548 59.9838 67.8551 60.4786 67.8561C60.6606 67.8564 60.8427 67.8563 61.0248 67.8559C61.2724 67.8554 61.52 67.856 61.7676 67.8569C61.8768 67.8563 61.8768 67.8563 61.9883 67.8557C62.4842 67.8591 62.4842 67.8591 62.6756 68.0505C62.6927 68.2691 62.6995 68.4763 62.6971 68.6947C62.6978 68.7539 62.6984 68.8131 62.6991 68.8742C62.6974 69.3171 62.6974 69.3171 62.5038 69.5106C62.2557 69.5278 62.0158 69.5341 61.7676 69.533C61.6904 69.5333 61.6133 69.5337 61.5338 69.534C61.2738 69.5349 61.0139 69.5345 60.7539 69.5342C60.5681 69.5346 60.3823 69.535 60.1965 69.5355C59.6908 69.5367 59.185 69.5367 58.6793 69.5365C58.2577 69.5364 57.8361 69.5368 57.4146 69.5373C56.4203 69.5382 55.4261 69.5382 54.4319 69.5377C53.4048 69.5372 52.3777 69.5383 51.3506 69.5401C50.47 69.5416 49.5894 69.5421 48.7089 69.5418C48.1824 69.5417 47.6559 69.5419 47.1294 69.5431C46.6344 69.5442 46.1395 69.544 45.6445 69.5429C45.4625 69.5427 45.2805 69.5429 45.0985 69.5436C44.8507 69.5445 44.603 69.5438 44.3552 69.5428C44.2825 69.5434 44.2099 69.544 44.135 69.5447C43.6463 69.5401 43.6463 69.5401 43.4609 69.3974C43.2813 69.1628 43.3163 68.9352 43.3181 68.6463C43.3174 68.5391 43.3168 68.4318 43.3161 68.3212C43.3274 68.2319 43.3387 68.1425 43.3503 68.0505C43.6856 67.827 43.9663 67.8548 44.3552 67.8569Z" fill="#C5FF4A"/>
<path d="M118.499 67.8674C118.573 67.8676 118.646 67.8678 118.723 67.868C118.8 67.8678 118.878 67.8677 118.959 67.8675C119.222 67.8672 119.485 67.8675 119.748 67.8677C119.935 67.8676 120.123 67.8675 120.311 67.8673C120.822 67.8669 121.334 67.8671 121.845 67.8673C122.379 67.8675 122.913 67.8673 123.447 67.8672C124.401 67.867 125.356 67.8673 126.31 67.8677C127.176 67.8681 128.042 67.8681 128.908 67.8677C129.913 67.8672 130.918 67.867 131.922 67.8673C132.454 67.8674 132.987 67.8674 133.519 67.8672C134.019 67.8669 134.519 67.8671 135.02 67.8676C135.204 67.8677 135.388 67.8677 135.572 67.8675C135.822 67.8672 136.073 67.8675 136.323 67.868C136.397 67.8678 136.471 67.8676 136.547 67.8674C137.047 67.8691 137.047 67.8691 137.142 67.9648C137.153 68.1931 137.158 68.4182 137.159 68.6465C137.16 68.7102 137.161 68.7739 137.162 68.8396C137.162 69.0062 137.153 69.1727 137.142 69.339C136.918 69.5635 136.76 69.5315 136.455 69.5334C136.382 69.5329 136.309 69.5325 136.234 69.532C136.118 69.5323 136.118 69.5323 136 69.5326C135.74 69.5331 135.48 69.5324 135.219 69.5316C135.033 69.5317 134.847 69.5319 134.662 69.5321C134.155 69.5326 133.649 69.5319 133.143 69.531C132.615 69.5303 132.086 69.5304 131.557 69.5305C130.67 69.5304 129.782 69.5296 128.894 69.5285C127.866 69.5271 126.838 69.5266 125.811 69.5267C124.824 69.5268 123.837 69.5263 122.85 69.5256C122.429 69.5253 122.008 69.5252 121.587 69.5251C121.092 69.525 120.597 69.5245 120.102 69.5236C119.919 69.5234 119.737 69.5233 119.555 69.5233C119.307 69.5234 119.059 69.5229 118.812 69.5223C118.739 69.5224 118.666 69.5225 118.591 69.5227C118.094 69.5206 118.094 69.5206 117.903 69.4249C117.901 69.1833 117.899 68.9418 117.898 68.7002C117.897 68.6313 117.896 68.5623 117.895 68.4913C117.895 68.3158 117.899 68.1402 117.903 67.9648C118.062 67.8059 118.287 67.8681 118.499 67.8674Z" fill="#C5FF4A"/>
<path d="M104.713 65.1197C104.772 65.1194 104.83 65.119 104.891 65.1187C105.157 65.1192 105.366 65.1314 105.621 65.2163C105.737 65.4472 105.737 65.4472 105.846 65.7317C105.952 66.0559 105.952 66.0559 106.136 66.3329C106.139 66.476 106.14 66.6193 106.136 66.7624C106.193 66.7624 106.249 66.7624 106.308 66.7624C106.35 67.0175 106.35 67.0175 106.394 67.2777C106.45 67.2777 106.507 67.2777 106.565 67.2777C106.6 67.3755 106.6 67.3755 106.634 67.4753C106.665 67.5607 106.695 67.646 106.726 67.734C106.756 67.8187 106.786 67.9034 106.817 67.9907C106.905 68.2359 106.905 68.2359 107.081 68.4802C107.081 68.5935 107.081 68.7069 107.081 68.8237C107.137 68.8237 107.194 68.8237 107.252 68.8237C107.275 68.8971 107.299 68.9705 107.322 69.0462C107.425 69.3424 107.548 69.6192 107.682 69.9027C107.805 70.1631 107.926 70.4214 108.033 70.6888C108.112 70.9001 108.112 70.9001 108.256 71.1428C108.381 71.4268 108.39 71.5425 108.283 71.8299C108.042 71.9506 107.833 71.9369 107.564 71.9426C107.417 71.9474 107.417 71.9474 107.267 71.9523C106.939 71.9082 106.85 71.8307 106.651 71.5722C106.515 71.3313 106.394 71.0797 106.394 70.7992C105.944 70.795 105.495 70.7918 105.045 70.7898C104.892 70.7889 104.739 70.7877 104.586 70.7862C104.367 70.7842 104.147 70.7832 103.928 70.7824C103.859 70.7815 103.79 70.7807 103.72 70.7797C103.551 70.7797 103.383 70.7887 103.216 70.7992C103.021 70.9937 102.972 71.1465 102.872 71.4004C102.647 71.8138 102.647 71.8138 102.443 71.9158C102.259 71.9285 102.074 71.9348 101.89 71.9372C101.791 71.9395 101.692 71.9417 101.589 71.944C101.326 71.9158 101.326 71.9158 101.158 71.8081C101.068 71.6581 101.068 71.6581 101.081 71.4826C101.16 71.2268 101.16 71.2268 101.24 70.971C101.297 70.971 101.354 70.971 101.412 70.971C101.44 70.8009 101.469 70.6309 101.498 70.4556C101.555 70.4556 101.611 70.4556 101.67 70.4556C101.666 70.3932 101.662 70.3307 101.658 70.2664C101.671 69.997 101.735 69.8538 101.863 69.6182C102.04 69.282 102.202 68.9445 102.354 68.5966C102.455 68.3671 102.559 68.1391 102.663 67.9111C102.977 67.2198 103.268 66.5189 103.559 65.8176C103.616 65.8176 103.673 65.8176 103.731 65.8176C103.731 65.6758 103.731 65.5341 103.731 65.3881C103.788 65.3881 103.844 65.3881 103.903 65.3881C103.903 65.3314 103.903 65.2747 103.903 65.2163C104.162 65.0867 104.429 65.1181 104.713 65.1197ZM104.638 67.2099C104.484 67.3867 104.419 67.5413 104.338 67.7608C104.199 68.1255 104.046 68.4787 103.88 68.8314C103.801 69.0063 103.801 69.0063 103.817 69.2532C104.44 69.2532 105.064 69.2532 105.706 69.2532C105.644 69.1061 105.582 68.9591 105.519 68.8076C105.284 68.2446 105.064 67.6763 104.848 67.1059C104.746 67.0967 104.746 67.0967 104.638 67.2099Z" fill="#C5FF4A"/>
<path d="M76.4128 65.1141C76.4754 65.113 76.538 65.112 76.6025 65.1109C76.9311 65.11 77.0833 65.1155 77.363 65.3019C77.467 65.4892 77.467 65.4892 77.567 65.7207C77.6039 65.8056 77.6409 65.8905 77.679 65.978C77.7164 66.0667 77.7539 66.1554 77.7924 66.2467C77.8281 66.331 77.8637 66.4152 77.9005 66.5021C78.0491 66.8569 78.1953 67.2127 78.3413 67.5686C78.3991 67.7088 78.3991 67.7088 78.4581 67.8518C78.4931 67.9372 78.528 68.0225 78.5641 68.1105C78.634 68.3012 78.634 68.3012 78.7372 68.394C78.7407 68.5371 78.7409 68.6803 78.7372 68.8234C78.8648 68.866 78.8648 68.866 78.9949 68.9093C78.9949 69.051 78.9949 69.1928 78.9949 69.3388C79.0516 69.3388 79.1083 69.3388 79.1667 69.3388C79.2686 69.5835 79.3705 69.8282 79.4716 70.0732C79.5532 70.2672 79.637 70.4603 79.7233 70.6523C79.7628 70.7414 79.8023 70.8306 79.8431 70.9224C79.88 71.0038 79.917 71.0851 79.9551 71.169C80.0349 71.4306 80.0277 71.5724 79.9397 71.8296C79.7085 71.9452 79.5213 71.9332 79.2633 71.937C79.1732 71.9392 79.083 71.9414 78.9902 71.9437C78.7049 71.9119 78.5961 71.8575 78.3937 71.6578C78.2423 71.3552 78.136 71.1388 78.136 70.7989C77.0589 70.7989 75.9819 70.7989 74.8722 70.7989C74.7871 70.9973 74.7021 71.1957 74.6145 71.4001C74.5578 71.4001 74.5011 71.4001 74.4427 71.4001C74.4338 71.4533 74.425 71.5064 74.4159 71.5612C74.3568 71.7437 74.3568 71.7437 74.0991 71.9155C73.8576 71.9383 73.8576 71.9383 73.5838 71.937C73.4935 71.9374 73.4031 71.9378 73.31 71.9383C73.0685 71.9155 73.0685 71.9155 72.8108 71.7437C72.8929 71.277 73.0097 70.8819 73.2339 70.4644C73.3727 70.1923 73.478 69.9083 73.5888 69.624C73.6883 69.3787 73.8091 69.146 73.9274 68.9093C73.9875 68.7385 74.0456 68.567 74.0991 68.394C74.1558 68.394 74.2125 68.394 74.2709 68.394C74.278 68.3231 74.2851 68.2523 74.2924 68.1793C74.3581 67.8729 74.4606 67.6547 74.6054 67.3808C74.7071 67.1782 74.7902 66.9733 74.8722 66.7621C75.0019 66.4296 75.1482 66.1132 75.3123 65.7965C75.3975 65.6314 75.3975 65.6314 75.4841 65.3932C75.6462 65.0111 76.0547 65.1144 76.4128 65.1141ZM76.3323 67.1915C75.9834 67.8644 75.6846 68.5011 75.5593 69.2529C76.1545 69.2529 76.7497 69.2529 77.363 69.2529C77.3346 69.0828 77.3063 68.9128 77.2771 68.7375C77.2204 68.7375 77.1637 68.7375 77.1053 68.7375C77.077 68.5675 77.0486 68.3974 77.0194 68.2222C76.9627 68.2222 76.906 68.2222 76.8476 68.2222C76.837 68.1478 76.8264 68.0734 76.8154 67.9967C76.7634 67.7159 76.6859 67.4601 76.59 67.1915C76.5049 67.1915 76.4199 67.1915 76.3323 67.1915Z" fill="#C5FF4A"/>
<path d="M82.7072 65.1124C82.7801 65.1107 82.8529 65.1091 82.928 65.1074C83.2625 65.1024 83.597 65.0982 83.9316 65.0955C84.1072 65.0937 84.2829 65.0907 84.4586 65.0867C86.3425 65.0439 86.3425 65.0439 86.9827 65.6456C87.032 65.6902 87.0812 65.7348 87.1319 65.7807C87.2404 65.9033 87.2404 65.9033 87.2404 66.0751C87.2971 66.0751 87.3538 66.0751 87.4122 66.0751C87.8433 66.7652 87.7897 67.6973 87.6699 68.48C87.4795 69.0528 86.9954 69.4997 86.4754 69.7865C86.2116 69.8859 85.9564 69.9146 85.6759 69.9281C85.5205 69.9236 85.5205 69.9236 85.4367 70.0261C85.2963 70.0335 85.1556 70.0352 85.015 70.0344C84.93 70.0342 84.845 70.0339 84.7575 70.0336C84.6681 70.0329 84.5787 70.0322 84.4865 70.0314C84.3968 70.031 84.3071 70.0306 84.2146 70.0302C83.9921 70.0292 83.7696 70.0277 83.5471 70.0261C83.5471 70.6213 83.5471 71.2165 83.5471 71.8297C83.3242 71.9412 83.157 71.927 82.9083 71.9264C82.8252 71.9266 82.742 71.9268 82.6563 71.927C82.4306 71.9156 82.4306 71.9156 82.1729 71.8297C82.0467 71.5775 82.0758 71.3236 82.0772 71.0471C82.0772 70.9843 82.0772 70.9214 82.0772 70.8567C82.0773 70.6485 82.0779 70.4403 82.0786 70.2321C82.0788 70.0879 82.0789 69.9437 82.079 69.7995C82.0793 69.4197 82.0801 69.0398 82.0811 68.66C82.082 68.2726 82.0824 67.8851 82.0828 67.4977C82.0837 66.7372 82.0852 65.9767 82.087 65.2162C82.3202 65.1385 82.4665 65.1175 82.7072 65.1124ZM83.5471 66.6763C83.5397 66.8167 83.5379 66.9575 83.5387 67.0981C83.539 67.183 83.5393 67.268 83.5396 67.3556C83.5403 67.445 83.541 67.5344 83.5418 67.6265C83.5421 67.7162 83.5425 67.806 83.5429 67.8984C83.5439 68.1209 83.5454 68.3434 83.5471 68.5659C83.8656 68.5759 84.1841 68.582 84.5027 68.5874C84.5926 68.5903 84.6825 68.5931 84.7751 68.5961C85.3106 68.6029 85.6352 68.5894 86.0379 68.2224C86.2181 67.9521 86.2315 67.8864 86.2258 67.5782C86.2253 67.5117 86.2247 67.4453 86.2241 67.3769C86.2059 67.143 86.1595 66.9782 86.0111 66.7944C85.7344 66.569 85.4242 66.5795 85.0787 66.579C84.995 66.5789 84.9112 66.5788 84.8249 66.5787C84.7381 66.579 84.6512 66.5794 84.5617 66.5797C84.4299 66.5792 84.4299 66.5792 84.2955 66.5787C84.2121 66.5788 84.1286 66.5789 84.0427 66.579C83.9661 66.5791 83.8896 66.5792 83.8108 66.5793C83.6338 66.5707 83.6338 66.5707 83.5471 66.6763Z" fill="#C5FF4A"/>
<path d="M68.865 64.9212C68.974 64.9186 68.974 64.9186 69.0853 64.916C69.5408 64.9164 69.8577 64.989 70.2518 65.2201C70.4159 65.3078 70.5677 65.3501 70.7492 65.3882C70.7492 65.4449 70.7492 65.5016 70.7492 65.56C70.8148 65.5813 70.8803 65.6025 70.9478 65.6244C71.199 65.7412 71.2903 65.8448 71.4363 66.0754C71.1679 66.4859 70.9467 66.8021 70.4915 67.0202C70.2768 66.9718 70.2768 66.9718 70.0621 66.8484C69.97 66.8041 69.8779 66.7598 69.783 66.7142C69.5468 66.5907 69.5468 66.5907 69.4609 66.5048C68.8225 66.4267 68.2991 66.4175 67.7592 66.7947C67.4941 67.0021 67.4941 67.0021 67.3136 67.2778C67.2569 67.2778 67.2002 67.2778 67.1418 67.2778C67.1294 67.3469 67.117 67.416 67.1043 67.4872C67.0559 67.7073 67.0559 67.7073 66.97 67.7932C66.9592 68.0197 66.9541 68.243 66.9539 68.4696C66.9524 68.5641 66.9524 68.5641 66.9508 68.6605C66.9499 68.9901 66.9548 69.1445 67.1418 69.4251C67.1418 69.5385 67.1418 69.6518 67.1418 69.7686C67.1985 69.7686 67.2552 69.7686 67.3136 69.7686C67.4532 69.8867 67.4532 69.8867 67.5713 70.0263C67.5713 70.083 67.5713 70.1397 67.5713 70.1981C67.6227 70.2105 67.674 70.2229 67.727 70.2357C67.8772 70.2743 68.0254 70.3208 68.1725 70.3699C68.9339 70.4215 69.5679 70.441 70.2339 70.0263C70.4402 69.9502 70.4402 69.9502 70.6633 69.9404C70.8774 70.086 70.8774 70.086 71.082 70.2947C71.1509 70.3623 71.2198 70.4298 71.2907 70.4994C71.4363 70.7134 71.4363 70.7134 71.4266 70.9433C71.255 71.3932 70.7882 71.5648 70.3775 71.7586C70.2347 71.8201 70.2347 71.8201 70.148 71.9159C69.9255 71.9392 69.7055 71.9568 69.4823 71.9696C69.4169 71.9733 69.3515 71.9771 69.284 71.9809C68.7133 72.0088 68.1352 72.0197 67.5713 71.9159C67.5146 71.8592 67.4579 71.8025 67.3995 71.7441C67.3109 71.7105 67.2223 71.6768 67.1311 71.6421C66.7291 71.4779 66.405 71.202 66.1111 70.8852C66.1111 70.8285 66.1111 70.7718 66.1111 70.7134C66.0545 70.7134 65.9978 70.7134 65.9394 70.7134C65.8968 70.5009 65.8968 70.5009 65.8535 70.284C65.7968 70.284 65.7401 70.284 65.6817 70.284C65.409 69.6894 65.3849 69.1722 65.3918 68.5232C65.3908 68.4297 65.3898 68.3361 65.3888 68.2397C65.3908 67.6861 65.4504 67.2667 65.6817 66.7625C65.7384 66.7625 65.7951 66.7625 65.8535 66.7625C65.8818 66.6208 65.9102 66.4791 65.9394 66.333C65.9961 66.333 66.0527 66.333 66.1111 66.333C66.1324 66.2834 66.1537 66.2338 66.1756 66.1827C66.2986 65.9612 66.4362 65.8124 66.6265 65.6459C66.6832 65.6459 66.7399 65.6459 66.7983 65.6459C66.7983 65.5892 66.7983 65.5325 66.7983 65.4741C66.94 65.4458 67.0817 65.4174 67.2277 65.3882C67.2277 65.3316 67.2277 65.2749 67.2277 65.2165C67.7824 64.9964 68.27 64.9162 68.865 64.9212Z" fill="#C5FF4A"/>
<path d="M94.5123 65.1176C94.6163 65.117 94.7204 65.1165 94.8276 65.1159C94.9409 65.1158 95.0543 65.1157 95.1711 65.1156C95.2878 65.1154 95.4045 65.1151 95.5213 65.1148C95.7663 65.1143 96.0114 65.1141 96.2565 65.1141C96.5706 65.1142 96.8847 65.113 97.1989 65.1115C97.4401 65.1106 97.6814 65.1104 97.9226 65.1104C98.0948 65.1103 98.267 65.1093 98.4392 65.1084C98.5438 65.1087 98.6483 65.1089 98.7561 65.1092C98.8945 65.109 98.8945 65.109 99.0356 65.1088C99.265 65.1301 99.265 65.1301 99.5226 65.3018C99.5508 65.5411 99.5508 65.5411 99.5441 65.8226C99.5428 65.9157 99.5414 66.0088 99.5401 66.1047C99.5226 66.3325 99.5226 66.3325 99.4367 66.4184C99.2901 66.4259 99.1431 66.4276 98.9962 66.4268C98.8629 66.4264 98.8629 66.4264 98.727 66.426C98.6335 66.4252 98.54 66.4245 98.4436 66.4238C98.3029 66.4232 98.3029 66.4232 98.1593 66.4226C97.9266 66.4216 97.6939 66.4202 97.4613 66.4184C97.4615 66.4837 97.4616 66.5489 97.4618 66.6162C97.4636 67.2304 97.4649 67.8446 97.4657 68.4589C97.4662 68.7747 97.4668 69.0905 97.4677 69.4063C97.4687 69.7109 97.4692 70.0155 97.4694 70.3202C97.4696 70.4365 97.4699 70.5529 97.4703 70.6693C97.471 70.8319 97.471 70.9946 97.471 71.1573C97.4712 71.25 97.4714 71.3427 97.4716 71.4382C97.4613 71.6577 97.4613 71.6577 97.3754 71.8295C97.0958 71.9227 96.8853 71.9268 96.5916 71.9261C96.4993 71.9264 96.4069 71.9266 96.3118 71.9268C96.087 71.9154 96.087 71.9154 96.0011 71.8295C95.9905 71.6635 95.9858 71.4972 95.9835 71.3309C95.9818 71.2243 95.9801 71.1177 95.9783 71.0079C95.9768 70.8907 95.9754 70.7734 95.974 70.6562C95.9722 70.537 95.9704 70.4177 95.9685 70.2984C95.9638 69.984 95.9596 69.6695 95.9554 69.355C95.9511 69.0344 95.9463 68.7137 95.9416 68.3931C95.9323 67.7635 95.9237 67.1339 95.9152 66.5043C94.9374 66.4618 94.9374 66.4618 93.9398 66.4184C93.9314 65.4874 93.9314 65.4874 93.9398 65.216C94.0912 65.0645 94.307 65.1183 94.5123 65.1176Z" fill="#C5FF4A"/>
<path d="M111.171 65.1138C111.271 65.1144 111.372 65.1149 111.475 65.1155C111.719 65.1299 111.719 65.1299 111.805 65.2158C111.813 65.3766 111.815 65.5377 111.814 65.6987C111.814 65.8018 111.814 65.905 111.814 66.0113C111.814 66.1236 111.813 66.2359 111.813 66.3515C111.813 66.467 111.813 66.5824 111.813 66.6978C111.812 67.0021 111.811 67.3064 111.81 67.6107C111.81 67.921 111.809 68.2313 111.809 68.5416C111.808 69.1508 111.806 69.76 111.805 70.3693C111.897 70.3679 111.989 70.3666 112.084 70.3652C112.427 70.3605 112.769 70.3575 113.111 70.3551C113.26 70.3538 113.408 70.352 113.556 70.3498C113.769 70.3467 113.982 70.3452 114.195 70.3441C114.261 70.3428 114.328 70.3414 114.396 70.3401C114.854 70.3399 114.854 70.3399 115.067 70.4859C115.194 70.6912 115.188 70.8545 115.186 71.094C115.187 71.216 115.187 71.216 115.189 71.3406C115.148 71.6122 115.085 71.7176 114.897 71.9153C114.708 71.9583 114.708 71.9583 114.486 71.9584C114.403 71.9592 114.32 71.96 114.235 71.9608C114.145 71.9598 114.055 71.9589 113.963 71.9579C113.871 71.958 113.778 71.9581 113.683 71.9583C113.488 71.9581 113.293 71.9571 113.098 71.9554C112.799 71.9529 112.5 71.9536 112.202 71.9547C112.012 71.9542 111.823 71.9534 111.633 71.9525C111.544 71.9528 111.454 71.953 111.362 71.9533C111.279 71.9522 111.195 71.9511 111.109 71.95C111.036 71.9495 110.963 71.9491 110.887 71.9486C110.63 71.9056 110.52 71.8528 110.344 71.6576C110.301 71.3865 110.301 71.3865 110.301 71.0476C110.301 70.9859 110.3 70.9241 110.3 70.8605C110.299 70.6563 110.3 70.4523 110.302 70.2481C110.302 70.1064 110.302 69.9647 110.301 69.823C110.301 69.526 110.302 69.2291 110.304 68.9321C110.307 68.5509 110.307 68.1698 110.305 67.7886C110.305 67.496 110.306 67.2034 110.307 66.9108C110.307 66.7703 110.307 66.6297 110.307 66.4891C110.306 66.2929 110.308 66.0968 110.31 65.9006C110.31 65.7888 110.311 65.6771 110.311 65.5619C110.322 65.4761 110.333 65.3902 110.344 65.3017C110.654 65.0952 110.804 65.1094 111.171 65.1138Z" fill="#C5FF4A"/>
<path d="M90.9011 65.1193C91.0014 65.1191 91.1017 65.1189 91.2051 65.1187C91.4487 65.1301 91.4487 65.1301 91.5346 65.2159C91.5436 65.4188 91.5472 65.6192 91.547 65.8222C91.5473 65.8856 91.5476 65.949 91.5479 66.0143C91.5487 66.225 91.5489 66.4356 91.549 66.6462C91.5493 66.792 91.5495 66.9379 91.5498 67.0837C91.5504 67.3898 91.5505 67.6958 91.5505 68.0019C91.5505 68.3948 91.5516 68.7877 91.5531 69.1806C91.5541 69.4819 91.5542 69.7832 91.5542 70.0845C91.5543 70.2294 91.5547 70.3743 91.5553 70.5192C91.5562 70.7215 91.5559 70.9239 91.5554 71.1263C91.5559 71.1865 91.5564 71.2468 91.5569 71.3089C91.5542 71.724 91.5542 71.724 91.3628 71.9154C91.1484 71.9352 91.1484 71.9352 90.8957 71.9315C90.771 71.9307 90.771 71.9307 90.6438 71.9298C90.418 71.9154 90.418 71.9154 90.1603 71.8295C90.0342 71.5772 90.0632 71.3233 90.0647 71.0469C90.0647 70.984 90.0646 70.9212 90.0646 70.8564C90.0647 70.6482 90.0654 70.44 90.066 70.2318C90.0662 70.0876 90.0663 69.9434 90.0664 69.7993C90.0667 69.4194 90.0676 69.0396 90.0685 68.6598C90.0694 68.2723 90.0698 67.8849 90.0702 67.4974C90.0711 66.7369 90.0726 65.9764 90.0744 65.2159C90.3659 65.1188 90.5943 65.1186 90.9011 65.1193Z" fill="#C5FF4A"/>
</svg>
