<svg width="302" height="192" viewBox="0 0 302 192" fill="none" xmlns="http://www.w3.org/2000/svg">
<path d="M40.5846 89.2601H40.0846H40.5846ZM79.5119 0.0319824H6.6029V1.03198H79.5119V0.0319824ZM85.6148 34.2832V6.13487H84.6148V34.2832H85.6148ZM103.264 39.3861H90.7177V40.3861H103.264V39.3861ZM108.366 6.13487V34.2832H109.366V6.13487H108.366ZM187.378 0.0319824H114.469V1.03198H187.378V0.0319824ZM193.481 34.2832V6.13487H192.481V34.2832H193.481ZM210.976 39.3861H198.584V40.3861H210.976V39.3861ZM216.079 6.13487V34.2832H217.079V6.13487H216.079ZM295.091 0.0319824H222.182V1.03198H295.091V0.0319824ZM301.194 78.0543V6.13487H300.194V78.0543H301.194ZM267.702 84.1572H295.091V83.1572H267.702V84.1572ZM262.599 101.804V89.2601H261.599V101.804H262.599ZM267.702 107.907H295.091V106.907H267.702V107.907ZM300.194 113.01V184.929H301.194V113.01H300.194ZM295.091 190.032H222.182V191.032H295.091V190.032ZM217.079 184.929V157.67H216.079V184.929H217.079ZM198.584 152.567H210.976V151.567H198.584V152.567ZM193.481 184.929V157.67H192.481V184.929H193.481ZM114.469 191.032H187.378V190.032H114.469V191.032ZM108.366 157.67V184.929H109.366V157.67H108.366ZM90.7177 152.567H103.264V151.567H90.7177V152.567ZM85.6148 184.929V157.67H84.6148V184.929H85.6148ZM6.60289 191.032H79.5119V190.032H6.60289V191.032ZM0.5 113.01V184.929H1.5V113.01H0.5ZM34.9817 106.907H6.60288V107.907H34.9817V106.907ZM40.0846 89.2601L40.0846 101.804H41.0846L41.0846 89.2601H40.0846ZM6.60289 84.1572H34.9817V83.1572H6.60289V84.1572ZM0.5 6.13487V78.0543H1.5V6.13487H0.5ZM217.079 140.527V113.01H216.079V140.527H217.079ZM222.182 107.907H250.558V106.907H222.182V107.907ZM255.661 89.2601V101.804H256.661V89.2601H255.661ZM222.182 84.1572H250.558V83.1572H222.182V84.1572ZM216.079 51.4265V78.0543H217.079V51.4265H216.079ZM198.584 46.3236H210.976V45.3236H198.584V46.3236ZM193.481 78.0543V51.4265H192.481V78.0543H193.481ZM159.989 84.1572H187.378V83.1572H159.989V84.1572ZM154.887 101.804V89.2601H153.887V101.804H154.887ZM187.378 106.907H159.989V107.907H187.378V106.907ZM193.481 140.527V113.01H192.481V140.527H193.481ZM210.976 145.63H198.584V146.63H210.976V145.63ZM148.949 101.804V89.2601H147.949V101.804H148.949ZM114.469 107.907H142.846V106.907H114.469V107.907ZM109.366 140.527V113.01H108.366V140.527H109.366ZM90.7177 146.63H103.264V145.63H90.7177V146.63ZM84.6148 113.01V140.527H85.6148V113.01H84.6148ZM52.125 107.907H79.5119V106.907H52.125V107.907ZM46.0221 89.2601V101.804H47.0221V89.2601H46.0221ZM79.5119 83.1572H52.125V84.1572H79.5119V83.1572ZM84.6148 51.4265V78.0543H85.6148V51.4265H84.6148ZM103.264 45.3236H90.7177V46.3236H103.264V45.3236ZM109.366 78.0543V51.4265H108.366V78.0543H109.366ZM142.846 83.1572H114.469V84.1572H142.846V83.1572ZM108.366 78.0543C108.366 81.4249 111.099 84.1572 114.469 84.1572V83.1572C111.651 83.1572 109.366 80.8726 109.366 78.0543H108.366ZM103.264 46.3236C106.082 46.3236 108.366 48.6082 108.366 51.4265H109.366C109.366 48.056 106.634 45.3236 103.264 45.3236V46.3236ZM85.6148 51.4265C85.6148 48.6082 87.8995 46.3236 90.7177 46.3236V45.3236C87.3472 45.3236 84.6148 48.056 84.6148 51.4265H85.6148ZM79.5119 84.1572C82.8825 84.1572 85.6148 81.4249 85.6148 78.0543H84.6148C84.6148 80.8726 82.3302 83.1572 79.5119 83.1572V84.1572ZM47.0221 89.2601C47.0221 86.4419 49.3067 84.1572 52.125 84.1572V83.1572C48.7544 83.1572 46.0221 85.8896 46.0221 89.2601H47.0221ZM52.125 106.907C49.3067 106.907 47.0221 104.622 47.0221 101.804H46.0221C46.0221 105.174 48.7545 107.907 52.125 107.907V106.907ZM85.6148 113.01C85.6148 109.639 82.8825 106.907 79.5119 106.907V107.907C82.3302 107.907 84.6148 110.191 84.6148 113.01H85.6148ZM90.7177 145.63C87.8995 145.63 85.6148 143.345 85.6148 140.527H84.6148C84.6148 143.897 87.3472 146.63 90.7177 146.63V145.63ZM108.366 140.527C108.366 143.345 106.082 145.63 103.264 145.63V146.63C106.634 146.63 109.366 143.897 109.366 140.527H108.366ZM114.469 106.907C111.099 106.907 108.366 109.639 108.366 113.01H109.366C109.366 110.191 111.651 107.907 114.469 107.907V106.907ZM148.949 89.2601C148.949 85.8896 146.217 83.1572 142.846 83.1572V84.1572C145.664 84.1572 147.949 86.4419 147.949 89.2601H148.949ZM147.949 101.804C147.949 104.622 145.664 106.907 142.846 106.907V107.907C146.217 107.907 148.949 105.174 148.949 101.804H147.949ZM192.481 140.527C192.481 143.897 195.214 146.63 198.584 146.63V145.63C195.766 145.63 193.481 143.345 193.481 140.527H192.481ZM187.378 107.907C190.197 107.907 192.481 110.191 192.481 113.01H193.481C193.481 109.639 190.749 106.907 187.378 106.907V107.907ZM153.887 101.804C153.887 105.174 156.619 107.907 159.989 107.907V106.907C157.171 106.907 154.887 104.622 154.887 101.804H153.887ZM159.989 83.1572C156.619 83.1572 153.887 85.8896 153.887 89.2601H154.887C154.887 86.4419 157.171 84.1572 159.989 84.1572V83.1572ZM192.481 78.0543C192.481 80.8726 190.197 83.1572 187.378 83.1572V84.1572C190.749 84.1572 193.481 81.4249 193.481 78.0543H192.481ZM198.584 45.3236C195.214 45.3236 192.481 48.056 192.481 51.4265H193.481C193.481 48.6082 195.766 46.3236 198.584 46.3236V45.3236ZM217.079 51.4265C217.079 48.056 214.346 45.3236 210.976 45.3236V46.3236C213.794 46.3236 216.079 48.6082 216.079 51.4265H217.079ZM222.182 83.1572C219.363 83.1572 217.079 80.8726 217.079 78.0543H216.079C216.079 81.4249 218.811 84.1572 222.182 84.1572V83.1572ZM256.661 89.2601C256.661 85.8896 253.929 83.1572 250.558 83.1572V84.1572C253.377 84.1572 255.661 86.4419 255.661 89.2601H256.661ZM250.558 107.907C253.929 107.907 256.661 105.174 256.661 101.804H255.661C255.661 104.622 253.377 106.907 250.558 106.907V107.907ZM217.079 113.01C217.079 110.191 219.363 107.907 222.182 107.907V106.907C218.811 106.907 216.079 109.639 216.079 113.01H217.079ZM216.079 140.527C216.079 143.345 213.794 145.63 210.976 145.63V146.63C214.346 146.63 217.079 143.897 217.079 140.527H216.079ZM6.60289 83.1572C3.78464 83.1572 1.5 80.8726 1.5 78.0543H0.5C0.5 81.4249 3.23236 84.1572 6.60289 84.1572V83.1572ZM41.0846 89.2601C41.0846 85.8896 38.3522 83.1572 34.9817 83.1572V84.1572C37.7999 84.1572 40.0846 86.4419 40.0846 89.2601H41.0846ZM34.9817 107.907C38.3522 107.907 41.0846 105.174 41.0846 101.804H40.0846C40.0846 104.622 37.7999 106.907 34.9817 106.907V107.907ZM1.5 113.01C1.5 110.191 3.78464 107.907 6.60288 107.907V106.907C3.23235 106.907 0.5 109.639 0.5 113.01H1.5ZM6.60289 190.032C3.78464 190.032 1.5 187.747 1.5 184.929H0.5C0.5 188.3 3.23236 191.032 6.60289 191.032V190.032ZM84.6148 184.929C84.6148 187.747 82.3302 190.032 79.5119 190.032V191.032C82.8825 191.032 85.6148 188.3 85.6148 184.929H84.6148ZM90.7177 151.567C87.3472 151.567 84.6148 154.299 84.6148 157.67H85.6148C85.6148 154.852 87.8995 152.567 90.7177 152.567V151.567ZM109.366 157.67C109.366 154.3 106.634 151.567 103.264 151.567V152.567C106.082 152.567 108.366 154.852 108.366 157.67H109.366ZM114.469 190.032C111.651 190.032 109.366 187.747 109.366 184.929H108.366C108.366 188.3 111.099 191.032 114.469 191.032V190.032ZM192.481 184.929C192.481 187.747 190.197 190.032 187.378 190.032V191.032C190.749 191.032 193.481 188.3 193.481 184.929H192.481ZM198.584 151.567C195.214 151.567 192.481 154.299 192.481 157.67H193.481C193.481 154.852 195.766 152.567 198.584 152.567V151.567ZM217.079 157.67C217.079 154.299 214.346 151.567 210.976 151.567V152.567C213.794 152.567 216.079 154.852 216.079 157.67H217.079ZM222.182 190.032C219.363 190.032 217.079 187.747 217.079 184.929H216.079C216.079 188.3 218.811 191.032 222.182 191.032V190.032ZM300.194 184.929C300.194 187.747 297.909 190.032 295.091 190.032V191.032C298.461 191.032 301.194 188.3 301.194 184.929H300.194ZM295.091 107.907C297.909 107.907 300.194 110.191 300.194 113.01H301.194C301.194 109.639 298.461 106.907 295.091 106.907V107.907ZM261.599 101.804C261.599 105.174 264.331 107.907 267.702 107.907V106.907C264.883 106.907 262.599 104.622 262.599 101.804H261.599ZM267.702 83.1572C264.331 83.1572 261.599 85.8896 261.599 89.2601H262.599C262.599 86.4419 264.883 84.1572 267.702 84.1572V83.1572ZM300.194 78.0543C300.194 80.8726 297.909 83.1572 295.091 83.1572V84.1572C298.461 84.1572 301.194 81.4249 301.194 78.0543H300.194ZM295.091 1.03198C297.909 1.03198 300.194 3.31663 300.194 6.13487H301.194C301.194 2.76434 298.461 0.0319824 295.091 0.0319824V1.03198ZM217.079 6.13487C217.079 3.31662 219.363 1.03198 222.182 1.03198V0.0319824C218.811 0.0319824 216.079 2.76434 216.079 6.13487H217.079ZM210.976 40.3861C214.346 40.3861 217.079 37.6537 217.079 34.2832H216.079C216.079 37.1014 213.794 39.3861 210.976 39.3861V40.3861ZM192.481 34.2832C192.481 37.6537 195.214 40.3861 198.584 40.3861V39.3861C195.766 39.3861 193.481 37.1014 193.481 34.2832H192.481ZM187.378 1.03198C190.197 1.03198 192.481 3.31662 192.481 6.13487H193.481C193.481 2.76433 190.749 0.0319824 187.378 0.0319824V1.03198ZM109.366 6.13487C109.366 3.31662 111.651 1.03198 114.469 1.03198V0.0319824C111.099 0.0319824 108.366 2.76434 108.366 6.13487H109.366ZM103.264 40.3861C106.634 40.3861 109.366 37.6537 109.366 34.2832H108.366C108.366 37.1014 106.082 39.3861 103.264 39.3861V40.3861ZM84.6148 34.2832C84.6148 37.6537 87.3472 40.3861 90.7177 40.3861V39.3861C87.8995 39.3861 85.6148 37.1014 85.6148 34.2832H84.6148ZM6.6029 0.0319824C3.23237 0.0319824 0.5 2.76434 0.5 6.13487H1.5C1.5 3.31662 3.78465 1.03198 6.6029 1.03198V0.0319824ZM79.5119 1.03198C82.3302 1.03198 84.6148 3.31662 84.6148 6.13487H85.6148C85.6148 2.76433 82.8825 0.0319824 79.5119 0.0319824V1.03198Z" fill="#C5FF4A"/>
</svg>
