<svg width="235" height="212" viewBox="0 0 235 212" fill="none" xmlns="http://www.w3.org/2000/svg">
<g id="Frame 1073715487" clip-path="url(#clip0_4791_62)">
<path id="Union" fill-rule="evenodd" clip-rule="evenodd" d="M15.0289 48.2588C15.0289 45.0582 12.7724 42.3767 10.0343 40.7196C4.61928 37.4425 1 31.4965 1 24.7052C1 14.3746 9.37461 6 19.7052 6C26.4965 6 32.4425 9.61929 35.7196 15.0343C37.3767 17.7725 40.0582 20.0289 43.2588 20.0289L164.499 20.0289C167.699 20.0289 170.381 17.7724 172.038 15.0343C175.315 9.61928 181.261 6 188.052 6C198.383 6 206.757 14.3746 206.757 24.7052C206.757 31.4965 203.138 37.4425 197.723 40.7196C194.985 42.3767 192.728 45.0582 192.728 48.2588V85.3251C192.728 88.5257 194.985 91.2072 197.723 92.8643C203.138 96.1413 206.757 102.087 206.757 108.879C206.757 115.67 203.138 121.616 197.723 124.893C194.985 126.55 192.728 129.232 192.728 132.432V169.499C192.728 172.699 194.985 175.381 197.723 177.038C203.138 180.315 206.757 186.261 206.757 193.052C206.757 203.383 198.383 211.757 188.052 211.757C181.261 211.757 175.315 208.138 172.038 202.723C170.381 199.985 167.699 197.728 164.499 197.728L43.2588 197.728C40.0582 197.728 37.3767 199.985 35.7196 202.723C32.4425 208.138 26.4965 211.757 19.7052 211.757C9.37461 211.757 1 203.383 1 193.052C1 186.261 4.61929 180.315 10.0343 177.038C12.7724 175.381 15.0289 172.699 15.0289 169.499L15.0289 132.432C15.0289 129.232 12.7724 126.55 10.0343 124.893C4.61929 121.616 1 115.67 1 108.879C1 102.087 4.61928 96.1413 10.0343 92.8643C12.7724 91.2072 15.0289 88.5257 15.0289 85.3251L15.0289 48.2588ZM43.2588 29.3815C40.0582 29.3815 37.3768 31.6379 35.7197 34.3761C34.1504 36.9691 31.9691 39.1504 29.3761 40.7197C26.6379 42.3768 24.3815 45.0582 24.3815 48.2588L24.3815 85.3251C24.3815 88.5257 26.6379 91.2071 29.3761 92.8642C31.9691 94.4335 34.1504 96.6148 35.7197 99.2078C37.3768 101.946 40.0582 104.202 43.2588 104.202H59.4538C63.3278 104.202 66.4682 101.062 66.4682 97.1879V78.4827C66.4682 74.6087 69.6087 71.4683 73.4827 71.4683H92.1879C96.0619 71.4683 99.2024 68.3278 99.2024 64.4538V36.396C99.2024 32.522 96.0619 29.3815 92.1879 29.3815L43.2588 29.3815ZM164.499 188.376C167.699 188.376 170.381 186.119 172.038 183.381C173.607 180.788 175.788 178.607 178.381 177.038C181.119 175.381 183.376 172.699 183.376 169.499V132.432C183.376 129.232 181.119 126.55 178.381 124.893C175.788 123.324 173.607 121.143 172.038 118.55C170.381 115.811 167.699 113.555 164.499 113.555H148.304C144.43 113.555 141.289 116.695 141.289 120.569V139.275C141.289 143.149 138.149 146.289 134.275 146.289H115.569C111.695 146.289 108.555 149.43 108.555 153.304V181.361C108.555 185.235 111.695 188.376 115.569 188.376H164.499ZM108.555 36.396C108.555 32.522 111.695 29.3815 115.569 29.3815L164.499 29.3815C167.699 29.3815 170.381 31.6379 172.038 34.3761C173.607 36.9691 175.788 39.1504 178.381 40.7197C181.119 42.3768 183.376 45.0582 183.376 48.2588V85.3251C183.376 88.5257 181.119 91.2071 178.381 92.8642C175.788 94.4335 173.607 96.6148 172.038 99.2078C170.381 101.946 167.699 104.202 164.499 104.202H148.304C144.43 104.202 141.289 101.062 141.289 97.1879V78.4827C141.289 74.6087 138.149 71.4683 134.275 71.4683H115.569C111.695 71.4683 108.555 68.3278 108.555 64.4538V36.396ZM99.2024 181.361C99.2024 185.235 96.0619 188.376 92.1879 188.376H43.2588C40.0582 188.376 37.3768 186.119 35.7197 183.381C34.1504 180.788 31.9691 178.607 29.3761 177.038C26.6379 175.381 24.3815 172.699 24.3815 169.499L24.3815 132.432C24.3815 129.232 26.6379 126.55 29.3761 124.893C31.9691 123.324 34.1504 121.143 35.7197 118.55C37.3768 115.811 40.0582 113.555 43.2588 113.555H59.4538C63.3278 113.555 66.4682 116.695 66.4682 120.569V139.275C66.4682 143.149 69.6087 146.289 73.4827 146.289H92.1879C96.0619 146.289 99.2024 149.43 99.2024 153.304V181.361Z" stroke="#C5FF4A"/>
</g>
<defs>
<clipPath id="clip0_4791_62">
<rect width="235" height="212" fill="white"/>
</clipPath>
</defs>
</svg>
