<svg width="235" height="212" viewBox="0 0 235 212" fill="none" xmlns="http://www.w3.org/2000/svg">
<g id="Frame 1073715487" clip-path="url(#clip0_4858_5557)">
<path id="Union" fill-rule="evenodd" clip-rule="evenodd" d="M168.8 34.6C168.8 41.4596 172.324 47.4961 177.66 50.9982C180.344 52.7599 182.52 55.4873 182.52 58.6982L182.52 100.75C182.52 104.809 179.229 108.1 175.17 108.1L131.07 108.1C127.011 108.1 123.72 104.809 123.72 100.75C123.72 96.6907 127.011 93.4 131.07 93.4L135.97 93.4C140.03 93.4 143.32 90.1093 143.32 86.05L143.32 22.35C143.32 18.2907 140.03 15 135.97 15L72.2704 15C68.2111 15 64.9204 18.2907 64.9204 22.35L64.9204 86.05C64.9204 90.1093 68.2111 93.4 72.2704 93.4L77.66 93.4C81.7193 93.4 85.01 96.6907 85.01 100.75C85.01 104.809 81.7193 108.1 77.66 108.1L33.07 108.1C29.0107 108.1 25.72 104.809 25.72 100.75L25.72 58.6982C25.72 55.4873 27.8956 52.7599 30.58 50.9982C35.9162 47.4961 39.44 41.4596 39.44 34.6C39.44 23.7752 30.6648 15 19.84 15C9.01524 15 0.240008 23.7752 0.240008 34.6C0.240007 41.9647 4.30193 48.3807 10.3077 51.7299C13.3607 53.4325 15.92 56.3202 15.92 59.8159L15.92 166.184C15.92 169.68 13.3607 172.568 10.3077 174.27C4.30193 177.619 0.240001 184.035 0.240001 191.4C0.24 202.225 9.01521 211 19.84 211C30.6648 211 39.44 202.225 39.44 191.4C39.44 184.54 35.9162 178.504 30.58 175.002C27.8956 173.24 25.72 170.513 25.72 167.302L25.72 125.25C25.72 121.191 29.0107 117.9 33.07 117.9L77.66 117.9C81.7193 117.9 85.01 121.191 85.01 125.25C85.01 129.309 81.7193 132.6 77.66 132.6L72.2704 132.6C68.2111 132.6 64.9204 135.891 64.9204 139.95L64.9204 203.65C64.9204 207.709 68.2111 211 72.2704 211L135.97 211C140.03 211 143.32 207.709 143.32 203.65L143.32 139.95C143.32 135.891 140.03 132.6 135.97 132.6L131.07 132.6C127.011 132.6 123.72 129.309 123.72 125.25C123.72 121.191 127.011 117.9 131.07 117.9L175.17 117.9C179.229 117.9 182.52 121.191 182.52 125.25L182.52 167.302C182.52 170.513 180.344 173.24 177.66 175.002C172.324 178.504 168.8 184.54 168.8 191.4C168.8 202.225 177.575 211 188.4 211C199.225 211 208 202.225 208 191.4C208 184.035 203.938 177.619 197.932 174.27C194.879 172.568 192.32 169.68 192.32 166.184L192.32 59.8159C192.32 56.3202 194.879 53.4325 197.932 51.7299C203.938 48.3807 208 41.9647 208 34.6C208 23.7752 199.225 15 188.4 15C177.575 15 168.8 23.7752 168.8 34.6ZM106.57 132.6C110.629 132.6 113.92 129.309 113.92 125.25L113.92 100.75C113.92 96.6907 110.629 93.4 106.57 93.4L102.16 93.4C98.1007 93.4 94.81 96.6907 94.81 100.75L94.81 125.25C94.81 129.309 98.1007 132.6 102.16 132.6L106.57 132.6Z" stroke="#C5FF4A" stroke-width="0.984925"/>
</g>
<defs>
<clipPath id="clip0_4858_5557">
<rect width="235" height="212" fill="white"/>
</clipPath>
</defs>
</svg>
