<svg width="181" height="51" viewBox="0 0 181 51" fill="none" xmlns="http://www.w3.org/2000/svg">
<path fill-rule="evenodd" clip-rule="evenodd" d="M0 42.0809L31.7882 15.6105C32.1776 15.271 32.4931 14.8552 32.715 14.3887C32.937 13.9223 33.0609 13.4152 33.0788 12.8989C33.0968 12.3826 33.0084 11.8681 32.8193 11.3874C32.6301 10.9067 32.3443 10.4699 31.9793 10.1042C31.6136 9.73858 31.1764 9.45204 30.6952 9.26247C30.214 9.07289 29.699 8.98434 29.1821 9.00227C28.6651 9.0202 28.1574 9.14424 27.6905 9.3667C27.2236 9.58917 26.8074 9.90528 26.4678 10.2954L0 42.0809ZM15.3348 13.8863L1.95032 23.9239L11.9887 10.5405C12.194 10.2668 12.4557 10.0405 12.756 9.87667C13.0563 9.71286 13.3884 9.61542 13.7297 9.59095C14.0709 9.56648 14.4134 9.61554 14.734 9.73483C15.0547 9.85411 15.3459 10.0408 15.5882 10.2824C15.8309 10.5243 16.0186 10.8156 16.1388 11.1365C16.2589 11.4574 16.3087 11.8004 16.2847 12.1422C16.2606 12.484 16.1635 12.8167 15.9996 13.1176C15.8357 13.4185 15.6089 13.6807 15.3348 13.8863ZM31.5401 30.0931L18.1555 40.1306L28.1939 26.7472C28.3992 26.4736 28.6609 26.2472 28.9612 26.0834C29.2615 25.9196 29.5935 25.8221 29.9348 25.7977C30.276 25.7732 30.6185 25.8222 30.9391 25.9416C31.2597 26.0608 31.5512 26.2476 31.7934 26.4891C32.0361 26.731 32.2238 27.0224 32.3439 27.3433C32.4642 27.6641 32.514 28.0071 32.4899 28.3489C32.4659 28.6907 32.3685 29.0234 32.2047 29.3243C32.0408 29.6253 31.8142 29.8874 31.5401 30.0931Z" fill="#C5FF4A"/>
<path fill-rule="evenodd" clip-rule="evenodd" d="M50.8027 25.5405C50.8027 21.1716 54.5165 17.3884 59.6637 17.3884C62.2153 17.3884 64.4944 18.3195 66.1156 19.7827C66.2125 19.8701 66.3617 19.8668 66.4519 19.7724L69.5513 16.5245C69.6415 16.4301 69.6382 16.2803 69.5421 16.1919C66.982 13.8332 63.4685 12.4263 59.6637 12.4263C52.0475 12.4263 45.8406 18.1672 45.8406 25.5405C45.8406 32.9138 52.0475 38.6547 59.6637 38.6547C63.0499 38.6547 66.3966 37.5192 68.8757 35.5721L69.7339 34.898C69.7909 34.8533 69.8243 34.7847 69.8243 34.7122V33.6209V31.4478V31.1943V25.5405V23.6502C69.8243 23.5196 69.7185 23.4139 69.588 23.4139H63.3099C63.2449 23.4139 63.1828 23.4407 63.1381 23.4879L59.1234 27.7412C58.9812 27.892 59.088 28.1397 59.2952 28.1397H64.6258C64.7564 28.1397 64.8621 28.2455 64.8621 28.376V31.1943V31.4478V32.1769C64.8621 32.2609 64.8177 32.3386 64.7446 32.38C63.3047 33.1931 61.5104 33.6926 59.6637 33.6926C54.5165 33.6926 50.8027 29.9094 50.8027 25.5405ZM135.158 13.0171H129.597C129.403 13.0171 129.292 13.2388 129.408 13.3946L138.471 25.5526C138.535 25.6371 138.533 25.7534 138.47 25.8372L129.416 37.6844C129.298 37.8399 129.409 38.0641 129.604 38.0641H135.623C135.699 38.0641 135.769 38.0289 135.814 37.969L141.582 30.2323C141.676 30.1056 141.865 30.1056 141.96 30.2323L147.728 37.969C147.772 38.0289 147.842 38.0641 147.917 38.0641H153.936C154.132 38.0641 154.243 37.8399 154.124 37.6844L145.072 25.8372C145.008 25.7534 145.007 25.6371 145.069 25.5526L154.133 13.3946C154.249 13.2388 154.138 13.0171 153.943 13.0171H148.383C148.309 13.0171 148.24 13.0514 148.195 13.1099L141.958 21.2718C141.864 21.3956 141.677 21.3956 141.583 21.2718L135.346 13.1099C135.301 13.0514 135.231 13.0171 135.158 13.0171ZM91.2913 13.0169H85.9277C85.8343 13.0169 85.7495 13.072 85.7117 13.1574L74.8155 37.7318C74.7462 37.8881 74.8606 38.0639 75.0316 38.0639H80.1839C80.2782 38.0639 80.3635 38.0079 80.4008 37.9213L82.4834 33.1019H94.7356L96.8182 37.9213C96.8555 38.0079 96.9408 38.0639 97.0351 38.0639H102.188C102.358 38.0639 102.473 37.8881 102.404 37.7318L91.5074 13.1574C91.4695 13.072 91.3848 13.0169 91.2913 13.0169ZM92.7957 28.6123H84.4234L88.3926 19.4263C88.4747 19.2362 88.7443 19.2362 88.8264 19.4263L92.7957 28.6123ZM108.332 13.017C108.201 13.017 108.095 13.1228 108.095 13.2533V37.8277C108.095 37.9583 108.201 38.064 108.332 38.064H112.23H113.53H122.158C122.23 38.064 122.299 38.0309 122.344 37.9741L125.515 33.9571C125.638 33.8022 125.527 33.5744 125.329 33.5744H113.766V13.2533C113.766 13.1228 113.661 13.017 113.53 13.017H108.332ZM165.523 17.7428C165.523 17.6123 165.629 17.5066 165.759 17.5066H180.291C180.422 17.5066 180.527 17.4008 180.527 17.2703V13.2533C180.527 13.1228 180.422 13.017 180.291 13.017H160.088C160.086 13.017 160.083 13.017 160.081 13.0171C159.954 13.0171 159.852 13.1196 159.852 13.246V37.8278C159.852 37.9584 159.958 38.0641 160.088 38.0641H165.523V38.064H180.764C180.895 38.064 181 37.9583 181 37.8277V33.8107C181 33.6802 180.895 33.5744 180.764 33.5744H165.759C165.629 33.5744 165.523 33.4687 165.523 33.3382V27.9034C165.523 27.7729 165.629 27.6671 165.759 27.6671H179.346C179.477 27.6671 179.582 27.5614 179.582 27.4308V23.4139C179.582 23.2833 179.477 23.1776 179.346 23.1776H165.759C165.629 23.1776 165.523 23.0718 165.523 22.9413V17.7428Z" fill="#C5FF4A"/>
</svg>
