<svg width="235" height="212" viewBox="0 0 235 212" fill="none" xmlns="http://www.w3.org/2000/svg">
<path fill-rule="evenodd" clip-rule="evenodd" d="M172 21C172 27.8984 168.324 33.9381 162.823 37.2668C160.042 38.95 157.75 41.6738 157.75 44.9248V61.3747C157.75 65.3097 160.94 68.4997 164.875 68.4997H183.875C187.81 68.4997 191 71.6896 191 75.6247V137.375C191 141.31 187.81 144.5 183.875 144.5H164.875C160.94 144.5 157.75 147.69 157.75 151.625V168.075C157.75 171.326 160.042 174.05 162.823 175.733C168.324 179.062 172 185.102 172 192C172 202.493 163.493 211 153 211C142.507 211 134 202.493 134 192C134 185.102 137.676 179.062 143.177 175.733C145.958 174.05 148.25 171.326 148.25 168.075V151.625C148.25 147.69 145.06 144.5 141.125 144.5H122.125C118.19 144.5 115 141.31 115 137.375V132.15C115 128.215 111.81 125.025 107.875 125.025H84.125C80.19 125.025 77 128.215 77 132.15V137.375C77 141.31 73.81 144.5 69.875 144.5H50.875C46.94 144.5 43.75 147.69 43.75 151.625V168.075C43.75 171.326 46.042 174.05 48.8234 175.733C54.3237 179.062 58 185.102 58 192C58 202.493 49.4934 211 39 211C28.5066 211 20 202.493 20 192C20 185.102 23.6763 179.062 29.1766 175.733C31.958 174.05 34.25 171.326 34.25 168.075V151.625C34.25 147.69 31.06 144.5 27.125 144.5H8.125C4.18997 144.5 1 141.31 1 137.375V75.6247C1 71.6896 4.18997 68.4997 8.125 68.4997H27.125C31.06 68.4997 34.25 65.3097 34.25 61.3747V44.9248C34.25 41.6738 31.958 38.95 29.1766 37.2668C23.6763 33.9381 20 27.8984 20 21C20 10.5066 28.5066 2 39 2C49.4934 2 58 10.5066 58 21C58 27.8984 54.3237 33.9381 48.8234 37.2668C46.042 38.95 43.75 41.6738 43.75 44.9248V61.3747C43.75 65.3097 46.94 68.4997 50.875 68.4997H69.875C73.81 68.4997 77 71.6896 77 75.6247V80.375C77 84.31 80.19 87.5 84.125 87.5H107.875C111.81 87.5 115 84.31 115 80.375V75.6247C115 71.6896 118.19 68.4997 122.125 68.4997H141.125C145.06 68.4997 148.25 65.3097 148.25 61.3747V44.9248C148.25 41.6738 145.958 38.95 143.177 37.2668C137.676 33.9381 134 27.8984 134 21C134 10.5066 142.507 2 153 2C163.493 2 172 10.5066 172 21ZM115 104.125C115 100.19 111.81 97 107.875 97H84.125C80.19 97 77 100.19 77 104.125V108.4C77 112.335 80.19 115.525 84.125 115.525H107.875C111.81 115.525 115 112.335 115 108.4V104.125Z" stroke="#C5FF4A"/>
</svg>
