<svg width="235" height="212" viewBox="0 0 235 212" fill="none" xmlns="http://www.w3.org/2000/svg">
<path fill-rule="evenodd" clip-rule="evenodd" d="M53.5015 72.03C49.7172 72.03 46.5027 74.5941 44.4264 77.7578C40.299 84.0469 33.1845 88.2 25.1 88.2C12.3422 88.2 2 77.8578 2 65.1C2 52.3422 12.3422 42 25.1 42C33.7798 42 41.3415 46.7873 45.2888 53.8654C47.2954 57.4637 50.6988 60.48 54.8187 60.48H87.7813C91.9012 60.48 95.3046 57.4637 97.3112 53.8654C101.258 46.7873 108.82 42 117.5 42C126.18 42 133.742 46.7873 137.689 53.8654C139.695 57.4637 143.099 60.48 147.219 60.48L180.181 60.48C184.301 60.48 187.705 57.4637 189.711 53.8654C193.658 46.7873 201.22 42 209.9 42C222.658 42 233 52.3422 233 65.1C233 77.8578 222.658 88.2 209.9 88.2C201.815 88.2 194.701 84.0469 190.574 77.7578C188.497 74.5941 185.283 72.03 181.499 72.03H145.901C142.117 72.03 138.903 74.594 136.826 77.7578C134.93 80.6468 132.404 83.0851 129.443 84.8771C126.061 86.9235 123.275 90.2349 123.275 94.1875V132.667C123.275 137.452 127.153 141.33 131.937 141.33C136.722 141.33 140.6 137.452 140.6 132.667V126.892C140.6 122.108 144.478 118.23 149.262 118.23H224.337C229.122 118.23 233 122.108 233 126.892V201.967C233 206.751 229.122 210.63 224.337 210.63H149.262C144.478 210.63 140.6 206.751 140.6 201.967V195.615C140.6 190.831 136.722 186.952 131.937 186.952H103.062C98.2783 186.952 94.4 190.831 94.4 195.615V201.967C94.4 206.751 90.5217 210.63 85.7375 210.63H10.6625C5.87833 210.63 2 206.751 2 201.967V126.892C2 122.108 5.87833 118.23 10.6625 118.23H85.7375C90.5217 118.23 94.4 122.108 94.4 126.892V132.667C94.4 137.452 98.2783 141.33 103.062 141.33C107.847 141.33 111.725 137.452 111.725 132.667V94.1875C111.725 90.2349 108.939 86.9235 105.557 84.8771C102.596 83.0851 100.07 80.6468 98.1736 77.7578C96.0972 74.594 92.8828 72.03 89.0985 72.03H53.5015ZM131.937 152.88C136.722 152.88 140.6 156.758 140.6 161.542V166.74C140.6 171.524 136.722 175.402 131.937 175.402H103.062C98.2783 175.402 94.4 171.524 94.4 166.74V161.542C94.4 156.758 98.2783 152.88 103.062 152.88H131.937Z" stroke="#C5FF4A" stroke-width="0.982979"/>
</svg>
