<svg width="181" height="51" viewBox="0 0 181 51" fill="none" xmlns="http://www.w3.org/2000/svg">
<g clip-path="url(#clip0_5601_15459)">
<path d="M13.449 1C11.6239 1 9.82867 1.38896 8.12323 2.07712C6.44772 2.79519 4.92181 3.81247 3.63526 5.12894C2.3487 6.44541 1.33143 7.97132 0.643272 9.67676C-0.044884 11.3822 -0.403923 13.2073 -0.374003 15.0324V19.67H10.8459V12.938C10.8459 12.6089 10.9058 12.3097 11.0255 12.0105C11.1451 11.7113 11.3247 11.442 11.5341 11.2326C11.7435 11.0232 12.0128 10.8436 12.312 10.724C12.6112 10.6043 12.9104 10.5444 13.2395 10.5444H13.6584C13.9576 10.5444 14.2867 10.6043 14.5859 10.724C14.8851 10.8436 15.1544 11.0232 15.3638 11.2326C15.5733 11.442 15.7528 11.7113 15.8725 12.0105C15.9922 12.3097 16.052 12.6089 16.052 12.938V30.9498C17.5181 30.9498 18.9841 30.6506 20.3605 30.0821C21.7368 29.5136 22.9635 28.6759 24.0107 27.6287C25.0579 26.5815 25.8956 25.3248 26.4342 23.9784C27.0027 22.6021 27.3019 21.1361 27.3019 19.67V15.0324C27.3019 11.3223 25.8657 7.73197 23.2627 5.09902C21.9761 3.78255 20.4502 2.76527 18.7747 2.04719C17.0693 1.35904 15.2741 1 13.449 1Z" fill="#C5FF4A"/>
<path d="M13.6583 40.0754H13.2394C12.9402 40.0754 12.6111 40.0156 12.3119 39.8959C12.0127 39.7762 11.7733 39.5967 11.534 39.3873C11.3245 39.1778 11.145 38.9085 11.0254 38.6093C10.9057 38.3101 10.8458 38.0109 10.8458 37.6818V19.6701C9.37976 19.6701 7.91369 19.9693 6.53737 20.5378C5.16106 21.1062 3.93435 21.944 2.88715 22.9912C1.83996 24.0384 1.0022 25.295 0.463644 26.6414C-0.104833 28.0177 -0.404032 29.4838 -0.404032 30.9499V35.5276C-0.433952 37.3527 -0.0749133 39.1778 0.613243 40.8833C1.3014 42.5887 2.31867 44.1445 3.60523 45.4311C4.89178 46.7475 6.41769 47.7648 8.09321 48.4829C9.76872 49.201 11.5938 49.56 13.4189 49.56C15.244 49.56 17.0692 49.201 18.7447 48.4829C20.4202 47.7648 21.976 46.7475 23.2327 45.4311C24.5192 44.1146 25.5365 42.5887 26.2246 40.8833C26.9128 39.1778 27.2419 37.3527 27.2419 35.5276V30.9499H16.022V37.6818C16.022 38.0109 15.9621 38.3101 15.8424 38.6093C15.7228 38.9085 15.5432 39.1778 15.3338 39.3873C15.1244 39.5967 14.8551 39.7762 14.5559 39.8959C14.2866 40.0156 13.9874 40.0754 13.6583 40.0754ZM46.4804 15.2419H42.531V35.3182H54.08V31.5183H46.4504C46.4804 31.5483 46.4804 15.2419 46.4804 15.2419ZM66.7062 22.692C66.1377 22.0038 65.4496 21.4354 64.6417 21.0763C63.8339 20.7173 62.9363 20.5378 62.0686 20.5976C61.1411 20.5976 60.2435 20.7771 59.3758 21.1661C58.5381 21.555 57.7901 22.0936 57.1618 22.8117C55.8453 24.2777 55.1272 26.1926 55.1272 28.1972C55.1272 30.1719 55.8453 32.0868 57.1618 33.5828C57.7602 34.271 58.5381 34.8394 59.3758 35.2284C60.2136 35.6174 61.1411 35.7969 62.0686 35.7969C64.0732 35.7969 65.6291 35.1087 66.7062 33.7025V35.4079H70.3863V21.0763H66.7062V22.692ZM65.5992 31.0995C65.2401 31.4585 64.7913 31.7577 64.2827 31.9671C63.804 32.1766 63.2654 32.2663 62.7568 32.2364C62.2481 32.2663 61.7096 32.1467 61.2309 31.9671C60.7521 31.7577 60.3033 31.4884 59.9443 31.0995C59.2262 30.2916 58.8373 29.2743 58.8373 28.1972C58.8373 27.1201 59.2262 26.0729 59.9443 25.295C60.3033 24.936 60.7521 24.6368 61.2309 24.4273C61.7096 24.2179 62.2481 24.1281 62.7568 24.1581C63.2953 24.1281 63.804 24.2478 64.2827 24.4273C64.7614 24.6368 65.2102 24.9061 65.5992 25.295C66.3172 26.1028 66.7361 27.1201 66.7361 28.1972C66.7062 29.2444 66.3172 30.2916 65.5992 31.0995ZM79.8709 30.6207L76.1609 20.9866H72.1217L77.9561 34.8694C77.7167 35.7071 77.238 36.4252 76.5797 36.9937C75.8916 37.4724 75.0538 37.6818 74.2161 37.622V41.0628C75.8317 41.2124 77.4773 40.7636 78.7938 39.8061C80.0205 38.8786 81.0079 37.3826 81.7559 35.3481L86.9619 20.9866H83.0125L79.8709 30.6207ZM94.9505 20.5976C93.9332 20.5677 92.9459 20.7472 92.0184 21.1062C91.0909 21.4653 90.2531 22.0338 89.535 22.7518C88.1587 24.2179 87.4107 26.1627 87.4107 28.1673C87.4107 30.172 88.1886 32.1167 89.565 33.5828C91.0011 35.019 92.8861 35.737 95.2497 35.737C98.0023 35.737 100.067 34.7198 101.473 32.6553L98.511 30.9199C98.122 31.3987 97.6433 31.7876 97.0748 32.027C96.5064 32.2663 95.908 32.386 95.3096 32.3561C93.1254 32.3561 91.779 31.4585 91.3003 29.6633H102.071C102.161 29.1547 102.221 28.646 102.221 28.1374C102.281 26.1328 101.533 24.188 100.186 22.7518C99.5283 22.0338 98.7204 21.4653 97.8228 21.1062C96.8654 20.7472 95.908 20.5677 94.9505 20.5976ZM91.2105 26.8209C91.3601 25.9832 91.8389 25.2352 92.4971 24.6966C93.2152 24.1581 94.0828 23.8888 94.9505 23.9486C95.7584 23.9486 96.5363 24.188 97.1945 24.6667C97.8827 25.2053 98.3614 25.9832 98.4811 26.8508C98.4811 26.8209 91.2105 26.8209 91.2105 26.8209ZM108.414 23.4699V21.0165H104.734V35.3481H108.414V28.4964C108.414 27.1201 108.863 26.1328 109.731 25.5344C110.629 24.936 111.676 24.6966 112.753 24.8462V20.7173C111.825 20.7173 110.928 20.9566 110.12 21.4054C109.312 21.8542 108.714 22.6022 108.414 23.4699ZM130.675 18.3536V15.2419H117.6V19.0418H125.708L117.39 32.1766V35.3481H130.854V31.5483H122.387C122.357 31.5483 130.675 18.3536 130.675 18.3536ZM139.531 20.5976C138.514 20.5677 137.526 20.7472 136.599 21.1062C135.671 21.4653 134.834 22.0338 134.116 22.7518C132.739 24.2179 131.991 26.1627 131.991 28.1673C131.991 30.172 132.769 32.1167 134.146 33.5828C135.582 35.019 137.467 35.737 139.83 35.737C142.583 35.737 144.647 34.7198 146.054 32.6553L143.092 30.9199C142.703 31.3987 142.224 31.7876 141.655 32.027C141.087 32.2663 140.489 32.386 139.89 32.3561C137.706 32.3561 136.36 31.4585 135.881 29.6633H146.652C146.742 29.1547 146.802 28.646 146.802 28.1374C146.861 26.1328 146.113 24.188 144.767 22.7518C144.109 22.0338 143.301 21.4653 142.403 21.1062C141.476 20.7472 140.489 20.5677 139.531 20.5976ZM135.791 26.8209C135.941 25.9832 136.419 25.2352 137.078 24.6966C137.796 24.1581 138.663 23.8888 139.531 23.9486C140.339 23.9486 141.117 24.188 141.775 24.6667C142.463 25.2053 142.942 25.9832 143.062 26.8508L135.791 26.8209ZM152.995 23.4699V21.0165H149.315V35.3481H152.995V28.4964C152.995 27.1201 153.444 26.1328 154.311 25.5344C155.209 24.936 156.256 24.6966 157.333 24.8462V20.7173C156.406 20.7173 155.508 20.9566 154.7 21.4054C153.893 21.8542 153.294 22.6022 152.995 23.4699ZM165.741 20.5976C164.006 20.6275 162.36 21.2259 161.014 22.3629C159.697 23.4699 158.799 25.0257 158.47 26.7312C158.141 28.4366 158.411 30.2019 159.248 31.7278C160.086 33.2537 161.403 34.4505 162.988 35.1087C164.574 35.767 166.369 35.8268 168.015 35.3182C169.66 34.8095 171.097 33.7324 172.054 32.2963C173.011 30.8601 173.43 29.1248 173.251 27.3894C173.071 25.6541 172.323 24.0384 171.097 22.8117C170.408 22.0936 169.571 21.5251 168.643 21.1661C167.716 20.7472 166.728 20.5677 165.741 20.5976ZM168.493 31.0097C168.134 31.3687 167.716 31.6679 167.237 31.8475C166.758 32.027 166.25 32.1467 165.741 32.1167C165.232 32.1167 164.724 32.027 164.245 31.8475C163.766 31.6679 163.347 31.3687 162.988 31.0097C162.27 30.2318 161.881 29.2145 161.881 28.1673C161.881 27.1201 162.27 26.1029 162.988 25.3249C163.347 24.9659 163.766 24.6667 164.245 24.4872C164.724 24.3077 165.232 24.188 165.741 24.2179C166.25 24.2179 166.758 24.3077 167.237 24.4872C167.716 24.6667 168.134 24.9659 168.493 25.3249C169.212 26.1029 169.601 27.1201 169.601 28.1673C169.601 29.2145 169.212 30.2318 168.493 31.0097ZM181 30.9199H176.512V35.3481H181V30.9199Z" fill="#C5FF4A"/>
</g>
<defs>
<clipPath id="clip0_5601_15459">
<rect width="181" height="51" fill="white"/>
</clipPath>
</defs>
</svg>
