<svg width="181" height="51" viewBox="0 0 181 51" fill="none" xmlns="http://www.w3.org/2000/svg">
<g clip-path="url(#clip0_5602_18198)">
<path d="M24.1436 0.0152817C24.3562 0.014267 24.5687 0.0132524 24.7877 0.012207C25.0184 0.0136223 25.2491 0.0151402 25.4799 0.0167531C25.7178 0.0168377 25.9557 0.016753 26.1936 0.016507C26.6915 0.0165216 27.1893 0.0182149 27.6872 0.0211674C28.3242 0.0248629 28.9612 0.0249514 29.5982 0.0238523C30.0893 0.023307 30.5803 0.0243905 31.0714 0.025991C31.3062 0.0266163 31.541 0.0268063 31.7759 0.0265471C32.1045 0.0264864 32.4331 0.0287887 32.7617 0.0311892C33.0418 0.0323149 33.0418 0.0323149 33.3275 0.0334634C33.8281 0.075929 33.8281 0.075929 34.6426 0.401715C34.6426 13.4641 34.6426 26.5265 34.6426 39.9847C40.6631 39.9847 46.6836 39.9847 52.8866 39.9847C53.2124 40.3105 53.2124 40.3105 53.2526 40.669C53.2524 40.8178 53.2522 40.9666 53.2519 41.1198C53.2524 41.2884 53.2529 41.4569 53.2535 41.6305C53.2517 41.9043 53.2517 41.9043 53.2499 42.1837C53.2498 42.3705 53.2498 42.5573 53.2497 42.7497C53.2492 43.1452 53.2479 43.5407 53.2459 43.9361C53.2429 44.5432 53.2426 45.1502 53.2426 45.7572C53.2418 46.1407 53.2408 46.5242 53.2397 46.9076C53.2396 47.0902 53.2394 47.2728 53.2392 47.4609C53.2381 47.6294 53.2371 47.7979 53.236 47.9715C53.2354 48.1203 53.2348 48.2691 53.2342 48.4223C53.2124 48.7809 53.2124 48.7809 53.0495 49.1067C52.481 49.2962 51.9721 49.2927 51.3809 49.2914C51.2599 49.2917 51.1389 49.2921 51.0142 49.2925C50.6075 49.2935 50.2009 49.2934 49.7942 49.2932C49.5031 49.2937 49.212 49.2943 48.9209 49.2949C48.1294 49.2963 47.3378 49.2967 46.5462 49.2968C45.886 49.297 45.2257 49.2976 44.5654 49.2982C43.0081 49.2995 41.4507 49.2999 39.8934 49.2998C38.2855 49.2997 36.6776 49.3014 35.0697 49.304C33.6904 49.3061 32.311 49.307 30.9316 49.3069C30.1073 49.3068 29.283 49.3073 28.4587 49.309C27.6836 49.3106 26.9085 49.3106 26.1335 49.3094C25.8488 49.3092 25.564 49.3096 25.2793 49.3106C24.8911 49.3119 24.503 49.3111 24.1149 49.3099C23.9452 49.3111 23.9452 49.3111 23.7721 49.3124C23.1726 49.3081 22.7843 49.2303 22.2627 48.9438C22.2441 42.7889 22.2297 36.634 22.2211 30.4791C22.2201 29.753 22.2191 29.0269 22.218 28.3008C22.2178 28.1563 22.2176 28.0117 22.2173 27.8628C22.2138 25.5199 22.2074 23.1771 22.1999 20.8342C22.1923 18.4315 22.1877 16.0289 22.1861 13.6262C22.185 12.1427 22.1814 10.6593 22.1748 9.17584C22.1705 8.15959 22.1692 7.14335 22.1703 6.12709C22.1708 5.5401 22.17 4.95319 22.1656 4.36622C22.161 3.7308 22.1625 3.09548 22.1648 2.46003C22.1624 2.27322 22.16 2.0864 22.1576 1.89392C22.162 1.43598 22.1711 1.01322 22.2627 0.564608C22.8431 0.0193028 23.3651 0.0148541 24.1436 0.0152817Z" fill="#C5FF4A"/>
<path d="M0.27218 12.4558C2.59435 12.4444 4.91652 12.4358 7.23872 12.4305C8.31698 12.4279 9.39522 12.4245 10.4735 12.419C11.5138 12.4137 12.5541 12.4107 13.5945 12.4095C13.9916 12.4086 14.3888 12.4068 14.7859 12.4042C15.3417 12.4006 15.8973 12.4001 16.4531 12.4003C16.7 12.3977 16.7 12.3977 16.9519 12.395C18.3691 12.4013 18.3691 12.4013 19.0049 12.9445C19.2492 13.3823 19.2492 13.3823 19.4935 13.9219C19.7059 14.2607 19.9248 14.5942 20.147 14.9266C20.308 15.225 20.308 15.225 20.308 15.7137C20.4155 15.7137 20.523 15.7137 20.6338 15.7137C21.6271 17.5584 21.6794 19.1548 21.6666 21.1945C21.6665 21.5028 21.6666 21.8112 21.6668 22.1195C21.667 22.9534 21.6641 23.7873 21.6607 24.6211C21.6576 25.4938 21.6574 26.3664 21.6568 27.2391C21.6553 28.8901 21.6513 30.5411 21.6463 32.1922C21.6409 34.0724 21.6382 35.9527 21.6357 37.833C21.6306 41.6995 21.622 45.566 21.6111 49.4325C21.2345 49.6158 21.2345 49.6158 20.7967 49.7583C20.5548 49.597 20.5548 49.597 20.308 49.4325C20.177 49.4661 20.046 49.4997 19.911 49.5343C19.7732 49.5545 19.6355 49.5746 19.4935 49.5954C19.1168 49.3002 19.1168 49.3002 18.842 48.9438C18.842 48.8363 18.842 48.7288 18.842 48.618C18.6807 48.618 18.5194 48.618 18.3533 48.618C17.997 48.3126 17.997 48.3126 17.7017 47.9665C17.7017 47.859 17.7017 47.7515 17.7017 47.6407C17.5568 47.5734 17.5568 47.5734 17.4089 47.5047C17.0677 47.3242 16.8117 47.137 16.522 46.8841C16.4256 46.8007 16.3293 46.7172 16.23 46.6312C16.0816 46.501 16.0816 46.501 15.9303 46.3681C15.7339 46.1973 15.5375 46.0265 15.341 45.8559C15.1988 45.7313 15.1988 45.7313 15.0536 45.6041C14.7767 45.3662 14.4934 45.1384 14.2084 44.9103C14.0711 44.79 13.9338 44.6697 13.7923 44.5457C13.7923 44.4382 13.7923 44.3307 13.7923 44.2199C13.7049 44.183 13.6176 44.146 13.5276 44.1079C13.0187 43.8267 12.6001 43.4591 12.1634 43.0797C11.9734 42.9167 11.7833 42.7538 11.5932 42.591C11.499 42.5095 11.4047 42.4281 11.3075 42.3441C11.1186 42.1835 10.9272 42.0256 10.7336 41.8707C10.4989 41.683 10.2716 41.4862 10.0458 41.2879C10.0458 41.1804 10.0458 41.0728 10.0458 40.9621C9.83073 40.8546 9.61572 40.7471 9.39418 40.6363C9.39418 40.5288 9.39418 40.4213 9.39418 40.3105C9.17916 40.2568 8.96414 40.203 8.74261 40.1476C8.74261 40.0401 8.74261 39.9326 8.74261 39.8218C8.58135 39.7681 8.42008 39.7143 8.25393 39.6589C8.25393 39.5514 8.25393 39.4439 8.25393 39.3331C8.16238 39.2912 8.07083 39.2492 7.9765 39.2059C7.55886 38.9843 7.2029 38.7259 6.82862 38.4372C6.69843 38.3381 6.56824 38.239 6.43411 38.1369C6.33584 38.0479 6.23757 37.9588 6.13632 37.8671C6.13632 37.7596 6.13632 37.6521 6.13632 37.5413C5.97506 37.4876 5.8138 37.4338 5.64765 37.3784C5.64765 37.2709 5.64765 37.1634 5.64765 37.0526C5.55357 37.0392 5.4595 37.0258 5.36258 37.0119C4.88955 36.8542 4.66419 36.615 4.3445 36.2382C4.3445 36.1307 4.3445 36.0232 4.3445 35.9124C4.25463 35.8727 4.16476 35.833 4.07217 35.7921C3.26957 35.3572 2.59669 34.7066 1.90111 34.1206C1.7726 34.0126 1.64409 33.9047 1.51169 33.7935C0.450752 32.8858 0.450752 32.8858 0.109287 32.3288C0.163042 32.1675 0.216797 32.0062 0.27218 31.8401C0.699482 31.6264 1.01598 31.6565 1.49447 31.6561C1.68202 31.6556 1.86957 31.6551 2.06281 31.6545C2.26625 31.6549 2.4697 31.6552 2.6793 31.6555C2.88739 31.6554 3.09547 31.6552 3.30986 31.6551C3.75066 31.655 4.19144 31.6552 4.63223 31.6559C5.19715 31.6569 5.76206 31.6563 6.32698 31.6554C6.86558 31.6546 7.40418 31.6551 7.94278 31.6555C8.1459 31.6552 8.34901 31.6549 8.55828 31.6545C8.74634 31.6551 8.93441 31.6556 9.12817 31.6561C9.37683 31.6563 9.37683 31.6563 9.63051 31.6565C10.0458 31.6772 10.0458 31.6772 10.5344 31.8401C10.4437 31.6822 10.353 31.5243 10.2596 31.3616C9.91831 30.7653 9.58605 30.1643 9.25547 29.5621C9.09629 29.2827 8.92097 29.0127 8.74261 28.7451C8.74261 28.5838 8.74261 28.4226 8.74261 28.2564C8.6351 28.2564 8.52759 28.2564 8.41682 28.2564C8.35299 28.1254 8.28916 27.9944 8.22339 27.8594C7.60016 26.6344 6.9289 25.4254 6.20441 24.2573C6.11475 24.1122 6.02509 23.9671 5.93271 23.8176C5.80546 23.6148 5.80546 23.6148 5.67564 23.4078C5.48475 23.0439 5.48475 23.0439 5.48475 22.5552C5.37724 22.5552 5.26973 22.5552 5.15897 22.5552C5.08967 22.4134 5.02038 22.2717 4.94899 22.1257C4.6893 21.6152 4.4121 21.1238 4.12052 20.631C4.02162 20.4622 3.92272 20.2934 3.82083 20.1194C3.63888 19.8089 3.45691 19.4984 3.27488 19.1879C3.20118 19.0594 3.12748 18.9309 3.05154 18.7985C2.98624 18.6857 2.92093 18.5729 2.85365 18.4568C2.71557 18.1571 2.71557 18.1571 2.71557 17.6684C2.55431 17.6146 2.39305 17.5609 2.22689 17.5055C2.03664 17.1804 2.03664 17.1804 1.87057 16.7827C1.8145 16.6518 1.75844 16.521 1.70067 16.3862C1.57532 16.0395 1.57532 16.0395 1.57532 15.7137C1.46781 15.7137 1.3603 15.7137 1.24954 15.7137C1.15379 15.5121 1.15379 15.5121 1.0561 15.3064C0.77054 14.755 0.445178 14.2763 0.0755635 13.7793C-0.113923 13.2715 0.0911433 12.9504 0.27218 12.4558ZM10.8602 32.3288C11.0231 32.8174 11.0231 32.8174 11.0231 32.8174L10.8602 32.3288ZM12.4891 35.2608C12.652 35.5866 12.652 35.5866 12.652 35.5866L12.4891 35.2608ZM13.6294 37.0526C13.7923 37.3784 13.7923 37.3784 13.7923 37.3784L13.6294 37.0526ZM14.7696 39.1703C14.9325 39.496 14.9325 39.496 14.9325 39.496L14.7696 39.1703ZM16.3986 41.9394C16.5615 42.2652 16.5615 42.2652 16.5615 42.2652L16.3986 41.9394ZM19.1678 46.9891C19.3306 47.3149 19.3306 47.3149 19.3306 47.3149L19.1678 46.9891Z" fill="#C5FF4A"/>
<path d="M149.033 0.0483861C149.165 0.0478439 149.297 0.0473018 149.432 0.0467432C149.71 0.0459189 149.988 0.0455363 150.266 0.0455625C150.691 0.0452064 151.116 0.0422477 151.541 0.0391597C151.812 0.0386818 152.082 0.0383585 152.352 0.0382053C152.479 0.0370348 152.606 0.0358644 152.737 0.0346584C153.378 0.0373565 153.812 0.0902419 154.369 0.401533C154.37 0.495947 154.37 0.59036 154.371 0.687635C154.388 2.9838 154.405 5.27995 154.424 7.5761C154.433 8.68649 154.442 9.79689 154.45 10.9073C154.458 11.9783 154.466 13.0492 154.475 14.1202C154.479 14.5294 154.482 14.9386 154.484 15.3479C154.488 15.9197 154.493 16.4915 154.498 17.0633C154.499 17.2336 154.5 17.404 154.501 17.5795C154.503 17.7351 154.504 17.8906 154.506 18.0509C154.507 18.1862 154.508 18.3214 154.509 18.4608C154.519 18.839 154.519 18.839 154.695 19.2971C154.995 19.427 154.995 19.427 155.346 19.5109C155.701 19.6305 155.701 19.6305 155.998 19.7858C156.181 20.2846 156.181 20.2846 156.161 20.7631C155.44 21.4838 154.195 21.4337 153.229 21.486C152.388 21.534 151.714 21.6732 150.933 21.9734C150.469 22.1121 150.101 22.0402 149.645 21.9034C149.482 21.7405 149.482 21.7405 149.472 21.3231C149.475 21.1921 149.479 21.061 149.482 20.926C149.075 21.0781 148.703 21.2295 148.335 21.4618C147.051 22.2617 145.573 22.2902 144.107 22.0663C143.505 21.8648 142.996 21.6165 142.478 21.2518C142.478 21.1443 142.478 21.0368 142.478 20.926C142.263 20.8723 142.048 20.8185 141.826 20.7631C141.826 20.6556 141.826 20.5481 141.826 20.4374C141.665 20.3836 141.504 20.3298 141.337 20.2745C141.099 20.0308 141.099 20.0308 140.859 19.7145C140.78 19.6139 140.701 19.5134 140.62 19.4097C139.755 17.9513 139.6 16.618 139.615 14.9517C139.617 14.5844 139.611 14.2179 139.605 13.8507C139.598 12.4088 139.79 11.2808 140.523 10.0122C140.623 9.81258 140.721 9.61245 140.818 9.41155C140.882 9.28724 140.946 9.16293 141.012 9.03486C141.119 9.03486 141.227 9.03486 141.337 9.03486C141.445 8.81984 141.552 8.60482 141.663 8.38328C141.771 8.38328 141.878 8.38328 141.989 8.38328C142.043 8.22202 142.096 8.06076 142.152 7.89461C142.259 7.89461 142.367 7.89461 142.478 7.89461C142.531 7.73334 142.585 7.57208 142.641 7.40593C142.977 7.29394 142.977 7.29394 143.292 7.24303C143.292 7.13552 143.292 7.02802 143.292 6.91725C144.863 6.52019 146.646 6.27842 148.179 6.91725C148.454 7.12992 148.726 7.3466 148.993 7.56882C149.005 6.78604 149.014 6.00332 149.02 5.22047C149.023 4.95407 149.026 4.68767 149.03 4.42128C149.036 4.03877 149.039 3.65634 149.041 3.27379C149.044 3.15433 149.046 3.03487 149.049 2.91178C149.055 2.54018 149.055 2.54018 148.993 2.03046C148.506 1.7058 148.389 1.67014 147.843 1.64359C147.202 1.54178 147.202 1.54178 146.937 1.24654C146.876 0.890211 146.876 0.890211 146.988 0.533883C147.458 -0.116092 148.306 0.0494215 149.033 0.0483861ZM145.898 9.36064C145.898 9.46815 145.898 9.57566 145.898 9.68643C145.791 9.68643 145.683 9.68643 145.573 9.68643C144.968 10.7637 144.901 11.7613 144.899 12.9799C144.899 13.0877 144.899 13.1954 144.899 13.3065C144.899 13.5326 144.899 13.7587 144.9 13.9849C144.901 14.328 144.9 14.6711 144.899 15.0142C144.899 15.2354 144.899 15.4566 144.899 15.6778C144.9 15.8762 144.9 16.0745 144.9 16.2788C144.931 17.1205 144.962 17.911 145.42 18.6354C145.524 18.8 145.628 18.9646 145.736 19.1342C145.843 19.1342 145.951 19.1342 146.061 19.1342C146.061 19.2417 146.061 19.3492 146.061 19.46C146.573 19.716 147.129 19.6606 147.69 19.6229C147.932 19.5423 147.932 19.5423 148.179 19.46C148.179 19.3525 148.179 19.245 148.179 19.1342C148.421 19.0536 148.421 19.0536 148.668 18.9713C149.035 18.6971 149.144 18.5575 149.219 18.1005C149.22 17.9502 149.221 17.7999 149.222 17.645C149.224 17.4743 149.226 17.3036 149.228 17.1277C149.228 16.9434 149.227 16.7591 149.227 16.5693C149.228 16.3799 149.229 16.1905 149.229 15.9954C149.231 15.5946 149.23 15.1938 149.229 14.793C149.228 14.1791 149.232 13.5655 149.237 12.9516C149.238 12.5625 149.238 12.1734 149.237 11.7843C149.239 11.6004 149.241 11.4164 149.243 11.2269C149.241 11.0557 149.24 10.8845 149.238 10.708C149.238 10.5576 149.238 10.4071 149.238 10.2521C149.131 9.72571 148.913 9.53515 148.505 9.19775C147.566 8.70362 146.752 8.70824 145.898 9.36064Z" fill="#C5FF4A"/>
<path d="M63.8261 0.0336295C64.0289 0.0326026 64.2317 0.0315756 64.4406 0.0305176C64.6614 0.0311008 64.8821 0.031769 65.1029 0.032516C65.3301 0.0322964 65.5573 0.0319801 65.7845 0.0315714C66.2603 0.0310916 66.7361 0.0317879 67.212 0.0333113C67.8207 0.0351657 68.4293 0.0340995 69.0381 0.0321475C69.5072 0.0309678 69.9763 0.0313461 70.4454 0.0321891C70.6698 0.0324059 70.8942 0.0321418 71.1186 0.0313813C71.4328 0.0305502 71.7469 0.0320424 72.0611 0.0336295C72.2397 0.0338887 72.4182 0.0341479 72.6021 0.0344149C73.0952 0.0766355 73.4536 0.193231 73.8998 0.40157C73.8998 0.724098 73.8998 1.04663 73.8998 1.37893C73.77 1.40664 73.6402 1.43436 73.5065 1.46292C72.5331 1.68555 71.7397 1.87238 70.9677 2.51918C70.7809 2.89284 70.7847 3.09963 70.7852 3.51491C70.785 3.65516 70.7848 3.79541 70.7845 3.93991C70.7851 4.0941 70.7857 4.2483 70.7863 4.40716C70.7863 4.56926 70.7862 4.73137 70.7862 4.89838C70.7863 5.43603 70.7876 5.97368 70.7889 6.51133C70.7892 6.88337 70.7894 7.25542 70.7896 7.62747C70.7902 8.60813 70.7918 9.58879 70.7936 10.5695C70.7953 11.5696 70.796 12.5697 70.7968 13.5698C70.7986 15.5332 70.8014 17.4966 70.8048 19.46C72.3211 20.2648 73.9854 20.1045 75.6101 19.6738C77.0778 19.1974 78.5462 18.3914 79.307 16.9816C79.3503 16.8857 79.3935 16.7897 79.4381 16.6909C79.5456 16.6909 79.6531 16.6909 79.7639 16.6909C79.7941 16.4994 79.7941 16.4994 79.825 16.304C79.9268 15.8764 79.9268 15.8764 80.2526 15.5506C80.3231 15.3658 80.3937 15.181 80.4664 14.9907C80.7624 14.3658 80.9194 14.17 81.5557 13.9217C81.9222 13.9522 81.9222 13.9522 82.2073 14.0846C82.6295 14.929 82.1814 16.2231 81.9693 17.1076C81.8273 17.7508 81.732 18.4014 81.6314 19.0522C81.5557 19.46 81.5557 19.46 81.3928 19.7858C81.3676 20.1555 81.3516 20.5246 81.3394 20.8949C81.2299 21.2519 81.2299 21.2519 80.923 21.5147C80.1829 21.844 79.5024 21.8073 78.7009 21.8012C78.5284 21.8018 78.3559 21.8024 78.1781 21.803C77.6084 21.8043 77.0388 21.8021 76.4691 21.7997C76.0734 21.7996 75.6776 21.7997 75.2819 21.8C74.4529 21.7999 73.624 21.7982 72.795 21.7953C71.731 21.7916 70.6671 21.7915 69.6031 21.7926C68.7862 21.7932 67.9693 21.7921 67.1524 21.7905C66.76 21.7898 66.3675 21.7897 65.9751 21.7899C65.4276 21.79 64.8801 21.7879 64.3326 21.7853C64.1696 21.7857 64.0066 21.7861 63.8387 21.7865C63.6898 21.7853 63.5409 21.7842 63.3875 21.783C63.1934 21.7825 63.1934 21.7825 62.9953 21.782C62.6601 21.7405 62.6601 21.7405 62.1715 21.4148C62.1409 20.9057 62.1409 20.9057 62.1715 20.4374C62.6111 20.1626 62.9778 20.0852 63.4848 20.0403C64.102 20.0021 64.102 20.0021 64.4418 19.7247C64.7487 19.2553 64.7983 18.842 64.7995 18.2975C64.8002 18.1605 64.8009 18.0234 64.8016 17.8822C64.8015 17.6576 64.8015 17.6576 64.8014 17.4283C64.802 17.2702 64.8025 17.112 64.8031 16.949C64.8046 16.4252 64.8049 15.9014 64.8051 15.3775C64.8056 15.0142 64.8062 14.6509 64.8068 14.2875C64.8077 13.5256 64.808 12.7637 64.8079 12.0018C64.8079 11.024 64.8101 10.0462 64.8129 9.06846C64.8148 8.31807 64.8151 7.56767 64.815 6.81727C64.8152 6.45668 64.8159 6.0961 64.8172 5.73551C64.8188 5.23203 64.8183 4.72858 64.8173 4.2251C64.8187 4.00041 64.8187 4.00041 64.8201 3.77118C64.8194 3.63416 64.8187 3.49713 64.818 3.35595C64.8181 3.23691 64.8182 3.11788 64.8183 2.99523C64.7944 2.62878 64.7944 2.62878 64.452 2.19339C63.7099 1.82964 62.9688 1.59047 62.1715 1.37893C62.1715 1.0564 62.1715 0.733872 62.1715 0.40157C62.7331 0.0594711 63.1744 0.0345764 63.8261 0.0336295Z" fill="#C5FF4A"/>
<path d="M63.472 29.3729C63.7729 29.3714 63.7729 29.3714 64.0799 29.3698C64.2989 29.3695 64.5179 29.3694 64.737 29.3692C64.9616 29.3687 65.1861 29.3682 65.4107 29.3676C65.8812 29.3666 66.3517 29.3663 66.8221 29.3664C67.4252 29.3664 68.0283 29.3642 68.6314 29.3614C69.095 29.3596 69.5587 29.3593 70.0224 29.3593C70.2447 29.3592 70.4671 29.3584 70.6895 29.3572C71.0002 29.3556 71.311 29.3563 71.6218 29.357C71.7986 29.3568 71.9755 29.3566 72.1577 29.3563C72.5966 29.3966 72.5966 29.3966 73.0853 29.7224C73.1362 30.1296 73.1362 30.1296 73.0853 30.5368C72.6635 30.9586 72.4293 30.9236 71.8432 30.9644C71.6798 30.9766 71.5165 30.9888 71.3482 31.0013C71.1598 31.0133 71.1598 31.0133 70.9676 31.0255C70.6977 31.7074 70.571 32.1197 70.8353 32.8173C70.9308 33.0358 71.0292 33.2531 71.1305 33.4689C71.2112 33.6604 71.2918 33.8519 71.3749 34.0492C71.4555 34.234 71.5361 34.4188 71.6192 34.6092C71.6965 34.7906 71.7738 34.972 71.8534 35.1589C72.0985 35.7277 72.3494 36.2935 72.6017 36.8591C72.8217 37.356 73.0341 37.8562 73.2481 38.3557C73.3564 38.6002 73.465 38.8445 73.5739 39.0887C73.8513 39.7107 74.1201 40.336 74.3884 40.962C74.7809 41.8647 74.7809 41.8647 75.2029 42.7538C75.623 41.8227 75.623 41.8227 76.0173 40.8805C76.1095 40.6501 76.2048 40.4207 76.31 40.1959C76.9072 38.9134 77.349 37.5741 77.8091 36.2381C77.9167 36.2381 78.0242 36.2381 78.1349 36.2381C78.15 35.966 78.15 35.966 78.1655 35.6883C78.2345 35.0908 78.4149 34.6898 78.7152 34.1714C79.2443 33.197 79.1887 32.2713 79.1123 31.1884C78.6128 30.9387 78.0867 30.9708 77.5343 30.9403C77.1576 30.8626 77.1576 30.8626 76.8318 30.374C76.8929 29.9362 76.8929 29.9362 76.9947 29.5595C77.6236 29.3499 78.2184 29.3733 78.8737 29.375C79.0776 29.3747 79.0776 29.3747 79.2856 29.3745C79.5727 29.3744 79.8598 29.3747 80.147 29.3754C80.5874 29.3762 81.0278 29.3754 81.4682 29.3743C81.747 29.3744 82.0258 29.3746 82.3046 29.375C82.5029 29.3745 82.5029 29.3745 82.7052 29.374C83.6358 29.3779 83.6358 29.3779 83.9991 29.5595C83.9991 29.9358 83.9991 30.3121 83.9991 30.6997C83.9008 30.7392 83.8025 30.7787 83.7013 30.8194C83.5711 30.874 83.4409 30.9286 83.3068 30.9848C83.114 31.0642 83.114 31.0642 82.9174 31.1452C82.1222 31.5717 81.7942 32.1025 81.4742 32.9293C81.4058 33.1021 81.3373 33.275 81.2668 33.453C81.2009 33.6195 81.1349 33.786 81.067 33.9576C80.9532 34.2162 80.838 34.4742 80.7209 34.7313C80.4797 35.2685 80.2671 35.8101 80.0648 36.3628C79.6872 37.3583 79.2635 38.3371 78.8374 39.3127C78.6211 39.8086 78.6211 39.8086 78.4728 40.2812C78.244 40.9583 77.9625 41.6081 77.6819 42.2651C77.4855 42.7486 77.3221 43.2362 77.1576 43.7312C77.0284 44.0548 76.896 44.3772 76.7605 44.6983C76.6534 44.9532 76.6534 44.9532 76.5442 45.2131C76.3873 45.5819 76.2286 45.9498 76.0682 46.3171C75.8519 46.813 75.8519 46.813 75.7036 47.2855C75.4749 47.9627 75.1933 48.6125 74.9127 49.2695C74.7164 49.7528 74.548 50.2391 74.3884 50.7356C74.2809 50.7356 74.1734 50.7356 74.0626 50.7356C74.0089 50.9506 73.9551 51.1656 73.8997 51.3871C73.3703 51.438 73.3703 51.438 72.7595 51.3871C72.1874 50.8615 72.0063 50.3239 71.7821 49.5953C71.6253 49.224 71.4596 48.8573 71.2934 48.4901C71.1572 48.1883 71.0261 47.8842 70.8964 47.5795C70.6887 47.0976 70.4739 46.6208 70.255 46.144C69.8816 45.3274 69.534 44.5019 69.1943 43.6707C69.0248 43.2508 69.0248 43.2508 68.8265 42.9008C68.6871 42.5909 68.6871 42.5909 68.6871 41.9393C68.5796 41.9393 68.4721 41.9393 68.3614 41.9393C68.2975 41.7579 68.2337 41.5765 68.1679 41.3896C67.9633 40.8401 67.7225 40.3232 67.4553 39.8014C67.1571 39.2183 66.9359 38.653 66.7324 38.0299C66.4712 37.4279 66.1939 36.8335 65.918 36.2381C65.7108 35.7844 65.5044 35.3303 65.2988 34.8758C65.1721 34.5971 65.0437 34.3192 64.9132 34.0422C64.5967 33.3601 64.3668 32.7607 64.289 32.0029C64.1278 31.9491 63.9665 31.8954 63.8004 31.84C63.676 31.709 63.5517 31.5779 63.4237 31.4429C62.9577 30.9987 62.6246 30.8573 62.0085 30.6997C61.8253 29.926 61.8253 29.926 62.0085 29.5595C62.5349 29.384 62.9183 29.3749 63.472 29.3729Z" fill="#C5FF4A"/>
<path d="M135.585 7.09048C136.411 7.78223 137.041 9.06816 137.146 10.1377C137.149 10.3831 137.149 10.3831 137.152 10.6334C137.154 10.8199 137.157 11.0063 137.16 11.1984C137.161 11.3983 137.162 11.5982 137.164 11.8042C137.167 12.0108 137.169 12.2174 137.172 12.4303C137.179 12.9784 137.185 13.5265 137.191 14.0747C137.198 14.8467 137.207 15.6187 137.217 16.3906C137.222 16.8013 137.227 17.2119 137.23 17.6225C137.232 17.809 137.235 17.9954 137.237 18.1876C137.238 18.3511 137.24 18.5147 137.241 18.6832C137.265 19.1302 137.293 19.5213 137.428 19.9488C137.804 20.12 138.185 20.2828 138.568 20.4375C138.802 20.7938 138.802 20.7938 138.894 21.0891C138.568 21.5778 138.568 21.5778 138.08 21.7407C137.856 21.7578 137.631 21.7665 137.406 21.7695C137.204 21.7726 137.204 21.7726 136.998 21.7758C136.78 21.7776 136.78 21.7776 136.558 21.7795C136.409 21.7808 136.259 21.7821 136.105 21.7835C135.788 21.7857 135.472 21.7875 135.155 21.7887C134.671 21.7915 134.187 21.7987 133.703 21.8059C133.396 21.8075 133.088 21.8089 132.781 21.81C132.564 21.8143 132.564 21.8143 132.342 21.8187C131.333 21.8151 131.333 21.8151 130.816 21.4105C130.74 21.3045 130.664 21.1984 130.586 21.0891C130.892 20.295 130.892 20.295 131.075 20.1117C131.347 20.1051 131.618 20.1048 131.89 20.1117C131.897 18.8727 131.903 17.6337 131.906 16.3947C131.908 15.8193 131.91 15.244 131.914 14.6686C131.918 14.0067 131.92 13.3448 131.921 12.6829C131.924 12.3739 131.924 12.3739 131.927 12.0586C131.927 11.8663 131.927 11.6739 131.927 11.4757C131.928 11.2224 131.928 11.2224 131.929 10.9639C131.887 10.4729 131.787 10.1246 131.564 9.68659C131.1 9.40302 130.866 9.338 130.331 9.44288C130.193 9.49979 130.056 9.55669 129.915 9.61532C129.776 9.66929 129.638 9.72325 129.496 9.77885C129.026 10.0711 128.879 10.3341 128.632 10.8268C128.557 11.2596 128.557 11.2596 128.563 11.719C128.561 11.8935 128.558 12.0679 128.555 12.2477C128.555 12.4344 128.555 12.621 128.555 12.8134C128.554 13.0063 128.553 13.1992 128.552 13.398C128.55 13.8052 128.549 14.2124 128.55 14.6196C128.55 15.2442 128.543 15.8685 128.536 16.4931C128.535 16.8887 128.535 17.2842 128.535 17.6798C128.532 17.8671 128.53 18.0544 128.527 18.2475C128.528 18.4209 128.53 18.5943 128.532 18.773C128.531 18.9258 128.531 19.0785 128.531 19.2358C128.598 19.6602 128.598 19.6602 129.015 19.9002C129.157 19.97 129.299 20.0398 129.446 20.1117C129.935 20.4375 129.935 20.4375 130.088 20.7429C130.098 21.0891 130.098 21.0891 129.874 21.4315C129.223 21.9019 128.615 21.8309 127.832 21.8215C127.675 21.8217 127.518 21.8219 127.356 21.8222C127.025 21.8219 126.693 21.82 126.362 21.8167C125.854 21.8119 125.346 21.8133 124.838 21.8154C124.516 21.8144 124.194 21.813 123.872 21.8113C123.719 21.8118 123.567 21.8122 123.41 21.8127C123.269 21.8107 123.128 21.8086 122.982 21.8065C122.858 21.8056 122.733 21.8047 122.605 21.8038C122.188 21.7231 122.038 21.594 121.79 21.252C121.841 20.7328 121.841 20.7328 121.953 20.2746C122.185 20.2242 122.185 20.2242 122.421 20.1728C122.967 20.0015 122.967 20.0015 123.122 19.5074C123.254 18.9794 123.299 18.5342 123.301 17.9912C123.303 17.8015 123.304 17.6118 123.306 17.4163C123.305 17.1124 123.305 17.1124 123.305 16.8023C123.306 16.5923 123.307 16.3823 123.307 16.166C123.309 15.7228 123.309 15.2796 123.308 14.8364C123.307 14.2696 123.31 13.703 123.313 13.1363C123.316 12.5936 123.316 12.051 123.315 11.5083C123.317 11.3054 123.318 11.1024 123.32 10.8933C123.319 10.7041 123.318 10.5149 123.317 10.32C123.317 10.154 123.317 9.98803 123.317 9.81703C123.245 9.28001 123.089 8.97952 122.768 8.54634C122.511 8.38507 122.511 8.38507 122.248 8.22055C121.79 7.89477 121.79 7.89477 121.699 7.46717C121.79 7.0803 121.79 7.0803 122.279 6.75452C122.713 6.72265 123.129 6.70889 123.562 6.71125C123.75 6.71078 123.75 6.71078 123.941 6.7103C124.205 6.71008 124.47 6.71068 124.734 6.71204C125.139 6.71379 125.544 6.71206 125.949 6.70997C126.205 6.71019 126.462 6.71061 126.718 6.71125C126.84 6.71059 126.961 6.70993 127.087 6.70925C127.943 6.71706 127.943 6.71706 128.306 7.0803C128.422 7.40341 128.532 7.72913 128.632 8.05766C128.793 8.0039 128.954 7.95015 129.12 7.89477C129.174 7.7335 129.228 7.57224 129.283 7.40609C131.105 6.1917 133.596 6.30421 135.585 7.09048Z" fill="#C5FF4A"/>
<path d="M106.641 35.6883C106.764 35.6865 106.887 35.6846 107.014 35.6826C107.911 35.6872 108.593 35.864 109.41 36.2381C109.491 36.3994 109.491 36.3994 109.573 36.5639C109.735 36.6176 109.896 36.6714 110.062 36.7268C111.201 38.1864 111.27 39.5049 111.257 41.291C111.258 41.5107 111.259 41.7305 111.26 41.9502C111.265 42.8779 111.264 43.8055 111.261 44.7332C111.259 45.3029 111.261 45.8726 111.266 46.4423C111.267 46.7638 111.264 47.0854 111.261 47.4068C111.262 47.6015 111.264 47.7962 111.265 47.9968C111.265 48.1683 111.265 48.3398 111.264 48.5165C111.325 48.9775 111.325 48.9775 111.748 49.2269C111.89 49.2947 112.033 49.3626 112.18 49.4324C112.668 49.7582 112.668 49.7582 112.79 50.084C112.831 50.4098 112.831 50.4098 112.668 50.7356C112.213 50.8873 111.939 50.9191 111.469 50.9195C111.326 50.9201 111.183 50.9206 111.036 50.9211C110.882 50.9208 110.728 50.9204 110.57 50.9201C110.333 50.9203 110.333 50.9203 110.091 50.9206C109.757 50.9207 109.423 50.9204 109.089 50.9197C108.576 50.9188 108.063 50.9197 107.55 50.9207C107.227 50.9206 106.903 50.9204 106.579 50.9201C106.347 50.9206 106.347 50.9206 106.111 50.9211C105.969 50.9206 105.827 50.9201 105.681 50.9195C105.555 50.9194 105.43 50.9193 105.301 50.9192C105.012 50.8985 105.012 50.8985 104.849 50.7356C104.829 50.1654 104.829 50.1654 104.849 49.5953C105.012 49.4324 105.012 49.4324 105.43 49.4223C105.561 49.4256 105.692 49.429 105.827 49.4324C105.977 48.4122 106.013 47.4207 106.011 46.3903C106.011 46.2264 106.012 46.0626 106.012 45.8938C106.012 45.5487 106.012 45.2035 106.011 44.8584C106.01 44.3352 106.011 43.8119 106.012 43.2886C106.012 42.9515 106.012 42.6144 106.011 42.2772C106.012 42.1231 106.012 41.969 106.012 41.8102C106.009 40.7596 105.938 39.7261 105.827 38.6815C105.037 38.6499 104.445 38.7194 103.709 39.0073C103.558 39.051 103.407 39.0946 103.251 39.1396C103.133 39.2035 103.016 39.2673 102.895 39.3331C102.736 39.8981 102.711 40.4378 102.711 41.0222C102.71 41.2782 102.71 41.2782 102.709 41.5394C102.709 41.722 102.71 41.9046 102.71 42.0927C102.71 42.2816 102.71 42.4706 102.71 42.6652C102.71 43.0641 102.71 43.4629 102.711 43.8617C102.711 44.4727 102.711 45.0836 102.71 45.6945C102.71 46.0821 102.71 46.4697 102.71 46.8573C102.71 47.0402 102.709 47.2232 102.709 47.4116C102.71 47.5818 102.71 47.752 102.711 47.9273C102.711 48.0768 102.711 48.2262 102.711 48.3802C102.73 48.7542 102.789 49.0743 102.895 49.4324C103.022 49.4257 103.15 49.419 103.282 49.4121C103.709 49.4324 103.709 49.4324 104.035 49.7582C104.076 50.1654 104.076 50.1654 104.035 50.5727C103.637 50.9704 103.535 50.9395 102.989 50.9406C102.766 50.9422 102.766 50.9422 102.538 50.9437C102.377 50.9431 102.216 50.9424 102.05 50.9417C101.885 50.942 101.72 50.9424 101.549 50.9427C101.2 50.9429 100.851 50.9423 100.501 50.9409C99.9648 50.9392 99.4286 50.9409 98.8923 50.943C98.5534 50.9428 98.2145 50.9424 97.8755 50.9417C97.7143 50.9424 97.5531 50.9431 97.3871 50.9437C97.1636 50.9422 97.1636 50.9422 96.9357 50.9406C96.8043 50.9404 96.6729 50.9401 96.5375 50.9398C96.2161 50.8985 96.2161 50.8985 95.8903 50.5727C95.8496 50.1654 95.8496 50.1654 95.8903 49.7582C96.2161 49.4324 96.2161 49.4324 96.6437 49.4121C96.7713 49.4188 96.899 49.4255 97.0305 49.4324C97.0843 49.2174 97.138 49.0024 97.1934 48.7809C97.3009 48.7809 97.4084 48.7809 97.5192 48.7809C97.5192 45.2868 97.5192 41.7928 97.5192 38.1928C97.4117 38.1928 97.3042 38.1928 97.1934 38.1928C97.0859 38.0316 96.9784 37.8703 96.8676 37.7041C96.5999 37.5866 96.3284 37.4771 96.0532 37.3784C95.8903 37.2155 95.8903 37.2155 95.8597 36.8184C95.8903 36.401 95.8903 36.401 96.2161 36.0752C96.6561 36.0407 97.079 36.0257 97.5192 36.0262C97.6481 36.0255 97.7771 36.0248 97.9099 36.0241C98.1827 36.0232 98.4554 36.0231 98.7282 36.0238C99.1465 36.0243 99.5647 36.0205 99.983 36.0164C100.248 36.016 100.512 36.0159 100.777 36.016C100.965 36.0138 100.965 36.0138 101.158 36.0115C101.51 36.0146 101.51 36.0146 102.08 36.0752C102.397 36.5505 102.48 36.8287 102.569 37.3784C102.73 37.3246 102.891 37.2708 103.058 37.2155C103.111 37.0542 103.165 36.8929 103.22 36.7268C103.382 36.673 103.543 36.6193 103.709 36.5639C103.763 36.4564 103.817 36.3489 103.872 36.2381C104.821 35.8038 105.605 35.6724 106.641 35.6883Z" fill="#C5FF4A"/>
<path d="M125.649 36.0262C125.769 36.0255 125.89 36.0248 126.014 36.0241C126.268 36.0232 126.522 36.0231 126.776 36.0238C127.164 36.0243 127.553 36.0205 127.941 36.0163C128.188 36.016 128.435 36.0159 128.683 36.016C128.798 36.0145 128.914 36.013 129.033 36.0115C129.502 36.0158 129.869 36.0427 130.292 36.2526C130.73 36.7154 130.665 37.0671 130.66 37.696C130.661 37.8104 130.661 37.9249 130.661 38.0428C130.66 38.421 130.655 38.799 130.65 39.1772C130.649 39.4394 130.648 39.7017 130.647 39.9639C130.645 40.6541 130.638 41.3441 130.631 42.0342C130.625 42.7385 130.622 43.4427 130.618 44.147C130.611 45.5288 130.6 46.9104 130.586 48.2922C130.816 48.3253 131.046 48.3563 131.276 48.3863C131.404 48.4038 131.531 48.4213 131.663 48.4393C132.43 48.4703 133.048 48.1461 133.695 47.7683C134.044 47.5002 134.044 47.5002 134.089 47.0697C134.089 46.9073 134.089 46.745 134.089 46.5777C134.09 46.3934 134.092 46.2091 134.094 46.0192C134.092 45.8202 134.09 45.6212 134.088 45.4161C134.088 45.1097 134.088 45.1097 134.089 44.7972C134.089 44.3649 134.087 43.9329 134.083 43.5007C134.079 42.9469 134.079 42.3932 134.081 41.8394C134.083 41.3111 134.08 40.7828 134.078 40.2544C134.078 40.0554 134.079 39.8563 134.079 39.6513C134.077 39.467 134.075 39.2827 134.073 39.0929C134.072 38.9305 134.071 38.7681 134.07 38.6008C133.997 38.1292 133.896 37.9864 133.519 37.7041C133.193 37.5831 133.193 37.5831 132.847 37.5209C132.215 37.3783 132.215 37.3783 132.053 37.2154C132.046 36.944 132.046 36.6724 132.053 36.401C132.681 35.983 133.342 36.0254 134.069 36.0262C134.201 36.0255 134.332 36.0248 134.468 36.0241C134.746 36.0232 135.024 36.0231 135.301 36.0238C135.727 36.0243 136.152 36.0205 136.578 36.0163C136.848 36.016 137.118 36.0159 137.388 36.016C137.515 36.0145 137.642 36.013 137.774 36.0115C138.643 36.0189 138.643 36.0189 139.009 36.2531C139.329 36.7244 139.284 37.1229 139.288 37.6882C139.289 37.8019 139.29 37.9156 139.292 38.0327C139.296 38.4085 139.297 38.7842 139.297 39.16C139.3 39.4211 139.302 39.6821 139.305 39.9432C139.312 40.6307 139.316 41.3182 139.319 42.0057C139.325 43.1062 139.335 44.2067 139.345 45.3072C139.348 45.6918 139.35 46.0765 139.352 46.4612C139.354 46.6967 139.355 46.9323 139.357 47.1678C139.358 47.3736 139.359 47.5794 139.36 47.7914C139.36 48.2987 139.36 48.2987 139.546 48.7808C139.727 48.801 139.908 48.8212 140.095 48.8419C140.686 48.9437 140.686 48.9437 141.012 49.2695C140.921 50.0116 140.921 50.0116 140.686 50.2469C140.321 50.315 139.955 50.3741 139.588 50.4295C139.362 50.4646 139.135 50.4997 138.908 50.5348C138.55 50.5895 138.192 50.6439 137.834 50.6977C137.489 50.7499 137.144 50.8034 136.799 50.8571C136.592 50.8885 136.384 50.9198 136.171 50.9522C135.707 51.0468 135.395 51.168 134.985 51.3871C134.414 51.3057 134.414 51.3057 134.17 51.0613C134.147 50.6263 134.163 50.194 134.17 49.7582C134.063 49.7582 133.955 49.7582 133.844 49.7582C133.844 49.8657 133.844 49.9732 133.844 50.084C133.361 50.2452 133.361 50.2452 132.867 50.4098C132.867 50.5173 132.867 50.6248 132.867 50.7356C131.387 51.4123 129.883 51.7038 128.288 51.2395C127.903 51.0871 127.533 50.9252 127.166 50.7356C127.166 50.628 127.166 50.5205 127.166 50.4098C127.041 50.3695 126.917 50.3291 126.789 50.2876C126.293 50.057 126.136 49.9004 125.863 49.4324C125.746 49.1093 125.637 48.7836 125.537 48.4551C125.483 48.3475 125.429 48.24 125.374 48.1293C125.356 47.8158 125.348 47.5018 125.346 47.1879C125.343 46.9906 125.341 46.7932 125.339 46.5899C125.336 46.2687 125.336 46.2687 125.334 45.941C125.331 45.7199 125.329 45.4987 125.326 45.2776C125.314 44.3375 125.305 43.3973 125.296 42.4571C125.291 41.8821 125.284 41.3072 125.277 40.7323C125.273 40.4065 125.271 40.0806 125.269 39.7548C125.266 39.5569 125.263 39.3591 125.26 39.1552C125.259 38.9808 125.257 38.8063 125.255 38.6266C125.241 38.1559 125.241 38.1559 124.885 37.7041C124.51 37.5296 124.13 37.3653 123.745 37.2154C123.745 36.9467 123.745 36.6779 123.745 36.401C124.351 36.0096 124.951 36.0253 125.649 36.0262Z" fill="#C5FF4A"/>
<path d="M118.369 7.89479C118.45 8.13669 118.45 8.13669 118.532 8.38347C118.64 8.38347 118.747 8.38347 118.858 8.38347C119.647 9.44969 119.608 10.443 119.609 11.7374C119.612 11.9491 119.614 12.1608 119.617 12.3789C119.624 12.9383 119.628 13.4977 119.63 14.0572C119.633 14.6294 119.64 15.2016 119.647 15.7738C119.659 16.894 119.667 18.0142 119.673 19.1344C120.177 19.2775 120.472 19.2964 120.976 19.1344C121.302 19.6231 121.302 19.6231 121.312 20.0812C121.033 20.9175 120.453 21.3069 119.713 21.7477C118.687 22.2187 117.516 22.2077 116.415 22.0665C115.702 21.7679 115.197 21.2527 114.786 20.6004C114.467 20.7594 114.148 20.9191 113.831 21.0834C113.5 21.2536 113.166 21.4156 112.831 21.5778C112.646 21.6719 112.462 21.7659 112.271 21.8629C111.025 22.3012 109.421 22.3417 108.198 21.8336C107.264 21.254 106.633 20.7307 106.275 19.674C106.107 18.9239 106.174 18.2548 106.315 17.5055C106.346 17.3442 106.376 17.1829 106.407 17.0168C107.195 15.3725 108.577 14.5531 110.225 13.9218C110.44 13.9218 110.655 13.9218 110.876 13.9218C110.876 13.8143 110.876 13.7068 110.876 13.596C111.559 13.364 112.238 13.1362 112.933 12.9445C113.34 12.8237 113.701 12.6959 114.087 12.5271C114.264 12.4498 114.441 12.3725 114.623 12.2929C114.636 11.8788 114.646 11.4651 114.653 11.0508C114.658 10.9347 114.662 10.8186 114.666 10.699C114.677 9.91488 114.567 9.38977 114.134 8.70925C114.027 8.6555 113.919 8.60174 113.808 8.54636C113.808 8.43885 113.808 8.33134 113.808 8.22058C112.948 8.22058 112.088 8.22058 111.202 8.22058C111.095 8.48935 110.987 8.75812 110.876 9.03504C111.013 9.37208 111.013 9.37208 111.263 9.66625C111.697 10.302 111.833 10.6945 111.691 11.4784C111.366 12.1549 111.052 12.5429 110.357 12.8427C110.206 12.8763 110.055 12.9099 109.899 12.9445C109.738 13.0251 109.738 13.0251 109.573 13.1074C108.663 13.2132 108.2 12.9322 107.456 12.4558C107.456 12.3483 107.456 12.2408 107.456 12.13C107.348 12.13 107.241 12.13 107.13 12.13C106.733 10.9848 106.803 10.0374 107.13 8.87215C107.515 8.20745 107.865 7.95536 108.596 7.7319C108.596 7.62439 108.596 7.51688 108.596 7.40611C108.808 7.29815 109.023 7.19368 109.237 7.09051C109.356 7.03192 109.475 6.97334 109.598 6.91298C112.117 6.05277 116.286 6.17781 118.369 7.89479ZM113.238 14.7567C113.086 14.8545 112.933 14.9524 112.775 15.0532C112.22 15.4822 111.783 15.9116 111.569 16.5892C111.485 17.4668 111.463 18.1656 111.854 18.9715C112.716 19.1475 113.315 19.1485 114.134 18.8086C114.563 18.4411 114.765 18.1573 114.838 17.5918C114.85 17.1101 114.843 16.6331 114.827 16.1514C114.822 15.9006 114.822 15.9006 114.818 15.6446C114.81 15.2331 114.799 14.8219 114.786 14.4105C114.092 14.1915 113.847 14.357 113.238 14.7567Z" fill="#C5FF4A"/>
<path d="M94.4242 7.89457C94.8578 8.28419 95.0525 8.47631 95.2387 9.03482C95.4 9.11545 95.4 9.11545 95.5645 9.19771C96.063 10.1289 96.289 11.0516 96.3529 12.0992C96.3694 12.4768 96.3694 12.4768 96.5011 12.9137C96.5598 13.4271 96.348 13.6763 96.0532 14.0845C95.7996 14.3381 95.5517 14.274 95.1989 14.2808C94.9788 14.2857 94.9788 14.2857 94.7542 14.2907C94.5947 14.2934 94.4352 14.2961 94.2709 14.2989C94.0272 14.304 94.0272 14.304 93.7786 14.3092C93.2574 14.3199 92.7362 14.3295 92.215 14.339C91.8626 14.346 91.5102 14.3532 91.1578 14.3603C90.2919 14.3778 89.426 14.3944 88.5601 14.4103C88.7647 15.6677 88.9749 16.923 89.7004 17.9939C89.7004 18.1014 89.7004 18.2089 89.7004 18.3197C90.963 18.9637 91.8338 19.2185 93.2535 18.9286C93.6393 18.845 93.6393 18.845 93.7727 18.4826C93.9591 18.3717 93.9591 18.3717 94.1494 18.2586C94.5985 18.0167 94.5985 18.0167 94.9027 17.6376C95.2387 17.3424 95.2387 17.3424 95.7477 17.2813C96.2161 17.3424 96.2161 17.3424 96.5419 17.6681C96.489 18.2886 96.4024 18.6103 96.0532 19.1342C95.9457 19.1342 95.8382 19.1342 95.7274 19.1342C95.7169 19.2268 95.7064 19.3194 95.6956 19.4148C95.3318 20.4442 93.9076 21.2294 92.9888 21.7506C91.5056 22.3649 89.2896 22.408 87.7673 21.8817C87.3565 21.695 86.9799 21.5026 86.6054 21.2518C86.6054 21.1443 86.6054 21.0368 86.6054 20.926C86.3904 20.8722 86.1753 20.8185 85.9538 20.7631C85.9538 20.6556 85.9538 20.5481 85.9538 20.4373C85.7388 20.3836 85.5238 20.3298 85.3022 20.2744C85.3022 20.1669 85.3022 20.0594 85.3022 19.9486C85.141 19.8949 84.9797 19.8411 84.8136 19.7857C84.7598 19.6245 84.7061 19.4632 84.6507 19.2971C84.5432 19.2433 84.4357 19.1896 84.3249 19.1342C83.8263 18.2792 83.5787 17.376 83.4118 16.4076C83.3554 16.0466 83.3554 16.0466 83.2597 15.7312C83.1576 15.2638 83.1569 14.8171 83.1541 14.339C83.1518 14.1578 83.1495 13.9766 83.1471 13.7899C83.1848 13.268 83.3063 12.9316 83.5104 12.4556C83.557 12.1748 83.5975 11.893 83.6326 11.6106C83.938 9.85156 85.0466 8.56108 86.4527 7.52806C88.9607 6.03394 92.056 6.21103 94.4242 7.89457ZM89.1506 8.53596C88.459 9.83938 88.3972 10.7359 88.3972 12.2927C89.5798 12.2927 90.7624 12.2927 91.9809 12.2927C92.0405 10.8908 92.0205 9.78975 91.3293 8.54614C90.9414 8.15825 90.8232 8.16412 90.2908 8.14909C89.7405 8.16496 89.5896 8.17783 89.1506 8.53596Z" fill="#C5FF4A"/>
<path d="M88.7638 35.6885C88.9717 35.6889 88.9717 35.6889 89.1838 35.6893C90.1876 35.7089 90.968 35.8377 91.818 36.4011C91.9927 36.5053 92.1674 36.6094 92.3474 36.7167C93.9171 37.894 94.6629 39.2316 95.0759 41.125C95.2373 42.3414 95.2373 42.3414 95.0759 42.9168C94.3416 43.5272 93.5939 43.4824 92.6853 43.4889C92.5346 43.4918 92.3839 43.4947 92.2286 43.4977C91.749 43.5065 91.2694 43.5121 90.7898 43.5175C90.4639 43.5229 90.138 43.5285 89.8121 43.5344C89.0147 43.5482 88.2173 43.5591 87.4199 43.5684C87.4169 43.8028 87.4147 44.0371 87.4129 44.2715C87.4116 44.402 87.4103 44.5326 87.409 44.667C87.4409 45.7382 88.0809 47.1829 88.8586 47.9258C89.6786 48.3986 90.7069 48.3417 91.6144 48.1905C92.2533 47.9202 92.7283 47.5661 93.284 47.1521C93.3916 47.1521 93.4991 47.1521 93.6098 47.1521C93.6905 46.9102 93.6905 46.9102 93.7727 46.6634C94.1527 46.6565 94.533 46.6567 94.913 46.6634C95.0759 46.8263 95.0759 46.8263 95.1573 47.2335C95.0184 48.206 94.3322 48.937 93.592 49.5579C93.284 49.7583 93.284 49.7583 92.9583 49.7583C92.8776 50.0002 92.8776 50.0002 92.7954 50.247C92.5345 50.4201 92.5345 50.4201 92.2049 50.5728C92.0986 50.6232 91.9924 50.6736 91.8829 50.7255C91.754 50.7826 91.6251 50.8397 91.4922 50.8986C91.3188 50.9845 91.1453 51.0704 90.9666 51.1588C90.2886 51.4466 89.6559 51.4681 88.9267 51.4585C88.7338 51.4572 88.7338 51.4572 88.5371 51.4559C87.1009 51.4187 85.654 51.0173 84.5693 50.023C84.4886 49.9357 84.408 49.8483 84.3249 49.7583C84.1234 49.5668 84.1234 49.5668 83.9177 49.3715C83.5403 48.9752 83.2955 48.5987 83.0218 48.1294C82.9143 48.0757 82.8068 48.0219 82.696 47.9665C82.0144 46.5422 81.9395 45.1219 81.9528 43.5684C81.9489 43.3605 81.945 43.1527 81.941 42.9385C81.9437 41.2071 82.3768 39.7955 83.3476 38.3558C83.4551 38.3558 83.5626 38.3558 83.6734 38.3558C83.7271 38.1408 83.7809 37.9258 83.8363 37.7043C83.9438 37.7043 84.0513 37.7043 84.162 37.7043C84.162 37.5968 84.162 37.4892 84.162 37.3785C84.2662 37.3617 84.3703 37.3449 84.4777 37.3276C84.5885 37.2906 84.6994 37.2537 84.8136 37.2156C84.8674 37.0543 84.9211 36.8931 84.9765 36.7269C85.2845 36.5481 85.2845 36.5481 85.6688 36.3909C85.794 36.3387 85.9191 36.2864 86.048 36.2325C86.1782 36.1806 86.3084 36.1288 86.4425 36.0753C86.5618 36.0163 86.6811 35.9573 86.804 35.8965C87.4574 35.6846 88.0807 35.6871 88.7638 35.6885ZM87.6152 37.8143C87.3878 38.2551 87.3014 38.6292 87.2265 39.1194C87.2006 39.2779 87.1748 39.4365 87.1482 39.5998C87.0822 40.2681 87.0941 40.9422 87.0941 41.6137C88.223 41.6137 89.3518 41.6137 90.5149 41.6137C90.5263 40.7186 90.5305 39.8292 90.464 38.9361C90.4545 38.8087 90.4451 38.6812 90.4353 38.5499C90.3288 38.0935 90.2038 37.8659 89.8633 37.5414C89.3978 37.438 89.3978 37.438 88.8859 37.4599C88.7146 37.4582 88.5433 37.4566 88.3667 37.4548C87.8998 37.5008 87.8998 37.5008 87.6152 37.8143Z" fill="#C5FF4A"/>
<path d="M164.594 36.1764C166.079 37.0945 167.312 38.2089 167.862 39.9191C167.94 40.2663 167.998 40.6106 168.052 40.962C168.106 41.1233 168.159 41.2845 168.215 41.4507C168.259 41.8019 168.259 41.8019 168.276 42.1837C168.284 42.3097 168.292 42.4357 168.3 42.5655C168.215 42.9167 168.215 42.9167 167.903 43.18C167.191 43.499 166.559 43.4662 165.788 43.4531C165.634 43.4524 165.48 43.4518 165.321 43.451C164.83 43.4483 164.338 43.4422 163.847 43.436C163.513 43.4335 163.18 43.4313 162.846 43.4293C162.029 43.4239 161.213 43.4155 160.396 43.4054C160.419 43.6644 160.443 43.9234 160.468 44.1823C160.481 44.3266 160.494 44.4708 160.508 44.6194C160.574 45.1603 160.718 45.6564 160.885 46.1746C160.946 46.3882 161.007 46.602 161.068 46.816C161.115 46.9806 161.162 47.1452 161.21 47.3148C161.318 47.3148 161.425 47.3148 161.536 47.3148C161.64 47.4459 161.744 47.5769 161.852 47.7119C162.57 48.3129 163.227 48.3146 164.142 48.2922C165.093 48.1363 165.561 47.7696 166.26 47.152C166.367 47.152 166.475 47.152 166.586 47.152C166.586 47.0444 166.586 46.9369 166.586 46.8262C167.072 46.5833 167.517 46.6438 168.052 46.6633C168.215 46.8262 168.215 46.8262 168.266 47.2741C168.204 47.9182 168.015 48.1659 167.563 48.618C167.456 48.618 167.348 48.618 167.237 48.618C167.076 48.9405 167.076 48.9405 166.912 49.2696C166.804 49.2696 166.697 49.2696 166.586 49.2696C166.505 49.5115 166.505 49.5115 166.423 49.7582C166.315 49.7582 166.208 49.7582 166.097 49.7582C166.016 50.0001 166.016 50.0001 165.934 50.2469C165.679 50.42 165.679 50.42 165.354 50.5727C165.25 50.6231 165.145 50.6735 165.038 50.7254C164.903 50.7825 164.769 50.8396 164.631 50.8985C164.49 50.9612 164.49 50.9612 164.346 51.0251C163.512 51.3718 162.782 51.4708 161.882 51.4584C161.753 51.457 161.624 51.4555 161.492 51.454C159.66 51.3998 158.355 50.6162 156.975 49.4325C155.242 47.4154 154.899 45.1776 155.02 42.5909C155.22 40.2687 155.907 38.5813 157.709 37.0259C158.054 36.7722 158.374 36.5671 158.757 36.3807C158.91 36.3044 158.91 36.3044 159.067 36.2267C160.712 35.5186 162.948 35.3637 164.594 36.1764ZM160.757 37.7309C160.498 38.1218 160.396 38.4804 160.284 38.936C160.243 39.0942 160.202 39.2523 160.16 39.4152C160.028 40.1568 160.028 40.1568 160.07 41.6136C161.253 41.6136 162.435 41.6136 163.654 41.6136C163.707 39.4993 163.707 39.4993 163.002 37.5413C162.687 37.5281 162.371 37.5186 162.055 37.5107C161.88 37.5051 161.704 37.4994 161.523 37.4935C161.057 37.5035 161.057 37.5035 160.757 37.7309Z" fill="#C5FF4A"/>
<path d="M100.076 0.024505C100.439 0.0250195 100.802 0.0211967 101.165 0.0170682C101.397 0.0166979 101.629 0.0165834 101.861 0.0167501C102.071 0.0162645 102.281 0.0157789 102.497 0.0152786C103.144 0.0852787 103.395 0.117844 103.872 0.564605C104.002 1.17309 103.984 1.77944 103.979 2.3995C103.981 2.58863 103.983 2.77777 103.985 2.97264C103.989 3.59935 103.988 4.22591 103.987 4.85263C103.989 5.28654 103.992 5.72043 103.995 6.15434C104.001 7.18063 104.003 8.20689 104.003 9.23321C104.004 10.4016 104.009 11.57 104.015 12.7384C104.027 15.1419 104.033 17.5454 104.035 19.9489C104.192 19.9921 104.348 20.0354 104.51 20.0799C104.675 20.1442 104.841 20.2084 105.012 20.2746C105.236 20.7837 105.236 20.7837 105.338 21.252C105.079 21.5617 104.933 21.7249 104.529 21.8016C104.408 21.8015 104.286 21.8014 104.161 21.8013C104.023 21.8023 103.885 21.8034 103.743 21.8044C103.594 21.8029 103.445 21.8014 103.292 21.7999C103.139 21.7999 102.986 21.8 102.828 21.8001C102.504 21.7997 102.18 21.7981 101.856 21.7954C101.36 21.7916 100.864 21.7921 100.368 21.7932C100.053 21.7923 99.7385 21.7911 99.4236 21.7897C99.2753 21.7898 99.127 21.79 98.9742 21.7901C98.8356 21.7886 98.697 21.787 98.5542 21.7854C98.3719 21.7843 98.3719 21.7843 98.186 21.7831C97.7983 21.7349 97.531 21.6069 97.1934 21.4149C97.134 20.6818 97.134 20.6818 97.3868 20.3357C97.6821 20.1118 97.6821 20.1118 98.1007 19.9561C98.5183 19.6715 98.5183 19.6715 98.5742 19.3027C98.6068 18.8604 98.6121 18.4241 98.6097 17.9805C98.6119 17.8118 98.6141 17.643 98.6164 17.4691C98.6225 16.9098 98.6225 16.3506 98.6219 15.7913C98.6237 15.4031 98.6257 15.015 98.6278 14.6269C98.6312 13.8127 98.6314 12.9985 98.6296 12.1842C98.6277 11.1403 98.6354 10.0966 98.6458 9.0527C98.6524 8.25084 98.653 7.44907 98.6519 6.6472C98.6523 6.26232 98.6547 5.87744 98.6592 5.49259C98.6648 4.95425 98.6622 4.41655 98.6574 3.87822C98.6608 3.71893 98.6642 3.55965 98.6677 3.39554C98.6589 2.95664 98.6413 2.60831 98.4966 2.19353C98.1742 1.90608 97.873 1.7298 97.4808 1.5507C97.3859 1.49406 97.2911 1.43742 97.1934 1.37907C97.112 0.839486 97.112 0.839486 97.1934 0.401712C98.0471 -0.13904 99.1018 0.0216065 100.076 0.024505Z" fill="#C5FF4A"/>
<path d="M174.303 35.7087C174.437 35.7074 174.572 35.7061 174.71 35.7048C175.538 35.7075 176.213 35.8349 177.011 36.0752C177.429 36.0874 177.429 36.0874 177.805 36.0243C177.991 36 177.991 36 178.18 35.9753C178.479 35.94 178.479 35.94 178.64 35.7494C179.037 35.7188 179.037 35.7188 179.454 35.7494C179.78 36.0752 179.78 36.0752 179.817 36.5308C179.815 36.7202 179.814 36.9096 179.812 37.1047C179.811 37.3094 179.81 37.5142 179.809 37.7251C179.805 38.0473 179.805 38.0473 179.8 38.376C179.799 38.5943 179.797 38.8125 179.796 39.0308C179.792 39.5659 179.787 40.101 179.78 40.6362C179.319 40.8666 178.986 40.851 178.477 40.7991C177.967 40.348 177.761 39.6478 177.51 39.027C177.221 38.4511 176.971 38.2339 176.359 38.0299C176.279 37.8686 176.279 37.8686 176.196 37.7041C175.796 37.6953 175.396 37.6888 174.995 37.6837C174.881 37.681 174.768 37.6783 174.65 37.6755C174.351 37.6726 174.052 37.6873 173.753 37.7041C173.378 38.0075 173.378 38.0075 173.395 38.4893C173.399 38.6669 173.403 38.8446 173.407 39.0276C173.411 39.2953 173.411 39.2953 173.416 39.5684C173.42 39.7058 173.423 39.8431 173.427 39.9846C173.569 40.0555 173.569 40.0555 173.714 40.1278C173.939 40.2403 174.163 40.3535 174.387 40.4675C175.089 40.8232 175.798 41.1423 176.522 41.4506C177.553 41.9213 178.707 42.5317 179.454 43.4053C179.454 43.5129 179.454 43.6204 179.454 43.7311C179.562 43.7311 179.669 43.7311 179.78 43.7311C180.597 44.9565 180.58 46.2211 180.432 47.6406C180.273 48.1729 180.073 48.6353 179.78 49.1066C179.673 49.1066 179.565 49.1066 179.454 49.1066C179.417 49.1973 179.38 49.288 179.342 49.3815C178.776 50.3785 177.891 50.944 176.828 51.2885C175.6 51.547 174.257 51.5637 173.101 51.0613C172.774 50.9878 172.445 50.9235 172.114 50.8679C171.947 50.8387 171.781 50.8095 171.609 50.7794C171.173 50.738 170.896 50.7236 170.495 50.8984C170.441 51.0597 170.388 51.2209 170.332 51.3871C169.956 51.3333 169.58 51.2796 169.192 51.2242C169.18 50.4646 169.171 49.7051 169.165 48.9454C169.163 48.6869 169.159 48.4284 169.155 48.17C169.149 47.7988 169.147 47.4277 169.144 47.0564C169.141 46.8826 169.141 46.8826 169.137 46.7052C169.137 46.3792 169.137 46.3792 169.192 45.8487C169.681 45.5229 169.681 45.5229 170.088 45.5331C170.646 45.7426 170.732 45.9632 170.984 46.5003C171.063 46.7205 171.141 46.9411 171.218 47.1621C171.419 47.7301 171.671 48.0491 172.124 48.455C172.124 48.5625 172.124 48.67 172.124 48.7808C172.321 48.8564 172.321 48.8564 172.521 48.9335C172.939 49.1066 172.939 49.1066 173.101 49.2695C173.436 49.3169 173.773 49.3522 174.109 49.3815C174.293 49.3989 174.477 49.4163 174.666 49.4343C175.255 49.4323 175.66 49.3453 176.196 49.1066C176.51 48.5442 176.528 48.1989 176.471 47.5591C175.839 46.2476 174.421 45.8748 173.129 45.4084C172.394 45.1076 171.787 44.6825 171.147 44.2198C171.039 44.1661 170.932 44.1123 170.821 44.0569C170.821 43.9494 170.821 43.8419 170.821 43.7311C170.68 43.6858 170.68 43.6858 170.536 43.6395C170.008 43.3023 169.791 42.8093 169.518 42.2651C169.459 42.1698 169.4 42.0744 169.34 41.9762C168.966 41.0581 169.036 39.687 169.321 38.7432C169.487 38.4066 169.487 38.4066 169.844 37.867C169.931 37.7326 170.018 37.5982 170.108 37.4598C170.182 37.3791 170.256 37.2985 170.332 37.2154C170.44 37.2154 170.547 37.2154 170.658 37.2154C170.712 37.0541 170.766 36.8929 170.821 36.7267C171.202 36.485 171.558 36.2712 171.961 36.0752C172.077 36.0157 172.192 35.9563 172.311 35.8951C172.977 35.6861 173.609 35.7022 174.303 35.7087Z" fill="#C5FF4A"/>
<path d="M119.459 30.9847C119.836 31.1884 119.836 31.1884 119.999 31.5141C120.012 31.8571 120.016 32.2005 120.014 32.5437C120.014 32.7484 120.013 32.9531 120.013 33.1641C120.011 33.4863 120.011 33.4863 120.009 33.815C120.008 34.0333 120.007 34.2515 120.006 34.4698C120.005 35.0049 120.002 35.54 119.999 36.0751C120.183 36.0695 120.367 36.0638 120.557 36.058C120.799 36.0534 121.04 36.0489 121.281 36.0446C121.464 36.0385 121.464 36.0385 121.65 36.0322C122.003 36.0274 122.003 36.0274 122.605 36.0751C123.061 36.7591 122.909 37.0723 122.768 37.867C122.149 38.486 121.035 38.1345 120.161 38.1927C120.161 41.418 120.161 44.6433 120.161 47.9663C120.269 47.9663 120.376 47.9663 120.487 47.9663C120.487 48.0738 120.487 48.1813 120.487 48.2921C120.81 48.2921 121.132 48.2921 121.465 48.2921C121.465 48.1846 121.465 48.0771 121.465 47.9663C121.75 47.6851 121.75 47.6851 122.116 47.3758C122.237 47.2729 122.358 47.1701 122.483 47.064C122.577 46.9855 122.671 46.907 122.768 46.8261C123.17 47.0137 123.427 47.1596 123.745 47.4776C123.745 47.6389 123.745 47.8002 123.745 47.9663C123.638 47.9663 123.53 47.9663 123.419 47.9663C123.406 48.1108 123.392 48.2553 123.379 48.4041C123.24 49.0155 123.038 49.3118 122.605 49.7581C122.497 49.7581 122.39 49.7581 122.279 49.7581C122.198 50 122.198 50 122.116 50.2468C121.001 51.1393 119.756 51.4909 118.333 51.4431C117.148 51.2963 116.242 50.8698 115.479 49.949C114.722 48.6384 114.71 47.4418 114.703 45.9556C114.7 45.731 114.697 45.5065 114.694 45.2819C114.686 44.6949 114.681 44.108 114.677 43.5209C114.672 42.9203 114.664 42.3197 114.657 41.7191C114.643 40.5437 114.632 39.3682 114.623 38.1927C114.442 38.1759 114.26 38.1592 114.073 38.1418C113.781 38.0864 113.781 38.0864 113.483 38.0299C113.157 37.5412 113.157 37.5412 113.177 37.2358C113.368 36.772 113.634 36.4434 113.971 36.0751C114.079 36.0751 114.186 36.0751 114.297 36.0751C114.351 35.9139 114.405 35.7526 114.46 35.5865C114.568 35.5865 114.675 35.5865 114.786 35.5865C114.84 35.4252 114.893 35.2639 114.949 35.0978C115.218 34.8772 115.489 34.6601 115.763 34.4462C115.871 34.2849 115.978 34.1237 116.089 33.9575C116.197 33.9575 116.304 33.9575 116.415 33.9575C116.471 33.8297 116.471 33.8297 116.528 33.6992C116.814 33.1703 117.17 32.7028 117.535 32.2268C117.606 32.1315 117.676 32.0361 117.749 31.9379C118.65 30.7589 118.65 30.7589 119.459 30.9847Z" fill="#C5FF4A"/>
<path d="M150.785 35.7493C152.843 35.6478 152.843 35.6478 153.646 36.014C153.777 36.1417 153.908 36.2694 154.043 36.4009C154.198 36.5319 154.352 36.663 154.511 36.798C155.023 37.4432 154.949 38.199 154.95 38.9875C154.814 39.7334 154.435 40.0968 153.894 40.6011C153.237 40.9836 152.496 40.8974 151.763 40.799C151.34 40.6275 151.128 40.462 150.785 40.1474C150.785 40.0399 150.785 39.9324 150.785 39.8217C150.624 39.7679 150.463 39.7142 150.297 39.6588C150.216 39.4975 150.216 39.4975 150.134 39.333C149.273 39.4476 149.273 39.4476 148.505 39.8217C148.39 40.1536 148.39 40.1536 148.384 40.5441C148.375 40.6906 148.366 40.837 148.356 40.988C148.333 41.742 148.322 42.4943 148.326 43.2488C148.326 43.4948 148.326 43.4948 148.327 43.7458C148.327 44.2635 148.33 44.7812 148.332 45.2989C148.332 45.6525 148.333 46.0061 148.334 46.3596C148.336 47.221 148.338 48.0823 148.342 48.9437C148.818 49.1906 149.241 49.3443 149.767 49.4527C149.897 49.48 150.027 49.5073 150.162 49.5354C150.309 49.565 150.309 49.565 150.459 49.5952C150.459 49.9715 150.459 50.3478 150.459 50.7355C150.058 50.936 149.79 50.9212 149.342 50.9246C149.177 50.9262 149.012 50.9278 148.843 50.9294C148.664 50.9301 148.486 50.9308 148.302 50.9315C148.119 50.9324 147.936 50.9333 147.748 50.9343C147.361 50.9358 146.974 50.9369 146.587 50.9375C145.993 50.9391 145.4 50.9441 144.806 50.9493C144.431 50.9503 144.055 50.9512 143.68 50.9518C143.501 50.9538 143.323 50.9558 143.14 50.9579C142.974 50.9574 142.809 50.9569 142.639 50.9564C142.493 50.957 142.348 50.9576 142.198 50.9582C141.75 50.8861 141.604 50.7724 141.337 50.4097C141.307 50.0025 141.307 50.0025 141.5 49.5952C141.831 49.4352 142.154 49.3299 142.508 49.2325C142.606 49.191 142.703 49.1494 142.803 49.1066C142.981 48.5726 142.989 48.1753 142.993 47.6132C142.995 47.3025 142.995 47.3025 142.997 46.9856C142.998 46.7593 142.999 46.5331 142.999 46.3068C143 46.075 143.001 45.8431 143.002 45.6112C143.004 45.1254 143.005 44.6396 143.005 44.1538C143.006 43.5309 143.01 42.9082 143.015 42.2854C143.018 41.8066 143.019 41.3279 143.019 40.8491C143.02 40.6195 143.021 40.3898 143.023 40.1602C143.026 39.8393 143.025 39.5184 143.024 39.1975C143.025 39.0148 143.026 38.8322 143.026 38.644C143.003 38.1936 143.003 38.1936 142.751 37.8977C142.363 37.6231 141.953 37.5092 141.5 37.3783C141.388 37.0016 141.388 37.0016 141.337 36.5638C141.499 36.2958 141.499 36.2958 141.826 36.0751C142.265 36.0285 142.665 36.0105 143.104 36.0159C143.228 36.0159 143.353 36.0158 143.482 36.0157C143.745 36.0161 144.009 36.0177 144.272 36.0204C144.675 36.0242 145.078 36.0237 145.482 36.0226C145.738 36.0235 145.994 36.0247 146.25 36.0261C146.37 36.026 146.491 36.0258 146.615 36.0257C147.224 36.0341 147.497 36.0547 148.016 36.4009C148.209 36.9914 148.209 36.9914 148.342 37.5412C148.849 37.3401 148.849 37.3401 149.146 36.8998C149.385 36.4352 149.668 36.297 150.134 36.0751C150.349 36.0751 150.564 36.0751 150.785 36.0751C150.785 35.9676 150.785 35.8601 150.785 35.7493Z" fill="#C5FF4A"/>
</g>
<defs>
<clipPath id="clip0_5602_18198">
<rect width="181" height="51" fill="white"/>
</clipPath>
</defs>
</svg>
