<svg width="181" height="51" viewBox="0 0 181 51" fill="none" xmlns="http://www.w3.org/2000/svg">
<g clip-path="url(#clip0_5601_15396)">
<path d="M48.2948 50.5446H40.9131V14.6223H48.2948V50.5446Z" fill="#C5FF4A"/>
<path d="M74.9685 13.917C79.0432 13.917 82.3725 15.3462 84.9519 18.2037C87.5277 21.0616 88.8192 24.695 88.8192 29.1002V50.5409H81.437V30.2249C81.437 27.4599 80.5467 25.1737 78.7651 23.3702C76.9835 21.5663 74.783 20.6645 72.1589 20.6645C69.2048 20.6645 66.7922 21.5663 64.9181 23.3702C63.0439 25.1737 62.1048 27.4599 62.1048 30.2249V50.5409H54.7231V14.6222H62.1048V23.9009C63.0882 20.809 64.7175 18.371 66.9928 16.5894C69.264 14.8078 71.925 13.917 74.9721 13.917H74.9685Z" fill="#C5FF4A"/>
<path d="M111.833 13.917C117.597 13.917 122.284 15.9808 125.891 20.1038C129.499 24.2309 130.976 29.2192 130.319 35.0791H100.584C101.1 37.9854 102.436 40.3419 104.592 42.1458C106.748 43.9493 109.346 44.8515 112.394 44.8515C114.735 44.8515 116.832 44.2761 118.684 43.1291C120.536 41.9826 121.976 40.4235 123.008 38.4531L129.195 41.1957C127.602 44.2424 125.327 46.6773 122.377 48.5067C119.427 50.3367 116.027 51.2498 112.182 51.2498C106.793 51.2498 102.269 49.4682 98.6131 45.9091C94.9574 42.35 93.1279 37.9184 93.1279 32.6224C93.1279 27.3264 94.9205 22.8874 98.5055 19.2987C102.091 15.7136 106.53 13.9211 111.829 13.9211L111.833 13.917ZM111.833 20.3153C109.113 20.3153 106.76 21.1469 104.767 22.8131C102.774 24.4762 101.449 26.6435 100.795 29.3154H122.871C122.262 26.6435 120.959 24.4762 118.97 22.8131C116.977 21.1505 114.598 20.3153 111.833 20.3153Z" fill="#C5FF4A"/>
<path d="M150.728 13.917C155.04 13.917 158.555 15.0417 161.271 17.291C163.989 19.5399 165.35 22.7762 165.35 26.9922V50.5445H157.969V40.9842C155.764 47.8279 151.336 51.2498 144.682 51.2498C141.586 51.2498 139.011 50.3257 136.947 48.4735C134.884 46.6217 133.856 44.1982 133.856 41.1994C133.856 37.6845 135.096 35.0459 137.582 33.2902C140.065 31.5351 143.231 30.4437 147.072 30.0206L154.031 29.3154C156.655 29.082 157.969 27.909 157.969 25.801C157.969 24.0677 157.3 22.6832 155.965 21.6552C154.628 20.6235 152.884 20.1079 150.728 20.1079C148.571 20.1079 146.66 20.6718 145.138 21.7965C143.617 22.9207 142.644 24.5614 142.221 26.7178L134.91 24.9585C135.567 21.585 137.322 18.9016 140.184 16.9085C143.042 14.919 146.556 13.9211 150.728 13.9211V13.917ZM147.072 45.2709C150.119 45.2709 152.694 44.2502 154.803 42.2123C156.911 40.175 157.965 37.7962 157.965 35.0755V33.1083C157.404 34.0475 156.042 34.6301 153.886 34.864L147.068 35.7064C145.287 35.9439 143.869 36.4673 142.815 37.2874C141.761 38.1076 141.234 39.2213 141.234 40.6277C141.234 42.0346 141.761 43.1588 142.815 44.0012C143.869 44.8437 145.287 45.2668 147.068 45.2668L147.072 45.2709Z" fill="#C5FF4A"/>
<path d="M35.8284 50.5446H1.73218V14.6223H9.53341V43.5855H35.8284V50.5446Z" fill="#C5FF4A"/>
<path d="M172.309 13.9174C176.153 13.9174 179.268 10.8019 179.268 6.9588C179.268 3.11556 176.153 0 172.309 0C168.466 0 165.35 3.11556 165.35 6.9588C165.35 10.8019 168.466 13.9174 172.309 13.9174Z" fill="#C5FF4A"/>
</g>
<defs>
<clipPath id="clip0_5601_15396">
<rect width="181" height="51" fill="white"/>
</clipPath>
</defs>
</svg>
