<svg width="252" height="168" viewBox="0 0 252 168" fill="none" xmlns="http://www.w3.org/2000/svg">
<g clip-path="url(#clip0_5602_35314)">
<rect width="252" height="168" fill="black"/>
<path fill-rule="evenodd" clip-rule="evenodd" d="M79.5 131L92.5 134L108 133V96.5L156 93V74.5L172.5 73V52.3452C172.5 44.8335 167.016 38.7282 160 37.5492C159.591 37.4806 158.254 37.1638 156.543 36.7583C152.548 35.8117 146.515 34.382 145.5 34.5C144.051 34.6685 131.884 40.2228 131.884 40.2228L149.5 56.6771L108 61V74.5L92.5 87L79.5 131Z" fill="black"/>
<path d="M92.5 134L92.3876 134.487L92.459 134.504L92.5322 134.499L92.5 134ZM79.5 131L79.0205 130.858L78.87 131.368L79.3876 131.487L79.5 131ZM108 133L108.032 133.499L108.5 133.469V133H108ZM108 96.5L107.964 96.0013L107.5 96.0351V96.5H108ZM156 93L156.036 93.4986L156.5 93.4648V93H156ZM156 74.5L155.955 74.002L155.5 74.0434V74.5H156ZM172.5 73L172.545 73.4979L173 73.4566V73H172.5ZM160 37.5492L159.917 38.0423L159.917 38.0423L160 37.5492ZM156.543 36.7583L156.659 36.2718L156.659 36.2718L156.543 36.7583ZM145.5 34.5L145.442 34.0033L145.442 34.0033L145.5 34.5ZM131.884 40.2228L131.676 39.7679L130.996 40.0782L131.542 40.5882L131.884 40.2228ZM149.5 56.6771L149.552 57.1744L150.643 57.0607L149.841 56.3117L149.5 56.6771ZM108 61L107.948 60.5027L107.5 60.5493V61H108ZM108 74.5L108.314 74.8892L108.5 74.7391V74.5H108ZM92.5 87L92.1861 86.6108L92.0647 86.7087L92.0205 86.8583L92.5 87ZM108 78.5H107.5V79.1099L108.098 78.9903L108 78.5ZM108 61H108.5V60.6022L108.112 60.5128L108 61ZM143 71.5L143.112 71.0128L143.008 70.9886L142.902 71.0097L143 71.5ZM92.6124 133.513L79.6124 130.513L79.3876 131.487L92.3876 134.487L92.6124 133.513ZM107.968 132.501L92.4678 133.501L92.5322 134.499L108.032 133.499L107.968 132.501ZM107.5 96.5V133H108.5V96.5H107.5ZM155.964 92.5013L107.964 96.0013L108.036 96.9986L156.036 93.4986L155.964 92.5013ZM155.5 74.5V93H156.5V74.5H155.5ZM172.455 72.502L155.955 74.002L156.045 74.9979L172.545 73.4979L172.455 72.502ZM172 52.3452V73H173V52.3452H172ZM159.917 38.0423C166.699 39.182 172 45.0849 172 52.3452H173C173 44.5821 167.332 38.2743 160.083 37.0561L159.917 38.0423ZM156.428 37.2449C158.125 37.6468 159.487 37.97 159.917 38.0423L160.083 37.0561C159.696 36.9911 158.384 36.6807 156.659 36.2718L156.428 37.2449ZM145.558 34.9967C145.623 34.989 145.779 34.9918 146.047 35.0213C146.303 35.0495 146.627 35.0975 147.007 35.1628C147.768 35.2932 148.734 35.4887 149.799 35.7187C151.927 36.1784 154.43 36.7713 156.428 37.2449L156.659 36.2718C154.662 35.7988 152.15 35.2035 150.01 34.7412C148.94 34.5102 147.958 34.3112 147.176 34.1772C146.786 34.1102 146.441 34.0585 146.157 34.0273C145.885 33.9975 145.63 33.9815 145.442 34.0033L145.558 34.9967ZM131.884 40.2228C132.091 40.6776 132.091 40.6776 132.092 40.6776C132.092 40.6775 132.092 40.6775 132.092 40.6774C132.092 40.6772 132.093 40.677 132.094 40.6767C132.095 40.676 132.097 40.675 132.1 40.6737C132.106 40.671 132.115 40.667 132.126 40.6618C132.149 40.6513 132.183 40.6358 132.228 40.6154C132.317 40.5748 132.448 40.5151 132.616 40.4391C132.951 40.2871 133.432 40.0697 134.013 39.8083C135.175 39.2854 136.739 38.5866 138.349 37.8827C139.959 37.1785 141.611 36.4706 142.949 35.9287C143.618 35.6576 144.205 35.4298 144.667 35.2653C145.149 35.0933 145.443 35.01 145.558 34.9967L145.442 34.0033C145.195 34.0322 144.791 34.1592 144.331 34.3233C143.85 34.4947 143.248 34.7285 142.573 35.0018C141.223 35.5488 139.561 36.2611 137.948 36.9665C136.334 37.6722 134.767 38.3725 133.602 38.8963C133.02 39.1582 132.539 39.3761 132.203 39.5285C132.035 39.6047 131.903 39.6645 131.814 39.7053C131.769 39.7257 131.734 39.7413 131.711 39.7519C131.7 39.7572 131.691 39.7612 131.685 39.7639C131.682 39.7652 131.68 39.7662 131.678 39.7669C131.678 39.7672 131.677 39.7675 131.677 39.7677C131.676 39.7678 131.676 39.7678 131.676 39.7679C131.676 39.7679 131.676 39.7679 131.884 40.2228ZM149.841 56.3117L132.225 39.8574L131.542 40.5882L149.159 57.0425L149.841 56.3117ZM108.052 61.4973L149.552 57.1744L149.448 56.1797L107.948 60.5027L108.052 61.4973ZM108.5 74.5V61H107.5V74.5H108.5ZM92.8139 87.3892L108.314 74.8892L107.686 74.1108L92.1861 86.6108L92.8139 87.3892ZM79.9795 131.142L92.9795 87.1417L92.0205 86.8583L79.0205 130.858L79.9795 131.142ZM108.5 78.5V61H107.5V78.5H108.5ZM108.112 132.513L95.1124 129.513L94.8876 130.487L107.888 133.487L108.112 132.513ZM156.112 92.5128L143.112 89.5128L142.888 90.4872L155.888 93.4872L156.112 92.5128ZM172.608 72.5119L159.108 69.5119L158.892 70.4881L172.392 73.4881L172.608 72.5119ZM108.112 60.5128L95.1124 57.5128L94.8876 58.4872L107.888 61.4872L108.112 60.5128ZM108.112 96.0128L95.1124 93.0128L94.8876 93.9872L107.888 96.9872L108.112 96.0128ZM108.098 78.9903L143.098 71.9903L142.902 71.0097L107.902 78.0097L108.098 78.9903ZM142.888 71.9872L155.888 74.9872L156.112 74.0128L143.112 71.0128L142.888 71.9872Z" fill="#C5FF4A"/>
<path fill-rule="evenodd" clip-rule="evenodd" d="M79.5 59.4999V131L95 130V93.4999L143 89.9999V71.5L95 75.5V57.9999L143 53V71.4999L159.5 69.9999V49.3452C159.5 41.8335 154.016 35.7282 147 34.5492C145.637 34.3202 144.217 34.2771 142.767 34.4456L95 39.9999V57.9999L79.5 59.4999Z" fill="black"/>
<path d="M79.5 131H79V131.533L79.5322 131.499L79.5 131ZM79.5 59.4999L79.4518 59.0023L79 59.046V59.4999H79.5ZM95 130L95.0322 130.499L95.5 130.469V130H95ZM95 93.4999L94.9636 93.0013L94.5 93.0351V93.4999H95ZM143 89.9999L143.036 90.4986L143.5 90.4648V89.9999H143ZM143 71.5H143.5V70.9566L142.958 71.0017L143 71.5ZM95 75.5H94.5V76.0434L95.0415 75.9983L95 75.5ZM143 53H143.5V52.4452L142.948 52.5027L143 53ZM143 71.4999H142.5V72.0475L143.045 71.9979L143 71.4999ZM159.5 69.9999L159.545 70.4979L160 70.4566V69.9999H159.5ZM147 34.5492L147.083 34.0561L147.083 34.0561L147 34.5492ZM142.767 34.4456L142.71 33.9489L142.71 33.9489L142.767 34.4456ZM95 39.9999L94.9422 39.5033L94.5 39.5547V39.9999H95ZM95 57.9999L94.9482 57.5026L94.5 57.5493V57.9999H95ZM92.5 134L92.3876 134.487L92.4595 134.504L92.5333 134.499L92.5 134ZM80 131V59.4999H79V131H80ZM94.9678 129.501L79.4678 130.501L79.5322 131.499L95.0322 130.499L94.9678 129.501ZM94.5 93.4999V130H95.5V93.4999H94.5ZM142.964 89.5013L94.9636 93.0013L95.0364 93.9986L143.036 90.4986L142.964 89.5013ZM142.5 71.5V89.9999H143.5V71.5H142.5ZM142.958 71.0017L94.9585 75.0017L95.0415 75.9983L143.042 71.9983L142.958 71.0017ZM95.5 75.5V57.9999H94.5V75.5H95.5ZM95.0518 58.4973L143.052 53.4973L142.948 52.5027L94.9482 57.5026L95.0518 58.4973ZM142.5 53V71.4999H143.5V53H142.5ZM159.455 69.502L142.955 71.002L143.045 71.9979L159.545 70.4979L159.455 69.502ZM159 49.3452V69.9999H160V49.3452H159ZM146.917 35.0423C153.699 36.182 159 42.0849 159 49.3452H160C160 41.582 154.332 35.2743 147.083 34.0561L146.917 35.0423ZM142.825 34.9422C144.227 34.7792 145.6 34.821 146.917 35.0423L147.083 34.0561C145.674 33.8194 144.206 33.7749 142.71 33.9489L142.825 34.9422ZM95.0578 40.4966L142.825 34.9422L142.71 33.9489L94.9422 39.5033L95.0578 40.4966ZM95.5 57.9999V39.9999H94.5V57.9999H95.5ZM79.5482 59.9976L95.0482 58.4976L94.9518 57.5023L79.4518 59.0023L79.5482 59.9976ZM142.948 52.5027L94.9482 57.5026L95.0518 58.4973L143.052 53.4973L142.948 52.5027ZM95.5 75.5V57.9999H94.5V75.5H95.5ZM79.3876 131.487L92.3876 134.487L92.6124 133.513L79.6124 130.513L79.3876 131.487ZM92.5333 134.499L107.533 133.499L107.467 132.501L92.4667 133.501L92.5333 134.499Z" fill="#C5FF4A"/>
</g>
<defs>
<clipPath id="clip0_5602_35314">
<rect width="252" height="168" fill="white"/>
</clipPath>
</defs>
</svg>
