<svg width="320" height="260" viewBox="0 0 320 260" fill="none" xmlns="http://www.w3.org/2000/svg">
<path fill-rule="evenodd" clip-rule="evenodd" d="M197.584 48.0001C202.416 48.0001 206.334 44.0826 206.334 39.2501V10.0835C206.334 5.251 202.416 1.3335 197.584 1.3335L121.75 1.3335C116.918 1.3335 113 5.251 113 10.0835V39.2501C113 44.0826 116.918 48.0001 121.75 48.0001H127.584C132.416 48.0001 136.334 51.9176 136.334 56.7501V74.2501C136.334 79.0826 132.416 83.0001 127.584 83.0001H121.75C116.918 83.0001 113 86.9176 113 91.7501V97.5834C113 102.416 109.083 106.333 104.25 106.333H86.7503C81.9179 106.333 78.0003 102.416 78.0003 97.5834V91.75C78.0003 86.9176 74.0828 83.0001 69.2504 83.0001H40.0837C35.2512 83.0001 31.3337 86.9176 31.3337 91.75V167.583C31.3337 172.416 35.2512 176.333 40.0837 176.333H69.2504C74.0828 176.333 78.0003 172.416 78.0003 167.583V161.75C78.0003 156.917 81.9179 153 86.7503 153H104.25C109.083 153 113 156.917 113 161.75V167.583C113 172.416 116.918 176.333 121.75 176.333H127.584C132.416 176.333 136.334 180.251 136.334 185.083V202.583C136.334 207.416 132.417 211.333 127.584 211.333H121.75C116.918 211.333 113 215.251 113 220.083V249.25C113 254.082 116.918 258 121.75 258H197.584C202.416 258 206.334 254.082 206.334 249.25V220.083C206.334 215.251 202.416 211.333 197.584 211.333H191.751C186.918 211.333 183.001 207.416 183.001 202.583V185.083C183.001 180.251 186.918 176.333 191.751 176.333H197.584C202.416 176.333 206.334 172.416 206.334 167.583V161.75C206.334 156.917 210.251 153 215.084 153H232.583C237.416 153 241.333 156.917 241.333 161.75V167.583C241.333 172.416 245.251 176.333 250.083 176.333H279.25C284.083 176.333 288 172.416 288 167.583V91.75C288 86.9176 284.083 83.0001 279.25 83.0001H250.083C245.251 83.0001 241.333 86.9176 241.333 91.75V97.5834C241.333 102.416 237.416 106.333 232.583 106.333H215.084C210.251 106.333 206.334 102.416 206.334 97.5834V91.7501C206.334 86.9176 202.416 83.0001 197.584 83.0001H191.751C186.918 83.0001 183.001 79.0826 183.001 74.2501V56.7501C183.001 51.9176 186.918 48.0001 191.751 48.0001H197.584ZM113 126.75C113 121.918 109.083 118 104.25 118H86.7503C81.9179 118 78.0003 121.918 78.0003 126.75V132.583C78.0003 137.416 81.9179 141.333 86.7503 141.333H104.25C109.083 141.333 113 137.416 113 132.583V126.75ZM206.334 126.75C206.334 121.918 210.251 118 215.084 118H232.583C237.416 118 241.333 121.918 241.333 126.75V132.583C241.333 137.416 237.416 141.333 232.583 141.333H215.084C210.251 141.333 206.334 137.416 206.334 132.583V126.75ZM171.334 56.7501C171.334 51.9176 167.416 48.0001 162.584 48.0001H156.751C151.918 48.0001 148.001 51.9176 148.001 56.7501V74.2501C148.001 79.0826 151.918 83.0001 156.751 83.0001H162.584C167.416 83.0001 171.334 79.0826 171.334 74.2501V56.7501ZM171.334 185.083C171.334 180.251 167.416 176.333 162.584 176.333H156.751C151.918 176.333 148.001 180.251 148.001 185.083V202.583C148.001 207.416 151.918 211.333 156.751 211.333H162.584C167.416 211.333 171.334 207.416 171.334 202.583V185.083Z" fill="#C5FF4A"/>
</svg>
