<svg width="181" height="51" viewBox="0 0 181 51" fill="none" xmlns="http://www.w3.org/2000/svg">
<g clip-path="url(#clip0_5602_18210)">
<path d="M43.0586 0.0116941C43.1561 0.0110575 43.2536 0.0104209 43.3541 0.00976504C43.4626 0.0102022 43.5711 0.0106608 43.6796 0.0111387C43.7946 0.0108241 43.9097 0.010411 44.0247 0.00990778C44.3414 0.00881406 44.658 0.00913875 44.9747 0.00969408C45.316 0.01005 45.6573 0.0091083 45.9986 0.00833508C46.6674 0.00703619 47.3363 0.00697579 48.0051 0.00737059C48.5487 0.0076751 49.0922 0.00756697 49.6358 0.0071633C49.7517 0.00707862 49.7517 0.00707862 49.8699 0.00699223C50.0269 0.00687672 50.1839 0.00676069 50.3409 0.00664414C51.8141 0.005608 53.2872 0.00601967 54.7604 0.00688439C56.1087 0.00763355 57.457 0.00665765 58.8053 0.00485282C60.189 0.00301456 61.5727 0.00228803 62.9564 0.0027901C63.7335 0.00305385 64.5106 0.0028829 65.2878 0.00156433C65.9494 0.000455733 66.611 0.000403552 67.2726 0.00172054C67.6103 0.00236414 67.9479 0.00252038 68.2856 0.00136968C68.5946 0.000329566 68.9036 0.000678911 69.2126 0.002142C69.3245 0.00242696 69.4364 0.00220132 69.5482 0.00141702C69.7002 0.000427253 69.8522 0.00147497 70.0042 0.00262369C70.0886 0.00263178 70.173 0.00263988 70.26 0.00264822C70.5515 0.049483 70.7173 0.160698 70.9474 0.342088C71.0517 0.550749 71.0325 0.718971 71.0327 0.952612C71.033 1.0513 71.0333 1.14999 71.0336 1.25167C71.0336 1.36224 71.0335 1.47281 71.0334 1.58337C71.0336 1.70001 71.0339 1.81665 71.0341 1.93329C71.0347 2.25501 71.0349 2.57673 71.0349 2.89844C71.035 3.24494 71.0356 3.59144 71.0361 3.93793C71.0372 4.69608 71.0376 5.45423 71.0379 6.21238C71.0381 6.6854 71.0385 7.15842 71.0388 7.63144C71.0397 8.94009 71.0405 10.2487 71.0408 11.5574C71.0408 11.6412 71.0408 11.725 71.0408 11.8113C71.0408 11.8953 71.0408 11.9793 71.0409 12.0659C71.0409 12.2361 71.0409 12.4064 71.041 12.5766C71.041 12.661 71.041 12.7455 71.041 12.8325C71.0413 14.2017 71.0426 15.5709 71.0444 16.9401C71.0462 18.3445 71.0471 19.7489 71.0472 21.1533C71.0473 21.9423 71.0477 22.7314 71.0491 23.5205C71.0502 24.1922 71.0506 24.8639 71.05 25.5356C71.0497 25.8786 71.0498 26.2216 71.0508 26.5646C71.0518 26.8782 71.0517 27.1918 71.0508 27.5054C71.0506 27.6192 71.0509 27.733 71.0515 27.8468C71.0524 28.0008 71.0517 28.1549 71.0509 28.3089C71.0509 28.3947 71.051 28.4804 71.051 28.5688C71.0228 28.7781 71.0228 28.7781 70.9373 28.9187C70.7311 29.0442 70.5674 29.033 70.3268 29.0335C70.2278 29.0342 70.1288 29.0349 70.0268 29.0357C69.9163 29.0353 69.8057 29.035 69.6952 29.0346C69.5783 29.035 69.4614 29.0356 69.3445 29.0362C69.0224 29.0376 68.7003 29.0375 68.3781 29.0372C68.0311 29.0372 67.684 29.0385 67.3369 29.0395C66.6567 29.0414 65.9764 29.042 65.2961 29.0422C64.7433 29.0423 64.1905 29.0427 63.6377 29.0434C62.0716 29.0454 60.5054 29.0465 58.9393 29.0463C58.8548 29.0463 58.7703 29.0463 58.6833 29.0463C58.5987 29.0463 58.5141 29.0463 58.4269 29.0463C57.0556 29.0462 55.6844 29.0483 54.3131 29.0515C52.9061 29.0548 51.4992 29.0563 50.0922 29.0561C49.3019 29.0561 48.5115 29.0567 47.7212 29.0591C47.0484 29.0612 46.3755 29.0617 45.7027 29.0601C45.3592 29.0594 45.0158 29.0594 44.6723 29.0613C44.3581 29.0631 44.0439 29.0628 43.7296 29.0608C43.6158 29.0605 43.5019 29.0609 43.3881 29.0622C42.4323 29.072 42.4323 29.072 42.1803 28.844C41.9398 28.4349 42.0078 27.8985 42.012 27.4404C42.0117 27.3252 42.0112 27.2099 42.0105 27.0947C42.0092 26.7782 42.0103 26.4618 42.0118 26.1454C42.0129 25.804 42.0119 25.4627 42.0112 25.1213C42.0101 24.4527 42.011 23.7841 42.0126 23.1155C42.0144 22.3372 42.0143 21.5588 42.0141 20.7805C42.0138 19.3919 42.0154 18.0033 42.018 16.6148C42.0205 15.2668 42.0215 13.9189 42.0211 12.571C42.0206 11.1037 42.0208 9.63635 42.0222 8.16905C42.0223 8.09148 42.0224 8.01392 42.0225 7.93401C42.0226 7.77823 42.0228 7.62244 42.023 7.46666C42.0235 6.92386 42.0235 6.38108 42.0234 5.83829C42.0233 5.17704 42.024 4.51579 42.0258 3.85454C42.0267 3.51704 42.0273 3.17956 42.0268 2.84205C42.0264 2.53327 42.0271 2.2245 42.0286 1.91571C42.0289 1.80385 42.0289 1.69198 42.0285 1.58012C42.0279 1.42834 42.0289 1.27656 42.03 1.12479C42.0301 1.0404 42.0302 0.956009 42.0303 0.869062C42.0713 0.54584 42.1923 0.35914 42.4207 0.131743C42.6427 0.00966885 42.8055 0.0119268 43.0586 0.0116941ZM51.8644 10.0722C51.7436 10.3281 51.6946 10.5312 51.6944 10.8133C51.6939 10.8845 51.6935 10.9557 51.6931 11.029C51.6934 11.1062 51.6937 11.1833 51.694 11.2628C51.6937 11.3448 51.6935 11.4268 51.6932 11.5112C51.6925 11.782 51.693 12.0527 51.6935 12.3235C51.6934 12.5116 51.6932 12.6998 51.693 12.8879C51.6928 13.3326 51.6933 13.7773 51.6941 14.2219C51.6948 14.6269 51.6943 15.0319 51.6936 15.437C51.6928 15.8756 51.6929 16.3142 51.6933 16.7528C51.6934 16.9393 51.6933 17.1258 51.693 17.3123C51.6926 17.5726 51.6932 17.833 51.694 18.0934C51.6937 18.1707 51.6934 18.248 51.6931 18.3277C51.6935 18.3986 51.6939 18.4696 51.6944 18.5427C51.6944 18.6042 51.6945 18.6657 51.6945 18.7291C51.7159 18.9186 51.7635 19.0376 51.8644 19.1988C52.2696 19.488 52.6827 19.4545 53.1598 19.4475C53.244 19.4471 53.3282 19.4468 53.4149 19.4465C53.6926 19.445 53.9703 19.4419 54.248 19.4387C54.4411 19.4371 54.6342 19.4357 54.8273 19.4343C55.2317 19.4311 55.6361 19.427 56.0405 19.4224C56.5078 19.417 56.975 19.4133 57.4423 19.4105C57.8924 19.4077 58.3425 19.4036 58.7926 19.399C58.9839 19.3972 59.1752 19.3957 59.3666 19.3945C59.6336 19.3927 59.9007 19.3895 60.1677 19.3859C60.247 19.3857 60.3263 19.3854 60.4081 19.3851C60.5172 19.3832 60.5172 19.3832 60.6285 19.3813C60.6916 19.3807 60.7547 19.38 60.8197 19.3793C61.0371 19.3417 61.139 19.2814 61.2928 19.1234C61.338 18.9512 61.338 18.9512 61.3311 18.7546C61.3323 18.6406 61.3323 18.6406 61.3336 18.5242C61.333 18.4409 61.3324 18.3575 61.3318 18.2716C61.3323 18.1838 61.3328 18.096 61.3334 18.0055C61.3347 17.7143 61.3338 17.4232 61.3328 17.132C61.333 16.9301 61.3333 16.7282 61.3337 16.5263C61.3342 16.1028 61.3335 15.6793 61.3321 15.2558C61.3304 14.7663 61.331 14.2768 61.3326 13.7873C61.334 13.367 61.3342 12.9467 61.3334 12.5264C61.3329 12.2754 61.333 12.0244 61.3339 11.7734C61.3346 11.4935 61.3335 11.2136 61.3318 10.9337C61.3324 10.8505 61.333 10.7673 61.3336 10.6816C61.3328 10.6054 61.3319 10.5291 61.3311 10.4506C61.3309 10.3513 61.3309 10.3513 61.3307 10.25C61.279 10.0078 61.1869 9.91863 60.991 9.77046C60.8164 9.72564 60.8164 9.72564 60.6251 9.73215C60.5516 9.7313 60.4782 9.73045 60.4024 9.72957C60.3223 9.73018 60.2422 9.7308 60.1596 9.73142C60.0324 9.73063 60.0324 9.73063 59.9027 9.72982C59.6221 9.72849 59.3415 9.72937 59.0609 9.73039C58.866 9.73019 58.6712 9.7299 58.4764 9.72952C58.0678 9.72907 57.6593 9.72969 57.2508 9.73113C56.7789 9.73277 56.307 9.73224 55.8351 9.73058C55.3807 9.72904 54.9264 9.72921 54.472 9.73009C54.2789 9.73029 54.0857 9.73004 53.8925 9.72934C53.6226 9.72858 53.3527 9.72974 53.0827 9.73142C53.0027 9.73081 52.9227 9.7302 52.8403 9.72957C52.2874 9.73504 52.2874 9.73504 51.8644 10.0722Z" fill="#C5FF4A"/>
<path d="M76.6628 0.02042C76.7351 0.0198856 76.8073 0.0193513 76.8817 0.0188007C76.9604 0.0189875 77.0391 0.0191744 77.1203 0.0193669C77.2036 0.0189814 77.2869 0.0185959 77.3727 0.0181987C77.6484 0.0171493 77.9241 0.0172229 78.1998 0.0173965C78.3913 0.0171034 78.5827 0.0167765 78.7742 0.0164171C79.1756 0.015854 79.577 0.015866 79.9785 0.0162732C80.4421 0.0167288 80.9058 0.0158001 81.3695 0.0141937C81.8159 0.012704 82.2624 0.0124748 82.7089 0.0127406C82.8987 0.0127019 83.0885 0.0123058 83.2782 0.011548C83.5435 0.0106188 83.8087 0.0111256 84.074 0.012001C84.1526 0.0114245 84.2311 0.0108479 84.3121 0.0102539C84.9873 0.0151856 84.9873 0.0151856 85.2785 0.266365C85.4856 0.497795 85.5329 0.641882 85.532 0.950838C85.5324 1.06665 85.5324 1.06665 85.5329 1.1848C85.5321 1.26906 85.5313 1.35331 85.5304 1.44012C85.5305 1.52919 85.5305 1.61825 85.5305 1.71001C85.5304 1.95388 85.5293 2.19773 85.5277 2.4416C85.5263 2.69659 85.5262 2.95158 85.5259 3.20657C85.5252 3.68927 85.5233 4.17196 85.5211 4.65466C85.5185 5.20426 85.5173 5.75386 85.5161 6.30346C85.5138 7.4339 85.5098 8.56432 85.5048 9.69474C85.5514 9.69439 85.598 9.69405 85.646 9.69369C86.7811 9.68536 87.9161 9.67912 89.0512 9.6752C89.6001 9.67326 90.149 9.67061 90.6979 9.66629C91.1765 9.66253 91.6549 9.6601 92.1335 9.65926C92.3868 9.65877 92.6401 9.65762 92.8934 9.65487C93.1763 9.65213 93.4592 9.65175 93.7422 9.65193C93.826 9.65057 93.9097 9.64922 93.9959 9.64782C94.63 9.65207 94.63 9.65207 94.9086 9.87184C95.1391 10.1348 95.1688 10.3147 95.17 10.6521C95.1704 10.7249 95.1709 10.7976 95.1713 10.8726C95.1714 10.9523 95.1715 11.032 95.1716 11.1141C95.1719 11.1981 95.1723 11.2822 95.1727 11.3688C95.1738 11.6473 95.1743 11.9259 95.1747 12.2045C95.1752 12.3977 95.1756 12.591 95.176 12.7842C95.1767 13.1378 95.1772 13.4914 95.1774 13.845C95.1778 14.3652 95.1791 14.8853 95.1813 15.4055C95.1831 15.8563 95.1837 16.3071 95.1838 16.7578C95.184 16.9495 95.1847 17.1412 95.1856 17.3329C95.1869 17.6009 95.1868 17.8688 95.1863 18.1368C95.187 18.2162 95.1877 18.2956 95.1884 18.3774C95.1867 18.6685 95.1708 18.9274 95.0994 19.21C94.8013 19.4599 94.4316 19.4013 94.057 19.3979C93.9214 19.3989 93.9214 19.3989 93.7831 19.4C93.5351 19.4015 93.2872 19.4013 93.0393 19.4004C92.7801 19.3999 92.5209 19.4015 92.2617 19.403C91.7708 19.4054 91.28 19.406 90.7891 19.4059C90.0678 19.4058 89.3465 19.4083 88.6252 19.411C88.519 19.4114 88.4128 19.4118 88.3065 19.4122C88.2288 19.4125 88.2288 19.4125 88.1495 19.4128C87.8405 19.4139 87.5315 19.4144 87.2225 19.4144C86.9857 19.4145 86.749 19.415 86.5122 19.4153C86.4261 19.4152 86.34 19.415 86.2512 19.4148C86.1345 19.4151 86.1345 19.4151 86.0154 19.4154C85.9473 19.4154 85.8793 19.4154 85.8091 19.4154C85.656 19.4078 85.656 19.4078 85.5802 19.5003C85.5727 19.6189 85.5704 19.7378 85.5703 19.8566C85.57 19.9337 85.5697 20.0108 85.5694 20.0903C85.5694 20.1756 85.5694 20.2609 85.5695 20.3488C85.5692 20.438 85.569 20.5273 85.5687 20.6193C85.5681 20.8139 85.5677 21.0086 85.5675 21.2032C85.567 21.5109 85.5658 21.8187 85.5643 22.1264C85.5639 22.2317 85.5634 22.337 85.5629 22.4422C85.5627 22.495 85.5624 22.5477 85.5622 22.602C85.559 23.3187 85.5565 24.0354 85.5556 24.7522C85.555 25.2352 85.5533 25.7183 85.5504 26.2014C85.5489 26.4571 85.5479 26.7128 85.5483 26.9686C85.5485 27.2539 85.5468 27.5392 85.5447 27.8246C85.5452 27.9094 85.5457 27.9943 85.5462 28.0817C85.5448 28.1983 85.5448 28.1983 85.5434 28.3172C85.5431 28.4185 85.5431 28.4185 85.5428 28.5217C85.4913 28.7663 85.4013 28.8551 85.203 29.0041C85.0254 29.0422 85.0254 29.0422 84.8252 29.0429C84.749 29.0438 84.6729 29.0448 84.5945 29.0458C84.5114 29.0453 84.4283 29.0448 84.3427 29.0443C84.2109 29.0453 84.2109 29.0453 84.0765 29.0463C83.7857 29.048 83.495 29.0475 83.2042 29.0468C83.0534 29.0471 82.9026 29.0474 82.7518 29.0478C82.2778 29.0491 81.8038 29.0488 81.3298 29.0475C80.8408 29.0463 80.3519 29.0475 79.8629 29.0499C79.4429 29.0519 79.023 29.0525 78.603 29.0518C78.3522 29.0514 78.1015 29.0518 77.8507 29.0532C77.5712 29.0545 77.2917 29.0534 77.0121 29.0517C76.9291 29.0525 76.846 29.0534 76.7604 29.0543C76.1993 29.0473 76.1993 29.0473 75.9519 28.8219C75.7959 28.5231 75.7651 28.3648 75.7648 28.0241C75.7645 27.9271 75.7642 27.8302 75.7639 27.7302C75.7639 27.6216 75.764 27.513 75.7641 27.4043C75.7639 27.2897 75.7637 27.1751 75.7634 27.0605C75.7628 26.7444 75.7627 26.4283 75.7626 26.1121C75.7625 25.7717 75.7619 25.4312 75.7614 25.0907C75.7604 24.3456 75.7599 23.6005 75.7596 22.8555C75.7594 22.3905 75.759 21.9255 75.7587 21.4605C75.7578 20.1738 75.757 18.8871 75.7568 17.6004C75.7567 17.518 75.7567 17.4356 75.7567 17.3507C75.7567 17.2681 75.7567 17.1855 75.7567 17.1004C75.7566 16.933 75.7566 16.7656 75.7566 16.5982C75.7565 16.4736 75.7565 16.4736 75.7565 16.3466C75.7562 15.0009 75.7549 13.6553 75.7531 12.3097C75.7513 10.9291 75.7504 9.54844 75.7503 8.16782C75.7502 7.39229 75.7498 6.61675 75.7484 5.84122C75.7473 5.18085 75.7469 4.52048 75.7475 3.86011C75.7478 3.52306 75.7477 3.18602 75.7467 2.84897C75.7457 2.5405 75.7458 2.23204 75.7467 1.92356C75.7469 1.81189 75.7466 1.70022 75.746 1.58855C75.7451 1.43684 75.7458 1.28514 75.7466 1.13344C75.7466 1.04914 75.7465 0.964846 75.7465 0.877997C75.7791 0.606685 75.8617 0.424774 76.001 0.190938C76.2174 0.035289 76.4003 0.0210689 76.6628 0.02042Z" fill="#C5FF4A"/>
<path d="M67.5755 38.7903C67.6424 38.7898 67.7094 38.7893 67.7784 38.7888C67.8509 38.7891 67.9234 38.7894 67.9982 38.7897C68.0726 38.7896 68.147 38.7895 68.2236 38.7893C68.3813 38.7892 68.5389 38.7895 68.6965 38.7901C68.9377 38.7909 69.1789 38.7901 69.4201 38.7892C69.5731 38.7893 69.7261 38.7894 69.8791 38.7897C69.9513 38.7894 70.0235 38.7891 70.0979 38.7888C70.1654 38.7893 70.2328 38.7898 70.3023 38.7903C70.3911 38.7904 70.3911 38.7904 70.4816 38.7906C70.6686 38.8124 70.7879 38.8618 70.9475 38.9606C71.0759 39.1351 71.0759 39.1351 71.1926 39.3378C71.2515 39.4381 71.2515 39.4381 71.3116 39.5405C71.4 39.7149 71.4 39.7149 71.4 39.8658C71.4498 39.8658 71.4996 39.8658 71.5509 39.8658C71.6599 40.0154 71.6599 40.0154 71.7866 40.224C72.1918 40.8782 72.618 41.5146 73.0689 42.138C73.3239 42.4907 73.5565 42.8479 73.7748 43.2249C73.9922 43.5785 74.2439 43.9085 74.4925 44.2405C74.5919 44.1582 74.5919 44.1582 74.5765 43.9561C74.5761 43.8627 74.5757 43.7693 74.5753 43.6731C74.5752 43.6217 74.5751 43.5703 74.575 43.5173C74.5747 43.4054 74.5743 43.2935 74.5736 43.1816C74.5727 43.0048 74.5722 42.828 74.5718 42.6511C74.571 42.2758 74.5695 41.9005 74.568 41.5252C74.5662 41.0904 74.5647 40.6557 74.5637 40.2209C74.5633 40.0462 74.5623 39.8715 74.5614 39.6968C74.5611 39.5903 74.5608 39.4838 74.5606 39.3772C74.5602 39.2838 74.5598 39.1904 74.5594 39.0942C74.568 38.8852 74.568 38.8852 74.6434 38.8098C74.7491 38.8024 74.8552 38.8001 74.9611 38.8C75.0286 38.7998 75.0961 38.7995 75.1656 38.7993C75.2756 38.7995 75.2756 38.7995 75.3879 38.7998C75.5003 38.7997 75.5003 38.7997 75.6148 38.7995C75.7735 38.7995 75.9323 38.7996 76.091 38.7999C76.3345 38.8003 76.578 38.7999 76.8215 38.7995C76.9753 38.7995 77.1292 38.7996 77.283 38.7998C77.3563 38.7996 77.4295 38.7995 77.505 38.7993C77.5727 38.7995 77.6404 38.7998 77.7101 38.8C77.7698 38.8001 77.8296 38.8001 77.8911 38.8002C78.0376 38.8098 78.0376 38.8098 78.1885 38.8852C78.1885 42.7931 78.1885 46.701 78.1885 50.7272C77.1182 50.7272 76.0478 50.7272 74.9451 50.7272C74.5751 50.2647 74.2308 49.8248 73.9127 49.3318C73.5558 48.7872 73.1836 48.2561 72.7985 47.7311C72.559 47.404 72.3303 47.0717 72.1068 46.7335C71.9772 46.5395 71.8406 46.3514 71.7017 46.1639C70.9475 45.1326 70.9475 45.1326 70.9475 44.9194C70.8977 44.9194 70.8479 44.9194 70.7966 44.9194C70.7966 46.836 70.7966 48.7526 70.7966 50.7272C69.6019 50.7272 68.4071 50.7272 67.1761 50.7272C67.072 50.519 67.091 50.3514 67.0906 50.1183C67.0903 50.0206 67.09 49.9228 67.0896 49.8221C67.0897 49.7132 67.0897 49.6043 67.0897 49.4954C67.0895 49.3812 67.0893 49.2669 67.089 49.1527C67.0883 48.842 67.0881 48.5312 67.0881 48.2205C67.088 47.9614 67.0877 47.7024 67.0875 47.4433C67.0868 46.8324 67.0867 46.2214 67.0867 45.6105C67.0868 44.9794 67.086 44.3483 67.0848 43.7172C67.0838 43.176 67.0834 42.6349 67.0834 42.0937C67.0835 41.7702 67.0832 41.4467 67.0824 41.1232C67.0817 40.8191 67.0817 40.515 67.0823 40.2109C67.0823 40.099 67.0822 39.9872 67.0817 39.8754C67.0811 39.7232 67.0816 39.5709 67.082 39.4187C67.082 39.3334 67.082 39.2481 67.0819 39.1602C67.1142 38.8172 67.2679 38.7909 67.5755 38.7903Z" fill="#C5FF4A"/>
<path d="M105.418 38.8094C106.213 38.8077 107.008 38.8063 107.803 38.8055C108.173 38.8051 108.542 38.8046 108.911 38.8037C109.267 38.8029 109.623 38.8025 109.979 38.8023C110.115 38.8021 110.252 38.8019 110.388 38.8015C110.578 38.8009 110.768 38.8008 110.958 38.8009C111.015 38.8006 111.071 38.8003 111.13 38.8C111.518 38.8008 111.518 38.8008 111.603 38.8849C111.679 38.8831 111.756 38.8814 111.835 38.8796C112.151 38.8852 112.418 38.9481 112.715 39.0451C112.768 39.0623 112.821 39.0794 112.875 39.0971C113.928 39.4522 114.807 40.0981 115.374 41.0722C115.465 41.3203 115.537 41.5701 115.6 41.8265C115.613 41.8721 115.626 41.9177 115.64 41.9646C115.711 42.2916 115.693 42.6292 115.694 42.9626C115.697 43.0743 115.697 43.0743 115.699 43.1882C115.705 44.3754 115.281 45.1421 114.469 45.975C114.239 46.1921 114.008 46.3787 113.714 46.503C113.756 46.8078 113.846 46.985 114.03 47.229C114.77 48.2474 114.77 48.2474 114.77 48.6149C114.82 48.6149 114.87 48.6149 114.921 48.6149C114.951 48.6772 114.98 48.7394 115.011 48.8035C115.195 49.1597 115.413 49.4917 115.632 49.8277C115.664 49.8786 115.697 49.9296 115.73 49.9821C115.759 50.0274 115.789 50.0727 115.819 50.1194C115.923 50.3148 115.987 50.5158 116.053 50.7269C115.459 50.7441 114.866 50.756 114.273 50.7642C114.071 50.7672 113.869 50.7722 113.668 50.7781C113.377 50.7864 113.087 50.7902 112.797 50.7932C112.707 50.7967 112.617 50.8002 112.524 50.8038C111.911 50.8042 111.911 50.8042 111.674 50.5816C111.557 50.4081 111.465 50.2375 111.376 50.0481C111.32 49.9499 111.263 49.8521 111.205 49.7549C111.152 49.6595 111.099 49.5639 111.046 49.4682C110.988 49.3634 110.93 49.2586 110.871 49.1538C110.842 49.1018 110.813 49.0497 110.784 48.9961C110.601 48.6685 110.416 48.3427 110.228 48.018C110.146 47.8748 110.065 47.7308 109.986 47.5855C109.886 47.4008 109.886 47.4008 109.717 47.1818C109.515 47.125 109.515 47.125 109.34 47.1818C109.221 47.3003 109.252 47.4197 109.249 47.5843C109.247 47.6548 109.246 47.7252 109.244 47.7978C109.243 47.8723 109.242 47.9468 109.24 48.0236C109.239 48.0917 109.238 48.1599 109.236 48.2301C109.231 48.4856 109.226 48.7412 109.222 48.9968C109.211 49.5677 109.2 50.1387 109.189 50.7269C107.969 50.7269 106.75 50.7269 105.493 50.7269C105.388 50.5169 105.408 50.3462 105.408 50.1112C105.408 50.012 105.408 49.9128 105.408 49.8106C105.408 49.7 105.409 49.5894 105.409 49.4788C105.409 49.3628 105.409 49.2469 105.409 49.1309C105.409 48.8155 105.409 48.5001 105.41 48.1847C105.41 47.8553 105.41 47.526 105.41 47.1966C105.411 46.5726 105.411 45.9486 105.412 45.3245C105.413 44.6142 105.413 43.9039 105.414 43.1936C105.414 41.7322 105.416 40.2708 105.418 38.8094ZM109.189 42.1282C109.168 42.3333 109.168 42.3333 109.174 42.5719C109.175 42.6599 109.175 42.7479 109.176 42.8386C109.177 42.9309 109.178 43.0231 109.179 43.1182C109.18 43.2111 109.181 43.3039 109.181 43.3996C109.183 43.6295 109.186 43.8594 109.189 44.0893C109.505 44.0959 109.821 44.0999 110.136 44.1035C110.226 44.1054 110.315 44.1073 110.406 44.1092C110.968 44.1139 111.341 44.0764 111.819 43.7735C112.017 43.4546 111.993 43.1094 111.933 42.7552C111.81 42.4593 111.709 42.32 111.452 42.1282C110.985 41.9711 110.511 41.9539 110.023 41.9585C109.959 41.9579 109.895 41.9573 109.829 41.9567C109.738 41.957 109.738 41.957 109.644 41.9573C109.562 41.9576 109.562 41.9576 109.478 41.9578C109.321 41.9659 109.321 41.9659 109.189 42.1282Z" fill="#C5FF4A"/>
<path d="M129.763 0.0108106C129.871 0.00969002 129.871 0.00969002 129.981 0.00854677C130.06 0.00888631 130.139 0.00922586 130.22 0.00957569C130.303 0.00905802 130.386 0.00854035 130.472 0.00800698C130.747 0.00662505 131.022 0.00691915 131.298 0.0073475C131.489 0.00700359 131.68 0.00660346 131.872 0.00614939C132.273 0.00547493 132.674 0.00564181 133.075 0.00640835C133.538 0.00727379 134.001 0.00621362 134.464 0.00419106C134.91 0.00231602 135.356 0.00212967 135.802 0.00261591C135.992 0.00262748 136.181 0.00217023 136.371 0.00123624C136.636 0.000114094 136.901 0.000915278 137.166 0.00220978C137.244 0.00148055 137.323 0.000751324 137.403 0C137.848 0.00455094 138.119 0.0374261 138.454 0.34176C138.454 0.391542 138.454 0.441324 138.454 0.492614C138.529 0.529951 138.529 0.529951 138.605 0.568041C138.614 1.70101 138.621 2.83399 138.625 3.96699C138.627 4.49308 138.629 5.01915 138.634 5.54523C138.638 6.05288 138.64 6.5605 138.641 7.06816C138.642 7.26189 138.643 7.45562 138.645 7.64935C138.648 7.9206 138.648 8.19176 138.648 8.46302C138.65 8.5833 138.65 8.5833 138.652 8.70601C138.65 9.02999 138.648 9.3158 138.467 9.59376C138.112 9.85591 137.806 9.83242 137.374 9.8263C137.245 9.82713 137.245 9.82713 137.113 9.82797C136.828 9.82919 136.543 9.82714 136.258 9.82494C136.06 9.82486 135.861 9.82494 135.663 9.82517C135.248 9.8253 134.833 9.82363 134.418 9.82085C133.938 9.81766 133.459 9.81713 132.979 9.81807C132.517 9.81893 132.055 9.81806 131.593 9.81638C131.397 9.8158 131.201 9.81563 131.004 9.81587C130.73 9.81592 130.456 9.81402 130.182 9.81157C130.06 9.81213 130.06 9.81213 129.935 9.8127C129.388 9.80489 129.388 9.80489 129.095 9.63555C128.864 9.36801 128.781 9.16645 128.78 8.81277C128.779 8.74193 128.778 8.67109 128.778 8.5981C128.778 8.5209 128.778 8.4437 128.778 8.36417C128.777 8.28245 128.777 8.20074 128.776 8.11655C128.775 7.8461 128.775 7.57566 128.774 7.30521C128.774 7.11732 128.774 6.92943 128.773 6.74154C128.772 6.34753 128.772 5.95353 128.772 5.55952C128.772 5.15492 128.771 4.75035 128.769 4.34576C128.766 3.85733 128.765 3.36891 128.765 2.88047C128.765 2.69432 128.764 2.50817 128.763 2.32203C128.762 2.06165 128.762 1.80134 128.763 1.54097C128.762 1.46408 128.761 1.38718 128.761 1.30796C128.764 0.872428 128.801 0.605985 129.102 0.266333C129.326 0.0673486 129.464 0.0116868 129.763 0.0108106Z" fill="#C5FF4A"/>
<path d="M129.69 19.3289C129.762 19.3282 129.835 19.3274 129.909 19.3267C129.988 19.3266 130.067 19.3266 130.149 19.3265C130.274 19.3256 130.274 19.3256 130.402 19.3246C130.68 19.3228 130.957 19.3221 131.234 19.3216C131.426 19.321 131.619 19.3203 131.811 19.3196C132.216 19.3183 132.62 19.3177 133.024 19.3175C133.49 19.3173 133.956 19.315 134.422 19.3118C134.871 19.3089 135.32 19.3081 135.769 19.308C135.96 19.3077 136.15 19.3067 136.341 19.3051C136.608 19.3031 136.875 19.3035 137.142 19.3044C137.221 19.3033 137.299 19.3022 137.38 19.301C137.798 19.3052 138.151 19.3406 138.496 19.592C138.728 19.8785 138.686 20.2286 138.679 20.5806C138.679 20.6669 138.68 20.7531 138.681 20.842C138.682 21.1272 138.678 21.4121 138.675 21.6973C138.675 21.8954 138.675 22.0935 138.675 22.2916C138.674 22.7068 138.672 23.122 138.668 23.5371C138.663 24.0167 138.661 24.4962 138.661 24.9759C138.662 25.4378 138.66 25.8996 138.658 26.3615C138.657 26.5578 138.656 26.7542 138.656 26.9505C138.655 27.2248 138.653 27.499 138.649 27.7733C138.649 27.8546 138.65 27.9358 138.65 28.0196C138.644 28.3337 138.627 28.5744 138.506 28.866C138.173 29.0938 137.831 29.0567 137.437 29.0531C137.348 29.0537 137.259 29.0544 137.168 29.0551C136.925 29.0565 136.683 29.0561 136.44 29.0549C136.186 29.054 135.932 29.0549 135.678 29.0555C135.251 29.0561 134.825 29.0552 134.398 29.0534C133.905 29.0514 133.412 29.0521 132.919 29.0541C132.496 29.0558 132.072 29.0561 131.649 29.0551C131.396 29.0545 131.143 29.0544 130.89 29.0557C130.608 29.0566 130.326 29.0552 130.044 29.0531C129.961 29.0538 129.877 29.0546 129.791 29.0554C129.225 29.0476 129.225 29.0476 128.977 28.8221C128.843 28.564 128.79 28.4277 128.789 28.1376C128.789 28.0664 128.789 27.9951 128.788 27.9217C128.788 27.8432 128.788 27.7648 128.788 27.6839C128.787 27.6015 128.787 27.5191 128.787 27.4342C128.786 27.1604 128.785 26.8867 128.785 26.613C128.784 26.4232 128.784 26.2334 128.783 26.0436C128.783 25.6961 128.782 25.3487 128.782 25.0012C128.782 24.4901 128.78 23.9791 128.778 23.468C128.776 23.0252 128.776 22.5824 128.776 22.1395C128.775 21.9513 128.775 21.763 128.774 21.5748C128.772 21.3113 128.773 21.0479 128.773 20.7844C128.772 20.7066 128.772 20.6288 128.771 20.5486C128.773 20.1467 128.785 19.8402 129.026 19.5005C129.252 19.359 129.426 19.3304 129.69 19.3289Z" fill="#C5FF4A"/>
<path d="M92.7437 38.7907C92.8046 38.7908 92.8654 38.7909 92.9281 38.791C92.9971 38.7908 93.0661 38.7905 93.1371 38.7903C93.2118 38.7908 93.2864 38.7914 93.3633 38.7919C93.478 38.792 93.478 38.792 93.595 38.792C93.7568 38.7923 93.9186 38.7929 94.0804 38.7938C94.3287 38.7952 94.577 38.7953 94.8253 38.7953C94.9822 38.7957 95.1392 38.7961 95.2961 38.7966C95.3708 38.7967 95.4454 38.7968 95.5223 38.7969C95.5913 38.7974 95.6603 38.7979 95.7313 38.7984C95.8226 38.7988 95.8226 38.7988 95.9157 38.7992C96.0645 38.8093 96.0645 38.8093 96.2154 38.8847C96.2163 39.0121 96.2163 39.0121 96.2172 39.1421C96.2231 39.9454 96.2297 40.7488 96.2371 41.5522C96.2408 41.9651 96.2443 42.378 96.2472 42.791C96.25 43.19 96.2535 43.5891 96.2575 43.9882C96.2589 44.1399 96.26 44.2915 96.2609 44.4432C96.191 45.9921 96.191 45.9921 96.8188 47.3326C97.1341 47.5058 97.4476 47.5086 97.7994 47.507C97.8521 47.5082 97.9048 47.5094 97.9591 47.5107C98.2986 47.511 98.5091 47.4626 98.7799 47.2571C99.2445 46.7793 99.2545 46.2455 99.2472 45.6159C99.247 45.544 99.2468 45.4721 99.2465 45.3979C99.246 45.2426 99.245 45.0872 99.2438 44.9319C99.2419 44.6862 99.2409 44.4406 99.2402 44.195C99.2385 43.6741 99.2355 43.1533 99.2325 42.6325C99.2289 42.0277 99.2258 41.4229 99.224 40.818C99.2231 40.5756 99.2212 40.3331 99.2193 40.0907C99.2187 39.943 99.2182 39.7952 99.2177 39.6475C99.217 39.5797 99.2162 39.512 99.2154 39.4422C99.2154 39.2814 99.2232 39.1207 99.2325 38.9602C99.3833 38.8093 99.3833 38.8093 99.5345 38.7907C99.6275 38.7908 99.6275 38.7908 99.7223 38.791C99.7925 38.7908 99.8628 38.7905 99.9351 38.7903C100.011 38.7908 100.087 38.7914 100.166 38.7919C100.282 38.792 100.282 38.792 100.402 38.792C100.567 38.7923 100.732 38.7929 100.897 38.7938C101.15 38.7952 101.403 38.7953 101.656 38.7953C101.816 38.7957 101.976 38.7961 102.136 38.7966C102.212 38.7967 102.288 38.7968 102.366 38.7969C102.472 38.7976 102.472 38.7976 102.58 38.7984C102.673 38.7988 102.673 38.7988 102.768 38.7992C102.928 38.8093 102.928 38.8093 103.155 38.8847C103.158 39.8722 103.161 40.8597 103.162 41.8472C103.163 42.3058 103.164 42.7644 103.166 43.223C103.168 43.6661 103.169 44.1091 103.169 44.5522C103.169 44.7208 103.17 44.8893 103.171 45.0578C103.178 46.561 103.137 48.0249 102.099 49.2182C102.054 49.282 102.008 49.3458 101.962 49.4115C101.714 49.6876 101.426 49.917 101.118 50.1234C101.068 50.1234 101.019 50.1234 100.967 50.1234C100.967 50.1731 100.967 50.2229 100.967 50.2742C99.2574 51.0781 97.3588 51.2339 95.5511 50.6413C94.4025 50.1874 93.4428 49.3652 92.9205 48.2465C92.553 47.3764 92.4326 46.6048 92.4331 45.6673C92.4328 45.5946 92.4326 45.5219 92.4323 45.447C92.4316 45.209 92.4315 44.971 92.4314 44.733C92.4311 44.5669 92.4309 44.4008 92.4306 44.2347C92.4302 43.8879 92.43 43.541 92.4301 43.1941C92.4301 42.7488 92.429 42.3035 92.4277 41.8582C92.4269 41.5159 92.4268 41.1735 92.4268 40.8312C92.4267 40.6669 92.4264 40.5026 92.4258 40.3383C92.4251 40.1095 92.4253 39.8808 92.4257 39.652C92.4253 39.5838 92.4249 39.5156 92.4244 39.4453C92.4276 38.8303 92.4276 38.8303 92.7437 38.7907ZM99.3079 38.9602C99.3079 41.3497 99.3079 43.7392 99.3079 46.2012C99.3328 46.2012 99.3577 46.2012 99.3833 46.2012C99.3833 43.8116 99.3833 41.4221 99.3833 38.9602C99.3584 38.9602 99.3335 38.9602 99.3079 38.9602Z" fill="#C5FF4A"/>
<path d="M110.435 0.0287406C110.543 0.0279311 110.543 0.0279311 110.653 0.0271051C110.733 0.0269023 110.812 0.0266995 110.893 0.0264906C110.976 0.0259949 111.06 0.0254993 111.145 0.0249886C111.421 0.0234977 111.698 0.02262 111.974 0.0218684C112.068 0.021561 112.162 0.0212536 112.259 0.0209369C112.706 0.0195248 113.153 0.0184265 113.6 0.0177982C114.116 0.0170615 114.631 0.0150774 115.147 0.012028C115.594 0.0094765 116.04 0.00858503 116.487 0.00827904C116.677 0.00791121 116.867 0.0070329 117.057 0.00563623C117.323 0.00380316 117.588 0.00386806 117.854 0.0043928C117.933 0.00342657 118.011 0.00246035 118.092 0.00146484C118.541 0.0046975 118.804 0.0397661 119.145 0.341549C119.237 0.526083 119.231 0.646285 119.232 0.852642C119.233 0.9667 119.233 0.9667 119.233 1.08306C119.234 1.1668 119.234 1.25054 119.234 1.33681C119.234 1.42475 119.235 1.51269 119.235 1.6033C119.237 1.89525 119.238 2.18719 119.239 2.47914C119.239 2.57858 119.239 2.67801 119.24 2.78047C119.241 3.25218 119.242 3.7239 119.243 4.19562C119.243 4.74058 119.245 5.28551 119.248 5.83045C119.251 6.25144 119.252 6.67242 119.252 7.09341C119.252 7.34498 119.253 7.59651 119.255 7.84808C119.257 8.12856 119.257 8.40899 119.256 8.68947C119.258 8.81485 119.258 8.81485 119.259 8.94276C119.258 9.05714 119.258 9.05714 119.257 9.17383C119.258 9.24017 119.258 9.30651 119.258 9.37487C119.221 9.54364 119.221 9.54364 119.091 9.67807C118.892 9.78411 118.771 9.79853 118.547 9.79917C118.473 9.79991 118.398 9.80066 118.321 9.80143C118.239 9.80109 118.158 9.80075 118.074 9.8004C117.987 9.80092 117.901 9.80144 117.812 9.80197C117.527 9.80335 117.241 9.80306 116.956 9.80263C116.758 9.80297 116.559 9.80337 116.361 9.80383C115.945 9.80459 115.53 9.80434 115.114 9.80357C114.634 9.8027 114.154 9.80377 113.674 9.80579C113.212 9.80766 112.749 9.80785 112.287 9.80736C112.091 9.80735 111.894 9.80781 111.697 9.80874C111.423 9.80986 111.148 9.80906 110.874 9.80777C110.792 9.8085 110.711 9.80923 110.627 9.80998C110.076 9.80452 110.076 9.80452 109.781 9.62613C109.577 9.39577 109.556 9.27088 109.554 8.9701C109.554 8.89693 109.553 8.82376 109.552 8.74836C109.552 8.6678 109.552 8.58724 109.551 8.50424C109.551 8.41961 109.55 8.33497 109.55 8.24777C109.548 7.96671 109.546 7.68565 109.545 7.40458C109.545 7.30876 109.545 7.21293 109.544 7.1142C109.543 6.71148 109.541 6.30875 109.54 5.90603C109.539 5.32914 109.536 4.75229 109.532 4.17542C109.529 3.72073 109.528 3.26607 109.527 2.81137C109.527 2.61806 109.526 2.42475 109.524 2.23145C109.521 1.96093 109.521 1.69052 109.522 1.41999C109.52 1.30007 109.52 1.30007 109.518 1.17772C109.523 0.571566 109.523 0.571566 109.748 0.293003C109.999 0.0642937 110.106 0.0304352 110.435 0.0287406Z" fill="#C5FF4A"/>
<path d="M95.9721 0.02042C96.0443 0.0198856 96.1165 0.0193513 96.1909 0.0188007C96.2697 0.0189875 96.3484 0.0191744 96.4295 0.0193669C96.5128 0.0189814 96.5961 0.0185959 96.682 0.0181987C96.9577 0.0171492 97.2334 0.0172229 97.5091 0.0173965C97.7005 0.0171034 97.892 0.0167765 98.0834 0.0164171C98.4849 0.015854 98.8863 0.015866 99.2877 0.0162732C99.7514 0.0167288 100.215 0.0158001 100.679 0.0141937C101.125 0.012704 101.572 0.0124748 102.018 0.0127406C102.208 0.0127019 102.398 0.0123058 102.587 0.011548C102.853 0.0106188 103.118 0.0111256 103.383 0.012001C103.462 0.0114245 103.54 0.0108479 103.621 0.0102539C104.295 0.0151745 104.295 0.0151745 104.588 0.266365C104.751 0.511273 104.758 0.579043 104.759 0.861954C104.76 0.976168 104.76 0.976168 104.761 1.09269C104.761 1.21789 104.761 1.21789 104.76 1.34562C104.761 1.43357 104.762 1.52152 104.762 1.61214C104.763 1.90368 104.764 2.1952 104.764 2.48675C104.764 2.63777 104.765 2.78879 104.765 2.93982C104.766 3.41468 104.767 3.88953 104.767 4.36439C104.766 4.85451 104.768 5.34461 104.77 5.83472C104.772 6.25539 104.773 6.67605 104.773 7.09672C104.773 7.34803 104.774 7.59932 104.775 7.85063C104.777 8.13074 104.776 8.4108 104.775 8.69091C104.776 8.77438 104.777 8.85785 104.778 8.94384C104.777 9.01999 104.777 9.09613 104.776 9.17458C104.776 9.24082 104.776 9.30707 104.776 9.37532C104.739 9.54389 104.739 9.54389 104.609 9.67828C104.41 9.78437 104.289 9.79878 104.065 9.79941C103.99 9.80016 103.916 9.8009 103.839 9.80167C103.757 9.80133 103.676 9.80099 103.592 9.80064C103.505 9.80116 103.419 9.80168 103.33 9.80221C103.045 9.8036 102.759 9.8033 102.474 9.80287C102.275 9.80322 102.077 9.80362 101.879 9.80407C101.463 9.80483 101.048 9.80458 100.632 9.80381C100.152 9.80295 99.6719 9.80401 99.1918 9.80603C98.7295 9.8079 98.2673 9.80809 97.805 9.8076C97.6085 9.80759 97.412 9.80805 97.2155 9.80898C96.9408 9.8101 96.6662 9.80931 96.3915 9.80801C96.3101 9.80874 96.2287 9.80947 96.1449 9.81022C95.5936 9.80477 95.5936 9.80477 95.2992 9.62638C95.0958 9.39666 95.0744 9.27304 95.0733 8.97321C95.0729 8.90067 95.0725 8.82813 95.072 8.75339C95.0719 8.67354 95.0719 8.59368 95.0718 8.51141C95.0714 8.42751 95.071 8.34361 95.0706 8.25717C95.0695 7.97855 95.069 7.69994 95.0686 7.42132C95.0682 7.22815 95.0677 7.03497 95.0673 6.8418C95.0666 6.48812 95.0661 6.13444 95.0659 5.78076C95.0656 5.26058 95.0642 4.74041 95.0621 4.22023C95.0602 3.76949 95.0596 3.31876 95.0595 2.86802C95.0593 2.67639 95.0587 2.48477 95.0577 2.29315C95.0564 2.025 95.0565 1.75689 95.057 1.48874C95.0563 1.40949 95.0556 1.33025 95.0549 1.2486C95.0572 0.84388 95.0667 0.532609 95.3102 0.190938C95.5355 0.04958 95.7084 0.0210718 95.9721 0.02042Z" fill="#C5FF4A"/>
<path d="M120.018 9.68377C120.09 9.68323 120.163 9.68269 120.238 9.68213C120.317 9.68193 120.397 9.68173 120.479 9.68152C120.563 9.68102 120.647 9.68053 120.734 9.68002C121.012 9.67853 121.291 9.67765 121.57 9.6769C121.665 9.67659 121.76 9.67628 121.857 9.67597C122.308 9.67455 122.759 9.67346 123.21 9.67283C123.73 9.67209 124.25 9.67011 124.771 9.66706C125.221 9.66451 125.672 9.66361 126.123 9.66331C126.315 9.66294 126.506 9.66206 126.698 9.66067C126.966 9.65883 127.234 9.6589 127.502 9.65942C127.581 9.65846 127.661 9.65749 127.742 9.65649C128.235 9.66001 128.519 9.71526 128.875 10.072C128.883 10.1889 128.886 10.3061 128.886 10.4232C128.886 10.4991 128.887 10.575 128.887 10.6533C128.887 10.7793 128.887 10.7793 128.888 10.9079C128.888 10.9958 128.888 11.0837 128.889 11.1743C128.89 11.4162 128.89 11.658 128.89 11.8999C128.891 12.1016 128.891 12.3033 128.892 12.505C128.893 12.9264 128.893 13.3478 128.893 13.7693C128.894 14.3149 128.895 14.8604 128.897 15.406C128.899 15.8273 128.9 16.2486 128.9 16.6699C128.9 16.9218 128.9 17.1736 128.902 17.4254C128.903 17.7062 128.903 17.987 128.902 18.2679C128.903 18.3516 128.904 18.4353 128.904 18.5215C128.904 18.6361 128.904 18.6361 128.903 18.7529C128.903 18.8194 128.903 18.8858 128.903 18.9543C128.869 19.1608 128.815 19.2247 128.649 19.3495C128.432 19.422 128.295 19.4347 128.069 19.4355C127.996 19.436 127.923 19.4364 127.848 19.4369C127.769 19.4369 127.689 19.437 127.607 19.4371C127.523 19.4375 127.439 19.4379 127.352 19.4382C127.074 19.4393 126.795 19.4399 126.517 19.4403C126.323 19.4407 126.13 19.4411 125.937 19.4416C125.583 19.4423 125.23 19.4427 124.876 19.443C124.356 19.4433 123.836 19.4446 123.315 19.4468C122.865 19.4486 122.414 19.4492 121.963 19.4494C121.771 19.4496 121.58 19.4502 121.388 19.4512C121.12 19.4525 120.852 19.4523 120.584 19.4518C120.465 19.4529 120.465 19.4529 120.344 19.4539C119.643 19.4499 119.643 19.4499 119.372 19.1987C119.248 18.941 119.202 18.734 119.201 18.4494C119.2 18.3765 119.199 18.3035 119.199 18.2283C119.199 18.1096 119.199 18.1096 119.199 17.9885C119.198 17.9044 119.198 17.8203 119.197 17.7337C119.196 17.456 119.196 17.1783 119.195 16.9005C119.195 16.7075 119.194 16.5144 119.194 16.3214C119.193 15.9169 119.193 15.5124 119.193 15.1078C119.193 14.6406 119.191 14.1734 119.189 13.7061C119.187 13.2561 119.186 12.806 119.186 12.356C119.186 12.1647 119.185 11.9735 119.184 11.7822C119.183 11.5149 119.183 11.2478 119.184 10.9805C119.183 10.9014 119.182 10.8222 119.182 10.7406C119.186 10.2042 119.186 10.2042 119.364 9.91151C119.594 9.70656 119.717 9.6853 120.018 9.68377Z" fill="#C5FF4A"/>
<path d="M110.366 19.3377C110.439 19.337 110.512 19.3364 110.587 19.3357C110.668 19.3354 110.749 19.3351 110.832 19.3347C110.916 19.3341 111.001 19.3335 111.088 19.3329C111.369 19.331 111.65 19.3297 111.931 19.3287C112.027 19.3282 112.123 19.3278 112.222 19.3274C112.624 19.3258 113.027 19.3244 113.43 19.3235C114.007 19.3223 114.584 19.3198 115.16 19.3155C115.615 19.3122 116.07 19.311 116.524 19.3106C116.718 19.31 116.911 19.3089 117.104 19.3071C117.375 19.3047 117.645 19.3047 117.916 19.3053C117.996 19.304 118.076 19.3028 118.158 19.3015C118.481 19.3043 118.767 19.3073 119.044 19.4862C119.308 19.8461 119.282 20.1604 119.276 20.5965C119.276 20.6845 119.276 20.7725 119.277 20.8631C119.278 21.1539 119.275 21.4445 119.273 21.7352C119.272 21.9371 119.272 22.1389 119.272 22.3408C119.272 22.7637 119.27 23.1866 119.267 23.6095C119.264 24.0985 119.262 24.5875 119.263 25.0765C119.263 25.5471 119.262 26.0177 119.26 26.4883C119.259 26.6885 119.258 26.8888 119.258 27.089C119.258 27.3684 119.256 27.6477 119.253 27.9271C119.254 28.0519 119.254 28.0519 119.254 28.1793C119.253 28.2552 119.252 28.3311 119.251 28.4094C119.25 28.4754 119.25 28.5415 119.25 28.6095C119.221 28.7777 119.221 28.7777 119.129 28.9119C118.952 29.0329 118.839 29.033 118.626 29.0342C118.55 29.0352 118.474 29.0361 118.396 29.0371C118.313 29.037 118.229 29.0369 118.144 29.0368C118.056 29.0376 117.968 29.0383 117.878 29.0391C117.587 29.0413 117.296 29.0417 117.005 29.0419C116.855 29.0425 116.704 29.043 116.553 29.0436C116.079 29.0455 115.605 29.046 115.131 29.0459C114.642 29.0457 114.153 29.0481 113.664 29.0517C113.244 29.0546 112.824 29.0559 112.404 29.0557C112.154 29.0557 111.903 29.0565 111.652 29.0587C111.372 29.0609 111.093 29.0603 110.813 29.0589C110.73 29.0602 110.647 29.0614 110.562 29.0628C110.195 29.0582 110.004 29.0487 109.703 28.8273C109.483 28.4865 109.514 28.0945 109.518 27.7028C109.518 27.618 109.517 27.5332 109.517 27.4458C109.515 27.166 109.517 26.8863 109.518 26.6065C109.518 26.4119 109.518 26.2172 109.518 26.0226C109.518 25.615 109.519 25.2074 109.521 24.7997C109.523 24.3289 109.523 23.8582 109.522 23.3874C109.521 22.9337 109.521 22.4801 109.523 22.0265C109.523 21.8337 109.523 21.641 109.522 21.4483C109.522 21.179 109.524 20.9099 109.526 20.6406C109.525 20.5609 109.525 20.4812 109.524 20.399C109.531 19.8588 109.531 19.8588 109.71 19.5656C109.94 19.3602 110.064 19.3397 110.366 19.3377Z" fill="#C5FF4A"/>
<path d="M95.8839 19.3377C95.9571 19.337 96.0302 19.3364 96.1056 19.3357C96.1862 19.3354 96.2668 19.3351 96.3498 19.3347C96.4344 19.3341 96.519 19.3335 96.6062 19.3329C96.8873 19.331 97.1683 19.3297 97.4494 19.3287C97.5452 19.3282 97.6411 19.3278 97.7398 19.3274C98.1425 19.3258 98.5452 19.3244 98.948 19.3235C99.5249 19.3223 100.102 19.3198 100.679 19.3155C101.133 19.3122 101.588 19.311 102.043 19.3106C102.236 19.31 102.429 19.3089 102.623 19.3071C102.893 19.3047 103.163 19.3047 103.434 19.3053C103.514 19.304 103.594 19.3028 103.676 19.3015C103.999 19.3043 104.285 19.3073 104.562 19.4862C104.827 19.8461 104.8 20.1604 104.794 20.5965C104.794 20.6845 104.795 20.7725 104.795 20.8631C104.796 21.1539 104.793 21.4445 104.791 21.7352C104.791 21.9371 104.79 22.1389 104.791 22.3408C104.79 22.7637 104.788 23.1866 104.785 23.6095C104.782 24.0985 104.781 24.5875 104.781 25.0765C104.781 25.5471 104.78 26.0177 104.778 26.4883C104.777 26.6885 104.777 26.8888 104.776 27.089C104.776 27.3684 104.774 27.6477 104.772 27.9271C104.772 28.0519 104.772 28.0519 104.772 28.1793C104.771 28.2552 104.77 28.3311 104.769 28.4094C104.769 28.4754 104.768 28.5415 104.768 28.6095C104.739 28.7777 104.739 28.7777 104.647 28.9119C104.47 29.0329 104.358 29.033 104.144 29.0342C104.068 29.0352 103.992 29.0361 103.914 29.0371C103.831 29.037 103.748 29.0369 103.662 29.0368C103.574 29.0376 103.486 29.0383 103.396 29.0391C103.105 29.0413 102.814 29.0417 102.524 29.0419C102.373 29.0425 102.222 29.043 102.071 29.0436C101.597 29.0455 101.123 29.046 100.649 29.0459C100.16 29.0457 99.6712 29.0481 99.1823 29.0517C98.7624 29.0546 98.3425 29.0559 97.9226 29.0557C97.6718 29.0557 97.4212 29.0565 97.1704 29.0587C96.8907 29.0609 96.6111 29.0603 96.3313 29.0589C96.2484 29.0602 96.1655 29.0614 96.08 29.0628C95.7132 29.0582 95.5221 29.0487 95.2212 28.8273C95.0014 28.4865 95.0321 28.0945 95.0365 27.7028C95.0359 27.618 95.0354 27.5332 95.0348 27.4458C95.0336 27.166 95.035 26.8863 95.0366 26.6065C95.0366 26.4119 95.0364 26.2172 95.0361 26.0226C95.0359 25.615 95.0369 25.2074 95.039 24.7997C95.0415 24.3289 95.0415 23.8582 95.0402 23.3874C95.039 22.9337 95.0395 22.4801 95.0408 22.0265C95.0412 21.8337 95.0411 21.641 95.0406 21.4483C95.0402 21.179 95.0418 20.9099 95.0438 20.6406C95.0433 20.5609 95.0429 20.4812 95.0423 20.399C95.0494 19.8588 95.0494 19.8588 95.228 19.5656C95.458 19.3602 95.5827 19.3397 95.8839 19.3377Z" fill="#C5FF4A"/>
<path d="M56.3161 38.7906C56.3792 38.7907 56.4422 38.7907 56.5072 38.7908C56.5796 38.7904 56.6519 38.7901 56.7264 38.7898C56.8061 38.7902 56.8857 38.7906 56.9677 38.7911C57.0514 38.7909 57.135 38.7908 57.2212 38.7906C57.4988 38.7904 57.7764 38.7912 58.054 38.792C58.2463 38.7921 58.4385 38.7921 58.6307 38.7921C59.034 38.7922 59.4372 38.7928 59.8405 38.7939C60.3071 38.7951 60.7737 38.7955 61.2403 38.7954C61.6887 38.7954 62.1371 38.7958 62.5855 38.7964C62.7765 38.7966 62.9675 38.7968 63.1586 38.7968C63.4251 38.797 63.6917 38.7976 63.9583 38.7984C64.0379 38.7984 64.1175 38.7984 64.1996 38.7983C64.2719 38.7987 64.3442 38.799 64.4188 38.7993C64.5134 38.7995 64.5134 38.7995 64.6099 38.7997C64.7623 38.8094 64.7623 38.8094 64.9132 38.8848C64.9132 39.9302 64.9132 40.9757 64.9132 42.0528C63.2206 42.0777 61.528 42.1025 59.7842 42.1282C59.8215 42.6136 59.8215 42.6136 59.8596 43.1087C59.9826 43.1106 60.1056 43.1125 60.2323 43.1145C60.6867 43.1215 61.1412 43.1291 61.5956 43.1368C61.7927 43.1401 61.9897 43.1432 62.1868 43.1463C62.4693 43.1506 62.7518 43.1554 63.0343 43.1603C63.1673 43.1622 63.1673 43.1622 63.3031 43.1641C63.3846 43.1656 63.4662 43.1671 63.5502 43.1687C63.6585 43.1704 63.6585 43.1704 63.7689 43.1722C63.9326 43.1842 63.9326 43.1842 64.0081 43.2596C64.0148 43.4826 64.0168 43.7039 64.0154 43.9269C64.0154 43.9862 64.0153 44.0454 64.0152 44.1064C64.0148 44.3286 64.0138 44.5507 64.0128 44.7729C64.0112 45.2691 64.0097 45.7654 64.0081 46.2767C62.6142 46.3016 61.2203 46.3265 59.7842 46.3521C59.8215 46.9121 59.8215 46.9121 59.8596 47.4835C60.0812 47.4829 60.0812 47.4829 60.3072 47.4823C60.7947 47.4811 61.2821 47.4802 61.7695 47.4796C62.0651 47.4792 62.3607 47.4787 62.6563 47.4778C62.9414 47.477 63.2265 47.4765 63.5116 47.4764C63.6206 47.4762 63.7295 47.4759 63.8384 47.4755C63.9907 47.475 64.1429 47.475 64.2952 47.4749C64.4253 47.4747 64.4253 47.4747 64.5581 47.4744C64.7623 47.4835 64.7623 47.4835 64.9132 47.5589C64.9132 48.6044 64.9132 49.6498 64.9132 50.7269C62.001 50.7269 59.0887 50.7269 56.0882 50.7269C55.9841 50.5186 56.0031 50.351 56.0027 50.1179C56.0024 50.0202 56.0021 49.9225 56.0017 49.8218C56.0018 49.7128 56.0018 49.6039 56.0018 49.495C56.0016 49.3808 56.0014 49.2666 56.0011 49.1523C56.0004 48.8416 56.0002 48.5309 56.0002 48.2201C56.0001 47.9611 55.9998 47.702 55.9996 47.4429C55.999 46.832 55.9988 46.2211 55.9988 45.6101C55.9989 44.979 55.9981 44.3479 55.9969 43.7168C55.9959 43.1756 55.9955 42.6345 55.9955 42.0933C55.9956 41.7698 55.9953 41.4463 55.9945 41.1228C55.9938 40.8187 55.9938 40.5146 55.9944 40.2105C55.9944 40.0987 55.9943 39.9868 55.9938 39.875C55.9932 39.7228 55.9937 39.5706 55.9942 39.4184C55.9941 39.333 55.9941 39.2477 55.994 39.1598C56.0169 38.917 56.0649 38.8216 56.3161 38.7906Z" fill="#C5FF4A"/>
<path d="M118.091 38.7906C118.154 38.7907 118.217 38.7907 118.282 38.7908C118.354 38.7904 118.427 38.7901 118.501 38.7898C118.581 38.7902 118.66 38.7906 118.742 38.7911C118.826 38.7909 118.91 38.7908 118.996 38.7906C119.273 38.7904 119.551 38.7912 119.829 38.792C120.021 38.7921 120.213 38.7921 120.405 38.7921C120.809 38.7922 121.212 38.7928 121.615 38.7939C122.082 38.7951 122.548 38.7955 123.015 38.7954C123.463 38.7954 123.912 38.7958 124.36 38.7964C124.551 38.7966 124.742 38.7968 124.933 38.7968C125.2 38.797 125.466 38.7976 125.733 38.7984C125.813 38.7984 125.892 38.7984 125.974 38.7983C126.047 38.7987 126.119 38.799 126.193 38.7993C126.288 38.7995 126.288 38.7995 126.385 38.7997C126.537 38.8094 126.537 38.8094 126.688 38.8848C126.688 39.9302 126.688 40.9757 126.688 42.0528C126.324 42.0573 125.96 42.0619 125.585 42.0666C125.355 42.0697 125.125 42.0727 124.895 42.0759C124.53 42.0809 124.164 42.0858 123.799 42.0903C123.505 42.0939 123.21 42.0978 122.916 42.102C122.803 42.1036 122.691 42.105 122.578 42.1062C122.421 42.1081 122.264 42.1103 122.107 42.1127C122.017 42.1139 121.927 42.115 121.835 42.1163C121.64 42.1055 121.64 42.1055 121.559 42.2036C121.553 42.356 121.552 42.5085 121.554 42.6609C121.555 42.7442 121.555 42.8275 121.556 42.9134C121.557 42.9779 121.558 43.0423 121.559 43.1087C121.61 43.1095 121.662 43.1103 121.715 43.1111C122.251 43.1192 122.787 43.1279 123.323 43.1368C123.523 43.1401 123.723 43.1432 123.923 43.1463C124.211 43.1506 124.498 43.1554 124.785 43.1603C124.875 43.1616 124.965 43.1628 125.058 43.1641C125.141 43.1656 125.224 43.1671 125.309 43.1687C125.383 43.1699 125.456 43.171 125.532 43.1722C125.707 43.1842 125.707 43.1842 125.858 43.2596C125.858 44.2801 125.858 45.3007 125.858 46.3521C125.554 46.3512 125.25 46.3504 124.937 46.3495C124.695 46.349 124.453 46.3486 124.211 46.3482C123.956 46.3478 123.7 46.3473 123.445 46.3464C123.152 46.3454 122.859 46.3451 122.566 46.3447C122.428 46.3442 122.428 46.3442 122.287 46.3436C122.202 46.3436 122.118 46.3435 122.031 46.3435C121.956 46.3434 121.881 46.3432 121.804 46.343C121.636 46.3331 121.636 46.3331 121.559 46.4275C121.541 46.6048 121.528 46.7825 121.516 46.9602C121.51 47.0576 121.504 47.1549 121.497 47.2552C121.49 47.3682 121.49 47.3682 121.483 47.4835C121.546 47.4833 121.609 47.4832 121.674 47.483C122.267 47.4815 122.86 47.4803 123.452 47.4796C123.757 47.4792 124.062 47.4787 124.366 47.4778C124.66 47.477 124.954 47.4765 125.248 47.4764C125.361 47.4762 125.473 47.4759 125.585 47.4755C125.742 47.475 125.899 47.4749 126.056 47.4749C126.145 47.4748 126.235 47.4746 126.327 47.4744C126.537 47.4835 126.537 47.4835 126.688 47.5589C126.688 48.6044 126.688 49.6498 126.688 50.7269C123.776 50.7269 120.863 50.7269 117.863 50.7269C117.759 50.5186 117.778 50.351 117.777 50.1179C117.777 50.0202 117.777 49.9225 117.776 49.8218C117.776 49.7128 117.776 49.6039 117.777 49.495C117.776 49.3808 117.776 49.2666 117.776 49.1523C117.775 48.8416 117.775 48.5309 117.775 48.2201C117.775 47.9611 117.774 47.702 117.774 47.4429C117.774 46.832 117.773 46.2211 117.773 45.6101C117.774 44.979 117.773 44.3479 117.772 43.7168C117.771 43.1756 117.77 42.6345 117.77 42.0933C117.77 41.7698 117.77 41.4463 117.769 41.1228C117.768 40.8187 117.768 40.5146 117.769 40.2105C117.769 40.0987 117.769 39.9868 117.768 39.875C117.768 39.7228 117.768 39.5706 117.769 39.4184C117.769 39.333 117.769 39.2477 117.769 39.1598C117.792 38.917 117.84 38.8216 118.091 38.7906Z" fill="#C5FF4A"/>
<path d="M137.889 39.8291C138.083 39.9869 138.271 40.1473 138.455 40.3182C138.358 40.5762 138.276 40.7319 138.077 40.9216C138.053 40.9963 138.028 41.071 138.002 41.1479C137.952 41.1479 137.902 41.1479 137.851 41.1479C137.831 41.19 137.81 41.2321 137.789 41.2755C137.556 41.7313 137.296 42.2056 136.946 42.581C136.896 42.581 136.846 42.581 136.795 42.581C136.77 42.6806 136.745 42.7802 136.72 42.8827C136.498 42.7771 136.298 42.6541 136.093 42.5198C135.601 42.2211 135.079 42.0699 134.532 41.9022C134.452 41.8744 134.372 41.8466 134.289 41.8179C133.757 41.6487 133.334 41.7769 132.822 41.9502C132.602 42.0791 132.565 42.1904 132.496 42.4302C132.899 42.9616 133.723 42.997 134.335 43.1122C135.501 43.3328 136.449 43.6459 137.474 44.2404C137.474 44.2902 137.474 44.34 137.474 44.3913C137.541 44.4196 137.541 44.4196 137.608 44.4484C138.113 44.7308 138.398 45.3223 138.556 45.8568C138.753 46.9217 138.661 48.0102 138.037 48.9219C137.655 49.4263 137.297 49.8 136.735 50.1019C136.576 50.195 136.465 50.2896 136.343 50.4254C136.268 50.4006 136.193 50.3757 136.116 50.35C136.116 50.3998 136.116 50.4496 136.116 50.5009C135.942 50.5482 135.768 50.5953 135.593 50.6423C135.545 50.6554 135.497 50.6686 135.447 50.6821C135.346 50.7092 135.244 50.7358 135.143 50.7619C135.039 50.7886 134.936 50.8166 134.833 50.8459C134.306 50.9834 133.786 50.9703 133.245 50.9629C133.151 50.9622 133.057 50.9615 132.96 50.9608C132.73 50.959 132.5 50.9566 132.27 50.9534C132.27 50.9037 132.27 50.8539 132.27 50.8026C132.184 50.8055 132.099 50.8084 132.011 50.8114C131.654 50.8113 131.328 50.7438 130.983 50.6612C130.925 50.648 130.867 50.6349 130.808 50.6214C130.641 50.5828 130.475 50.5424 130.308 50.5009C130.257 50.4882 130.205 50.4755 130.151 50.4625C130.026 50.4299 129.903 50.3905 129.78 50.35C129.743 50.2753 129.743 50.2753 129.705 50.1992C129.579 50.1572 129.579 50.1572 129.45 50.1143C128.95 49.9393 128.494 49.5917 128.121 49.2186C128.161 48.9703 128.218 48.7418 128.403 48.5669C128.687 48.2703 128.862 47.9045 129.061 47.5477C129.11 47.463 129.11 47.463 129.159 47.3765C129.188 47.3247 129.217 47.2729 129.246 47.2196C129.287 47.1637 129.287 47.1637 129.328 47.1067C129.378 47.1067 129.427 47.1067 129.479 47.1067C129.487 47.0647 129.494 47.0227 129.502 46.9794C129.564 46.7716 129.664 46.6098 129.78 46.4278C130.129 46.4657 130.306 46.6027 130.572 46.8238C131.246 47.3534 131.968 47.5784 132.814 47.683C132.991 47.7058 133.153 47.7421 133.326 47.7855C133.798 47.8175 134.171 47.7437 134.608 47.5592C134.712 47.4715 134.712 47.4715 134.697 47.2292C134.706 46.9485 134.706 46.9485 134.532 46.7295C133.888 46.4559 133.187 46.353 132.501 46.244C131.145 46.0131 130.018 45.7112 129.177 44.5421C128.687 43.7012 128.597 42.7987 128.772 41.8409C129.085 40.72 129.844 39.8468 130.836 39.2622C132.97 38.2012 135.955 38.3813 137.889 39.8291Z" fill="#C5FF4A"/>
<path d="M42.0588 38.8094C42.5918 38.8056 43.1247 38.8029 43.6577 38.8011C43.839 38.8004 44.0204 38.7993 44.2018 38.798C44.4622 38.7962 44.7226 38.7953 44.9831 38.7947C45.0644 38.7939 45.1457 38.7931 45.2295 38.7923C45.3427 38.7923 45.3427 38.7923 45.4583 38.7923C45.5248 38.7919 45.5913 38.7916 45.6598 38.7913C45.8302 38.8094 45.8302 38.8094 46.0564 38.9603C46.1359 39.151 46.2032 39.3356 46.2659 39.5318C46.285 39.5894 46.304 39.647 46.3237 39.7063C46.3846 39.8911 46.4444 40.0762 46.5043 40.2614C46.5442 40.3826 46.5843 40.5038 46.6243 40.625C46.8288 41.2465 47.0195 41.8697 47.196 42.4997C47.2919 42.8302 47.4052 43.1531 47.5225 43.4764C47.7134 44.0093 47.8915 44.5438 48.0479 45.0879C48.0839 45.2089 48.1256 45.3282 48.1684 45.447C48.2182 45.4719 48.268 45.4968 48.3192 45.5224C48.3279 45.435 48.3365 45.3476 48.3454 45.2575C48.386 44.9351 48.4727 44.6362 48.5788 44.3297C48.5972 44.2752 48.6155 44.2206 48.6344 44.1644C48.6938 43.9884 48.754 43.8125 48.8142 43.6367C48.8556 43.5146 48.8969 43.3924 48.9381 43.2701C49.0203 43.0271 49.1026 42.7841 49.1853 42.5412C49.337 42.0946 49.4858 41.6471 49.6345 41.1995C49.6817 41.0579 49.729 40.9162 49.7762 40.7746C49.8573 40.5316 49.938 40.2884 50.0184 40.0451C50.0445 39.9663 50.0445 39.9663 50.0712 39.8858C50.1156 39.7514 50.16 39.617 50.2043 39.4826C50.3992 38.9168 50.3992 38.9168 50.5066 38.8094C50.6193 38.802 50.7323 38.7997 50.8451 38.7996C50.9171 38.7994 50.9891 38.7992 51.0633 38.7989C51.1416 38.7991 51.22 38.7992 51.3007 38.7994C51.4205 38.7993 51.4205 38.7993 51.5428 38.7992C51.7121 38.7991 51.8815 38.7993 52.0509 38.7996C52.3108 38.8 52.5707 38.7996 52.8306 38.7991C52.9947 38.7991 53.1589 38.7992 53.3231 38.7994C53.4012 38.7992 53.4794 38.7991 53.56 38.7989C53.6322 38.7992 53.7044 38.7994 53.7788 38.7996C53.8426 38.7997 53.9064 38.7998 53.972 38.7998C54.1271 38.8094 54.1271 38.8094 54.278 38.8848C54.1836 39.3485 54.062 39.7944 53.9103 40.2425C53.8919 40.2985 53.8735 40.3545 53.8546 40.4122C53.7618 40.6891 53.6612 40.9559 53.5376 41.2204C53.2869 41.7713 53.1087 42.352 52.9156 42.9249C52.8555 43.1025 52.7953 43.28 52.735 43.4575C52.6977 43.5672 52.6606 43.6769 52.6236 43.7867C52.4723 44.234 52.3138 44.6765 52.1261 45.11C52.011 45.3813 51.9153 45.6557 51.8248 45.9358C51.7895 46.0434 51.7541 46.151 51.7188 46.2586C51.6644 46.425 51.6101 46.5914 51.556 46.7579C51.3579 47.366 51.1504 47.9609 50.8976 48.5489C50.7401 48.9315 50.6151 49.3247 50.4878 49.718C50.4356 49.8778 50.3834 50.0375 50.331 50.1971C50.3085 50.2664 50.2861 50.3357 50.2629 50.4071C50.2049 50.576 50.2049 50.576 50.1295 50.7269C48.8601 50.7269 47.5906 50.7269 46.2827 50.7269C46.0821 50.3757 45.9371 50.1147 45.8098 49.7472C45.7792 49.6597 45.7485 49.5721 45.7169 49.4819C45.7009 49.4353 45.6848 49.3887 45.6683 49.3407C45.6166 49.1907 45.5643 49.041 45.5119 48.8913C45.4545 48.7275 45.3972 48.5638 45.3401 48.4C45.1086 47.7366 44.8724 47.0749 44.636 46.4132C44.5639 46.2111 44.4919 46.009 44.4199 45.8068C44.1913 45.1655 43.9591 44.5258 43.7186 43.8889C43.5792 43.5191 43.446 43.1477 43.3175 42.774C43.0845 42.1023 42.8444 41.4333 42.6016 40.7651C42.5204 40.5409 42.4402 40.3164 42.3605 40.0917C42.3317 40.011 42.3028 39.9303 42.2731 39.8471C42.2455 39.7676 42.2178 39.688 42.1893 39.6061C42.1643 39.5346 42.1392 39.4632 42.1134 39.3895C42.0585 39.1854 42.0547 39.0194 42.0588 38.8094Z" fill="#C5FF4A"/>
<path d="M80.4762 38.7906C80.5504 38.7907 80.6246 38.7907 80.7011 38.7908C80.7861 38.7904 80.8712 38.7901 80.9588 38.7898C81.0525 38.7902 81.1462 38.7906 81.2428 38.7911C81.3903 38.7909 81.3903 38.7909 81.5409 38.7906C81.8111 38.7903 82.0813 38.7909 82.3515 38.7916C82.6339 38.7923 82.9163 38.7922 83.1987 38.7921C83.673 38.7922 84.1473 38.7928 84.6216 38.7939C85.1705 38.7951 85.7193 38.7955 86.2682 38.7954C86.7955 38.7954 87.3228 38.7957 87.8502 38.7964C88.0749 38.7966 88.2996 38.7968 88.5243 38.7968C88.8379 38.7969 89.1514 38.7976 89.4649 38.7984C89.5587 38.7984 89.6524 38.7984 89.749 38.7983C89.8765 38.7988 89.8765 38.7988 90.0066 38.7993C90.0808 38.7994 90.155 38.7996 90.2315 38.7997C90.4075 38.8094 90.4075 38.8094 90.5583 38.8848C90.5583 39.9302 90.5583 40.9757 90.5583 42.0528C89.0168 42.0858 89.0168 42.0858 88.5296 42.0956C88.403 42.0985 88.2763 42.1014 88.1497 42.1043C88.0833 42.1056 88.0169 42.1068 87.9485 42.1081C87.6451 42.0855 87.6451 42.0855 87.3904 42.2036C87.3823 42.3143 87.3793 42.4253 87.3785 42.5363C87.3777 42.6081 87.377 42.6799 87.3762 42.7539C87.3758 42.8333 87.3754 42.9128 87.3749 42.9946C87.3742 43.0777 87.3734 43.1609 87.3726 43.2465C87.3702 43.5228 87.3684 43.7991 87.3665 44.0754C87.365 44.2664 87.3634 44.4574 87.3618 44.6484C87.358 45.1007 87.3546 45.5529 87.3514 46.0052C87.3476 46.5199 87.3435 47.0347 87.3393 47.5494C87.3307 48.6086 87.3227 49.6677 87.315 50.7269C86.7806 50.7326 86.2463 50.7366 85.712 50.7393C85.5301 50.7404 85.3482 50.742 85.1663 50.7439C84.9053 50.7467 84.6443 50.748 84.3833 50.749C84.2608 50.7507 84.2608 50.7507 84.1357 50.7525C84.0602 50.7525 83.9847 50.7525 83.9069 50.7526C83.8069 50.7533 83.8069 50.7533 83.7049 50.7541C83.6517 50.7451 83.5985 50.7361 83.5436 50.7269C83.3832 50.4863 83.374 50.4282 83.3746 50.1527C83.3744 50.0813 83.3742 50.0099 83.374 49.9363C83.3745 49.8581 83.3751 49.78 83.3756 49.6994C83.3756 49.617 83.3756 49.5346 83.3756 49.4496C83.3757 49.1766 83.3768 48.9036 83.378 48.6305C83.3783 48.4415 83.3785 48.2524 83.3787 48.0633C83.3792 47.6161 83.3804 47.169 83.3819 46.7218C83.3837 46.1627 83.3846 45.6037 83.3854 45.0447C83.387 44.0474 83.3897 43.0501 83.3928 42.0528C82.3473 42.0528 81.3019 42.0528 80.2248 42.0528C80.0999 41.8028 80.1371 41.5238 80.1367 41.249C80.1365 41.1843 80.1362 41.1196 80.136 41.0529C80.1356 40.9159 80.1354 40.779 80.1354 40.642C80.1353 40.4319 80.1339 40.2219 80.1325 40.0118C80.1322 39.8789 80.1321 39.7461 80.132 39.6132C80.1315 39.5501 80.1309 39.487 80.1304 39.422C80.1327 38.8273 80.1327 38.8273 80.4762 38.7906Z" fill="#C5FF4A"/>
<path d="M119.145 10.4492C119.17 10.4492 119.195 10.4492 119.221 10.4492C119.221 13.1872 119.221 15.9252 119.221 18.7462C119.196 18.7462 119.171 18.7462 119.145 18.7462C119.145 16.0082 119.145 13.2702 119.145 10.4492Z" fill="#C5FF4A"/>
<path d="M74.4924 38.9602C74.5173 38.9602 74.5422 38.9602 74.5679 38.9602C74.5679 40.6279 74.5679 42.2956 74.5679 44.0138C74.543 44.0138 74.5181 44.0138 74.4924 44.0138C74.4924 42.3461 74.4924 40.6784 74.4924 38.9602Z" fill="#C5FF4A"/>
<path d="M90.6338 39.0356C90.6587 39.0356 90.6836 39.0356 90.7092 39.0356C90.7092 40.0064 90.7092 40.9771 90.7092 41.9773C90.6843 41.9773 90.6594 41.9773 90.6338 41.9773C90.6338 41.0066 90.6338 40.0358 90.6338 39.0356Z" fill="#000100"/>
<path d="M133.476 41.751C133.675 41.751 133.875 41.751 134.08 41.751C134.08 41.7759 134.08 41.8008 134.08 41.8264C133.881 41.8264 133.681 41.8264 133.476 41.8264C133.476 41.8015 133.476 41.7766 133.476 41.751Z" fill="#000100"/>
<path d="M133.778 46.5029C133.929 46.5784 133.929 46.5784 133.929 46.5784L133.778 46.5029Z" fill="#000100"/>
</g>
<defs>
<clipPath id="clip0_5602_18210">
<rect width="181" height="51" fill="white"/>
</clipPath>
</defs>
</svg>
