<svg width="181" height="51" viewBox="0 0 181 51" fill="none" xmlns="http://www.w3.org/2000/svg">
<path d="M0 20.8099V20.2699L8.68 9.0899C8.89333 8.81657 9.17333 8.6799 9.52 8.6799L23.11 8.6499C23.5033 8.6499 23.8167 8.80324 24.05 9.1099L32.33 19.7599C32.59 20.0999 32.6767 20.4799 32.59 20.8999L29.69 34.3299C29.6526 34.4983 29.5775 34.6566 29.4703 34.7933C29.363 34.9299 29.2263 35.0415 29.07 35.1199L16.92 41.1299C16.58 41.3032 16.24 41.3032 15.9 41.1299L3.67 35.0899C3.40333 34.9632 3.23667 34.7532 3.17 34.4599L0 20.8099ZM20.7 11.1599C20.7348 11.1128 20.756 11.057 20.7613 10.9986C20.7666 10.9403 20.7557 10.8816 20.7299 10.829C20.7041 10.7764 20.6644 10.7318 20.615 10.7003C20.5657 10.6687 20.5086 10.6513 20.45 10.6499L12.31 10.6899C12.2497 10.6899 12.1906 10.7069 12.1395 10.739C12.0885 10.771 12.0475 10.8169 12.0214 10.8712C11.9953 10.9256 11.985 10.9862 11.9919 11.0461C11.9987 11.1061 12.0223 11.1628 12.06 11.2099L16.16 16.4299C16.19 16.4674 16.228 16.4977 16.2713 16.5185C16.3146 16.5393 16.362 16.5502 16.41 16.5502C16.458 16.5502 16.5054 16.5393 16.5487 16.5185C16.592 16.4977 16.63 16.4674 16.66 16.4299L20.7 11.1599ZM3.03 19.8299C2.9982 19.8698 2.97606 19.9165 2.96534 19.9663C2.95461 20.0162 2.95558 20.0678 2.96818 20.1172C2.98077 20.1666 3.00465 20.2125 3.03793 20.2511C3.07121 20.2897 3.113 20.3201 3.16 20.3399L10.76 23.6099C10.8269 23.6386 10.9015 23.6444 10.972 23.6263C11.0426 23.6082 11.1051 23.5673 11.15 23.5099L14.96 18.6099C15.0038 18.5524 15.0275 18.4822 15.0275 18.4099C15.0275 18.3376 15.0038 18.2674 14.96 18.2099L9.81 11.6699C9.77838 11.631 9.73832 11.5998 9.69284 11.5787C9.64737 11.5576 9.59769 11.5471 9.54756 11.5481C9.49744 11.5491 9.44819 11.5614 9.40356 11.5843C9.35894 11.6071 9.3201 11.6398 9.29 11.6799L3.03 19.8299ZM21.71 21.2599C21.7005 21.3088 21.7033 21.3593 21.7182 21.4069C21.7331 21.4544 21.7596 21.4975 21.7954 21.5322C21.8311 21.567 21.8749 21.5923 21.9229 21.6058C21.9708 21.6194 22.0214 21.6208 22.07 21.6099L29.33 19.9899C29.3806 19.9803 29.4279 19.9578 29.4673 19.9247C29.5067 19.8915 29.5369 19.8487 29.5549 19.8005C29.573 19.7523 29.5784 19.7002 29.5705 19.6493C29.5626 19.5984 29.5418 19.5504 29.51 19.5099L24.11 12.4399C24.075 12.3949 24.0279 12.3607 23.9742 12.3415C23.9205 12.3223 23.8625 12.3188 23.8068 12.3314C23.7512 12.3439 23.7003 12.3721 23.6602 12.4126C23.62 12.4531 23.5922 12.5042 23.58 12.5599L21.71 21.2599ZM19.22 20.2799C19.2536 20.3264 19.3 20.3619 19.3536 20.382C19.4073 20.4021 19.4659 20.4061 19.5226 20.3935C19.5794 20.3809 19.6319 20.3522 19.6739 20.3108C19.716 20.2694 19.7459 20.2171 19.76 20.1599L20.96 15.0099C21.14 14.2432 20.98 14.1632 20.48 14.7699C19.6867 15.7299 18.8933 16.7799 18.1 17.9199C17.8933 18.2266 17.9 18.5266 18.12 18.8199L19.22 20.2799ZM17.74 22.5799C17.7953 22.5703 17.8473 22.5468 17.891 22.5115C17.9347 22.4762 17.9686 22.4304 17.9897 22.3783C18.0107 22.3263 18.0181 22.2697 18.0111 22.214C18.0042 22.1582 17.9832 22.1052 17.95 22.0599L16.68 20.3299C16.6496 20.2866 16.6091 20.2512 16.5621 20.2268C16.5151 20.2024 16.463 20.1896 16.41 20.1896C16.357 20.1896 16.3049 20.2024 16.2579 20.2268C16.2109 20.2512 16.1704 20.2866 16.14 20.3299L14.52 22.5599C14.4815 22.6128 14.4595 22.676 14.457 22.7414C14.4544 22.8068 14.4714 22.8714 14.5057 22.9272C14.54 22.9829 14.5901 23.0272 14.6496 23.0544C14.7091 23.0816 14.7754 23.0905 14.84 23.0799L17.74 22.5799ZM30.22 22.4399C30.2331 22.3857 30.2322 22.329 30.2174 22.2752C30.2026 22.2213 30.1744 22.1722 30.1355 22.1322C30.0965 22.0922 30.0481 22.0628 29.9946 22.0467C29.9412 22.0305 29.8846 22.0282 29.83 22.0399L22.33 23.6499C22.2764 23.6622 22.2267 23.6877 22.1854 23.7241C22.1442 23.7605 22.1127 23.8066 22.0938 23.8583C22.0749 23.91 22.0692 23.9656 22.0773 24.02C22.0854 24.0744 22.1069 24.1259 22.14 24.1699L27.58 31.2499C27.6179 31.2986 27.6686 31.3357 27.7264 31.357C27.7843 31.3783 27.847 31.383 27.9074 31.3705C27.9677 31.358 28.0234 31.3288 28.0681 31.2863C28.1127 31.2438 28.1446 31.1896 28.16 31.1299L30.22 22.4399ZM3.08 22.4999C3.02382 22.4761 2.96213 22.4683 2.90178 22.4774C2.84143 22.4865 2.7848 22.5122 2.73817 22.5515C2.69154 22.5909 2.65674 22.6425 2.63764 22.7004C2.61855 22.7584 2.6159 22.8205 2.63 22.8799L4.51 31.1399C4.52257 31.2027 4.55314 31.2605 4.59799 31.3062C4.64284 31.352 4.70003 31.3836 4.76258 31.3974C4.82513 31.4112 4.89034 31.4065 4.95026 31.3839C5.01017 31.3612 5.0622 31.3216 5.1 31.2699L9.41 25.6899C9.4418 25.65 9.46394 25.6034 9.47466 25.5535C9.48539 25.5036 9.48442 25.452 9.47182 25.4026C9.45923 25.3532 9.43535 25.3073 9.40207 25.2687C9.36879 25.2301 9.327 25.1997 9.28 25.1799L3.08 22.4999ZM18.81 24.8899C18.8253 24.83 18.825 24.7672 18.809 24.7075C18.793 24.6478 18.7619 24.5932 18.7187 24.549C18.6755 24.5048 18.6217 24.4725 18.5623 24.4551C18.503 24.4377 18.4402 24.436 18.38 24.4499L11.96 25.8899C11.8769 25.9071 11.8025 25.9532 11.75 26.0199L5.98 33.4799C5.9481 33.5223 5.92597 33.5713 5.9152 33.6233C5.90443 33.6752 5.90529 33.7289 5.91771 33.7805C5.93013 33.8322 5.95382 33.8804 5.98706 33.9218C6.0203 33.9631 6.06229 33.9966 6.11 34.0199L15.25 38.4699C15.2986 38.4939 15.3519 38.5067 15.4061 38.5072C15.4603 38.5077 15.5139 38.496 15.5629 38.473C15.6119 38.4499 15.6551 38.416 15.6892 38.374C15.7234 38.3319 15.7476 38.2826 15.76 38.2299L18.81 24.8899ZM21.12 26.1299C21.0814 26.0813 21.03 26.0445 20.9714 26.0238C20.9129 26.0031 20.8498 25.9993 20.7892 26.0129C20.7286 26.0264 20.6731 26.0568 20.629 26.1005C20.585 26.1442 20.5541 26.1995 20.54 26.2599L17.99 37.5999C17.9756 37.6611 17.979 37.725 17.9998 37.7843C18.0205 37.8436 18.0578 37.8958 18.1071 37.9346C18.1565 37.9735 18.2159 37.9974 18.2784 38.0037C18.3409 38.0099 18.4039 37.9982 18.46 37.9699L26.74 33.8799C26.7846 33.8588 26.8239 33.828 26.855 33.7897C26.8861 33.7514 26.9082 33.7066 26.9197 33.6586C26.9312 33.6107 26.9318 33.5607 26.9215 33.5125C26.9112 33.4643 26.8902 33.4189 26.86 33.3799L21.12 26.1299Z" fill="#C5FF4A"/>
<path d="M85.6359 15.888L83.4159 15.8919C83.206 15.8923 83.0362 16.0627 83.0366 16.2726L83.0633 31.6126C83.0637 31.8224 83.2341 31.9923 83.444 31.9919L85.664 31.988C85.8739 31.9876 86.0437 31.8172 86.0433 31.6074L86.0165 16.2674C86.0162 16.0575 85.8458 15.8877 85.6359 15.888Z" fill="#C5FF4A"/>
<path d="M46.77 26.31L46.76 31.49C46.76 31.8234 46.5933 31.99 46.26 31.99L44.24 31.98C43.9133 31.98 43.75 31.8167 43.75 31.49V17.3C43.75 16.9534 43.9267 16.78 44.28 16.78C46.5933 16.82 48.8433 16.84 51.03 16.84C57.76 16.82 57.82 25.29 51.16 25.73C49.8867 25.81 48.6467 25.8 47.44 25.7C47 25.66 46.7767 25.8634 46.77 26.31ZM46.76 19.45V23.07C46.7626 23.1532 46.7975 23.232 46.8572 23.2899C46.9169 23.3477 46.9968 23.3801 47.08 23.38H50.66C50.9656 23.3799 51.2681 23.3292 51.5503 23.2311C51.8324 23.1329 52.0886 22.989 52.3042 22.8079C52.5198 22.6267 52.6905 22.4117 52.8064 22.1752C52.9224 21.9388 52.9814 21.6855 52.98 21.43V21.05C52.9772 20.537 52.7316 20.046 52.2968 19.6843C51.862 19.3226 51.2735 19.1197 50.66 19.12H47.08C47.0371 19.12 46.9947 19.1286 46.9552 19.1453C46.9157 19.162 46.88 19.1865 46.8501 19.2173C46.8203 19.248 46.7969 19.2845 46.7814 19.3245C46.7659 19.3645 46.7587 19.4072 46.76 19.45Z" fill="#C5FF4A"/>
<path d="M104.78 19.6001L104.82 22.6801C104.82 22.7273 104.829 22.7742 104.847 22.8178C104.866 22.8615 104.892 22.9012 104.926 22.9346C104.959 22.9681 104.999 22.9946 105.042 23.0127C105.086 23.0308 105.133 23.0401 105.18 23.0401L112.06 23.0101C112.109 23.0087 112.158 23.0173 112.203 23.0354C112.249 23.0535 112.29 23.0807 112.325 23.1154C112.359 23.15 112.387 23.1913 112.405 23.2369C112.423 23.2824 112.431 23.3311 112.43 23.3801L112.4 25.1401C112.4 25.2355 112.362 25.3271 112.295 25.3946C112.227 25.4621 112.136 25.5001 112.04 25.5001H105.17C105.075 25.5001 104.983 25.538 104.916 25.6055C104.848 25.673 104.81 25.7646 104.81 25.8601L104.77 31.6301C104.77 31.7255 104.732 31.8171 104.665 31.8846C104.597 31.9521 104.506 31.9901 104.41 31.9901L102.19 31.9701C102.095 31.9701 102.003 31.9321 101.936 31.8646C101.868 31.7971 101.83 31.7055 101.83 31.6101L101.82 17.1801C101.82 17.0846 101.858 16.993 101.926 16.9255C101.993 16.858 102.085 16.8201 102.18 16.8201L112.49 16.8301C112.586 16.8301 112.677 16.868 112.745 16.9355C112.812 17.003 112.85 17.0946 112.85 17.1901L112.84 18.8901C112.84 18.9855 112.802 19.0771 112.735 19.1446C112.667 19.2121 112.576 19.2501 112.48 19.2501L105.14 19.2401C105.093 19.2401 105.046 19.2494 105.002 19.2675C104.959 19.2856 104.919 19.3121 104.886 19.3455C104.852 19.3789 104.826 19.4186 104.807 19.4623C104.789 19.506 104.78 19.5528 104.78 19.6001Z" fill="#C5FF4A"/>
<path d="M148.28 21.4299C148.78 20.8099 149.62 20.3299 150.41 20.2099C157.16 19.1699 155.42 28.1599 155.52 31.6799C155.52 31.8866 155.417 31.9899 155.21 31.9899L152.95 31.9999C152.743 32.0066 152.64 31.9066 152.64 31.6999L152.61 24.6999C152.608 24.1874 152.408 23.6955 152.052 23.3267C151.696 22.9578 151.212 22.7405 150.7 22.7199L150.29 22.6999C148.703 22.6266 147.913 23.3799 147.92 24.9599L147.93 31.3699C147.93 31.7432 147.747 31.9366 147.38 31.9499L145.52 32.0099C145.18 32.0232 145.01 31.8599 145.01 31.5199L145 21.2299C145 20.7432 145.24 20.4599 145.72 20.3799C146.82 20.2066 147.477 20.5166 147.69 21.3099C147.803 21.7366 148 21.7766 148.28 21.4299Z" fill="#C5FF4A"/>
<path d="M164.01 22.8099C158.79 20.9899 158.79 31.0599 163.73 29.8099C164.423 29.6299 164.91 29.1799 165.19 28.4599C165.337 28.0732 165.617 27.8832 166.03 27.8899L167.67 27.9199C168.19 27.9266 168.363 28.1766 168.19 28.6699C167.33 31.0566 165.66 32.2366 163.18 32.2099C159.16 32.1699 157.15 30.1032 157.15 26.0099C157.15 19.4899 165.58 17.9499 168.17 23.6399C168.343 24.0132 168.233 24.2699 167.84 24.4099C166.573 24.8699 165.647 24.6266 165.06 23.6799C164.793 23.2466 164.443 22.9566 164.01 22.8099Z" fill="#C5FF4A"/>
<path d="M181 25.44V26.94L173.04 27.02C172.56 27.02 172.367 27.2533 172.46 27.72C172.88 29.92 175.65 31.07 177.21 29.27C177.383 29.0662 177.597 28.9025 177.839 28.7902C178.081 28.678 178.344 28.6199 178.61 28.62H179.56C180.46 28.62 180.653 28.9933 180.14 29.74C178.593 31.9933 176.317 32.7433 173.31 31.99C167.54 30.53 168.35 20.76 174.71 20.21C177.917 19.93 180.013 21.6733 181 25.44ZM172.78 25.2L177.54 25.18C177.601 25.18 177.659 25.1557 177.703 25.1126C177.746 25.0695 177.77 25.011 177.77 24.95V24.82C177.769 24.5118 177.703 24.2069 177.576 23.9229C177.449 23.6388 177.264 23.3811 177.03 23.1646C176.797 22.9481 176.521 22.7771 176.217 22.6613C175.913 22.5455 175.588 22.4873 175.26 22.49H175.02C174.362 22.4953 173.732 22.7456 173.269 23.186C172.806 23.6264 172.548 24.2211 172.55 24.84V24.97C172.55 25.031 172.574 25.0895 172.617 25.1326C172.66 25.1757 172.719 25.2 172.78 25.2Z" fill="#C5FF4A"/>
<path d="M68.7099 26.23C68.7099 27.8266 68.0757 29.3578 66.9467 30.4867C65.8177 31.6157 64.2865 32.25 62.6899 32.25C61.0933 32.25 59.5621 31.6157 58.4331 30.4867C57.3042 29.3578 56.6699 27.8266 56.6699 26.23C56.6699 24.6334 57.3042 23.1021 58.4331 21.9732C59.5621 20.8442 61.0933 20.21 62.6899 20.21C64.2865 20.21 65.8177 20.8442 66.9467 21.9732C68.0757 23.1021 68.7099 24.6334 68.7099 26.23ZM62.6604 29.9699C63.4454 29.974 64.2004 29.585 64.7591 28.8884C65.3179 28.1918 65.6347 27.2447 65.6399 26.2555C65.6425 25.7656 65.5685 25.2802 65.4221 24.8269C65.2757 24.3736 65.0598 23.9612 64.7867 23.6134C64.5137 23.2657 64.1888 22.9892 63.8307 22.7999C63.4725 22.6106 63.0881 22.5121 62.6994 22.5101C61.9144 22.5059 61.1595 22.895 60.6007 23.5916C60.0419 24.2881 59.7251 25.2352 59.7199 26.2245C59.7174 26.7143 59.7914 27.1997 59.9378 27.653C60.0842 28.1064 60.3001 28.5187 60.5731 28.8665C60.8462 29.2143 61.171 29.4907 61.5292 29.68C61.8873 29.8694 62.2717 29.9678 62.6604 29.9699Z" fill="#C5FF4A"/>
<path d="M81.54 26.24C81.54 27.0331 81.3837 27.8186 81.0802 28.5514C80.7767 29.2842 80.3318 29.95 79.7709 30.5109C79.21 31.0717 78.5442 31.5166 77.8114 31.8202C77.0786 32.1237 76.2931 32.2799 75.5 32.2799C74.7068 32.2799 73.9214 32.1237 73.1886 31.8202C72.4557 31.5166 71.7899 31.0717 71.229 30.5109C70.6682 29.95 70.2233 29.2842 69.9197 28.5514C69.6162 27.8186 69.46 27.0331 69.46 26.24C69.46 25.4468 69.6162 24.6613 69.9197 23.9285C70.2233 23.1957 70.6682 22.5299 71.229 21.969C71.7899 21.4082 72.4557 20.9633 73.1886 20.6597C73.9214 20.3562 74.7068 20.2 75.5 20.2C77.1019 20.2 78.6382 20.8363 79.7709 21.969C80.9036 23.1017 81.54 24.638 81.54 26.24ZM75.487 29.99C75.8717 29.9913 76.2531 29.8961 76.6092 29.7099C76.9654 29.5237 77.2893 29.2501 77.5626 28.9047C77.8359 28.5593 78.0531 28.1488 78.202 27.6968C78.3508 27.2448 78.4283 26.76 78.43 26.2702C78.4317 25.7803 78.3576 25.295 78.2119 24.842C78.0662 24.3889 77.8518 23.977 77.581 23.6296C77.3101 23.2823 76.9881 23.0065 76.6332 22.8178C76.2784 22.6291 75.8977 22.5313 75.513 22.53C75.1282 22.5286 74.7468 22.6238 74.3907 22.81C74.0346 22.9962 73.7106 23.2698 73.4373 23.6152C73.164 23.9606 72.9468 24.3711 72.798 24.8231C72.6491 25.2751 72.5717 25.7599 72.57 26.2498C72.5683 26.7396 72.6423 27.2249 72.788 27.6779C72.9337 28.131 73.1481 28.5429 73.4189 28.8903C73.6898 29.2376 74.0119 29.5134 74.3667 29.7021C74.7215 29.8908 75.1022 29.9886 75.487 29.99Z" fill="#C5FF4A"/>
<path d="M123.2 21.45C126.06 18.55 130.48 20.54 130.52 24.65C130.547 27.0767 130.543 29.4333 130.51 31.72C130.51 31.9 130.42 31.99 130.24 31.99L127.99 32.01C127.81 32.01 127.72 31.92 127.72 31.74L127.67 24.83C127.663 23.63 127.067 22.93 125.88 22.73C125.7 22.7033 125.52 22.69 125.34 22.69C123.74 22.69 122.943 23.49 122.95 25.09L122.99 31.49C122.991 31.5539 122.98 31.6174 122.956 31.6768C122.933 31.7362 122.898 31.7903 122.853 31.8359C122.808 31.8815 122.755 31.9178 122.696 31.9425C122.637 31.9673 122.574 31.98 122.51 31.98L120.48 31.97C120.153 31.97 119.99 31.8067 119.99 31.48V21.19C119.99 20.7633 120.2 20.51 120.62 20.43C121.767 20.2033 122.487 20.51 122.78 21.35C122.867 21.61 123.007 21.6433 123.2 21.45Z" fill="#C5FF4A"/>
<path d="M139.33 31.2801C137.31 32.6601 133.2 32.7801 132.41 29.8001C131.19 25.2101 136.42 25.2601 139.16 24.9301C139.324 24.9094 139.479 24.8465 139.611 24.7474C139.743 24.6484 139.847 24.5167 139.912 24.3654C139.978 24.214 140.003 24.0481 139.985 23.8842C139.967 23.7202 139.907 23.5637 139.81 23.4301C138.99 22.3001 137.15 21.8301 136.13 22.9601C135.33 23.8468 134.32 24.1868 133.1 23.9801C132.7 23.9134 132.547 23.6835 132.64 23.2901C133.027 21.6368 134.193 20.6468 136.14 20.3201C144.6 18.9101 142.55 26.3701 142.79 31.2201C142.817 31.6401 142.623 31.9001 142.21 32.0001C141.283 32.2268 140.56 32.0201 140.04 31.3801C139.833 31.1334 139.597 31.1001 139.33 31.2801ZM139.34 26.7301C138.24 26.9101 136.9 26.7801 135.96 27.3101C135.747 27.4277 135.567 27.5958 135.434 27.7997C135.302 28.0036 135.222 28.2369 135.201 28.4791C135.181 28.7213 135.22 28.9648 135.315 29.1882C135.411 29.4117 135.56 29.6081 135.75 29.7601C137.85 31.4501 139.94 29.4101 139.87 27.1701C139.863 26.8168 139.687 26.6701 139.34 26.7301Z" fill="#C5FF4A"/>
<path d="M92.26 29.62L96.99 29.6C97.2567 29.6 97.3934 29.73 97.4 29.99L97.44 31.52C97.4467 31.8333 97.2934 31.99 96.98 31.99L88.36 31.96C87.96 31.96 87.76 31.76 87.76 31.36L87.75 30.3C87.7434 29.9533 87.8534 29.65 88.08 29.39L93.03 23.5C93.3834 23.08 93.2867 22.8733 92.74 22.88L88.55 22.91C88.1434 22.9167 87.9467 22.7133 87.96 22.3L87.99 20.99C87.9967 20.6567 88.17 20.49 88.51 20.49L96.01 20.48C96.293 20.4793 96.5703 20.5598 96.809 20.7118C97.0476 20.8639 97.2377 21.0812 97.3566 21.338C97.4755 21.5948 97.5183 21.8803 97.48 22.1607C97.4416 22.4411 97.3236 22.7046 97.14 22.92L91.99 29.04C91.6567 29.4267 91.7467 29.62 92.26 29.62Z" fill="#C5FF4A"/>
<path d="M117.02 20.478L114.72 20.482C114.576 20.4822 114.46 20.5988 114.46 20.7424L114.48 31.7424C114.48 31.886 114.596 32.0022 114.74 32.002L117.04 31.9979C117.184 31.9977 117.3 31.8811 117.3 31.7375L117.28 20.7375C117.28 20.5939 117.164 20.4777 117.02 20.478Z" fill="#C5FF4A"/>
</svg>
