<svg width="72" height="72" viewBox="0 0 72 72" fill="none" xmlns="http://www.w3.org/2000/svg">
<g id="Frame 1073715489" clip-path="url(#clip0_4791_60)">
<path id="Union" fill-rule="evenodd" clip-rule="evenodd" d="M43.2 2.7C43.2 1.20883 44.4088 0 45.9 0H69.3C70.7912 0 72 1.20883 72 2.7V26.1C72 27.5912 70.7912 28.8 69.3 28.8H62.1C60.6088 28.8 59.4 30.0088 59.4 31.5V48.5338C59.4 49.7657 60.2686 50.7979 61.3225 51.4357C63.4069 52.6972 64.8 54.9859 64.8 57.6C64.8 61.5765 61.5765 64.8 57.6 64.8C54.9859 64.8 52.6972 63.4069 51.4357 61.3225C50.7979 60.2686 49.7657 59.4 48.5338 59.4H31.5C30.0088 59.4 28.8 60.6088 28.8 62.1V69.3C28.8 70.7912 27.5912 72 26.1 72H2.7C1.20883 72 0 70.7912 0 69.3V45.9C0 44.4088 1.20883 43.2 2.7 43.2H9.9C11.3912 43.2 12.6 41.9912 12.6 40.5V23.4662C12.6 22.2343 11.7314 21.2021 10.6775 20.5643C8.59313 19.3028 7.2 17.0141 7.2 14.4C7.2 10.4236 10.4236 7.2 14.4 7.2C17.0141 7.2 19.3028 8.59313 20.5643 10.6775C21.2021 11.7314 22.2343 12.6 23.4662 12.6H40.5C41.9912 12.6 43.2 11.3912 43.2 9.9V2.7ZM55.8 48.5338C55.8 49.7657 54.9315 50.7979 53.8775 51.4357C52.8794 52.0398 52.0398 52.8794 51.4357 53.8775C50.7979 54.9315 49.7657 55.8 48.5338 55.8H31.5C30.0088 55.8 28.8 54.5912 28.8 53.1V45.9C28.8 44.4088 27.5912 43.2 26.1 43.2H18.9C17.4088 43.2 16.2 41.9912 16.2 40.5C16.2 39.0088 17.4088 37.8 18.9 37.8H53.1C54.5912 37.8 55.8 39.0088 55.8 40.5V48.5338ZM18.9 34.2C17.4088 34.2 16.2 32.9912 16.2 31.5V23.4662C16.2 22.2343 17.0685 21.2021 18.1225 20.5643C19.1206 19.9602 19.9602 19.1206 20.5643 18.1225C21.2021 17.0685 22.2343 16.2 23.4662 16.2H40.5C41.9912 16.2 43.2 17.4088 43.2 18.9V26.1C43.2 27.5912 44.4088 28.8 45.9 28.8H53.1C54.5912 28.8 55.8 30.0088 55.8 31.5C55.8 32.9912 54.5912 34.2 53.1 34.2L18.9 34.2Z" fill="#C5FF4A"/>
</g>
<defs>
<clipPath id="clip0_4791_60">
<rect width="71.9994" height="72.0001" fill="white"/>
</clipPath>
</defs>
</svg>
