<svg width="181" height="51" viewBox="0 0 181 51" fill="none" xmlns="http://www.w3.org/2000/svg">
<g clip-path="url(#clip0_5602_18185)">
<path d="M59.6431 14.7611C61.3887 16.1577 62.3739 18.0653 62.6857 20.2683C62.7012 20.6052 62.709 20.9425 62.7103 21.2797C62.7114 21.4754 62.7124 21.6711 62.7135 21.8727C62.7137 22.0819 62.7139 22.291 62.7141 22.5064C62.715 22.832 62.715 22.832 62.7158 23.1641C62.7168 23.6224 62.7171 24.0807 62.717 24.539C62.717 25.1238 62.7193 25.7085 62.7222 26.2932C62.7246 26.8544 62.7245 27.4155 62.7247 27.9766C62.7259 28.1854 62.7271 28.3942 62.7283 28.6093C62.7252 29.8147 62.6288 30.7326 62.1724 31.849C61.9327 32.4512 61.7694 32.8896 61.9746 33.5214C62.2064 33.9372 62.4598 34.3183 62.7385 34.7042C62.9182 34.9674 63.0971 35.2312 63.2751 35.4956C63.3968 35.6666 63.3968 35.6666 63.5209 35.841C63.6995 36.151 63.6995 36.151 63.6995 36.6578C63.811 36.6578 63.9225 36.6578 64.0374 36.6578C64.0374 36.7694 64.0374 36.8809 64.0374 36.9958C63.8862 36.9984 63.8862 36.9984 63.7318 37.001C62.6848 37.0193 61.6379 37.0387 60.5909 37.0587C60.1999 37.066 59.8088 37.0731 59.4177 37.0798C58.8566 37.0895 58.2954 37.1003 57.7343 37.1113C57.4708 37.1155 57.4708 37.1155 57.202 37.1198C57.0396 37.1232 56.8773 37.1266 56.71 37.13C56.5667 37.1327 56.4234 37.1353 56.2757 37.138C55.9165 37.1435 55.9165 37.1435 55.5892 37.3337C55.0446 37.3742 54.4984 37.365 53.9524 37.3654C53.8026 37.3675 53.6529 37.3695 53.4986 37.3717C51.0304 37.3771 49.1704 36.2351 47.4103 34.6098C46.6515 33.7676 46.2095 32.8083 45.7893 31.7579C45.6952 31.5331 45.6952 31.5331 45.5992 31.3038C45.1315 29.5333 45.256 27.6064 45.2604 25.7874C45.2613 25.3381 45.2604 24.8889 45.2593 24.4396C45.2577 21.0142 45.369 18.0095 47.8169 15.3683C48.4082 14.8615 48.4082 14.8615 48.8307 14.8615C48.8307 14.7499 48.8307 14.6384 48.8307 14.5235C52.4026 12.5665 56.2111 12.3386 59.6431 14.7611ZM51.1962 18.4097C51.1962 18.5212 51.1962 18.6327 51.1962 18.7476C51.0846 18.7476 50.9731 18.7476 50.8582 18.7476C49.2874 21.6844 49.5242 27.5755 50.3619 30.7652C50.7351 31.7119 51.5454 32.3602 52.4416 32.7987C53.471 33.1276 54.6 33.1407 55.6011 32.7255C56.0201 32.4808 56.4061 32.2456 56.772 31.9268C56.772 31.8153 56.772 31.7038 56.772 31.5889C56.8835 31.5889 56.995 31.5889 57.1099 31.5889C57.8265 30.2804 57.8126 29.0766 57.8141 27.6189C57.8147 27.4319 57.8153 27.2449 57.8158 27.0522C57.8167 26.6575 57.8171 26.2628 57.8171 25.8682C57.8174 25.266 57.8205 24.6639 57.8237 24.0618C57.8242 23.6775 57.8245 23.2933 57.8247 22.909C57.8259 22.7298 57.8271 22.5506 57.8284 22.366C57.8241 20.9714 57.6895 19.5252 56.669 18.4651C55.6277 17.5307 54.8123 17.5173 53.4277 17.5266C52.5197 17.5907 51.9511 17.9064 51.1962 18.4097Z" fill="#C5FF4A"/>
<path d="M108.105 15.1676C108.475 15.5372 108.475 15.5372 108.475 15.8752C108.726 15.9588 108.726 15.9588 108.982 16.0441C110.9 18.6072 110.901 21.553 110.894 24.6199C110.893 25.1337 110.897 25.6474 110.902 26.1612C110.913 29.6256 110.579 32.5274 108.129 35.1767C107.799 35.475 107.799 35.475 107.461 35.475C107.461 35.5865 107.461 35.698 107.461 35.8129C107.092 36.0043 106.723 36.1942 106.352 36.3832C106.25 36.4368 106.147 36.4903 106.041 36.5456C104.755 37.1987 103.602 37.3916 102.171 37.3864C102.021 37.3891 101.871 37.3919 101.717 37.3947C99.2745 37.3964 97.1486 36.3601 95.4272 34.6592C93.1019 32.161 93.2367 28.6687 93.237 25.4867C93.2366 25.0114 93.2335 24.5362 93.2303 24.061C93.2203 20.8571 93.5286 17.8173 95.8027 15.3683C96.3941 14.8614 96.3941 14.8614 96.8165 14.8614C96.8165 14.7498 96.8165 14.6383 96.8165 14.5234C100.582 12.4673 104.586 12.3837 108.105 15.1676ZM99.0448 18.6631C97.8434 20.3154 98.0902 22.7164 98.1022 24.6443C98.1049 25.1671 98.1022 25.6896 98.0989 26.2123C98.0599 29.2077 98.0599 29.2077 99.182 31.9268C99.67 32.3037 99.67 32.3037 100.196 32.6026C100.294 32.6632 100.393 32.7237 100.495 32.7861C101.431 33.1697 102.711 33.1258 103.657 32.7927C104.541 32.2719 105.424 31.4936 105.732 30.4943C105.817 30.0073 105.874 29.5257 105.919 29.0332C105.948 28.766 105.948 28.766 105.977 28.4933C106.201 26.206 106.204 23.9379 105.972 21.6516C105.96 21.5315 105.949 21.4114 105.937 21.2877C105.821 20.319 105.613 19.3446 104.986 18.5746C104.89 18.4993 104.794 18.4239 104.694 18.3463C104.599 18.2683 104.504 18.1903 104.405 18.11C102.669 16.9971 100.523 17.3489 99.0448 18.6631Z" fill="#C5FF4A"/>
<path d="M23.824 13.3408C28.9537 13.3408 34.0835 13.3408 39.3687 13.3408C39.3687 14.679 39.3687 16.0172 39.3687 17.396C39.068 17.6967 38.626 17.5939 38.2189 17.5996C38.0092 17.603 37.7995 17.6064 37.5834 17.6098C37.3528 17.6127 37.1222 17.6156 36.8916 17.6184C36.657 17.6219 36.4224 17.6254 36.1878 17.629C35.5692 17.6384 34.9506 17.6467 34.3319 17.6549C33.7011 17.6633 33.0703 17.6727 32.4395 17.6821C31.201 17.7004 29.9625 17.7171 28.7239 17.7339C28.6682 19.4066 28.6124 21.0794 28.555 22.8028C29.2117 22.8009 29.8683 22.7989 30.5449 22.7969C31.1779 22.7956 31.8109 22.7945 32.4439 22.7935C32.8853 22.7927 33.3267 22.7915 33.7681 22.7901C34.4009 22.788 35.0338 22.7871 35.6667 22.7863C35.8654 22.7854 36.0641 22.7846 36.2688 22.7837C36.4514 22.7837 36.6341 22.7836 36.8223 22.7836C36.984 22.7833 37.1457 22.7829 37.3123 22.7825C37.679 22.8028 37.679 22.8028 37.848 22.9718C37.848 24.3657 37.848 25.7597 37.848 27.1959C34.7813 27.1959 31.7146 27.1959 28.555 27.1959C28.555 29.0917 28.555 30.9874 28.555 32.9407C32.1235 32.9407 35.692 32.9407 39.3687 32.9407C39.3687 34.2789 39.3687 35.6171 39.3687 36.9958C34.2389 36.9958 29.1092 36.9958 23.824 36.9958C23.824 29.1897 23.824 21.3835 23.824 13.3408Z" fill="#C5FF4A"/>
<path d="M69.4442 13.3407C70.1149 13.3365 70.7856 13.3335 71.4563 13.3314C71.6846 13.3306 71.9129 13.3294 72.1412 13.328C72.4687 13.3259 72.7963 13.3251 73.1238 13.3242C73.4198 13.3229 73.4198 13.3229 73.7218 13.3215C74.1752 13.3407 74.1752 13.3407 74.3442 13.5097C74.3627 14.0168 74.3703 14.5202 74.3709 15.0274C74.3721 15.2665 74.3721 15.2665 74.3735 15.5103C74.3753 15.8578 74.3767 16.2053 74.3779 16.5528C74.3799 17.1032 74.3831 17.6537 74.3868 18.2041C74.3973 19.7697 74.4064 21.3353 74.412 22.9009C74.4156 23.8576 74.4215 24.8141 74.429 25.7708C74.4314 26.1351 74.4329 26.4995 74.4334 26.8639C74.4343 27.3751 74.4382 27.8862 74.4428 28.3974C74.4423 28.5471 74.4418 28.6968 74.4413 28.851C74.4555 29.9202 74.6003 30.9046 75.2986 31.7618C75.3949 31.8371 75.4911 31.9125 75.5903 31.9901C75.6857 32.0681 75.7811 32.1461 75.8794 32.2264C76.9779 32.9304 78.1466 32.9273 79.4131 32.7716C80.3035 32.4454 81.027 31.9793 81.5357 31.1664C81.9679 30.1142 81.9742 29.0955 81.9796 27.9754C81.981 27.819 81.9824 27.6625 81.9839 27.5013C81.9868 27.1631 81.9893 26.8248 81.9916 26.4866C81.9952 25.952 81.9997 25.4174 82.0045 24.8829C82.0163 23.5563 82.0264 22.2297 82.0365 20.9031C82.0451 19.7801 82.0543 18.6571 82.0645 17.5342C82.069 17.0062 82.0725 16.4782 82.076 15.9501C82.0788 15.6288 82.0816 15.3076 82.0845 14.9863C82.0853 14.8384 82.086 14.6905 82.0867 14.5381C82.0973 13.5289 82.0973 13.5289 82.2855 13.3407C82.6234 13.3259 82.9618 13.3226 83.3 13.3242C83.5053 13.3248 83.7105 13.3253 83.922 13.3259C84.1382 13.3273 84.3544 13.3287 84.5771 13.3302C84.7939 13.3309 85.0108 13.3317 85.2341 13.3325C85.772 13.3345 86.3098 13.3372 86.8476 13.3407C86.8515 15.5013 86.8545 17.6618 86.8563 19.8224C86.8572 20.8257 86.8584 21.8289 86.8603 22.8322C86.8621 23.8007 86.8632 24.7691 86.8636 25.7376C86.8639 26.1068 86.8645 26.476 86.8654 26.8453C86.8667 27.363 86.8668 27.8807 86.8667 28.3984C86.8673 28.5505 86.868 28.7027 86.8686 28.8595C86.8644 31.4212 86.0691 33.2666 84.3131 35.1371C83.4628 35.9819 83.4628 35.9819 82.7924 35.9819C82.7924 36.0934 82.7924 36.205 82.7924 36.3199C82.5358 36.4262 82.2787 36.5316 82.0215 36.6367C81.8784 36.6955 81.7353 36.7543 81.5879 36.8149C79.5059 37.591 76.7554 37.7482 74.6821 36.8267C73.805 36.3669 72.9713 35.8552 72.1477 35.3061C72.1477 35.1946 72.1477 35.083 72.1477 34.9681C71.9804 34.9124 71.8131 34.8566 71.6408 34.7992C69.9175 33.0165 69.4155 30.7818 69.4251 28.3984C69.425 28.2351 69.425 28.0717 69.425 27.9035C69.4251 27.3668 69.4264 26.8302 69.4277 26.2935C69.4281 25.9202 69.4283 25.5469 69.4285 25.1735C69.4291 24.1933 69.4308 23.213 69.4326 22.2327C69.4344 21.2315 69.4351 20.2303 69.436 19.2291C69.4378 17.2663 69.4407 15.3035 69.4442 13.3407Z" fill="#C5FF4A"/>
<path d="M136.016 13.3408C137.299 13.3408 138.581 13.3408 139.902 13.3408C140 13.6405 140.098 13.9402 140.198 14.249C140.415 14.9024 140.643 15.5452 140.906 16.1815C141.195 16.8861 141.44 17.6016 141.677 18.3253C141.953 19.1712 142.255 19.999 142.593 20.8221C142.817 21.3891 143.018 21.9633 143.218 22.5388C143.676 23.8516 144.158 25.1543 144.644 26.4567C145.174 27.8784 145.684 29.3017 146.153 30.7448C146.352 31.3373 146.585 31.9111 146.823 32.4886C147.131 33.2805 147.387 34.09 147.65 34.8976C147.83 35.46 147.83 35.46 148.038 35.9312C148.182 36.32 148.182 36.32 148.182 36.9958C146.565 36.9958 144.948 36.9958 143.282 36.9958C142.88 35.623 142.88 35.623 142.756 35.1965C142.723 35.0824 142.689 34.9683 142.655 34.8508C142.621 34.7357 142.588 34.6207 142.553 34.5022C142.41 34.0353 142.253 33.5728 142.099 33.1096C139.423 33.1096 136.746 33.1096 133.989 33.1096C133.71 33.946 133.431 34.7824 133.144 35.6441C132.977 36.0902 132.809 36.5362 132.637 36.9958C131.02 36.9958 129.403 36.9958 127.737 36.9958C127.925 35.4951 127.925 35.4951 128.202 34.9682C128.544 34.2533 128.777 33.5289 129.004 32.7717C129.222 32.0496 129.439 31.3419 129.765 30.6597C130.085 29.987 130.3 29.291 130.514 28.5793C130.756 27.7778 131.013 27.0034 131.349 26.2349C131.82 25.152 132.179 24.0364 132.538 22.9123C132.764 22.2146 133.002 21.5394 133.308 20.8729C133.714 19.9874 134.007 19.0718 134.306 18.1457C134.836 16.5263 135.405 14.9312 136.016 13.3408ZM137.875 20.6063C137.822 20.796 137.769 20.9857 137.714 21.1812C137.058 23.4856 137.058 23.4856 136.53 24.5717C136.218 25.3301 136.011 26.1238 135.79 26.9131C135.525 27.8561 135.525 27.8561 135.34 28.0407C135.34 28.3195 135.34 28.5983 135.34 28.8855C137.125 28.8855 138.909 28.8855 140.747 28.8855C140.606 27.8409 140.606 27.8409 140.273 26.918C139.855 25.9213 139.536 24.9009 139.216 23.8694C138.871 22.7577 138.53 21.6652 138.044 20.6063C137.988 20.6063 137.932 20.6063 137.875 20.6063Z" fill="#C5FF4A"/>
<path d="M16.0747 15.2424C16.3895 15.5374 16.3895 15.5374 16.5651 15.8615C16.5585 16.2133 16.5585 16.2133 16.2542 16.6119C16.1142 16.7452 15.9741 16.8785 15.8298 17.0159C15.6911 17.1509 15.5524 17.2859 15.4094 17.4251C15.0378 17.734 15.0378 17.734 14.6999 17.734C14.6999 17.8455 14.6999 17.957 14.6999 18.0719C14.3303 18.4415 14.3303 18.4415 13.8551 18.7477C13.2897 18.7477 13.0461 18.6063 12.5984 18.262C11.3716 17.3866 9.40127 17.2389 7.95584 17.4772C6.98274 17.731 6.35675 17.9318 5.74478 18.7477C5.48438 19.5289 5.48982 20.2974 5.57582 21.1132C5.95859 21.8079 6.34424 22.0661 7.0965 22.296C7.0965 22.4075 7.0965 22.519 7.0965 22.6339C7.24177 22.6422 7.38705 22.6505 7.53673 22.659C9.32571 22.7722 11.1309 22.9086 12.8413 23.4787C12.9519 23.5151 13.0626 23.5515 13.1766 23.589C14.7534 24.1373 15.8704 25.1002 16.6958 26.5518C16.762 26.7086 16.8282 26.8654 16.8964 27.027C16.9592 27.1629 17.0219 27.2988 17.0865 27.4388C17.7795 29.4684 17.4549 31.5553 16.5585 33.4476C16.0034 34.5556 15.2624 35.3413 14.193 35.9821C14.0257 35.9821 13.8584 35.9821 13.6861 35.9821C13.6861 36.0936 13.6861 36.2051 13.6861 36.32C13.4048 36.4265 13.1231 36.5319 12.8413 36.6368C12.6061 36.7251 12.6061 36.7251 12.3661 36.815C10.9874 37.278 9.7946 37.3939 8.34261 37.3866C8.14699 37.3857 7.95138 37.3847 7.74983 37.3837C4.66071 37.3399 2.3506 36.5104 0 34.4614C0.0756328 33.7309 0.550843 33.3463 1.05603 32.8668C1.13683 32.7883 1.21764 32.7098 1.30089 32.6289C1.54244 32.3942 1.785 32.1606 2.02757 31.927C2.31046 31.6466 2.59153 31.3645 2.87239 31.0821C2.95603 31.2494 2.95603 31.2494 3.04136 31.4201C3.26212 31.5413 3.48828 31.653 3.71721 31.758C3.82481 31.8138 3.93241 31.8695 4.04326 31.927C6.05476 32.961 8.34742 33.3292 10.5708 32.7401C11.268 32.4982 11.707 32.1806 12.1654 31.589C12.3363 31.0766 12.3679 30.7004 12.3766 30.1634C12.381 30.0033 12.3853 29.8432 12.3898 29.6783C12.3259 29.1536 12.1606 28.9465 11.8275 28.5477C11.8275 28.4362 11.8275 28.3246 11.8275 28.2097C10.3894 27.668 8.95993 27.4896 7.4407 27.3019C5.89545 27.0941 4.51452 26.7371 3.22088 25.8337C3.10087 25.7516 2.98086 25.6695 2.85721 25.5849C2.55083 25.3499 2.28013 25.1226 2.02757 24.8305C2.02757 24.7189 2.02757 24.6074 2.02757 24.4925C1.91605 24.4925 1.80454 24.4925 1.68964 24.4925C1.58299 24.2642 1.47766 24.0353 1.37283 23.8061C1.31403 23.6787 1.25522 23.5513 1.19463 23.42C0.476309 21.6399 0.411899 19.6628 0.997285 17.8277C1.81016 15.9358 3.34184 14.4591 5.23459 13.6729C8.88624 12.5061 12.9536 13.087 16.0747 15.2424Z" fill="#C5FF4A"/>
<path d="M117.43 13.3408C118.936 13.3408 120.441 13.3408 121.992 13.3408C121.992 21.147 121.992 28.9531 121.992 36.9958C120.487 36.9958 118.981 36.9958 117.43 36.9958C117.43 29.1897 117.43 21.3835 117.43 13.3408Z" fill="#C5FF4A"/>
<path d="M157.475 13.3407C157.95 13.3362 158.425 13.3328 158.9 13.3302C159.036 13.3287 159.172 13.3273 159.311 13.3259C159.657 13.3244 160.002 13.3319 160.347 13.3407C160.612 13.6051 160.539 13.8634 160.541 14.2311C160.542 14.3867 160.543 14.5423 160.545 14.7027C160.545 14.9609 160.545 14.9609 160.546 15.2243C160.547 15.4045 160.548 15.5847 160.549 15.7704C160.553 16.3696 160.555 16.9689 160.556 17.5681C160.557 17.7722 160.558 17.9762 160.558 18.1865C160.562 19.2664 160.564 20.3462 160.566 21.4261C160.568 22.5438 160.574 23.6614 160.58 24.779C160.585 25.6364 160.586 26.4938 160.587 27.3511C160.588 27.7632 160.59 28.1753 160.593 28.5874C160.597 29.1635 160.597 29.7394 160.596 30.3156C160.598 30.4867 160.6 30.6578 160.602 30.834C160.594 31.9878 160.593 31.9878 160.194 32.5449C159.84 32.7716 159.84 32.7716 159.502 32.7716C159.502 32.9389 159.502 33.1062 159.502 33.2785C159.23 33.5748 159.23 33.5748 158.869 33.8804C158.751 33.9817 158.634 34.083 158.512 34.1873C158.177 34.4414 157.857 34.6261 157.475 34.7992C157.261 33.8114 157.282 32.8351 157.284 31.8299C157.284 31.6342 157.283 31.4385 157.283 31.2368C157.282 30.5912 157.283 29.9456 157.283 29.2999C157.283 28.8514 157.283 28.4028 157.283 27.9543C157.283 27.0152 157.283 26.0761 157.284 25.1369C157.285 24.0507 157.284 22.9644 157.283 21.8781C157.283 20.9449 157.283 20.0117 157.283 19.0786C157.283 18.5214 157.283 17.9642 157.283 17.4071C157.282 16.7869 157.283 16.1668 157.284 15.5467C157.283 15.2688 157.283 15.2688 157.283 14.9854C157.283 14.8172 157.284 14.6491 157.284 14.4758C157.284 14.3291 157.285 14.1825 157.285 14.0314C157.306 13.6786 157.306 13.6786 157.475 13.3407Z" fill="#C5FF4A"/>
<path d="M166.672 33.7236C167.085 33.728 167.498 33.7314 167.911 33.7337C168.992 33.7427 170.072 33.7659 171.153 33.7922C172.258 33.8165 173.364 33.8272 174.47 33.8391C176.634 33.8644 178.797 33.9042 180.961 33.9546C180.97 34.4263 180.977 34.8979 180.982 35.3697C180.985 35.5039 180.988 35.638 180.991 35.7763C180.994 36.1266 180.978 36.4771 180.961 36.827C180.623 37.1649 180.623 37.1649 180.254 37.2039C180.023 37.2015 180.023 37.2015 179.787 37.1992C179.61 37.1982 179.433 37.1972 179.251 37.1963C179.057 37.1935 178.862 37.1907 178.661 37.1878C178.457 37.1862 178.252 37.1846 178.042 37.1829C177.481 37.1782 176.919 37.172 176.358 37.1651C175.772 37.1582 175.185 37.1533 174.599 37.1482C173.488 37.1381 172.378 37.1264 171.267 37.114C170.003 37.1 168.739 37.0879 167.474 37.076C164.873 37.0515 162.272 37.0245 159.671 36.996C161.172 33.849 163.469 33.6224 166.672 33.7236Z" fill="#C5FF4A"/>
<path d="M180.961 28.0407C180.97 28.5124 180.977 28.984 180.982 29.4558C180.985 29.5899 180.988 29.7241 180.991 29.8623C180.994 30.2127 180.978 30.5631 180.961 30.9131C180.523 31.3515 180.224 31.2909 179.627 31.2931C179.487 31.2918 179.348 31.2906 179.204 31.2894C178.984 31.2895 178.984 31.2895 178.76 31.2895C178.273 31.2893 177.787 31.2867 177.301 31.284C176.964 31.2834 176.627 31.2829 176.291 31.2826C175.403 31.2813 174.516 31.278 173.629 31.2742C172.724 31.2708 171.819 31.2692 170.914 31.2675C169.138 31.2639 167.362 31.2581 165.585 31.251C165.529 31.0837 165.474 30.9165 165.416 30.7441C165.807 30.3217 165.807 30.3217 166.261 29.8993C166.428 29.8993 166.596 29.8993 166.768 29.8993C166.768 29.732 166.768 29.5648 166.768 29.3924C167.058 29.0901 167.058 29.0901 167.433 28.7799C167.557 28.6767 167.68 28.5734 167.807 28.4671C167.911 28.3821 168.014 28.2972 168.12 28.2097C168.175 28.1539 168.231 28.0981 168.289 28.0407C168.67 28.0188 169.053 28.0088 169.435 28.0033C169.555 28.0014 169.674 27.9994 169.798 27.9974C170.196 27.9912 170.594 27.9862 170.991 27.9813C171.267 27.9774 171.542 27.9734 171.818 27.9694C172.396 27.9612 172.974 27.9537 173.553 27.9465C174.295 27.9372 175.037 27.9264 175.779 27.9152C176.349 27.9067 176.918 27.8991 177.487 27.8917C177.761 27.8881 178.034 27.8842 178.308 27.88C178.69 27.8743 179.073 27.8697 179.455 27.8654C179.673 27.8625 179.891 27.8596 180.115 27.8567C180.623 27.8717 180.623 27.8717 180.961 28.0407Z" fill="#C5FF4A"/>
<path d="M163.388 13.3409C163.832 13.3318 164.275 13.3251 164.719 13.3197C164.845 13.3169 164.971 13.3141 165.101 13.3112C165.432 13.3082 165.762 13.3234 166.092 13.3409C166.573 13.822 166.474 14.1465 166.476 14.8205C166.477 14.9965 166.477 14.9965 166.479 15.1761C166.481 15.5652 166.481 15.9542 166.481 16.3433C166.481 16.6135 166.482 16.8838 166.483 17.154C166.484 17.7212 166.484 18.2883 166.483 18.8555C166.482 19.5816 166.485 20.3077 166.489 21.0338C166.491 21.5923 166.492 22.1508 166.491 22.7093C166.491 22.977 166.492 23.2446 166.494 23.5122C166.496 23.8872 166.495 24.262 166.493 24.6369C166.493 24.8501 166.493 25.0634 166.493 25.2831C166.425 25.8861 166.294 26.2128 165.923 26.689C165.811 26.689 165.7 26.689 165.585 26.689C165.585 26.8563 165.585 27.0236 165.585 27.1959C165.301 27.4923 165.301 27.4923 164.93 27.7979C164.809 27.8991 164.687 28.0004 164.562 28.1048C164.453 28.1952 164.345 28.2856 164.233 28.3787C164.066 28.546 164.066 28.546 163.895 28.7166C163.728 28.7166 163.561 28.7166 163.388 28.7166C163.167 28.0458 163.196 27.3669 163.198 26.6692C163.197 26.5315 163.197 26.3938 163.197 26.2519C163.196 25.7972 163.196 25.3425 163.197 24.8879C163.197 24.5718 163.197 24.2558 163.197 23.9398C163.196 23.2777 163.197 22.6157 163.197 21.9537C163.198 21.1045 163.198 20.2552 163.197 19.406C163.196 18.7536 163.196 18.1012 163.197 17.4488C163.197 17.1356 163.197 16.8224 163.196 16.5092C163.196 16.0719 163.197 15.6347 163.198 15.1975C163.197 15.0676 163.197 14.9378 163.197 14.804C163.199 14.2706 163.218 13.8508 163.388 13.3409Z" fill="#C5FF4A"/>
<path d="M175.047 13.3407C175.862 13.3365 176.677 13.3334 177.492 13.3314C177.77 13.3305 178.047 13.3294 178.325 13.3279C178.723 13.3259 179.121 13.3249 179.519 13.3242C179.643 13.3233 179.768 13.3224 179.897 13.3215C180.195 13.3215 180.494 13.3302 180.792 13.3407C181.085 13.6335 180.982 14.0101 180.984 14.4003C180.984 14.5246 180.984 14.6488 180.983 14.7769C180.983 14.9037 180.984 15.0306 180.984 15.1613C180.984 15.4301 180.983 15.6988 180.983 15.9675C180.982 16.3803 180.983 16.793 180.984 17.2057C180.984 17.4662 180.984 17.7267 180.983 17.9872C180.984 18.1115 180.984 18.2357 180.984 18.3637C180.98 19.235 180.98 19.235 180.792 19.4234C180.366 19.4383 179.945 19.4429 179.519 19.4399C179.328 19.4395 179.328 19.4395 179.133 19.4392C178.725 19.4382 178.317 19.4361 177.909 19.434C177.633 19.4331 177.357 19.4323 177.081 19.4316C176.403 19.4298 175.725 19.4269 175.047 19.4234C175.019 18.6115 174.992 17.7995 174.966 16.9875C174.957 16.7112 174.947 16.4349 174.937 16.1585C174.924 15.7618 174.911 15.3651 174.898 14.9683C174.894 14.8444 174.889 14.7204 174.885 14.5928C174.859 13.7171 174.859 13.7171 175.047 13.3407Z" fill="#C5FF4A"/>
<path d="M175.803 22.1045C175.944 22.1043 176.086 22.1042 176.232 22.104C176.531 22.1039 176.831 22.1042 177.131 22.1049C177.591 22.1058 178.051 22.1049 178.511 22.1038C178.802 22.104 179.092 22.1042 179.383 22.1045C179.59 22.104 179.59 22.104 179.802 22.1035C180.772 22.1075 180.772 22.1075 180.961 22.2959C180.978 22.7763 180.984 23.2517 180.982 23.7321C180.983 23.9343 180.983 23.9343 180.984 24.1407C180.982 25.1469 180.982 25.1469 180.792 25.3373C180.507 25.3531 180.221 25.3571 179.935 25.3564C179.752 25.3564 179.57 25.3564 179.382 25.3564C179.084 25.3551 179.084 25.3551 178.779 25.3538C178.577 25.3535 178.375 25.3533 178.166 25.353C177.517 25.3521 176.868 25.35 176.219 25.3478C175.78 25.347 175.342 25.3462 174.903 25.3455C173.824 25.3436 172.746 25.3408 171.668 25.3373C171.612 25.1142 171.556 24.8912 171.499 24.6614C171.661 24.5935 171.661 24.5935 171.826 24.5241C172.231 24.3426 172.231 24.3426 172.344 23.8166C172.59 23.6026 172.838 23.3894 173.094 23.1863C173.387 22.9552 173.387 22.9552 173.738 22.5916C174.343 21.9859 174.996 22.1025 175.803 22.1045Z" fill="#C5FF4A"/>
<path d="M169.91 13.3245C170.162 13.3256 170.413 13.3276 170.664 13.3304C170.793 13.3312 170.921 13.3319 171.053 13.3327C171.371 13.3347 171.688 13.3377 172.006 13.341C172.463 14.0062 172.37 14.7173 172.34 15.4873C172.335 15.6289 172.331 15.7705 172.327 15.9163C172.313 16.3674 172.297 16.8184 172.28 17.2694C172.27 17.5756 172.261 17.8819 172.251 18.1881C172.228 18.938 172.202 19.6877 172.175 20.4375C171.924 20.5211 171.924 20.5211 171.668 20.6064C171.612 20.7179 171.556 20.8295 171.499 20.9444C171.443 21.0559 171.387 21.1674 171.33 21.2823C171.079 21.3659 171.079 21.3659 170.823 21.4512C170.767 21.6185 170.711 21.7858 170.654 21.9581C170.542 21.9581 170.431 21.9581 170.316 21.9581C170.274 22.0627 170.232 22.1672 170.189 22.2749C169.943 22.6933 169.745 22.7947 169.302 22.9719C168.925 22.4068 168.925 22.2447 168.939 21.5881C168.942 21.4094 168.944 21.2307 168.947 21.0466C168.952 20.8539 168.957 20.6611 168.962 20.4625C168.966 20.2649 168.97 20.0672 168.974 19.8636C168.982 19.4457 168.992 19.0279 169.002 18.61C169.017 17.9678 169.03 17.3256 169.042 16.6833C169.05 16.278 169.059 15.8728 169.068 15.4675C169.072 15.2741 169.076 15.0807 169.08 14.8814C169.084 14.7038 169.089 14.5261 169.093 14.3431C169.097 14.1859 169.1 14.0288 169.104 13.8668C169.154 13.2522 169.265 13.342 169.91 13.3245Z" fill="#C5FF4A"/>
</g>
<defs>
<clipPath id="clip0_5602_18185">
<rect width="181" height="51" fill="white"/>
</clipPath>
</defs>
</svg>
