<svg width="181" height="51" viewBox="0 0 181 51" fill="none" xmlns="http://www.w3.org/2000/svg">
<path d="M95.1681 6.61663C97.9912 6.60788 100.814 6.59914 103.723 6.59012C105.054 6.58433 105.054 6.58433 106.412 6.57842C107.506 6.5765 107.506 6.5765 108.02 6.57615C108.375 6.5755 108.729 6.57402 109.084 6.57185C112.471 6.55218 115.596 6.68988 118.358 8.87909C118.581 9.04095 118.581 9.04095 118.809 9.20609C120.58 10.8988 121.27 13.1824 121.342 15.5718C121.349 16.1342 121.351 16.6965 121.352 17.2589C121.352 17.4679 121.352 17.6769 121.353 17.886C121.354 18.3227 121.354 18.7595 121.354 19.1963C121.354 19.7504 121.356 20.3044 121.358 20.8585C121.36 21.2901 121.36 21.7216 121.36 22.1532C121.36 22.3572 121.361 22.5612 121.362 22.7651C121.377 25.7609 120.914 28.3835 118.819 30.6414C118.251 31.1691 117.621 31.5549 116.944 31.9279C116.827 31.9933 116.709 32.0587 116.589 32.1262C114.115 33.3742 111.426 33.2775 108.728 33.2557C108.38 33.2549 108.032 33.2543 107.683 33.254C106.404 33.2511 105.126 33.2432 103.847 33.2359C100.983 33.2242 98.1188 33.2125 95.1681 33.2005C95.1681 24.4278 95.1681 15.6551 95.1681 6.61663ZM101.673 12.4142C101.673 17.3605 101.673 22.3068 101.673 27.403C103.253 27.4117 104.834 27.4205 106.463 27.4295C107.207 27.4353 107.207 27.4353 107.967 27.4412C108.418 27.4426 108.418 27.4426 108.868 27.4434C109.067 27.4441 109.265 27.4456 109.464 27.4477C111.065 27.4644 112.393 27.3698 113.722 26.4115C114.708 25.3156 114.624 24.0895 114.615 22.7013C114.616 22.4774 114.616 22.2534 114.617 22.0295C114.618 21.5617 114.617 21.0939 114.614 20.6261C114.611 20.0289 114.613 19.4319 114.616 18.8347C114.618 18.3727 114.618 17.9108 114.616 17.4488C114.616 17.2287 114.616 17.0086 114.617 16.7886C114.624 15.398 114.61 14.3525 113.604 13.298C112.3 12.3437 110.924 12.337 109.378 12.3589C109.18 12.3598 108.982 12.3604 108.784 12.3607C108.058 12.3636 107.331 12.3715 106.604 12.3788C104.977 12.3905 103.349 12.4022 101.673 12.4142Z" fill="#C5FF4A"/>
<path d="M70.7275 6.57964C71.2899 6.58125 71.8523 6.5803 72.4147 6.57867C81.5682 6.55622 81.5682 6.55622 84.2799 9.02037C85.517 10.4526 85.843 12.2457 85.8375 14.0794C85.8372 14.2181 85.8369 14.3568 85.8365 14.4997C85.8359 14.6572 85.8359 14.6572 85.8353 14.8179C84.8914 14.8215 83.9475 14.824 83.0036 14.8257C82.6822 14.8264 82.3608 14.8274 82.0395 14.8286C81.5786 14.8303 81.1178 14.8311 80.6569 14.8317C80.5123 14.8325 80.3677 14.8332 80.2186 14.8339C80.0856 14.8339 79.9525 14.834 79.8155 14.834C79.6977 14.8343 79.58 14.8346 79.4586 14.8349C79.1893 14.8179 79.1893 14.8179 79.0479 14.6765C79.0094 14.4148 78.9747 14.1525 78.9419 13.89C78.808 13.0913 78.6672 12.4152 78.0581 11.8484C76.8775 11.2137 75.5819 11.1348 74.2667 11.0917C74.1645 11.0884 74.0622 11.085 73.9569 11.0816C73.6271 11.0712 73.2974 11.0619 72.9676 11.053C72.8546 11.05 72.7417 11.0469 72.6253 11.0437C67.6533 10.6865 67.6533 10.6865 63.3079 12.582C62.411 14.0768 62.4816 15.9073 62.48 17.5935C62.4795 17.7616 62.479 17.9296 62.4785 18.1028C62.4778 18.457 62.4775 18.8113 62.4775 19.1656C62.4772 19.7002 62.4746 20.2347 62.472 20.7693C62.2623 24.3538 62.2623 24.3538 63.5808 27.5012C65.0184 28.7359 67.1844 28.697 68.9818 28.7042C69.1411 28.705 69.3005 28.7058 69.4647 28.7066C69.8013 28.708 70.1379 28.7089 70.4744 28.7094C70.9824 28.7108 71.4903 28.7152 71.9982 28.7197C75.299 28.8549 75.299 28.8549 78.1995 27.5442C79.3102 26.2582 79.1003 24.4798 79.1893 22.8779C76.2962 22.8779 73.4031 22.8779 70.4223 22.8779C70.2388 22.5109 70.2626 22.2406 70.2621 21.8301C70.2619 21.6785 70.2618 21.527 70.2616 21.3708C70.2621 21.212 70.2627 21.0531 70.2632 20.8894C70.2627 20.73 70.2621 20.5706 70.2616 20.4064C70.2618 20.255 70.2619 20.1036 70.2621 19.9477C70.2623 19.808 70.2624 19.6684 70.2626 19.5245C70.2809 19.2014 70.2809 19.2014 70.4223 19.06C70.6227 19.0465 70.8237 19.0428 71.0245 19.043C71.2193 19.0427 71.2193 19.0427 71.418 19.0424C71.6335 19.0432 71.6335 19.0432 71.8532 19.044C72.0036 19.044 72.1539 19.0439 72.3088 19.0439C72.8085 19.044 73.3081 19.0451 73.8077 19.0462C74.1531 19.0465 74.4984 19.0467 74.8438 19.0468C75.7548 19.0474 76.6659 19.0488 77.5769 19.0503C78.5057 19.0518 79.4345 19.0524 80.3634 19.0531C82.1873 19.0546 84.0113 19.057 85.8353 19.06C85.8584 19.6962 85.8814 20.3323 85.9043 20.9684C85.9109 21.1477 85.9174 21.327 85.9241 21.5117C86.1723 28.4106 86.1723 28.4106 84.2799 30.6551C81.0987 33.7222 75.7641 33.2496 71.694 33.2372C71.1571 33.2356 70.6202 33.2366 70.0833 33.2382C60.7 33.2623 60.7 33.2623 57.695 30.3991C55.9477 28.6508 55.4211 26.4436 55.3363 24.0357C55.3308 23.8842 55.3253 23.7328 55.3196 23.5768C55.2731 21.9206 55.3035 20.2654 55.3363 18.6093C55.3387 18.4725 55.3411 18.3358 55.3436 18.1949C55.4062 14.8136 55.5698 11.6468 58.1202 9.13526C61.5897 6.23206 66.4856 6.56739 70.7275 6.57964Z" fill="#C5FF4A"/>
<path d="M25.8438 8.96711C27.3238 10.5612 27.2943 12.4409 27.2943 14.5354C25.1945 14.5354 23.0947 14.5354 20.9312 14.5354C20.6773 14.0276 20.6754 13.4346 20.6053 12.8756C20.4844 12.3087 20.3138 11.8916 19.8535 11.5245C18.2473 10.7335 16.4531 10.8141 14.7058 10.8221C14.314 10.8236 13.9222 10.8221 13.5304 10.8203C10.4645 10.7718 10.4645 10.7718 7.65692 11.8311C7.00687 12.4811 7.02204 13.2162 7.02061 14.0847C7.01541 14.2478 7.01541 14.2478 7.01011 14.4142C7.00606 15.2135 7.16575 15.8591 7.63925 16.5151C8.89675 17.5634 11.0634 17.4132 12.6065 17.4852C12.9305 17.5004 13.2545 17.5169 13.5785 17.5337C14.4983 17.5812 15.4183 17.6265 16.3383 17.671C24.5643 18.0714 24.5643 18.0714 26.7287 20.0502C28.4197 22.0276 28.2506 24.5267 28.1428 26.9789C28.0395 28.081 27.7638 29.1577 27.1529 30.0898C27.1017 30.1717 27.0505 30.2535 26.9977 30.3378C25.9163 31.8162 23.9171 32.4501 22.2038 32.7765C20.4076 33.0524 18.6183 33.1237 16.804 33.1565C16.5988 33.1607 16.5988 33.1607 16.3894 33.1649C14.4262 33.2037 12.4657 33.2053 10.5027 33.1565C10.3955 33.1541 10.2883 33.1517 10.1778 33.1492C9.03782 33.122 7.9086 33.0576 6.77536 32.9278C6.67898 32.9169 6.58261 32.9059 6.48331 32.8947C4.41242 32.6381 2.39256 31.9321 1.06343 30.2439C-0.116927 28.4716 0.00345532 26.7092 0.00345532 24.5751C2.14996 24.5751 4.29647 24.5751 6.50802 24.5751C6.57801 25.485 6.57801 25.485 6.64942 26.4133C6.85309 27.3072 7.06441 27.7803 7.76519 28.3659C8.51251 28.788 9.30009 28.8556 10.1431 28.8757C10.2955 28.8799 10.2955 28.8799 10.4509 28.8841C10.7775 28.8926 11.104 28.8992 11.4306 28.9056C11.6563 28.9107 11.8819 28.9159 12.1075 28.9212C12.6471 28.9334 13.1867 28.9438 13.7263 28.9534C13.9639 28.9579 14.2014 28.9632 14.439 28.9686C17.8565 29.1301 17.8565 29.1301 20.8516 27.8009C21.4688 26.69 21.5192 25.2934 21.2847 24.0625C21.0854 23.3742 20.8639 22.9674 20.2242 22.5954C19.4941 22.3015 18.7901 22.2299 18.0136 22.1663C17.8111 22.1488 17.8111 22.1488 17.6045 22.131C15.6778 21.9722 13.7455 21.8915 11.8146 21.8033C10.0251 21.7206 8.24534 21.6178 6.46659 21.3996C6.32888 21.3829 6.19116 21.3662 6.04927 21.349C4.06756 21.0883 2.44701 20.3339 1.1739 18.7505C0.221232 17.4016 0.0922478 15.9729 0.10067 14.3587C0.101365 14.2022 0.10206 14.0457 0.102776 13.8845C0.129601 12.0147 0.427123 10.3874 1.68262 8.93231C5.9138 4.96847 21.6502 5.06496 25.8438 8.96711Z" fill="#C5FF4A"/>
<path d="M123.59 6.6167C132.503 6.6167 141.416 6.6167 150.598 6.6167C150.598 8.48323 150.598 10.3498 150.598 12.2728C150.552 12.3195 150.505 12.3662 150.457 12.4142C147.144 12.4142 143.831 12.4142 140.417 12.4142C140.417 19.2737 140.417 26.1332 140.417 33.2006C138.224 33.2006 136.031 33.2006 133.771 33.2006C133.771 26.3411 133.771 19.4816 133.771 12.4142C130.458 12.4142 127.145 12.4142 123.732 12.4142C123.685 12.3676 123.638 12.3209 123.59 12.2728C123.59 10.4063 123.59 8.53979 123.59 6.6167Z" fill="#C5FF4A"/>
<path d="M38.9476 6.73963C39.0802 6.73919 39.2128 6.73874 39.3494 6.73828C39.4936 6.73857 39.6378 6.73885 39.7863 6.73915C40.0068 6.73895 40.0068 6.73895 40.2317 6.73874C40.5432 6.73864 40.8546 6.7389 41.1661 6.73949C41.6446 6.74025 42.1232 6.7395 42.6017 6.7386C42.9035 6.73869 43.2053 6.73887 43.507 6.73915C43.6512 6.73886 43.7954 6.73858 43.944 6.73828C44.1429 6.73895 44.1429 6.73895 44.3458 6.73963C44.5218 6.7398 44.5218 6.7398 44.7013 6.73997C44.9697 6.75793 44.9697 6.75793 45.1111 6.89933C45.1252 7.23528 45.1301 7.56712 45.129 7.90314C45.1293 8.00941 45.1295 8.11567 45.1297 8.22516C45.1303 8.58396 45.1298 8.94274 45.1294 9.30154C45.1296 9.55766 45.1298 9.81379 45.1301 10.0699C45.1308 10.7676 45.1305 11.4652 45.1301 12.1629C45.1297 12.8913 45.13 13.6196 45.1303 14.348C45.1305 15.5715 45.1302 16.795 45.1295 18.0184C45.1287 19.4351 45.129 20.8517 45.1298 22.2684C45.1304 23.4823 45.1305 24.6963 45.1301 25.9103C45.1299 26.6363 45.1299 27.3624 45.1303 28.0885C45.1308 28.7709 45.1305 29.4534 45.1297 30.1358C45.1295 30.387 45.1295 30.6382 45.1298 30.8895C45.1302 31.2309 45.1297 31.5723 45.129 31.9138C45.1293 32.0145 45.1297 32.1152 45.13 32.219C45.1272 32.9014 45.1272 32.9014 44.9697 33.059C44.7621 33.0729 44.5538 33.0771 44.3458 33.0773C44.2132 33.0777 44.0806 33.0782 43.944 33.0786C43.7998 33.0783 43.6556 33.0781 43.507 33.0778C43.2866 33.078 43.2866 33.078 43.0616 33.0782C42.7502 33.0783 42.4387 33.078 42.1273 33.0774C41.6488 33.0767 41.1702 33.0774 40.6917 33.0783C40.3899 33.0782 40.0881 33.078 39.7863 33.0778C39.6421 33.0781 39.4979 33.0783 39.3494 33.0786C39.1505 33.078 39.1505 33.078 38.9476 33.0773C38.8303 33.0772 38.7129 33.0771 38.5921 33.0769C38.3237 33.059 38.3237 33.059 38.1823 32.9176C38.1682 32.5816 38.1633 32.2498 38.1643 31.9138C38.1641 31.8075 38.1639 31.7012 38.1637 31.5918C38.1631 31.233 38.1636 30.8742 38.164 30.5154C38.1638 30.2593 38.1636 30.0031 38.1633 29.747C38.1626 29.0494 38.1629 28.3517 38.1633 27.6541C38.1637 26.9257 38.1633 26.1973 38.1631 25.4689C38.1629 24.2454 38.1632 23.0219 38.1639 21.7985C38.1646 20.3818 38.1644 18.9652 38.1636 17.5485C38.163 16.3346 38.1629 15.1206 38.1632 13.9067C38.1635 13.1806 38.1635 12.4545 38.163 11.7284C38.1626 11.046 38.1629 10.3636 38.1637 9.68112C38.1639 9.4299 38.1639 9.17868 38.1635 8.92746C38.1632 8.58601 38.1636 8.24458 38.1643 7.90314C38.164 7.80241 38.1637 7.70168 38.1634 7.5979C38.1665 6.83056 38.1842 6.74036 38.9476 6.73963Z" fill="#C5FF4A"/>
<path d="M128.256 38.1496C129.67 38.1496 129.67 38.1496 129.974 38.3833C130.06 38.5432 130.06 38.5432 130.149 38.7064C130.214 38.8212 130.28 38.9361 130.348 39.0544C130.41 39.1758 130.472 39.2972 130.536 39.4223C130.604 39.5437 130.672 39.6651 130.742 39.7901C130.908 40.0894 131.069 40.3905 131.226 40.6949C131.793 40.031 132.163 39.3025 132.557 38.5269C132.923 38.1496 132.923 38.1496 133.268 38.1128C133.395 38.1172 133.522 38.1215 133.653 38.1261C133.78 38.1295 133.908 38.1329 134.04 38.1364C134.187 38.1429 134.187 38.1429 134.337 38.1496C134.34 39.0935 134.343 40.0374 134.344 40.9813C134.345 41.3027 134.346 41.6241 134.347 41.9455C134.349 42.4063 134.35 42.8671 134.351 43.328C134.351 43.4726 134.352 43.6173 134.353 43.7663C134.353 43.8993 134.353 44.0324 134.353 44.1695C134.353 44.2872 134.353 44.405 134.354 44.5263C134.337 44.7956 134.337 44.7956 134.195 44.937C133.939 44.9558 133.939 44.9558 133.63 44.9547C133.528 44.955 133.426 44.9554 133.32 44.9558C133.064 44.937 133.064 44.937 132.923 44.7956C132.9 44.5234 132.887 44.2505 132.878 43.9776C132.872 43.8121 132.866 43.6467 132.86 43.4763C132.854 43.3021 132.849 43.128 132.843 42.9485C132.837 42.7738 132.831 42.5991 132.825 42.4191C132.81 41.9858 132.795 41.5525 132.781 41.1191C132.721 41.2416 132.661 41.3641 132.6 41.4903C131.928 42.7657 131.928 42.7657 131.288 43.0015C130.485 42.6952 130.182 42.0019 129.812 41.2605C129.808 41.3669 129.805 41.4732 129.801 41.5828C129.785 42.0616 129.767 42.5404 129.75 43.0192C129.744 43.1866 129.739 43.3541 129.733 43.5266C129.727 43.6856 129.721 43.8446 129.715 44.0085C129.71 44.1559 129.705 44.3032 129.699 44.455C129.67 44.7956 129.67 44.7956 129.529 44.937C129.109 44.937 128.689 44.937 128.256 44.937C128.256 42.6972 128.256 40.4573 128.256 38.1496Z" fill="#C5FF4A"/>
<path d="M98.1374 38.1495C98.6174 38.1022 99.0728 38.0828 99.5515 38.1495C99.9197 38.487 99.9197 38.487 100.184 38.9537C100.233 39.0353 100.281 39.1169 100.331 39.201C100.483 39.4607 100.627 39.7238 100.771 39.9877C100.873 40.1651 100.976 40.3422 101.079 40.5191C101.331 40.9515 101.571 41.3878 101.814 41.826C101.861 40.6127 101.907 39.3995 101.955 38.1495C102.422 38.1495 102.889 38.1495 103.369 38.1495C103.373 39.0934 103.375 40.0373 103.377 40.9812C103.378 41.3025 103.379 41.6239 103.38 41.9453C103.382 42.4061 103.383 42.867 103.383 43.3278C103.384 43.4725 103.385 43.6171 103.385 43.7661C103.385 43.8992 103.385 44.0322 103.385 44.1693C103.386 44.2871 103.386 44.4048 103.386 44.5261C103.369 44.7954 103.369 44.7954 103.228 44.9368C102.764 45.0248 102.537 45.0665 102.097 44.9368C101.672 44.5278 101.402 44.03 101.107 43.5228C100.992 43.3339 100.877 43.1452 100.762 42.9566C100.448 42.4409 100.14 41.9221 99.8343 41.4017C99.8307 41.5038 99.8272 41.6059 99.8236 41.711C99.8072 42.1706 99.7898 42.6302 99.7724 43.0898C99.7669 43.2504 99.7613 43.4111 99.7556 43.5767C99.7497 43.7293 99.7437 43.882 99.7376 44.0393C99.7299 44.2514 99.7299 44.2514 99.7219 44.4679C99.6929 44.7954 99.6929 44.7954 99.5515 44.9368C99.3397 44.9507 99.1274 44.9552 98.9152 44.9545C98.8 44.9549 98.6848 44.9552 98.5661 44.9556C98.2789 44.9368 98.2789 44.9368 98.1374 44.7954C98.1243 44.5871 98.1208 44.3781 98.1214 44.1693C98.1214 44.0363 98.1214 43.9032 98.1214 43.7661C98.1222 43.6215 98.1229 43.4768 98.1236 43.3278C98.1238 43.1805 98.124 43.0332 98.1242 42.8814C98.125 42.4088 98.1268 41.9362 98.1286 41.4636C98.1293 41.1441 98.13 40.8245 98.1305 40.505C98.1321 39.7198 98.1345 38.9346 98.1374 38.1495Z" fill="#C5FF4A"/>
<path d="M167.001 38.1495C167.481 38.1022 167.937 38.0828 168.415 38.1495C168.783 38.487 168.783 38.487 169.048 38.9537C169.096 39.0353 169.145 39.1169 169.194 39.201C169.346 39.4607 169.49 39.7238 169.635 39.9877C169.737 40.1651 169.839 40.3422 169.943 40.5191C170.194 40.9515 170.435 41.3878 170.678 41.826C170.724 40.6127 170.771 39.3995 170.819 38.1495C171.286 38.1495 171.752 38.1495 172.233 38.1495C172.237 39.0934 172.239 40.0373 172.241 40.9812C172.242 41.3025 172.243 41.6239 172.244 41.9453C172.246 42.4061 172.246 42.867 172.247 43.3278C172.248 43.4725 172.248 43.6171 172.249 43.7661C172.249 43.8992 172.249 44.0322 172.249 44.1693C172.25 44.2871 172.25 44.4048 172.25 44.5261C172.233 44.7954 172.233 44.7954 172.092 44.9368C171.665 44.9885 171.372 45.0229 170.961 44.9368C170.67 44.6261 170.51 44.4083 170.315 44.0442C170.209 43.8632 170.103 43.6822 169.997 43.5013C169.946 43.4101 169.894 43.319 169.841 43.2252C169.613 42.8263 169.363 42.4417 169.113 42.0557C168.975 41.8378 168.836 41.6198 168.698 41.4017C168.695 41.5038 168.691 41.6059 168.687 41.711C168.671 42.1706 168.654 42.6302 168.636 43.0898C168.631 43.2504 168.625 43.4111 168.619 43.5767C168.613 43.7293 168.608 43.882 168.601 44.0393C168.594 44.2514 168.594 44.2514 168.586 44.4679C168.557 44.7954 168.557 44.7954 168.415 44.9368C168.204 44.9507 167.991 44.9552 167.779 44.9545C167.664 44.9549 167.549 44.9552 167.43 44.9556C167.143 44.9368 167.143 44.9368 167.001 44.7954C166.988 44.5871 166.985 44.3781 166.985 44.1693C166.985 44.0363 166.985 43.9032 166.985 43.7661C166.986 43.6215 166.987 43.4768 166.987 43.3278C166.988 43.1805 166.988 43.0332 166.988 42.8814C166.989 42.4088 166.991 41.9362 166.992 41.4636C166.993 41.1441 166.994 40.8245 166.994 40.505C166.996 39.7198 166.998 38.9346 167.001 38.1495Z" fill="#C5FF4A"/>
<path d="M142.118 38.0259C142.466 38.0297 142.466 38.0297 142.821 38.1496C143.327 38.7008 143.672 39.3376 144.032 39.9879C144.135 40.1652 144.238 40.3424 144.341 40.5192C144.595 40.9519 144.839 41.3883 145.084 41.8261C145.13 40.6129 145.177 39.3996 145.225 38.1496C145.692 38.1496 146.158 38.1496 146.639 38.1496C146.643 39.0935 146.645 40.0374 146.647 40.9813C146.648 41.3027 146.648 41.6241 146.65 41.9454C146.651 42.4063 146.652 42.8671 146.653 43.328C146.654 43.4726 146.654 43.6172 146.655 43.7663C146.655 43.8993 146.655 44.0324 146.655 44.1694C146.655 44.2872 146.656 44.4049 146.656 44.5263C146.639 44.7956 146.639 44.7956 146.498 44.937C146.044 45.0138 145.798 45.0532 145.366 44.937C144.984 44.5799 144.768 44.1199 144.518 43.6643C144.396 43.4574 144.274 43.2508 144.151 43.0446C143.798 42.452 143.45 41.8568 143.104 41.2605C143.1 41.3668 143.097 41.4732 143.093 41.5828C143.077 42.0616 143.059 42.5404 143.042 43.0192C143.037 43.1866 143.031 43.354 143.025 43.5265C143.019 43.6856 143.013 43.8446 143.007 44.0085C143.002 44.1558 142.997 44.3032 142.992 44.455C142.963 44.7956 142.963 44.7956 142.821 44.937C142.609 44.9508 142.397 44.9553 142.185 44.9547C142.07 44.955 141.954 44.9554 141.836 44.9558C141.549 44.937 141.549 44.937 141.407 44.7956C141.393 44.5923 141.389 44.3884 141.389 44.1847C141.388 44.0549 141.388 43.9251 141.387 43.7915C141.388 43.6504 141.388 43.5092 141.388 43.3639C141.388 43.22 141.388 43.0762 141.388 42.928C141.388 42.6232 141.388 42.3184 141.389 42.0136C141.389 41.5453 141.389 41.077 141.388 40.6087C141.388 40.3134 141.388 40.018 141.388 39.7227C141.388 39.5816 141.388 39.4405 141.387 39.2951C141.388 39.1654 141.388 39.0356 141.389 38.9019C141.389 38.7871 141.389 38.6723 141.389 38.554C141.421 38.083 141.694 38.086 142.118 38.0259Z" fill="#C5FF4A"/>
<path d="M157.315 38.2292C157.891 38.5678 158.118 38.9525 158.375 39.5637C158.375 39.797 158.375 40.0304 158.375 40.2707C157.862 40.2707 157.349 40.2707 156.82 40.2707C156.773 40.0374 156.727 39.8041 156.679 39.5637C156.165 39.5637 155.652 39.5637 155.123 39.5637C155.076 39.797 155.03 40.0304 154.982 40.2707C155.054 40.3017 155.126 40.3327 155.2 40.3646C155.858 40.6514 156.509 40.9506 157.156 41.2606C157.297 41.3276 157.438 41.3947 157.583 41.4638C157.969 41.6956 158.158 41.8587 158.375 42.2504C158.502 42.9412 158.445 43.517 158.146 44.1505C157.499 44.8486 156.825 45.0138 155.904 45.0774C154.954 45.0803 154.32 44.8227 153.626 44.1704C153.359 43.8721 153.224 43.6336 153.143 43.2402C153.196 42.8425 153.196 42.8425 153.285 42.5332C153.705 42.5332 154.125 42.5332 154.557 42.5332C154.59 42.644 154.622 42.7548 154.655 42.869C154.809 43.256 154.809 43.256 155.141 43.4346C155.694 43.5549 156.121 43.4761 156.679 43.3816C156.725 43.1483 156.772 42.915 156.82 42.6746C156.645 42.6221 156.47 42.5696 156.29 42.5155C153.985 41.7338 153.985 41.7338 153.453 40.9247C153.202 40.1598 153.284 39.65 153.576 38.8921C154.496 37.8246 156.055 37.6864 157.315 38.2292Z" fill="#C5FF4A"/>
<path d="M120.235 38.1047C120.826 38.415 121.175 38.8332 121.469 39.4221C121.505 39.8993 121.505 39.8993 121.469 40.2705C120.992 40.3108 120.531 40.3367 120.055 40.2705C119.914 40.0348 119.772 39.7992 119.631 39.5635C119.155 39.4973 118.694 39.5232 118.217 39.5635C118.17 39.7968 118.124 40.0301 118.075 40.2705C118.185 40.315 118.294 40.3595 118.407 40.4053C121.021 41.4794 121.021 41.4794 121.469 42.2502C121.634 42.8452 121.632 43.1685 121.451 43.7614C121.089 44.4021 120.822 44.6988 120.101 44.902C119.099 45.1044 118.154 45.1905 117.253 44.638C116.85 44.324 116.524 44.0165 116.379 43.5228C116.368 43.193 116.366 42.8627 116.379 42.533C116.813 42.4828 117.219 42.4568 117.651 42.533C117.847 42.8111 118.035 43.0942 118.217 43.3814C118.753 43.5661 119.233 43.5613 119.772 43.3814C119.819 43.2414 119.866 43.1014 119.914 42.9572C119.547 42.5092 119.146 42.3886 118.606 42.206C117.764 41.8958 116.943 41.5416 116.52 40.6947C116.459 40.0994 116.454 39.5795 116.688 39.0244C117.589 37.937 118.888 37.6991 120.235 38.1047Z" fill="#C5FF4A"/>
<path d="M111.147 38.1494C112.593 38.1494 114.04 38.1494 115.53 38.1494C115.53 38.5694 115.53 38.9894 115.53 39.422C114.55 39.422 113.57 39.422 112.561 39.422C112.561 39.8887 112.561 40.3553 112.561 40.8361C113.401 40.8361 114.241 40.8361 115.106 40.8361C115.106 41.2561 115.106 41.676 115.106 42.1087C113.916 42.1787 113.916 42.1787 112.702 42.2501C112.655 42.6701 112.609 43.0901 112.561 43.5227C113.541 43.5227 114.52 43.5227 115.53 43.5227C115.53 43.9427 115.53 44.3627 115.53 44.7954C115.268 45.058 114.834 44.9552 114.483 44.9556C114.299 44.9557 114.115 44.9559 113.926 44.9561C113.829 44.9558 113.733 44.9555 113.634 44.9552C113.34 44.9545 113.045 44.9552 112.751 44.9561C112.475 44.9558 112.475 44.9558 112.194 44.9556C112.024 44.9554 111.854 44.9552 111.678 44.9551C111.288 44.9368 111.288 44.9368 111.147 44.7954C111.133 44.587 111.13 44.378 111.131 44.1692C111.131 44.0362 111.131 43.9032 111.131 43.7661C111.131 43.6214 111.132 43.4768 111.133 43.3278C111.133 43.1805 111.133 43.0331 111.133 42.8814C111.134 42.4088 111.136 41.9362 111.138 41.4636C111.138 41.144 111.139 40.8245 111.14 40.5049C111.141 39.7198 111.144 38.9346 111.147 38.1494Z" fill="#C5FF4A"/>
<path d="M135.892 38.1494C137.339 38.1494 138.785 38.1494 140.276 38.1494C140.276 38.5694 140.276 38.9894 140.276 39.422C139.296 39.422 138.316 39.422 137.306 39.422C137.306 39.8887 137.306 40.3553 137.306 40.8361C137.564 40.8336 137.564 40.8336 137.827 40.8311C138.051 40.8298 138.275 40.8285 138.499 40.8272C138.613 40.8261 138.726 40.8249 138.843 40.8237C139.132 40.8224 139.421 40.8287 139.71 40.8361C139.852 40.9775 139.852 40.9775 139.852 42.1087C139.012 42.1087 138.172 42.1087 137.306 42.1087C137.306 42.5753 137.306 43.042 137.306 43.5227C138.286 43.5227 139.266 43.5227 140.276 43.5227C140.276 43.9427 140.276 44.3627 140.276 44.7954C140.013 45.058 139.579 44.9552 139.229 44.9556C139.045 44.9557 138.861 44.9559 138.671 44.9561C138.575 44.9558 138.479 44.9555 138.38 44.9552C138.085 44.9545 137.791 44.9552 137.497 44.9561C137.221 44.9558 137.221 44.9558 136.94 44.9556C136.769 44.9554 136.599 44.9552 136.424 44.9551C136.034 44.9368 136.034 44.9368 135.892 44.7954C135.879 44.587 135.876 44.378 135.876 44.1692C135.876 44.0362 135.876 43.9032 135.876 43.7661C135.877 43.6214 135.878 43.4768 135.879 43.3278C135.879 43.1805 135.879 43.0331 135.879 42.8814C135.88 42.4088 135.882 41.9362 135.883 41.4636C135.884 41.144 135.885 40.8245 135.885 40.5049C135.887 39.7198 135.89 38.9346 135.892 38.1494Z" fill="#C5FF4A"/>
<path d="M177.527 38.1672C178.045 38.5468 178.447 38.9822 178.738 39.5636C178.743 39.8935 178.744 40.2235 178.738 40.5534C178.271 40.5534 177.804 40.5534 177.323 40.5534C177.23 40.2267 177.137 39.9001 177.041 39.5636C176.787 39.5559 176.534 39.5504 176.281 39.5459C176.14 39.5426 175.998 39.5393 175.853 39.5359C175.462 39.5251 175.462 39.5251 175.202 39.8464C175.163 40.2171 175.163 40.2171 175.175 40.6473C175.176 40.8059 175.177 40.9644 175.178 41.1278C175.181 41.3772 175.181 41.3772 175.185 41.6316C175.186 41.7989 175.187 41.9662 175.189 42.1386C175.192 42.5529 175.197 42.9672 175.202 43.3815C175.402 43.4131 175.603 43.442 175.803 43.4698C175.915 43.4862 176.026 43.5026 176.141 43.5195C176.528 43.5234 176.72 43.4535 177.041 43.2401C177.222 42.8812 177.222 42.8812 177.323 42.533C177.79 42.533 178.257 42.533 178.738 42.533C178.674 43.9226 178.674 43.9226 178.129 44.4806C177.351 45.0432 176.523 45.128 175.591 45.0076C174.836 44.8456 174.426 44.6861 173.93 44.0885C173.531 43.2224 173.442 42.3975 173.461 41.4548C173.461 41.3407 173.46 41.2266 173.46 41.1091C173.468 40.2251 173.529 39.4568 174.107 38.7505C175.136 37.9081 176.256 37.7513 177.527 38.1672Z" fill="#C5FF4A"/>
<path d="M104.218 38.1493C104.685 38.1493 105.151 38.1493 105.632 38.1493C106.165 39.5586 106.686 40.9709 107.187 42.3915C107.471 41.9663 107.608 41.6088 107.771 41.1266C107.827 40.9627 107.883 40.7988 107.941 40.63C107.998 40.4588 108.056 40.2877 108.115 40.1113C108.23 39.7721 108.345 39.4329 108.461 39.0939C108.511 38.9433 108.562 38.7927 108.614 38.6376C108.743 38.2908 108.743 38.2908 108.884 38.1493C109.123 38.1392 109.361 38.1375 109.6 38.1405C109.73 38.1418 109.86 38.1431 109.994 38.1444C110.094 38.146 110.195 38.1477 110.298 38.1493C110.215 38.9512 110.002 39.6433 109.72 40.3963C109.677 40.5132 109.634 40.6301 109.589 40.7505C109.499 40.9959 109.408 41.2412 109.316 41.4863C109.176 41.8616 109.037 42.2375 108.899 42.6135C108.81 42.8525 108.722 43.0915 108.633 43.3305C108.591 43.4427 108.55 43.5549 108.507 43.6706C108.468 43.7749 108.429 43.8793 108.389 43.9868C108.355 44.0783 108.321 44.1699 108.285 44.2642C108.177 44.5125 108.177 44.5125 107.894 44.9367C107.469 44.9943 107.05 44.9551 106.622 44.9367C106.11 43.8269 105.666 42.6932 105.228 41.5528C105.101 41.2233 104.972 40.8943 104.844 40.5654C104.762 40.3544 104.681 40.1434 104.6 39.9324C104.562 39.8348 104.523 39.7373 104.484 39.6368C104.276 39.0897 104.218 38.7517 104.218 38.1493Z" fill="#C5FF4A"/>
<path d="M122.176 38.1494C123.856 38.1494 125.536 38.1494 127.267 38.1494C127.267 38.5694 127.267 38.9894 127.267 39.422C126.707 39.422 126.147 39.422 125.57 39.422C125.571 39.5791 125.573 39.7361 125.574 39.8978C125.579 40.4792 125.583 41.0605 125.585 41.6418C125.587 41.8937 125.589 42.1455 125.591 42.3973C125.595 42.7588 125.596 43.1203 125.597 43.4819C125.599 43.5949 125.6 43.7078 125.602 43.8242C125.602 44.101 125.587 44.3777 125.57 44.654C125.287 44.9368 125.287 44.9368 125.017 44.9694C124.172 44.9525 124.172 44.9525 124.014 44.7954C124.002 44.3978 123.998 44.0037 124.001 43.6062C124.001 43.4871 124.001 43.368 124.001 43.2453C124.002 42.8635 124.004 42.4817 124.006 42.0999C124.006 41.8416 124.007 41.5834 124.007 41.3252C124.009 40.6908 124.011 40.0564 124.014 39.422C123.408 39.422 122.801 39.422 122.176 39.422C122.176 39.0021 122.176 38.5821 122.176 38.1494Z" fill="#C5FF4A"/>
<path d="M148.112 38.1333C148.327 38.1333 148.541 38.1341 148.756 38.1355C148.869 38.1357 148.982 38.1359 149.098 38.1362C149.459 38.1369 149.821 38.1387 150.183 38.1405C150.427 38.1412 150.672 38.1419 150.917 38.1424C151.517 38.144 152.118 38.1465 152.719 38.1494C152.719 38.5693 152.719 38.9893 152.719 39.422C152.113 39.422 151.506 39.422 150.881 39.422C150.882 39.665 150.882 39.665 150.883 39.913C150.886 40.512 150.887 41.111 150.889 41.71C150.889 41.9696 150.89 42.2293 150.892 42.4889C150.893 42.8613 150.894 43.2337 150.895 43.6061C150.896 43.7229 150.896 43.8397 150.897 43.9601C150.897 44.2385 150.89 44.517 150.881 44.7953C150.834 44.842 150.788 44.8886 150.74 44.9367C150.32 44.9367 149.9 44.9367 149.467 44.9367C149.467 43.1169 149.467 41.297 149.467 39.422C148.814 39.422 148.16 39.422 147.487 39.422C147.473 38.552 147.473 38.552 147.487 38.2908C147.629 38.1494 147.629 38.1494 148.112 38.1333Z" fill="#C5FF4A"/>
<path d="M164.032 38.1494C164.498 38.1494 164.965 38.1494 165.446 38.1494C165.446 40.3892 165.446 42.6291 165.446 44.9368C165.026 44.9368 164.606 44.9368 164.173 44.9368C164.032 44.7954 164.032 44.7954 164.015 44.5261C164.015 44.4083 164.015 44.2906 164.015 44.1692C164.015 44.0362 164.015 43.9032 164.016 43.7661C164.016 43.6214 164.017 43.4768 164.018 43.3278C164.018 43.1805 164.018 43.0331 164.018 42.8814C164.019 42.4088 164.021 41.9362 164.023 41.4636C164.023 41.144 164.024 40.8245 164.025 40.5049C164.026 39.7198 164.029 38.9346 164.032 38.1494Z" fill="#C5FF4A"/>
<path d="M95.168 38.1494C95.6346 38.1494 96.1013 38.1494 96.582 38.1494C96.582 40.3892 96.582 42.6291 96.582 44.9368C96.1621 44.9368 95.7421 44.9368 95.3094 44.9368C95.168 44.7954 95.168 44.7954 95.151 44.5261C95.1513 44.4083 95.1516 44.2906 95.152 44.1692C95.152 44.0362 95.152 43.9032 95.152 43.7661C95.1527 43.6214 95.1534 43.4768 95.1542 43.3278C95.1544 43.1805 95.1546 43.0331 95.1548 42.8814C95.1556 42.4088 95.1574 41.9362 95.1592 41.4636C95.1599 41.144 95.1605 40.8245 95.1611 40.5049C95.1627 39.7198 95.1651 38.9346 95.168 38.1494Z" fill="#C5FF4A"/>
<path d="M159.365 43.3816C159.785 43.3816 160.205 43.3816 160.638 43.3816C160.678 44.059 160.559 44.5137 160.284 45.1315C160.219 45.2813 160.153 45.4311 160.085 45.5855C160.034 45.6981 159.983 45.8108 159.931 45.9269C159.604 45.9269 159.277 45.9269 158.941 45.9269C159.009 45.0494 159.129 44.2301 159.365 43.3816Z" fill="#C5FF4A"/>
<path d="M179.586 43.3816C180.053 43.3816 180.519 43.3816 181 43.3816C181 43.8949 181 44.4082 181 44.937C180.02 44.9508 180.02 44.9508 179.727 44.937C179.586 44.7956 179.586 44.7956 179.572 44.4725C179.577 44.1089 179.581 43.7452 179.586 43.3816Z" fill="#C5FF4A"/>
</svg>
