<svg width="72" height="72" viewBox="0 0 72 72" fill="none" xmlns="http://www.w3.org/2000/svg">
<g id="Frame 1073715489" clip-path="url(#clip0_4791_61)">
<path id="Union" fill-rule="evenodd" clip-rule="evenodd" d="M49.7143 4.57143C49.7143 3.15127 48.563 2 47.1429 2H24.8571C23.437 2 22.2857 3.15127 22.2857 4.57143V11.2571C22.2857 12.6773 21.1344 13.8286 19.7143 13.8286H15.3919C14.2436 13.8286 13.2748 13.0347 12.6625 12.0632C11.4485 10.1369 9.30226 8.85714 6.85714 8.85714C3.07005 8.85714 0 11.9272 0 15.7143C0 18.2477 1.3739 20.4603 3.41727 21.6475C4.45326 22.2494 5.31429 23.2463 5.31429 24.4444V48.127C5.31429 49.3252 4.45326 50.322 3.41727 50.9239C1.3739 52.1111 0 54.3237 0 56.8571C0 60.6442 3.07005 63.7143 6.85714 63.7143C9.39059 63.7143 11.6031 62.3404 12.7904 60.297C13.3923 59.261 14.3891 58.4 15.5873 58.4H19.7143C21.1344 58.4 22.2857 59.5513 22.2857 60.9714V68C22.2857 69.4202 23.437 70.5714 24.8571 70.5714H47.1429C48.563 70.5714 49.7143 69.4202 49.7143 68V60.9714C49.7143 59.5513 50.8656 58.4 52.2857 58.4H56.4127C57.6109 58.4 58.6077 59.261 59.2096 60.297C60.3969 62.3404 62.6094 63.7143 65.1429 63.7143C68.93 63.7143 72 60.6442 72 56.8571C72 54.3675 70.6732 52.1878 68.6881 50.9864C67.6843 50.3789 66.8571 49.3959 66.8571 48.2226V24.3488C66.8571 23.1755 67.6843 22.1925 68.6881 21.585C70.6732 20.3837 72 18.2039 72 15.7143C72 11.9272 68.93 8.85714 65.1429 8.85714C62.6977 8.85714 60.5515 10.1369 59.3375 12.0632C58.7252 13.0347 57.7564 13.8286 56.6081 13.8286H52.2857C50.8656 13.8286 49.7143 12.6773 49.7143 11.2571V4.57143ZM12.6625 53.206C13.2748 54.1776 14.2436 54.9714 15.3919 54.9714H19.7143C21.1344 54.9714 22.2857 53.8202 22.2857 52.4V45.7143C22.2857 44.2941 23.437 43.1429 24.8571 43.1429H26.5714C27.9916 43.1429 29.1429 41.9916 29.1429 40.5714L29.1429 32C29.1429 30.5798 27.9916 29.4286 26.5714 29.4286H24.8571C23.437 29.4286 22.2857 28.2773 22.2857 26.8571V19.8286C22.2857 18.4084 21.1344 17.2571 19.7143 17.2571H15.5873C14.3891 17.2571 13.3923 18.1181 12.7904 19.1541C12.2321 20.1151 11.4469 20.928 10.5083 21.5196C9.53675 22.1319 8.74286 23.1007 8.74286 24.2491L8.74286 48.3223C8.74286 49.4707 9.53672 50.4395 10.5082 51.0518C11.3773 51.5995 12.1148 52.337 12.6625 53.206ZM56.6081 54.9714C57.7564 54.9714 58.7252 54.1775 59.3375 53.206C59.9073 52.3019 60.6825 51.5402 61.5976 50.9864C62.6014 50.3789 63.4286 49.3959 63.4286 48.2226V24.3488C63.4286 23.1755 62.6014 22.1925 61.5976 21.585C60.6121 20.9886 59.7888 20.151 59.2096 19.1541C58.6077 18.1181 57.6109 17.2571 56.4127 17.2571H52.2857C50.8656 17.2571 49.7143 18.4084 49.7143 19.8286V26.8571C49.7143 28.2773 48.563 29.4286 47.1429 29.4286H45.4286C44.0084 29.4286 42.8571 30.5798 42.8571 32L42.8571 40.5714C42.8571 41.9916 44.0084 43.1429 45.4286 43.1429H47.1429C48.563 43.1429 49.7143 44.2941 49.7143 45.7143V52.4C49.7143 53.8202 50.8656 54.9714 52.2857 54.9714H56.6081ZM36.8571 43.1429C38.2773 43.1429 39.4286 41.9916 39.4286 40.5714L39.4286 32C39.4286 30.5798 38.2773 29.4286 36.8571 29.4286H35.1429C33.7227 29.4286 32.5714 30.5798 32.5714 32V40.5714C32.5714 41.9916 33.7227 43.1429 35.1429 43.1429H36.8571Z" fill="#C5FF4A"/>
</g>
<defs>
<clipPath id="clip0_4791_61">
<rect width="71.9994" height="72.0001" fill="white"/>
</clipPath>
</defs>
</svg>
