<svg width="320" height="260" viewBox="0 0 320 260" fill="none" xmlns="http://www.w3.org/2000/svg">
<path fill-rule="evenodd" clip-rule="evenodd" d="M87.3036 104.443C87.3036 99.8303 83.5739 96.0909 78.9732 96.0909H56.7589C52.1582 96.0909 48.4286 92.3515 48.4286 87.7386L48.4286 15.3523C48.4286 10.7394 52.1582 7 56.7589 7L128.955 7.00001C133.556 7.00001 137.286 10.7394 137.286 15.3523V37.625C137.286 42.2378 141.015 45.9773 145.616 45.9773L173.384 45.9773C177.985 45.9773 181.714 42.2378 181.714 37.625V15.3523C181.714 10.7395 185.444 7.00007 190.045 7.00008L262.241 7.00008C266.842 7.00008 270.571 10.7395 270.571 15.3524V87.7387C270.571 92.3515 266.842 96.091 262.241 96.091H240.027C235.426 96.091 231.696 99.8304 231.696 104.443V115.58C231.696 120.192 235.426 123.932 240.027 123.932H264.814C268.615 123.932 271.799 121.245 273.767 117.985C277.659 111.537 284.72 107.227 292.786 107.227C305.054 107.227 315 117.199 315 129.5C315 141.801 305.054 151.773 292.786 151.773C284.72 151.773 277.659 147.463 273.767 141.015C271.799 137.755 268.615 135.068 264.814 135.068H240.027C235.426 135.068 231.696 138.808 231.696 143.42V154.557C231.696 159.17 235.426 162.909 240.027 162.909H262.241C266.842 162.909 270.571 166.649 270.571 171.261L270.571 243.648C270.571 248.261 266.842 252 262.241 252H190.045C185.444 252 181.714 248.261 181.714 243.648V221.375C181.714 216.762 177.985 213.023 173.384 213.023H145.616C141.015 213.023 137.286 216.762 137.286 221.375V243.648C137.286 248.261 133.556 252 128.955 252L56.7589 252C52.1582 252 48.4286 248.261 48.4286 243.648L48.4286 171.261C48.4286 166.649 52.1582 162.909 56.7589 162.909H78.9732C83.574 162.909 87.3036 159.17 87.3036 154.557L87.3036 143.42C87.3036 138.808 83.574 135.068 78.9732 135.068H54.1865C50.3855 135.068 47.201 137.755 45.233 141.015C41.3411 147.463 34.2797 151.773 26.2143 151.773C13.9457 151.773 4 141.801 4 129.5C4 117.199 13.9457 107.227 26.2143 107.227C34.2797 107.227 41.3411 111.537 45.233 117.985C47.201 121.245 50.3855 123.932 54.1865 123.932H78.9732C83.5739 123.932 87.3036 120.192 87.3036 115.58V104.443ZM98.4107 104.443C98.4107 99.8303 102.14 96.0909 106.741 96.0909H128.955C133.556 96.0909 137.286 92.3515 137.286 87.7386V65.4659C137.286 60.8531 141.015 57.1136 145.616 57.1136L173.384 57.1136C177.985 57.1136 181.714 60.8531 181.714 65.4659V87.7387C181.714 92.3515 185.444 96.091 190.045 96.091H212.259C216.86 96.091 220.589 99.8304 220.589 104.443V115.58C220.589 120.192 216.86 123.932 212.259 123.932L106.741 123.932C102.14 123.932 98.4107 120.192 98.4107 115.58V104.443ZM212.259 135.068C216.86 135.068 220.589 138.808 220.589 143.42V154.557C220.589 159.17 216.86 162.909 212.259 162.909H190.045C185.444 162.909 181.714 166.649 181.714 171.261V193.534C181.714 198.147 177.985 201.886 173.384 201.886H145.616C141.015 201.886 137.286 198.147 137.286 193.534V171.261C137.286 166.649 133.556 162.909 128.955 162.909H106.741C102.14 162.909 98.4107 159.17 98.4107 154.557V143.42C98.4107 138.808 102.14 135.068 106.741 135.068H212.259Z" fill="#C5FF4A"/>
</svg>
