<svg width="72" height="72" viewBox="0 0 72 72" fill="none" xmlns="http://www.w3.org/2000/svg">
<g id="Frame 1073715489" clip-path="url(#clip0_4791_59)">
<path id="Union" fill-rule="evenodd" clip-rule="evenodd" d="M72 2.7C72 1.20883 70.7912 0 69.3 0H45.9C44.4088 0 43.2 1.20883 43.2 2.7V9.9C43.2 11.3912 41.9912 12.6 40.5 12.6H31.0728C29.7108 12.6 28.5888 11.5737 28.1986 10.2688C26.423 4.3293 20.9171 0 14.4 0C6.4471 0 0 6.4471 0 14.4C0 20.9171 4.3293 26.423 10.2688 28.1986C11.5737 28.5888 12.6 29.7108 12.6 31.0728V40.5C12.6 41.9912 11.3912 43.2 9.9 43.2H2.7C1.20883 43.2 0 44.4088 0 45.9V69.3C0 70.7912 1.20883 72 2.7 72H26.1C27.5912 72 28.8 70.7912 28.8 69.3V62.1C28.8 60.6088 30.0088 59.4 31.5 59.4H40.9272C42.2892 59.4 43.4112 60.4263 43.8014 61.7312C45.577 67.6707 51.0829 72 57.6 72C65.5529 72 72 65.5529 72 57.6C72 51.0829 67.6707 45.577 61.7312 43.8014C60.4263 43.4112 59.4 42.2892 59.4 40.9272V31.5C59.4 30.0088 60.6088 28.8 62.1 28.8H69.3C70.7912 28.8 72 27.5912 72 26.1V2.7ZM53.4692 43.8013C54.7741 43.4112 55.8 42.2892 55.8 40.9272V31.5C55.8 30.0088 54.5912 28.8 53.1 28.8H45.9C44.4088 28.8 43.2 27.5912 43.2 26.1V18.9C43.2 17.4088 41.9912 16.2 40.5 16.2H31.0728C29.7108 16.2 28.5888 17.2259 28.1987 18.5308C26.8143 23.162 23.162 26.8143 18.5308 28.1987C17.2259 28.5888 16.2 29.7108 16.2 31.0728V40.5C16.2 41.9912 17.4088 43.2 18.9 43.2H26.1C27.5912 43.2 28.8 44.4088 28.8 45.9V53.1C28.8 54.5912 30.0088 55.8 31.5 55.8H40.9272C42.2892 55.8 43.4112 54.7741 43.8013 53.4692C45.1857 48.838 48.838 45.1857 53.4692 43.8013Z" fill="#C5FF4A"/>
</g>
<defs>
<clipPath id="clip0_4791_59">
<rect width="71.9994" height="72.0001" fill="white"/>
</clipPath>
</defs>
</svg>
