<svg width="181" height="51" viewBox="0 0 181 51" fill="none" xmlns="http://www.w3.org/2000/svg">
<mask id="mask0_5601_15350" style="mask-type:luminance" maskUnits="userSpaceOnUse" x="14" y="0" width="153" height="51">
<path d="M166.377 0H14V51H166.377V0Z" fill="white"/>
</mask>
<g mask="url(#mask0_5601_15350)">
<path d="M104.011 37.2942C103.398 36.231 102.565 35.3931 101.509 34.7806C100.452 34.1695 99.2532 33.8633 97.9116 33.8633C96.57 33.8633 95.3673 34.1695 94.3019 34.7806C93.2366 35.3931 92.3983 36.231 91.7867 37.2942C91.1736 38.3588 90.8687 39.5608 90.8687 40.9014C90.8687 42.2419 91.175 43.4195 91.7867 44.4827C92.3983 45.5473 93.2366 46.3853 94.3019 46.9962C95.3673 47.6086 96.57 47.9135 97.9116 47.9135C99.1363 47.9135 100.226 47.6493 101.182 47.1219C102.117 46.6049 102.861 45.9071 103.421 45.0302V47.0093C103.421 47.2275 103.492 47.4077 103.635 47.5494C103.777 47.6925 103.957 47.7633 104.176 47.7633C104.41 47.7633 104.595 47.6925 104.729 47.5494C104.864 47.4077 104.93 47.2275 104.93 47.0093V40.9014C104.93 39.5608 104.624 38.3588 104.012 37.2942H104.011ZM100.741 45.7655C99.9109 46.2595 98.967 46.5064 97.9116 46.5064C96.8565 46.5064 95.9325 46.2595 95.0942 45.7655C94.2559 45.2714 93.5936 44.601 93.1066 43.7545C92.6193 42.9081 92.3763 41.9575 92.3763 40.9014C92.3763 39.8452 92.6193 38.8702 93.1066 38.0237C93.5922 37.1773 94.2541 36.5069 95.0942 36.0128C95.9325 35.5187 96.8707 35.2718 97.9116 35.2718C98.9525 35.2718 99.9109 35.5187 100.741 36.0128C101.571 36.5069 102.225 37.1773 102.702 38.0237C103.181 38.8702 103.42 39.8296 103.42 40.9014C103.42 41.9734 103.181 42.9081 102.702 43.7545C102.224 44.601 101.571 45.2714 100.741 45.7655Z" fill="#C5FF4A"/>
<path d="M117.69 46.5354C117.572 46.4012 117.421 46.3346 117.237 46.3346H116.608C116.088 46.3346 115.666 46.0874 115.338 45.5933C115.011 45.0992 114.847 44.4667 114.847 43.695V30.554C114.847 30.3199 114.781 30.135 114.647 30.0006C114.512 29.8663 114.327 29.7998 114.093 29.7998C113.875 29.7998 113.694 29.8663 113.552 30.0006C113.409 30.135 113.338 30.3199 113.338 30.554V43.695C113.338 44.517 113.477 45.2367 113.753 45.8564C114.029 46.4762 114.415 46.9629 114.91 47.3142C115.404 47.6666 115.969 47.8416 116.607 47.8416H117.11C117.344 47.8416 117.529 47.7707 117.663 47.6276C117.798 47.486 117.865 47.3053 117.865 47.0872C117.865 46.8531 117.805 46.6682 117.688 46.534L117.69 46.5354Z" fill="#C5FF4A"/>
<path d="M111.878 46.5354C111.761 46.4012 111.609 46.3346 111.426 46.3346H110.797C110.276 46.3346 109.854 46.0874 109.526 45.5933C109.199 45.0992 109.036 44.4667 109.036 43.695V30.554C109.036 30.3199 108.969 30.135 108.835 30.0006C108.701 29.8663 108.516 29.7998 108.281 29.7998C108.063 29.7998 107.882 29.8663 107.741 30.0006C107.598 30.135 107.527 30.3199 107.527 30.554V43.695C107.527 44.517 107.666 45.2367 107.942 45.8564C108.218 46.4762 108.604 46.9629 109.098 47.3142C109.593 47.6666 110.158 47.8416 110.795 47.8416H111.298C111.532 47.8416 111.718 47.7707 111.852 47.6276C111.987 47.486 112.053 47.3053 112.053 47.0872C112.053 46.8531 111.994 46.6682 111.877 46.534L111.878 46.5354Z" fill="#C5FF4A"/>
<path d="M140.213 34.7201C140.087 34.5944 139.923 34.5309 139.723 34.5309H136.389V30.5524C136.389 30.3184 136.323 30.1335 136.188 29.9992C136.053 29.8648 135.869 29.7983 135.634 29.7983C135.416 29.7983 135.235 29.8648 135.094 29.9992C134.951 30.1335 134.88 30.3184 134.88 30.5524V34.5309H132.906C132.706 34.5309 132.542 34.5944 132.417 34.7201C132.29 34.8458 132.227 35.0091 132.227 35.2098C132.227 35.4106 132.29 35.5738 132.417 35.6996C132.542 35.8253 132.706 35.8887 132.906 35.8887H134.88V43.6942C134.88 44.5158 135.019 45.2355 135.294 45.8553C135.571 46.4747 135.957 46.9617 136.451 47.3127C136.946 47.6651 137.511 47.84 138.148 47.84H138.651C138.885 47.84 139.071 47.7692 139.205 47.6261C139.339 47.4848 139.406 47.3042 139.406 47.086C139.406 46.8519 139.347 46.667 139.23 46.5328C139.112 46.3982 138.961 46.332 138.777 46.332H138.148C137.628 46.332 137.206 46.0848 136.878 45.5907C136.551 45.0967 136.387 44.4641 136.387 43.6924V35.8873H139.721C139.922 35.8873 140.085 35.8239 140.211 35.6982C140.337 35.5724 140.399 35.4092 140.399 35.2084C140.399 35.0076 140.337 34.8444 140.211 34.7187L140.213 34.7201Z" fill="#C5FF4A"/>
<path d="M76.8625 47.7473C76.6949 47.7473 76.5476 47.7051 76.4219 47.6216C76.2961 47.5376 76.208 47.4207 76.1573 47.2688L72.0844 35.0758C72.0182 34.7074 72.0337 34.4343 72.135 34.258C72.2363 34.0818 72.4109 33.9937 72.6624 33.9937C72.7966 33.9937 72.9298 34.0312 73.064 34.1063C73.1982 34.1815 73.2981 34.2956 73.3661 34.4459L77.0863 45.6581H76.7597L80.1785 34.5962C80.2288 34.4127 80.3198 34.2653 80.4544 34.1569C80.5886 34.0485 80.7477 33.9937 80.9325 33.9937C81.1174 33.9937 81.2722 34.0485 81.3979 34.1569C81.5236 34.2667 81.6203 34.4127 81.6869 34.5962L85.2063 45.6581H84.754L88.4745 34.4459C88.6087 34.1439 88.8428 33.9937 89.1782 33.9937C89.48 33.9937 89.6854 34.1107 89.7938 34.3462C89.9022 34.5817 89.8976 34.8244 89.7807 35.0758L85.7336 47.2688C85.683 47.4193 85.5951 47.5376 85.4694 47.6216C85.3437 47.7051 85.1889 47.7473 85.004 47.7473C84.8365 47.7473 84.6849 47.7051 84.5518 47.6216C84.4175 47.5376 84.3336 47.4207 84.3003 47.2688L80.7059 36.1062H81.0324L77.5633 47.2688C77.4968 47.4367 77.4001 47.5578 77.2743 47.6329C77.1486 47.7083 77.0098 47.7459 76.8596 47.7459L76.8625 47.7473Z" fill="#C5FF4A"/>
<path d="M130.331 37.1337C129.792 36.1148 129.043 35.3149 128.082 34.7342C127.123 34.1536 126.019 33.8633 124.774 33.8633C123.528 33.8633 122.39 34.1667 121.415 34.772C120.438 35.3788 119.671 36.2076 119.117 37.2602C118.561 38.3124 118.283 39.529 118.283 40.9095C118.283 42.29 118.578 43.4861 119.167 44.5475C119.757 45.6086 120.57 46.4373 121.605 47.0355C122.64 47.6337 123.823 47.9326 125.154 47.9326C125.945 47.9326 126.774 47.7729 127.642 47.452C128.509 47.1329 129.212 46.7278 129.752 46.2401C129.92 46.0892 130 45.9206 129.991 45.7347C129.982 45.5505 129.885 45.3805 129.701 45.2296C129.566 45.112 129.402 45.0568 129.209 45.0656C129.016 45.0745 128.85 45.1453 128.717 45.2806C128.329 45.6507 127.804 45.9496 127.137 46.1777C126.472 46.4055 125.812 46.5188 125.154 46.5188C124.11 46.5188 123.184 46.279 122.376 45.7988C121.567 45.3182 120.936 44.6576 120.481 43.8158C120.091 43.0929 119.868 42.2755 119.814 41.3653H130.408C130.627 41.3653 130.803 41.3016 130.938 41.1765C131.073 41.0505 131.139 40.8776 131.139 40.6584C131.139 39.3289 130.87 38.1544 130.331 37.1351V37.1337ZM120.442 37.9802C120.872 37.1383 121.461 36.4778 122.21 35.9972C122.959 35.5166 123.814 35.2772 124.774 35.2772C125.784 35.2772 126.664 35.5166 127.413 35.9972C128.162 36.4778 128.74 37.1383 129.143 37.9802C129.441 38.6014 129.62 39.2924 129.679 40.0517H119.844C119.928 39.2895 120.126 38.5986 120.44 37.9802H120.442Z" fill="#C5FF4A"/>
<path fill-rule="evenodd" clip-rule="evenodd" d="M92.5399 24.5068C91.1781 23.7177 90.0979 22.6205 89.2992 21.2267V21.221C88.5176 19.8196 88.1241 18.2223 88.1089 16.4425C88.0937 14.6626 88.4319 13.0463 89.1413 11.6506C89.868 10.2397 90.876 9.12156 92.1613 8.30389C93.4547 7.48053 94.9436 7.06789 96.6096 7.05269C98.2526 7.03747 99.7075 7.41019 100.957 8.18982C102.218 8.94281 103.197 10.0039 103.889 11.3616C104.58 12.7193 104.928 14.2576 104.945 15.9671C104.949 16.4158 104.812 16.8227 104.506 17.1422L104.496 17.1517L104.487 17.1612C104.178 17.4502 103.789 17.5796 103.363 17.5834L91.4196 17.6955C91.5432 18.382 91.7621 19.0076 92.0759 19.5762C92.6008 20.487 93.2988 21.1963 94.1772 21.7116C95.0484 22.2231 96.0564 22.4798 97.2202 22.4684C97.9066 22.4627 98.5951 22.3391 99.2875 22.0957C100.008 21.8295 100.554 21.5138 100.944 21.1621L100.953 21.1525C101.258 20.892 101.617 20.7551 102.012 20.7475C102.402 20.719 102.769 20.8198 103.077 21.067L103.104 21.0898C103.443 21.4017 103.663 21.7914 103.673 22.2516C103.705 22.7156 103.515 23.1111 103.171 23.4096C102.444 24.0505 101.531 24.5791 100.443 25.005L100.436 25.0088C99.3445 25.4139 98.2813 25.6249 97.2485 25.6344C95.5067 25.6516 93.9356 25.2808 92.5477 24.5106L92.5399 24.5068ZM99.354 10.9375C98.616 10.4564 97.7185 10.2111 96.6401 10.2206C95.5446 10.2301 94.6071 10.504 93.8103 11.025C93.0077 11.5498 92.3819 12.2743 91.9332 13.2136C91.7203 13.6681 91.5606 14.1587 91.4558 14.6854L101.661 14.5904C101.556 14.018 101.387 13.4875 101.149 12.995C100.725 12.1088 100.128 11.4281 99.3576 10.9413L99.3519 10.9375H99.354Z" fill="#C5FF4A"/>
<path d="M111.678 7.97826H111.682C112.748 7.3398 113.925 7.02441 115.205 7.02441C116.188 7.02441 117.009 7.16502 117.626 7.48993C117.945 7.65905 118.213 7.89276 118.367 8.21197C118.525 8.53688 118.542 8.89031 118.461 9.24185L118.457 9.25322C118.354 9.64656 118.148 10.0019 117.782 10.1938C117.49 10.3553 117.156 10.4009 116.81 10.3762H116.806C116.542 10.3553 116.236 10.3344 115.886 10.3135H115.872C114.777 10.2128 113.823 10.3344 112.997 10.6612H112.992C112.185 10.9691 111.552 11.4403 111.075 12.0749C110.628 12.6963 110.398 13.4411 110.398 14.336V23.7758C110.398 24.249 110.265 24.6822 109.947 25.009C109.628 25.3358 109.202 25.4688 108.738 25.4688C108.274 25.4688 107.85 25.3358 107.531 25.009C107.211 24.6822 107.08 24.249 107.08 23.7758V8.90362C107.08 8.43049 107.211 7.99724 107.531 7.67045C107.85 7.34362 108.276 7.2106 108.738 7.2106C109.2 7.2106 109.626 7.34362 109.947 7.67045C110.267 7.99724 110.398 8.43049 110.398 8.90362V8.9644C110.786 8.5882 111.214 8.25755 111.678 7.97634V7.97826Z" fill="#C5FF4A"/>
<path d="M121.265 25.0113L121.249 24.9941C120.945 24.654 120.816 24.2208 120.816 23.7458V16.0617C120.816 15.5886 120.947 15.1554 121.266 14.8285C121.598 14.4903 122.027 14.3364 122.505 14.3364C122.982 14.3364 123.372 14.4903 123.681 14.8285C124.018 15.1497 124.165 15.5829 124.165 16.0617V23.7458C124.165 24.2341 124.014 24.6712 123.681 25.0094C123.368 25.3305 122.955 25.4692 122.505 25.4692C122.054 25.4692 121.616 25.3343 121.282 25.0246L121.265 25.0094V25.0113Z" fill="#C5FF4A"/>
<path fill-rule="evenodd" clip-rule="evenodd" d="M152.704 24.4236L152.698 24.4198C151.369 23.5971 150.309 22.4836 149.53 21.0851L149.526 21.0794C148.76 19.6733 148.381 18.0943 148.381 16.3557C148.381 14.6171 148.771 13.0039 149.56 11.5959L149.564 11.5902C150.369 10.1917 151.458 9.08778 152.831 8.28782C154.21 7.46127 155.759 7.05273 157.467 7.05273C159.174 7.05273 160.714 7.46127 162.072 8.28782C163.445 9.08778 164.525 10.1917 165.31 11.5921C166.118 12.9982 166.529 14.5886 166.55 16.3481V23.7738C166.55 24.2488 166.394 24.6744 166.067 25.007L166.06 25.0145L166.052 25.0222C165.723 25.3262 165.312 25.4668 164.86 25.4668C164.407 25.4668 163.996 25.3281 163.669 25.0222L163.662 25.0145L163.652 25.007C163.325 24.6744 163.169 24.2488 163.169 23.7738V23.1961C162.673 23.6997 162.11 24.1386 161.484 24.5148H161.481C160.226 25.2597 158.8 25.6245 157.217 25.6245C155.55 25.6245 154.042 25.2255 152.704 24.4198V24.4236ZM160.402 21.6494H160.406C161.279 21.1231 161.96 20.4087 162.454 19.4966V19.4928C162.969 18.5618 163.228 17.5205 163.228 16.3557C163.228 15.191 162.968 14.1307 162.458 13.2224L162.454 13.2148C161.96 12.3028 161.279 11.5883 160.406 11.0658L160.395 11.0601C159.551 10.5243 158.579 10.2506 157.463 10.2506C156.347 10.2506 155.398 10.5243 154.529 11.062L154.523 11.0658C153.649 11.5902 152.955 12.3066 152.437 13.2224C151.928 14.1288 151.667 15.1681 151.667 16.3557C151.667 17.5433 151.926 18.5599 152.439 19.4909C152.955 20.4068 153.649 21.1212 154.523 21.6456C155.392 22.1663 156.368 22.4304 157.463 22.4304C158.558 22.4304 159.556 22.1663 160.401 21.6476L160.402 21.6494Z" fill="#C5FF4A"/>
<path d="M77.1868 24.3631C77.3352 24.6937 77.5367 24.973 77.8048 25.1725C78.0804 25.3759 78.3963 25.4709 78.7384 25.4709C79.0805 25.4709 79.4209 25.3797 79.7081 25.1801C79.9915 24.9825 80.2025 24.6994 80.3527 24.3631L87.124 9.46617C87.3064 9.08806 87.3199 8.68523 87.1733 8.29193C87.0249 7.8739 86.7398 7.55845 86.348 7.35894L86.3349 7.35324L86.3215 7.34754C85.9223 7.17272 85.5037 7.15944 85.0911 7.29817C84.6633 7.42546 84.3516 7.71998 84.1728 8.13801L78.7441 20.2987L73.2297 8.11711L73.2223 8.10379C73.0264 7.73326 72.7335 7.45967 72.3514 7.30954C71.9427 7.14995 71.5244 7.18983 71.1327 7.38937C70.735 7.57938 70.429 7.87578 70.2731 8.2881C70.1208 8.69093 70.14 9.10137 70.3167 9.4928L77.185 24.365L77.1868 24.3631Z" fill="#C5FF4A"/>
<path fill-rule="evenodd" clip-rule="evenodd" d="M128.618 21.0912C129.424 22.4897 130.514 23.6032 131.883 24.424L131.889 24.4278C133.267 25.2316 134.815 25.6287 136.52 25.6287C138.226 25.6287 139.734 25.2316 141.092 24.4259C142.464 23.626 143.545 22.5334 144.332 21.152C145.138 19.7498 145.56 18.1821 145.604 16.4644V1.54855C145.604 1.06592 145.456 0.630788 145.113 0.307769C144.788 -0.0190505 144.376 -0.176758 143.913 -0.176758C143.451 -0.176758 143.039 -0.0209506 142.714 0.307769C142.371 0.630788 142.223 1.06592 142.223 1.54855V9.48533C141.654 8.91148 140.993 8.42507 140.24 8.02603C139.051 7.37429 137.724 7.05317 136.271 7.05317C134.602 7.05317 133.092 7.46361 131.754 8.29208C130.422 9.09391 129.363 10.1979 128.58 11.5964L128.576 11.602C127.81 13.0082 127.434 14.5871 127.434 16.3257C127.434 18.0643 127.823 19.6775 128.61 21.0855L128.614 21.0912H128.618ZM141.516 13.2248C142.029 14.133 142.288 15.1629 142.288 16.3257C142.288 17.4886 142.027 18.5508 141.516 19.459L141.512 19.4666C141.018 20.3806 140.335 21.1064 139.456 21.6518C138.612 22.1686 137.639 22.4327 136.52 22.4327C135.403 22.4327 134.45 22.1705 133.583 21.6499C132.704 21.1046 132.01 20.3768 131.495 19.459C130.986 18.5527 130.725 17.5133 130.725 16.3257C130.725 15.1382 130.986 14.133 131.495 13.2248L131.499 13.221C132.014 12.2842 132.708 11.5584 133.579 11.0358C134.45 10.5152 135.425 10.2511 136.52 10.2511C137.616 10.2511 138.612 10.5152 139.458 11.0339H139.462C140.333 11.5583 141.014 12.2804 141.51 13.2134L141.514 13.2248H141.516Z" fill="#C5FF4A"/>
<path d="M121.265 12.434L121.249 12.4169C120.945 12.0768 120.816 11.6435 120.816 11.1685V9.28929C120.816 8.81616 120.947 8.38294 121.266 8.05611C121.598 7.71789 122.027 7.56396 122.505 7.56396C122.982 7.56396 123.372 7.71789 123.681 8.05611C124.018 8.37724 124.165 8.81045 124.165 9.28929V11.1685C124.165 11.6568 124.014 12.0939 123.681 12.4321C123.368 12.7532 122.955 12.8919 122.505 12.8919C122.054 12.8919 121.616 12.757 121.282 12.4473L121.265 12.4321V12.434Z" fill="#C5FF4A"/>
<path fill-rule="evenodd" clip-rule="evenodd" d="M54.7462 8.66862L63.7431 24.2775C65.0458 26.533 65.0458 29.3124 63.7431 31.5679L54.7462 47.1767C53.4486 49.4324 51.0434 50.8197 48.4437 50.8197H30.4496C27.8498 50.8197 25.4496 49.4324 24.1472 47.1767L15.1501 31.5679C13.8477 29.3124 13.8477 26.533 15.1501 24.2775L24.1472 8.66862C25.4446 6.41311 27.8498 5.02588 30.4496 5.02588H48.4437C51.0434 5.02588 53.4436 6.41311 54.7462 8.66862ZM33.3788 29.0779C32.76 30.1608 31.3778 30.53 30.2999 29.9113C29.2221 29.2925 28.8478 27.9152 29.4666 26.8324L38.1642 11.6776C38.788 10.5948 40.1653 10.2255 41.2431 10.8443C42.3209 11.468 42.6952 12.8453 42.0765 13.9231L33.3788 29.0779ZM30.5694 33.9731L28.8778 36.9222C28.254 38.0052 26.8768 38.3792 25.7989 37.7555C24.721 37.1368 24.3468 35.7545 24.9656 34.6767L26.6572 31.7276C27.281 30.6498 28.6532 30.2755 29.736 30.8943C30.8139 31.513 31.1882 32.8953 30.5694 33.9731ZM48.5535 25.8244C47.4657 25.2156 46.0934 25.6048 45.4846 26.6927L36.9517 41.9372C36.3429 43.0252 36.7321 44.3972 37.8199 45.006C38.9078 45.6148 40.28 45.2256 40.8888 44.1429L49.4217 28.8933C50.0305 27.8055 49.6413 26.4332 48.5535 25.8244ZM48.4637 21.4731L50.1254 18.504C50.7293 17.4162 52.1063 17.027 53.1943 17.6357C54.2819 18.2445 54.6712 19.6168 54.0627 20.7046L52.4009 23.6737C51.7921 24.7615 50.4197 25.1507 49.3319 24.5419C48.2441 23.9332 47.8549 22.5609 48.4637 21.4731ZM29.8758 21.2485C30.4995 20.1707 30.1303 18.7934 29.0524 18.1697C27.9746 17.5459 26.5973 17.9152 25.9736 18.993L20.8937 27.7805C20.27 28.8584 20.6392 30.2356 21.717 30.8594C22.7949 31.4831 24.1722 31.1138 24.7959 30.036L29.8758 21.2485ZM32.7051 16.3683C32.0864 17.4511 30.7091 17.8254 29.6263 17.2066C28.5484 16.5878 28.1742 15.2106 28.7929 14.1278L30.1902 11.6826C30.8089 10.5998 32.1812 10.2255 33.264 10.8443C34.3469 11.463 34.7211 12.8403 34.1024 13.9231L32.7051 16.3683ZM49.0376 38.6487C47.9597 38.025 46.5824 38.3895 45.9587 39.4672L44.5465 41.9074C43.9228 42.9851 44.287 44.3625 45.3649 44.9911C46.4427 45.6148 47.82 45.2507 48.4487 44.1727L49.8609 41.7328C50.4796 40.6547 50.1105 39.2724 49.0376 38.6487ZM54.0974 25.3603C54.7211 24.2825 56.0984 23.9182 57.1762 24.5419C58.2543 25.1657 58.6183 26.543 57.9996 27.6208L52.9099 36.3984C52.2812 37.4761 50.9039 37.8405 49.8262 37.2168C48.7481 36.5928 48.3838 35.2156 49.0076 34.1378L54.0974 25.3603ZM39.8259 27.2316C40.9038 27.8504 42.281 27.4811 42.9048 26.4032L50.0804 13.9281C50.6992 12.8503 50.3301 11.473 49.2521 10.8493C48.1743 10.2305 46.792 10.5998 46.1733 11.6776L38.9976 24.1527C38.3738 25.2306 38.7481 26.6078 39.8259 27.2316ZM32.9596 44.1479C32.3458 45.2306 30.9686 45.6049 29.8858 44.9862C28.8029 44.3675 28.4287 42.9901 29.0424 41.9074L36.2082 29.3723C36.8269 28.2895 38.2042 27.9152 39.287 28.534C40.3648 29.1478 40.7441 30.525 40.1253 31.6079L32.9596 44.1479Z" fill="#C5FF4A"/>
</g>
</svg>
