<svg width="181" height="51" viewBox="0 0 181 51" fill="none" xmlns="http://www.w3.org/2000/svg">
<path d="M38.53 21.9L48.96 27.96C49.0478 28.0107 49.1208 28.0836 49.1717 28.1713C49.2226 28.2591 49.2496 28.3586 49.25 28.46V41.54C49.2496 41.6415 49.2226 41.741 49.1717 41.8287C49.1208 41.9165 49.0478 41.9893 48.96 42.04L37.74 48.58C37.6518 48.6309 37.5518 48.6577 37.45 48.6577C37.3482 48.6577 37.2482 48.6309 37.16 48.58L26.66 42.5C26.5718 42.4491 26.4718 42.4223 26.37 42.4223C26.2682 42.4223 26.1682 42.4491 26.08 42.5L15.63 48.58C15.5418 48.6309 15.4418 48.6577 15.34 48.6577C15.2382 48.6577 15.1382 48.6309 15.05 48.58L3.76998 42.05C3.68215 41.9993 3.60914 41.9265 3.55826 41.8387C3.50737 41.751 3.48038 41.6515 3.47998 41.55V28.48C3.48038 28.3786 3.50737 28.2791 3.55826 28.1913C3.60914 28.1036 3.68215 28.0308 3.76998 27.98L14.2 21.89C14.2878 21.8393 14.3608 21.7665 14.4117 21.6787C14.4626 21.591 14.4896 21.4915 14.49 21.39V9.29004C14.4904 9.18862 14.5174 9.08907 14.5683 9.00134C14.6191 8.91361 14.6921 8.84075 14.78 8.79004L26.08 2.22004C26.1682 2.16913 26.2682 2.14233 26.37 2.14233C26.4718 2.14233 26.5718 2.16913 26.66 2.22004L37.96 8.77004C38.0478 8.82075 38.1208 8.89361 38.1717 8.98134C38.2226 9.06907 38.2496 9.16862 38.25 9.27004L38.24 21.4C38.2404 21.5015 38.2674 21.601 38.3183 21.6887C38.3691 21.7765 38.4421 21.8493 38.53 21.9ZM26.14 15.03C26.1917 15.0002 26.2503 14.9845 26.31 14.9845C26.3697 14.9845 26.4283 15.0002 26.48 15.03L36.09 20.55C36.141 20.5773 36.1982 20.5911 36.2561 20.5901C36.314 20.589 36.3706 20.5733 36.4207 20.5442C36.4708 20.5152 36.5126 20.4738 36.5422 20.4241C36.5719 20.3744 36.5883 20.3179 36.59 20.26L36.68 10.09C36.681 10.0294 36.6657 9.96964 36.6358 9.91689C36.6059 9.86414 36.5625 9.82035 36.51 9.79004L26.55 4.06004C26.4983 4.0302 26.4397 4.01449 26.38 4.01449C26.3203 4.01449 26.2617 4.0302 26.21 4.06004L16.42 9.67004C16.3675 9.70035 16.324 9.74414 16.2941 9.79689C16.2642 9.84964 16.249 9.90942 16.25 9.97004L16.22 20.17C16.2208 20.2293 16.237 20.2874 16.2672 20.3385C16.2973 20.3896 16.3403 20.4319 16.3919 20.4612C16.4434 20.4905 16.5018 20.5058 16.5611 20.5056C16.6204 20.5054 16.6786 20.4897 16.73 20.46L26.14 15.03ZM34.94 21.71L27.26 17.27C26.6733 16.9234 26.0833 16.9234 25.49 17.27L18.01 21.6C17.3566 21.98 17.3566 22.36 18.01 22.74L24.16 26.33C24.5533 26.5634 24.9366 26.5467 25.31 26.28C25.9433 25.84 26.6 25.8234 27.28 26.23C27.5016 26.3634 27.7557 26.4347 28.0159 26.4364C28.2761 26.4382 28.533 26.3704 28.76 26.24L34.94 22.62C35.46 22.32 35.46 22.0167 34.94 21.71ZM24.2 41.67C24.2541 41.6396 24.2991 41.5953 24.3304 41.5417C24.3618 41.4881 24.3783 41.4271 24.3783 41.365C24.3783 41.303 24.3618 41.242 24.3304 41.1884C24.2991 41.1348 24.2541 41.0905 24.2 41.06L14.68 35.61C14.6263 35.5802 14.5814 35.5368 14.5498 35.4841C14.5182 35.4315 14.501 35.3714 14.5 35.31L14.48 24.23C14.4807 24.1687 14.4653 24.1083 14.4353 24.0549C14.4054 24.0014 14.3619 23.9567 14.3092 23.9253C14.2566 23.8939 14.1966 23.8769 14.1353 23.876C14.074 23.8751 14.0136 23.8903 13.96 23.92L5.30998 28.94C5.25816 28.9711 5.21526 29.0151 5.18547 29.0677C5.15568 29.1202 5.14001 29.1796 5.13998 29.24L5.16998 40.79C5.17001 40.8505 5.18568 40.9099 5.21547 40.9624C5.24526 41.015 5.28816 41.059 5.33998 41.09L15.15 46.77C15.2044 46.8026 15.2666 46.8199 15.33 46.8199C15.3934 46.8199 15.4556 46.8026 15.51 46.77L24.2 41.67ZM25.12 30.16C24.58 29.66 24.49 29.44 24.21 28.77C24.07 28.43 23.84 28.1667 23.52 27.98L16.31 23.76C16.25 23.7267 16.22 23.7434 16.22 23.81L16.18 34.22C16.18 34.4534 16.2766 34.6267 16.47 34.74L24.78 39.59C25.2533 39.87 25.49 39.7334 25.49 39.18L25.5 31.01C25.5 30.67 25.3733 30.3867 25.12 30.16ZM36.47 23.75L29.47 27.83C29.1433 28.0234 28.9166 28.3034 28.79 28.67C28.5966 29.25 28.27 29.72 27.81 30.08C27.4366 30.3734 27.25 30.7567 27.25 31.23V39.19C27.25 39.7367 27.4866 39.8734 27.96 39.6L36.46 34.62C36.6266 34.52 36.71 34.37 36.71 34.17L36.7 23.88C36.7005 23.8529 36.6938 23.8262 36.6804 23.8027C36.6669 23.7791 36.6474 23.7597 36.6238 23.7463C36.6002 23.733 36.5735 23.7263 36.5464 23.7269C36.5193 23.7276 36.4929 23.7356 36.47 23.75ZM38.24 35.31C38.2408 35.3642 38.2273 35.4177 38.201 35.465C38.1747 35.5124 38.1364 35.5521 38.09 35.58L28.5 41.13C28.4521 41.157 28.4123 41.1963 28.3846 41.2437C28.3569 41.2911 28.3423 41.3451 28.3423 41.4C28.3423 41.455 28.3569 41.5089 28.3846 41.5564C28.4123 41.6038 28.4521 41.643 28.5 41.67L37.23 46.78C37.2783 46.8091 37.3336 46.8245 37.39 46.8245C37.4464 46.8245 37.5017 46.8091 37.55 46.78L47.56 41C47.6083 40.9733 47.6485 40.9342 47.6767 40.8868C47.7048 40.8393 47.7198 40.7852 47.72 40.73V29.29C47.7208 29.2359 47.7073 29.1824 47.681 29.135C47.6547 29.0877 47.6164 29.048 47.57 29.02L38.72 23.9C38.6729 23.874 38.6198 23.8607 38.566 23.8614C38.5122 23.862 38.4595 23.8767 38.4131 23.904C38.3666 23.9312 38.3281 23.9701 38.3013 24.0167C38.2744 24.0634 38.2602 24.1162 38.26 24.17L38.24 35.31Z" fill="#C5FF4A"/>
<path d="M84.22 38.04L80.56 37.99C80.4715 37.9874 80.3876 37.9504 80.326 37.8869C80.2644 37.8234 80.2299 37.7384 80.23 37.65L80.21 11.82C80.21 11.7298 80.2458 11.6433 80.3095 11.5795C80.3733 11.5158 80.4598 11.48 80.55 11.48L84.18 11.46C84.2701 11.46 84.3566 11.4958 84.4204 11.5595C84.4841 11.6233 84.52 11.7098 84.52 11.8V26.55C84.5192 26.6213 84.541 26.6911 84.5822 26.7494C84.6233 26.8077 84.6818 26.8516 84.7493 26.8748C84.8167 26.8981 84.8898 26.8995 84.9582 26.8788C85.0265 26.8582 85.0866 26.8166 85.13 26.76L90.99 19.26C91.021 19.2204 91.0604 19.1883 91.1054 19.1658C91.1503 19.1433 91.1997 19.1311 91.25 19.13L95.63 19.08C95.694 19.0795 95.7568 19.0971 95.8113 19.1307C95.8657 19.1643 95.9096 19.2127 95.9378 19.2701C95.966 19.3276 95.9774 19.3918 95.9707 19.4555C95.964 19.5191 95.9395 19.5796 95.9 19.63L89.35 27.66C89.3039 27.7179 89.278 27.7893 89.2762 27.8633C89.2744 27.9373 89.2968 28.0098 89.34 28.07L96.22 37.49C96.2571 37.541 96.2793 37.6014 96.2841 37.6644C96.2888 37.7274 96.2759 37.7904 96.2469 37.8465C96.2178 37.9026 96.1737 37.9494 96.1195 37.9818C96.0653 38.0142 96.0031 38.0309 95.94 38.03L91.44 37.99C91.3855 37.9908 91.3316 37.9785 91.2829 37.9541C91.2342 37.9297 91.192 37.894 91.16 37.85L85.3 29.39C85.259 29.3304 85.2 29.2855 85.1318 29.2617C85.0635 29.238 84.9894 29.2366 84.9203 29.2577C84.8512 29.2789 84.7906 29.3216 84.7474 29.3795C84.7042 29.4375 84.6806 29.5077 84.68 29.58L84.57 37.71C84.5687 37.7546 84.5586 37.7986 84.5403 37.8393C84.522 37.8801 84.4959 37.9168 84.4633 37.9475C84.4308 37.9781 84.3926 38.0021 84.3509 38.0179C84.3091 38.0338 84.2646 38.0413 84.22 38.04Z" fill="#C5FF4A"/>
<path d="M132.478 11.5136L130.478 11.5066C129.666 11.5038 129.006 12.1596 129.003 12.9715L128.997 14.6314C128.994 15.4433 129.65 16.1037 130.462 16.1066L132.462 16.1135C133.274 16.1164 133.934 15.4605 133.937 14.6487L133.943 12.9887C133.946 12.1768 133.29 11.5164 132.478 11.5136Z" fill="#C5FF4A"/>
<path d="M165.78 31.04L165.76 37.51C165.76 37.8566 165.587 38.03 165.24 38.03L161.99 38.01C161.65 38.01 161.48 37.8366 161.48 37.49V11.75C161.48 11.6757 161.508 11.6045 161.559 11.552C161.61 11.4995 161.678 11.47 161.75 11.47L165.5 11.46C165.574 11.46 165.645 11.4895 165.698 11.542C165.75 11.5945 165.78 11.6657 165.78 11.74C165.767 16.3866 165.77 21.0966 165.79 25.87C165.79 26.1233 165.923 26.32 166.19 26.46C166.327 26.5307 166.485 26.5504 166.637 26.5157C166.789 26.481 166.924 26.394 167.02 26.27L172.31 19.27C172.37 19.1966 172.447 19.1566 172.54 19.15L177.41 19.06C177.563 19.06 177.59 19.1166 177.49 19.23L170.81 27.43C170.57 27.73 170.563 28.0333 170.79 28.34L177.78 37.84C177.794 37.8564 177.802 37.8764 177.805 37.8976C177.807 37.9188 177.803 37.9402 177.794 37.9593C177.784 37.9784 177.769 37.9942 177.751 38.005C177.732 38.0158 177.711 38.021 177.69 38.02L172.81 37.99C172.61 37.99 172.453 37.9066 172.34 37.74L167.41 30.54C166.33 28.9533 165.787 29.12 165.78 31.04Z" fill="#C5FF4A"/>
<path d="M116.03 34H125.42C125.466 34 125.511 34.0091 125.553 34.0268C125.594 34.0445 125.632 34.0704 125.664 34.1031C125.696 34.1357 125.721 34.1744 125.737 34.2168C125.754 34.2592 125.761 34.3045 125.76 34.35L125.64 37.69C125.637 37.7784 125.6 37.8624 125.537 37.924C125.474 37.9856 125.389 38.02 125.3 38.02L111.4 37.99C111.31 37.99 111.223 37.9542 111.16 37.8904C111.096 37.8266 111.06 37.7402 111.06 37.65V14.08C111.06 13.9898 111.096 13.9033 111.16 13.8396C111.223 13.7758 111.31 13.74 111.4 13.74H115.34C115.385 13.74 115.429 13.7488 115.47 13.7659C115.511 13.783 115.549 13.808 115.58 13.8396C115.612 13.8711 115.637 13.9086 115.654 13.9499C115.671 13.9911 115.68 14.0353 115.68 14.08L115.69 33.66C115.69 33.7502 115.726 33.8366 115.79 33.9004C115.853 33.9642 115.94 34 116.03 34Z" fill="#C5FF4A"/>
<path d="M143.97 20.9201C145.837 19.0601 148.373 18.4001 151.58 18.9401C154.8 19.4801 156 21.9301 155.98 24.9601C155.947 29.4467 155.937 33.6201 155.95 37.4801C155.95 37.8401 155.773 38.0201 155.42 38.0201L152.04 38.0101C151.727 38.0101 151.57 37.8534 151.57 37.5401L151.56 25.7901C151.56 23.2234 150.283 22.0901 147.73 22.3901C147.503 22.4167 147.377 22.4301 147.35 22.4301C144.783 22.7301 143.507 24.1667 143.52 26.7401C143.54 30.3867 143.537 34.0034 143.51 37.5901C143.51 37.8634 143.373 38.0001 143.1 38.0001L139.52 38.0701C139.307 38.0767 139.2 37.9767 139.2 37.7701V19.5801C139.2 19.2734 139.357 19.1201 139.67 19.1201L143.16 19.0801C143.373 19.0801 143.483 19.1867 143.49 19.4001L143.54 20.7501C143.553 21.1367 143.697 21.1934 143.97 20.9201Z" fill="#C5FF4A"/>
<path d="M69.2199 22.6201L61.2399 22.6001C61.0066 22.6001 60.8899 22.4801 60.8899 22.2401L60.9099 19.4801C60.9099 19.2468 61.0299 19.1301 61.2699 19.1301L74.6799 19.1201C75.0599 19.1201 75.2499 19.3068 75.2499 19.6801V21.8901C75.25 22.3359 75.094 22.7646 74.8099 23.1001L65.7599 33.7901C65.7163 33.8409 65.6886 33.9031 65.6802 33.9694C65.6717 34.0357 65.6829 34.1033 65.7123 34.1643C65.7417 34.2252 65.7882 34.277 65.8463 34.3135C65.9043 34.3499 65.9715 34.3696 66.0399 34.3701H75.5599C75.8533 34.3701 75.9933 34.5168 75.9799 34.8101L75.8799 37.6401C75.8666 37.8868 75.7366 38.0101 75.4899 38.0101L60.9299 37.9901C60.4499 37.9901 60.2199 37.7501 60.2399 37.2701C60.2899 36.0901 59.9799 34.6601 60.7799 33.7001C63.7199 30.1601 66.6333 26.6835 69.5199 23.2701C69.8866 22.8368 69.7866 22.6201 69.2199 22.6201Z" fill="#C5FF4A"/>
<path d="M133.24 19.0801H129.54C129.374 19.0801 129.24 19.2144 129.24 19.3801V37.7401C129.24 37.9058 129.374 38.0401 129.54 38.0401H133.24C133.406 38.0401 133.54 37.9058 133.54 37.7401V19.3801C133.54 19.2144 133.406 19.0801 133.24 19.0801Z" fill="#C5FF4A"/>
<path d="M103.522 32.684L101.323 32.7378C100.407 32.7602 99.6817 33.5213 99.7041 34.4378L99.7574 36.6172C99.7798 37.5337 100.541 38.2585 101.457 38.2361L103.657 38.1824C104.573 38.16 105.298 37.3988 105.276 36.4823L105.222 34.303C105.2 33.3864 104.439 32.6616 103.522 32.684Z" fill="#C5FF4A"/>
</svg>
