<svg width="181" height="51" viewBox="0 0 181 51" fill="none" xmlns="http://www.w3.org/2000/svg">
<g clip-path="url(#clip0_5601_15385)">
<g clip-path="url(#clip1_5601_15385)">
<mask id="mask0_5601_15385" style="mask-type:luminance" maskUnits="userSpaceOnUse" x="0" y="1" width="181" height="49">
<path d="M181 1H0V49.0344H181V1Z" fill="white"/>
</mask>
<g mask="url(#mask0_5601_15385)">
<path d="M46.5609 1.01034L32.1314 32.267L21.9062 10.1192H1.86296V13.1875H16.56L15.8932 14.6278L-0.00561523 49.0684H19.9418V46.0002H4.79358L19.9418 13.1875L20.6085 14.6278L30.5903 36.2569H19.9458V39.3251H46.5649V36.2569H33.6726L46.5649 8.33175L63.9532 46.0002H58.3113V49.0684H68.7481L46.5609 1.00635V1.01034Z" fill="#C5FF4A"/>
<path d="M105.806 31.9416V35.1095H88.644V32.6068L100.492 18.1613H88.8342V14.9934H105.441V17.4961L93.5926 31.9416H105.806Z" fill="#C5FF4A"/>
<path d="M130.549 26.6829L127.361 29.9617V35.1095H123.617V14.9934H127.361V25.3049L137.306 14.9934H141.509L133.054 23.9902L142.032 35.1095H137.655L130.549 26.6829Z" fill="#C5FF4A"/>
<path d="M177.466 35.1095L177.434 21.7727L170.82 32.8127H169.155L162.54 21.9469V35.1095H158.972V14.9934H162.049L170.043 28.3302L177.894 14.9934H180.987L181.003 35.1095H177.466Z" fill="#C5FF4A"/>
</g>
</g>
</g>
<defs>
<clipPath id="clip0_5601_15385">
<rect width="181" height="51" fill="white"/>
</clipPath>
<clipPath id="clip1_5601_15385">
<rect width="181" height="48.0344" fill="white" transform="translate(0 1)"/>
</clipPath>
</defs>
</svg>
