<svg width="254" height="254" viewBox="0 0 254 254" fill="none" xmlns="http://www.w3.org/2000/svg">
<path id="Union" fill-rule="evenodd" clip-rule="evenodd" d="M102 10.1665C102 4.9198 97.7466 0.666504 92.4999 0.666504H10.1665C4.9198 0.666504 0.666504 4.9198 0.666504 10.1665V92.4999C0.666504 97.7466 4.9198 102 10.1665 102H35.4998C40.7465 102 44.9998 106.253 44.9998 111.5L44.9998 143.167C44.9998 148.413 40.7465 152.667 35.4998 152.667H10.1665C4.9198 152.667 0.666504 156.92 0.666504 162.167V244.5C0.666504 249.747 4.9198 254 10.1665 254H92.4999C97.7466 254 102 249.747 102 244.5V219.167C102 213.92 106.253 209.667 111.5 209.667H143.167C148.413 209.667 152.667 213.92 152.667 219.167V244.5C152.667 249.747 156.92 254 162.167 254H244.5C249.747 254 254 249.747 254 244.5V162.167C254 156.92 249.747 152.667 244.5 152.667H219.167C213.92 152.667 209.667 148.413 209.667 143.167V111.5C209.667 106.253 213.92 102 219.167 102H244.5C249.747 102 254 97.7466 254 92.4999V10.1665C254 4.9198 249.747 0.666504 244.5 0.666504H162.167C156.92 0.666504 152.667 4.9198 152.667 10.1665V35.4998C152.667 40.7465 148.413 44.9998 143.167 44.9998H111.5C106.253 44.9998 102 40.7465 102 35.4998V10.1665ZM187.5 152.667C192.747 152.667 197 148.413 197 143.167V111.5C197 106.253 192.747 102 187.5 102H162.167C156.92 102 152.667 97.7466 152.667 92.4999V67.1665C152.667 61.9198 148.413 57.6665 143.167 57.6665H111.5C106.253 57.6665 102 61.9198 102 67.1665V92.4999C102 97.7466 97.7466 102 92.4999 102H67.1665C61.9198 102 57.6665 106.253 57.6665 111.5L57.6665 143.167C57.6665 148.413 61.9198 152.667 67.1665 152.667H92.4999C97.7466 152.667 102 156.92 102 162.167V187.5C102 192.747 106.253 197 111.5 197H143.167C148.413 197 152.667 192.747 152.667 187.5V162.167C152.667 156.92 156.92 152.667 162.167 152.667H187.5Z" fill="#C5FF4A"/>
</svg>
