<svg width="181" height="51" viewBox="0 0 181 51" fill="none" xmlns="http://www.w3.org/2000/svg">
<g clip-path="url(#clip0_5601_15432)">
<path fill-rule="evenodd" clip-rule="evenodd" d="M62.4432 25.9589L44.7306 8.16382V21.2031L27.1416 34.2506L44.7306 34.2588V43.7621L62.4432 25.9589Z" fill="#C5FF4A"/>
<path fill-rule="evenodd" clip-rule="evenodd" d="M0 25.9588L17.7126 43.7621V30.8547L35.178 17.799L17.7209 17.7907V8.15552L0 25.9588Z" fill="#C5FF4A"/>
<path d="M89.717 36.4431H76.1255V32.5198L83.9062 23.7912H76.3233V19.9338H89.5769V23.6593L81.5654 32.5527H89.717V36.4431Z" fill="#C5FF4A"/>
<path d="M108.262 19.934L101.685 26.8822L108.394 36.4433H102.954L98.6104 30.1379L96.7724 32.0831V36.4433H92.3298V12.1533H96.7724V26.0827L102.451 19.9423H108.262V19.934Z" fill="#C5FF4A"/>
<path d="M127.582 18.3266L123.444 19.6042C123.288 18.7552 122.867 17.9805 122.175 17.2881C121.483 16.5958 120.469 16.2496 119.134 16.2496C118.046 16.2496 117.155 16.5546 116.463 17.1562C115.771 17.7414 115.425 18.442 115.425 19.2663C115.425 20.7169 116.282 21.6153 117.996 21.9532L121.301 22.5879C123.395 22.9918 125.019 23.8325 126.181 25.1018C127.343 26.3793 127.92 27.8794 127.92 29.6021C127.92 31.572 127.145 33.2946 125.579 34.7699C124.046 36.2206 121.969 36.9541 119.364 36.9541C117.872 36.9541 116.529 36.7316 115.326 36.2865C114.122 35.8414 113.158 35.248 112.424 34.5062C111.691 33.7479 111.114 32.9484 110.685 32.1242C110.281 31.2752 110.042 30.4016 109.952 29.5031L114.229 28.3657C114.337 29.6433 114.831 30.7065 115.697 31.5555C116.587 32.4044 117.823 32.833 119.406 32.833C120.609 32.833 121.54 32.561 122.208 32.0253C122.9 31.4895 123.246 30.7807 123.246 29.9153C123.246 29.2229 122.991 28.6295 122.48 28.1349C121.994 27.6239 121.285 27.2777 120.378 27.0964L117.073 26.4288C115.161 26.0249 113.644 25.2337 112.531 24.0468C111.419 22.8599 110.867 21.3845 110.867 19.6207C110.867 17.5189 111.666 15.7468 113.273 14.3209C114.897 12.8868 116.842 12.1697 119.117 12.1697C120.477 12.1697 121.689 12.3592 122.76 12.7384C123.832 13.1175 124.689 13.6368 125.332 14.2797C125.975 14.9061 126.477 15.5572 126.832 16.2249C127.17 16.8842 127.425 17.5848 127.582 18.3266Z" fill="#C5FF4A"/>
<path d="M135.395 42.9545H130.689L134.563 34.366L127.582 19.9338H132.56L136.937 29.5938L140.975 19.9338H145.715L135.395 42.9545Z" fill="#C5FF4A"/>
<path d="M151.847 26.9481V36.4432H147.405V19.9339H151.715V21.978C152.185 21.1702 152.853 20.5603 153.718 20.1317C154.584 19.7031 155.498 19.4971 156.455 19.4971C158.391 19.4971 159.859 20.1152 160.864 21.3433C161.886 22.5549 162.397 24.121 162.397 26.0414V36.4432H157.955V26.8162C157.955 25.8354 157.699 25.0359 157.188 24.4342C156.702 23.8325 155.944 23.5275 154.913 23.5275C153.982 23.5275 153.232 23.849 152.68 24.5001C152.127 25.1513 151.847 25.9672 151.847 26.9481Z" fill="#C5FF4A"/>
<path d="M173.285 23.5603C172.107 23.5603 171.118 23.9725 170.31 24.8049C169.51 25.6291 169.106 26.7583 169.106 28.1925C169.106 29.6266 169.51 30.7641 170.31 31.613C171.134 32.4373 172.131 32.8576 173.318 32.8576C174.365 32.8576 175.197 32.5856 175.824 32.0499C176.45 31.4894 176.871 30.83 177.093 30.0717L181 31.3822C180.596 32.9071 179.731 34.2093 178.395 35.3056C177.06 36.4018 175.371 36.9458 173.318 36.9458C170.87 36.9458 168.81 36.1215 167.136 34.4648C165.488 32.7834 164.664 30.6981 164.664 28.1925C164.664 25.6621 165.48 23.5768 167.104 21.9201C168.752 20.2634 170.78 19.4392 173.178 19.4392C175.272 19.4392 176.986 19.9832 178.321 21.0794C179.656 22.1509 180.514 23.4614 180.893 25.0027L176.92 26.3462C176.393 24.4835 175.181 23.5603 173.285 23.5603Z" fill="#C5FF4A"/>
</g>
<defs>
<clipPath id="clip0_5601_15432">
<rect width="181" height="35.689" fill="white" transform="translate(0 8.15552)"/>
</clipPath>
</defs>
</svg>
